<?xml version="1.0" standalone="no"?>
<!DOCTYPE svg PUBLIC "-//W3C//DTD SVG 1.1//EN" "http://www.w3.org/Graphics/SVG/1.1/DTD/svg11.dtd" >
<svg xmlns="http://www.w3.org/2000/svg" xmlns:xlink="http://www.w3.org/1999/xlink" version="1.1">
<metadata>
Created by FontForge 20170731 at Fri Oct 20 00:50:29 2023
 By Aleksey,,,
Copyright (c) 1994, 2001 Adobe Systems Incorporated.  All Rights Reserved.
</metadata>
<defs>
<font id="NuevaStd-Bold" horiz-adv-x="747" >
  <font-face 
    font-family="Nueva Std"
    font-weight="700"
    font-stretch="normal"
    units-per-em="2048"
    panose-1="0 0 8 0 0 0 0 0 0 0"
    ascent="1393"
    descent="-655"
    x-height="932"
    cap-height="1262"
    bbox="-276.1 -512 2214 1569"
    underline-thickness="61"
    underline-position="-265"
    unicode-range="U+0020-FB02"
  />
<missing-glyph horiz-adv-x="1024" 
d="M0 0v1434h1024v-1434h-1024zM512 809l348 522h-696zM573 717l349 -522v1044zM164 102h696l-348 523zM102 1239v-1044l349 522z" />
    <glyph glyph-name="fi" unicode="fi" horiz-adv-x="1339" 
d="M887 858l-408 -16q-8 -266 -8 -385q0 -22 -1 -118t-1.5 -160.5t0.5 -108.5q0 -22 23 -25l159 -22q4 0 7.5 -7.5t3.5 -15.5q0 -4 -7 -4q-246 4 -313 4q-152 0 -266 -4q-4 0 -4 4q0 6 2.5 15.5t5.5 9.5l113 18q18 3 18 27q0 15 -16 407q-11 226 -11 361l-159 -4q-9 0 -9 8
q0 6 11 39q7 30 36 30h119q23 220 176 350t424 130q114 0 187 -25q12 -4 12 -18l14 -238q0 -6 -11 -12t-19 -6q-2 0 -7 8q-13 23 -49 89.5t-57 102.5q-8 14 -31 37q-28 21 -78 21q-112 0 -186 -111t-78 -328l707 -6q18 0 18 -14q-1 -36 -7 -203t-7 -221q-8 -360 -8 -397
q0 -13 4.5 -18.5t15.5 -8.5l103 -20q3 0 6.5 -9t3.5 -14q0 -4 -4 -4q-98 4 -256 4q-168 0 -250 -4q-6 0 -6 4q0 20 10 23l96 22q23 7 23 27t-1.5 92.5t-3.5 169t-3 129.5q-5 227 -11 364q-1 11 -2.5 16.5t-6 10t-13.5 4.5z" />
    <glyph glyph-name="fl" unicode="fl" horiz-adv-x="1323" 
d="M182 842l-159 -8q-9 0 -9 8q0 10 9 37q10 32 38 32h121q9 99 57 185.5t128 152.5t200 104t264 38q223 0 347 -39q16 -6 16 -27q0 -10 -3.5 -114t-8 -252t-6.5 -252q-11 -404 -11 -637q0 -21 21 -27l106 -18q4 0 8.5 -8.5t4.5 -16.5q0 -4 -7 -4q-106 4 -270 4
q-158 0 -244 -4q-6 0 -6 4q0 7 3.5 15.5t9.5 9.5l100 18q22 6 22 25q3 38 -3 379t-9 417l-424 -22q-10 -222 -10 -385q0 -336 2 -387q0 -22 23 -25l163 -22q4 0 8.5 -7.5t4.5 -15.5q0 -4 -6 -4q-246 4 -320 4q-148 0 -266 -4q-4 0 -4 4q0 6 2.5 15.5t5.5 9.5l113 18
q18 3 18 27q0 34 -3.5 112t-8.5 170t-6 125q-11 226 -11 365zM477 911l424 -4q-2 56 -4 142.5t-3.5 148t-2.5 82.5q0 25 -12 37q-28 31 -99 31q-122 0 -209.5 -115.5t-93.5 -321.5z" />
    <glyph glyph-name=".notdef" horiz-adv-x="1024" 
d="M0 0v1434h1024v-1434h-1024zM512 809l348 522h-696zM573 717l349 -522v1044zM164 102h696l-348 523zM102 1239v-1044l349 522z" />
    <glyph glyph-name=".null" horiz-adv-x="0" 
 />
    <glyph glyph-name="nonmarkingreturn" horiz-adv-x="682" 
 />
    <glyph glyph-name="space" unicode=" " horiz-adv-x="397" 
 />
    <glyph glyph-name="exclam" unicode="!" horiz-adv-x="401" 
d="M180 326h-2q-6 0 -6 6q-77 685 -86 829q-2 40 18 65.5t80 37.5q94 16 125 16q13 0 13 -12q-3 -60 -21 -211t-44 -366.5t-40 -346.5q-1 -6 -15 -12t-22 -6zM199 193h2q44 0 74 -32t30 -75q0 -40 -30 -70t-78 -30q-42 0 -73.5 28t-31.5 70t30 75.5t77 33.5z" />
    <glyph glyph-name="quotedbl" unicode="&#x22;" horiz-adv-x="432" 
d="M119 997h-2q-33 0 -33 13q-32 257 -37 342q0 23 35 26q58 4 82 4q12 0 12 -12q-1 -14 -10 -75.5t-22.5 -152.5t-20.5 -141q0 -4 -4 -4zM328 997h-2q-30 0 -33 13q-32 257 -37 342q0 23 35 26q58 4 84 4q10 0 10 -12q-3 -49 -53 -369q0 -4 -4 -4z" />
    <glyph glyph-name="numbersign" unicode="#" horiz-adv-x="802" 
d="M63 707h146q5 26 16.5 81t14.5 70q-68 0 -146 -4q-8 0 -8 8q0 20 9.5 51t21.5 31q13 0 62.5 -1t78.5 -1q6 28 18.5 84t22.5 104t18 87q2 6 13 6q30 0 63 -15.5t29 -36.5q-44 -148 -64 -231q40 0 146 -4q39 195 59 281q0 6 10 6q31 0 64.5 -14t28.5 -35q-4 -15 -28.5 -105
t-35.5 -133q41 -2 139 -2q7 0 7 -6q0 -21 -7.5 -38.5t-15.5 -17.5q-25 -1 -78 -3.5t-65 -2.5q-4 -13 -14 -48t-18.5 -64t-12.5 -49h153q4 0 4 -5q0 -16 -6.5 -36.5t-13.5 -20.5q-46 -4 -158 -8q-15 -48 -45.5 -155t-42.5 -146q-2 -8 -8 -8q-14 0 -29 8t-12 18q7 36 27.5 136
t29.5 145q-29 -1 -90.5 -4t-77.5 -4q-24 -95 -82 -281q-1 -8 -22 -15t-35 -7q-7 0 -4 8q39 173 63 293q-17 0 -59 -2.5t-55 -2.5q-7 0 -12 26.5t-5 53.5q0 9 6 9zM487 864l-151 -2q-5 -19 -21.5 -77.5t-21.5 -77.5q12 0 70 -1t90 -1q24 105 34 159z" />
    <glyph glyph-name="dollar" unicode="$" horiz-adv-x="927" 
d="M449 115l-3 -211q0 -4 -4 -4q-11 0 -31 2.5t-20 5.5l2 203q-27 -2 -86 -2q-139 0 -186 16q-15 8 -17 16l-24 221q0 5 9 12t15 7q4 0 7 -6q67 -120 100 -166q10 -20 37 -37q48 -25 114 -25q116 0 188.5 45t72.5 119q0 71 -57.5 116.5t-190.5 90.5q-148 48 -218.5 109.5
t-70.5 160.5q0 109 106.5 199.5t274.5 116.5l4 205q0 5 20.5 8.5t30.5 3.5q6 0 6 -4l-4 -209q54 4 74 4q117 0 166 -22q12 -6 12 -15l21 -213q0 -3 -9.5 -9.5t-13.5 -6.5t-8 4q-51 93 -96 166q-13 24 -37 37q-38 18 -88 18q-94 0 -164 -48.5t-70 -121.5q0 -58 55.5 -104.5
t172.5 -94.5q143 -48 223 -111.5t80 -156.5q1 -127 -103.5 -211.5t-289.5 -107.5z" />
    <glyph glyph-name="percent" unicode="%" horiz-adv-x="1517" 
d="M53 907v2q0 147 102.5 231.5t260.5 84.5q84 0 139 -19q45 -3 147.5 -5t236.5 4t185 24q2 1 4.5 -3t5 -11t4.5 -15t3.5 -17t1.5 -16q0 -8 -4 -20q-73 -125 -298.5 -524t-363.5 -629q-3 -6 -10 -6q-57 0 -58 10q0 1 1 2q380 755 571 1147q-58 -2 -177.5 4.5t-180.5 15.5
q108 -81 108 -206q0 -140 -106 -228t-263 -88q-136 0 -222.5 68.5t-86.5 193.5zM379 680h2q72 0 122 72.5t50 199.5q0 103 -40.5 170.5t-104.5 67.5q-80 0 -130.5 -70t-50.5 -202q0 -105 43 -171.5t109 -66.5zM1096 -16h-2q-134 0 -221 68.5t-87 191.5q0 144 103.5 231.5
t261.5 87.5q141 0 227 -75t86 -195q0 -143 -104.5 -226t-263.5 -83zM1112 18h2q73 0 122.5 70.5t49.5 198.5q0 104 -39 172.5t-104 68.5q-81 0 -131.5 -71t-50.5 -203q0 -105 43 -170.5t108 -65.5z" />
    <glyph glyph-name="ampersand" unicode="&#x26;" horiz-adv-x="1406" 
d="M987 664l373 22q6 0 6 -6q0 -22 -6 -25l-76 -22q-9 -2 -14 -5.5t-10.5 -13.5t-8.5 -26q-18 -82 -64 -173t-95 -147q173 -187 237 -276q11 -9 -6 -16q-9 -3 -23 -3q-92 0 -110 15q-28 21 -106.5 82.5t-98.5 76.5q-92 -80 -199 -121.5t-262 -41.5q-102 0 -185.5 17.5
t-146.5 52t-98 90.5t-35 130q0 118 83 203.5t202 124.5q10 2 27 8t24 8v5q-8 6 -28 22q-39 31 -67.5 59t-57.5 65.5t-44.5 81t-15.5 91.5q0 133 124 218t306 85q163 0 269 -67t106 -187q0 -94 -83.5 -169.5t-201.5 -114.5q-4 -1 -40 -13v-8q109 -93 222.5 -201.5
t168.5 -173.5q27 56 40 135.5t7 139.5q-3 26 -7 33.5t-14 7.5l-88 6q-10 0 -10 24q0 7 6 7zM608 1210h-2q-70 0 -113.5 -53.5t-43.5 -150.5q0 -77 42 -141t127 -140q59 33 94.5 105t35.5 155q0 104 -37.5 164.5t-102.5 60.5zM348 340v-2q0 -123 92 -194.5t222 -71.5
q80 0 157.5 31.5t120.5 76.5q-337 281 -500 406q-92 -89 -92 -246z" />
    <glyph glyph-name="quotesingle" unicode="'" horiz-adv-x="227" 
d="M121 997h-2q-33 0 -33 13q-36 289 -39 342q0 23 35 26q58 4 88 4q10 0 10 -12q-2 -24 -55 -369q0 -4 -4 -4z" />
    <glyph glyph-name="parenleft" unicode="(" horiz-adv-x="526" 
d="M61 612v2q0 319 127.5 557.5t329.5 337.5q3 2 14.5 -2t14.5 -8q3 -3 -2 -8q-132 -102 -215.5 -347t-83.5 -536q0 -300 59.5 -512.5t190.5 -367.5q4 -4 0 -7q-4 -5 -13 -8t-12 -2q-81 58 -150 138t-129.5 189.5t-95.5 257.5t-35 316z" />
    <glyph glyph-name="parenright" unicode=")" horiz-adv-x="526" 
d="M455 641v-2q0 -168 -37.5 -320.5t-102 -267.5t-140.5 -200.5t-163 -143.5q-3 -3 -11 0t-13 8q-3 3 0 9q282 305 282 909q0 299 -70 526.5t-198 325.5q-5 5 -2 10q3 4 15.5 8t17.5 2q195 -94 308.5 -320.5t113.5 -543.5z" />
    <glyph glyph-name="asterisk" unicode="*" horiz-adv-x="468" 
d="M236 958h-3q-20 0 -20 5q-3 30 -7 86.5t-7 85.5q-27 -12 -73.5 -34.5t-57.5 -27.5q-3 -2 -9.5 3.5t-9.5 15.5q-13 17 -2 24q16 12 54 39t61 45q-23 17 -63.5 44t-53.5 36q-8 4 4 29q4 13 11 18t12 2q107 -52 123 -59q3 97 8 162q0 8 30 8q33 0 33 -8q0 -6 2 -67.5
t4 -96.5q47 20 127 59q10 3 23 -20q9 -24 2 -31q-13 -9 -53 -34.5t-66 -43.5q10 -7 49.5 -36.5t65.5 -49.5q2 -1 1 -8t-5 -12q-1 -2 -3 -4.5t-3.5 -4t-3 -3.5t-2.5 -3.5t-2.5 -2.5t-2.5 -1h-2q-16 8 -41 21.5t-45.5 24t-38.5 18.5q-13 -133 -20 -174q0 -5 -16 -5z" />
    <glyph glyph-name="plus" unicode="+" 
d="M68 635v2q0 8 8 8q38 -1 120.5 -6.5t118.5 -7.5q-3 47 -11 154.5t-9 140.5q0 10 14 10q123 0 123 -27q-2 -59 -16 -284q230 -11 258 -13q6 0 6 -6q0 -45 -12 -45q-47 -7 -254 -20q-3 -56 -11 -183.5t-10 -171.5q0 -8 -8 -8q-18 0 -30.5 6t-12.5 13q-11 107 -25 340
q-44 -2 -123 -8.5t-98 -6.5q-14 0 -21 36.5t-7 76.5z" />
    <glyph glyph-name="comma" unicode="," horiz-adv-x="378" 
d="M272 162v-2q0 -70 -56.5 -200t-121.5 -193q-2 -1 -3.5 -2t-2.5 -2t-2 -1q-4 0 -14 10t-9 15q37 121 43 307q0 24 35 37q110 39 125 39q6 0 6 -8z" />
    <glyph glyph-name="hyphen" unicode="-" horiz-adv-x="540" 
d="M479 631v-2q0 -17 -6 -34t-16 -17q-23 -2 -109 -10.5t-159.5 -15t-120.5 -9.5q-7 0 -7 10q0 28 7 60t18 32q278 -8 387 -8q6 0 6 -6z" />
    <glyph glyph-name="period" unicode="." horiz-adv-x="378" 
d="M190 203h3q46 0 76 -33.5t30 -79.5q0 -42 -31 -73t-80 -31q-47 0 -77.5 28.5t-30.5 75.5q0 44 30 78.5t80 34.5z" />
    <glyph glyph-name="slash" unicode="/" horiz-adv-x="571" 
d="M8 -23h-2q-4 0 -6.5 4t0.5 9q186 531 434 1290q3 12 10 12q46 0 84 -31.5t25 -62.5q-362 -910 -487 -1204q-3 -7 -22.5 -12t-35.5 -5z" />
    <glyph glyph-name="zero" unicode="0" horiz-adv-x="1122" 
d="M537 -16h-2q-197 0 -324 151t-127 418q0 307 139 489.5t371 182.5q111 0 198 -44.5t140 -122.5t80.5 -178.5t27.5 -217.5q0 -211 -53 -360.5t-166.5 -233.5t-283.5 -84zM381 569v-4q0 -256 51 -400.5t143 -144.5q90 0 130 147t40 474q0 254 -44.5 399.5t-133.5 145.5
q-97 0 -141.5 -153t-44.5 -464z" />
    <glyph glyph-name="one" unicode="1" horiz-adv-x="684" 
d="M180 1028l-139 -27q-6 -1 -13 6.5t-10 16.5q-4 7 2 10l453 185q4 2 10 2q7 0 12 -5.5t5 -13.5q0 -2 -9.5 -292t-9.5 -359q-1 -75 -3 -191.5t-3.5 -199.5t-1.5 -92q0 -17 34 -26q2 -1 3 -1l111 -14q4 -1 8 -10t4 -15t-6 -6q-126 4 -279 4q-184 0 -278 -4q-4 0 -4 6
q0 22 12 25l119 16q26 4 26 23q4 110 -6 466q-8 419 -12 472q-1 12 -8.5 19t-16.5 5z" />
    <glyph glyph-name="two" unicode="2" horiz-adv-x="935" 
d="M233 61l3 -4q13 0 42 1t46 1q5 0 46 3t79 6t87 8t95 11.5t80 14.5q30 8 49 39l78 129q3 6 8 6q7 0 16.5 -7.5t7.5 -12.5l-39 -236q-5 -24 -26 -24q-7 0 -147.5 2t-286.5 2q-88 0 -183 -2t-110 -2q-42 0 -55 39q-13 30 -13 41q0 6 6 12q73 63 122 108t115 111t109.5 124
t84.5 126.5t61 140.5t20 144q0 131 -61 201.5t-158 70.5q-138 0 -241 -127q-2 -4 -7 -4q-6 0 -12.5 19t0.5 28q51 81 159.5 138t240.5 57q170 0 277.5 -99t107.5 -270q0 -93 -37.5 -190t-91.5 -174t-129.5 -154.5t-136 -128t-126.5 -98.5q-4 -3 -19 -12.5t-30.5 -19.5
t-30.5 -18z" />
    <glyph glyph-name="three" unicode="3" horiz-adv-x="929" 
d="M485 655v-8q3 0 66 -10q142 -21 219.5 -102.5t77.5 -186.5q0 -92 -42.5 -163t-117 -114t-168.5 -65t-203 -22q-92 0 -173 21t-128 56q-7 5 -7 17t4 21.5t7 9.5q1 0 7 -3q79 -51 231 -51q128 0 212.5 71.5t84.5 195.5q0 55 -19.5 102.5t-60.5 88.5t-114 65.5t-171 25.5
q-15 0 -18 31q0 8 10 8q173 10 253.5 87t80.5 200q0 89 -54.5 144.5t-144.5 55.5q-69 0 -139 -38t-110 -91q-4 -4 -9 -4q-7 0 -14.5 19t-1.5 26q49 74 154 128.5t247 54.5q169 0 264 -77.5t95 -203.5q0 -100 -77 -172t-191 -104q-43 -12 -50 -13z" />
    <glyph glyph-name="four" unicode="4" horiz-adv-x="1110" 
d="M1083 348v-2q0 -28 -16 -31q-21 -2 -60.5 -4t-82.5 -3.5t-54 -2.5q-4 -76 -8 -237q0 -20 23 -27l82 -14q10 -3 10 -27q0 -4 -6 -4q-172 4 -221 4q-158 0 -252 -4q-4 0 -4 6t4 15t8 10l102 16q23 3 23 25q0 115 -4 229q-35 0 -235 -1t-286 -1q-21 0 -36.5 12.5t-30.5 40.5
q-16 37 -16 45q0 9 6 15q201 278 542 753q22 31 44 41t59 10q103 0 205 -18q14 -3 14 -12q0 -72 -10.5 -439t-10.5 -372q136 -12 207 -15q4 0 4 -8zM236 438l4 -8q14 -3 37.5 -6.5t31.5 -5.5q258 -29 316 -31q0 35 -2 294.5t-2 272.5q0 48 4 174h-9q-10 -20 -28.5 -52
t-24.5 -44q-48 -91 -101 -189t-104.5 -192t-68.5 -125q-4 -7 -24 -39t-29 -49z" />
    <glyph glyph-name="five" unicode="5" horiz-adv-x="962" 
d="M326 -16h-2q-89 0 -165.5 19.5t-117.5 57.5q-7 7 -6.5 16.5t4.5 18t6 8.5q4 0 6 -2q90 -51 234 -51q135 0 228 72.5t93 198.5q0 137 -120.5 214.5t-379.5 71.5q-16 0 -12 19q4 55 32.5 309t29.5 260q0 12 18 12q48 0 146.5 -3.5t140.5 -4.5q258 -6 377 -6q4 0 4 -4
q0 -11 -5.5 -27.5t-11.5 -17.5q-105 -12 -297 -42.5t-260 -49.5q-22 -9 -30 -29q-41 -99 -74 -240q339 17 524.5 -85.5t185.5 -311.5q0 -126 -76 -219t-198.5 -138.5t-273.5 -45.5z" />
    <glyph glyph-name="six" unicode="6" horiz-adv-x="1097" 
d="M365 561l8 -4q18 52 30 70q41 74 110.5 116.5t162.5 42.5q161 0 255.5 -104t94.5 -266q0 -186 -132.5 -309t-344.5 -123q-97 0 -179 27.5t-147 82.5t-102 147.5t-37 213.5q0 168 59.5 311.5t163.5 253.5q97 100 220 161t247 81q10 1 20.5 -5.5t10.5 -11.5t-10 -8
q-193 -78 -306 -268q-91 -157 -114 -328q-9 -63 -10 -80zM569 20h2q166 0 166 367q0 139 -39.5 227t-113.5 88q-69 0 -122.5 -67.5t-76.5 -183.5q-8 -24 -8 -54q0 -168 52.5 -272.5t139.5 -104.5z" />
    <glyph glyph-name="seven" unicode="7" horiz-adv-x="948" 
d="M618 1096v6q-11 1 -33 6t-30 6q-61 15 -168 30t-149 15q-28 0 -43 -26l-129 -244q0 -6 -7 -6q-8 0 -17 6t-9 12l35 295q3 14 14 14q2 0 126 -1t220 -1q99 0 259 2t177 2q12 0 15 -8q45 -70 45 -108q0 -28 -17 -58q-58 -109 -253.5 -490.5t-282.5 -541.5q-14 -24 -41 -24
q-23 0 -45.5 3.5t-37 10.5t-11.5 16q92 266 354 1002q18 56 28 82z" />
    <glyph glyph-name="eight" unicode="8" horiz-adv-x="1103" 
d="M707 645v-6q8 -2 25 -5t18 -3q132 -28 212 -105t80 -200q0 -148 -135 -245t-372 -97q-139 0 -245.5 32t-170.5 101t-64 168q0 114 75.5 197t195.5 118q8 2 27.5 7.5t29.5 8.5v7q-8 3 -41 14q-95 26 -163 96t-68 172q0 91 63 164.5t169.5 114.5t234.5 41
q188 0 296.5 -78.5t108.5 -204.5q0 -104 -67.5 -180t-170.5 -107q-1 0 -14 -4t-24 -6zM555 651h2q41 0 73.5 24.5t51 65t28 88t9.5 97.5q0 119 -41.5 189.5t-124.5 70.5q-82 0 -128 -72.5t-46 -185.5q0 -122 49.5 -199.5t126.5 -77.5zM557 23h2q94 0 149.5 74t55.5 194
q0 137 -60.5 224t-158.5 87q-93 0 -150 -85t-57 -224q0 -129 60 -199.5t159 -70.5z" />
    <glyph glyph-name="nine" unicode="9" horiz-adv-x="1085" 
d="M723 647l-8 4q-5 -20 -27 -71q-37 -69 -104.5 -108.5t-159.5 -39.5q-156 0 -254 101t-98 262q0 183 130 306.5t341 123.5q96 0 178 -31t145 -90.5t99 -155t36 -217.5q0 -166 -57 -307.5t-160 -241.5q-201 -196 -487 -217q-10 -1 -21.5 7t-11.5 14q0 4 8 8q99 29 185 94
t143 152q91 144 115 327q6 40 8 80zM526 1188h-2q-86 0 -130 -98t-44 -263q0 -143 40.5 -229t119.5 -86q69 0 120.5 59.5t74.5 167.5q6 27 6 66q0 163 -49 273t-136 110z" />
    <glyph glyph-name="colon" unicode=":" horiz-adv-x="378" 
d="M190 764h3q46 0 76 -33.5t30 -77.5q0 -43 -31 -74.5t-80 -31.5q-46 0 -77 29.5t-31 74.5q0 44 30 78.5t80 34.5zM190 203h3q46 0 76 -33.5t30 -79.5q0 -43 -31 -73.5t-80 -30.5q-47 0 -77.5 28.5t-30.5 75.5q0 44 30 78.5t80 34.5z" />
    <glyph glyph-name="semicolon" unicode=";" horiz-adv-x="378" 
d="M190 764h3q46 0 76 -33.5t30 -77.5q0 -43 -30.5 -74.5t-80.5 -31.5q-45 0 -76.5 29.5t-31.5 74.5q0 44 30 78.5t80 34.5zM270 162v-2q0 -69 -57.5 -199.5t-122.5 -193.5q-5 -5 -8 -5q-4 0 -13 10t-8 15q37 121 43 307q0 24 35 37q120 39 125 39q6 0 6 -8z" />
    <glyph glyph-name="less" unicode="&#x3c;" 
d="M139 514v2q0 11 8 19q45 42 195 174.5t180 160.5q5 3 8 0q22 -25 13 -36q-168 -219 -232 -308q149 -187 242 -293q9 -10 -8 -34q-4 -4 -8 0q-30 23 -189 143.5t-203 155.5q-6 6 -6 16z" />
    <glyph glyph-name="equal" unicode="=" 
d="M672 698v-2q0 -13 -4.5 -29t-8.5 -16q-292 -23 -553 -37q-15 0 -22.5 35t-7.5 74q0 10 8 10q275 -16 582 -28q6 0 6 -7zM672 475v-2q0 -14 -5.5 -29.5t-13.5 -15.5q-259 -22 -544 -37q-29 0 -29 111q0 8 8 8q24 -1 273.5 -13.5t304.5 -15.5q6 0 6 -6z" />
    <glyph glyph-name="greater" unicode="&#x3e;" 
d="M606 551v-2q0 -9 -8 -17q-47 -45 -207 -185.5t-170 -149.5q-4 -4 -8 0q-21 21 -10 36q76 92 231 308q-138 173 -239 293q-9 12 10 34q4 4 8 0q39 -32 195 -151t192 -148q6 -9 6 -18z" />
    <glyph glyph-name="question" unicode="?" horiz-adv-x="827" 
d="M768 969v-2q0 -146 -110.5 -259t-299.5 -182q-22 -10 -22 -41q-3 -65 14 -170q1 -7 -7.5 -14.5t-12.5 -7.5q-2 0 -6 4q-22 33 -50.5 92.5t-35.5 97.5q-8 37 20 60q121 92 175 185t54 208q0 96 -59.5 162.5t-157.5 66.5q-134 0 -223 -116q-1 -1 -2 -2.5t-2 -2.5t-2 -1
q-5 0 -12 11.5t-4 18.5q39 77 143.5 139t232.5 62q96 0 169 -26.5t115 -71.5t62.5 -98t20.5 -113zM346 193h2q44 0 74.5 -33t30.5 -74t-30.5 -70.5t-78.5 -29.5q-42 0 -73 28t-31 70t29.5 75.5t76.5 33.5z" />
    <glyph glyph-name="at" unicode="@" horiz-adv-x="1226" 
d="M780 860l21 55q3 5 8 5q18 0 39.5 -4.5t38.5 -15t16 -23.5q0 -5 -8 -105.5t-10 -146.5q-6 -147 -6 -164q0 -53 34 -53q55 2 101.5 90.5t46.5 228.5q0 69 -10.5 134t-37.5 130.5t-68 114t-106.5 78.5t-148.5 30q-147 0 -264.5 -96.5t-180.5 -255t-63 -346.5
q0 -101 24 -182.5t62.5 -132.5t89 -85t100.5 -47.5t101 -13.5q143 0 242 74q5 5 8 -8l2 -15q0 -14 -10 -24q-96 -86 -285 -86q-63 0 -121.5 16t-115.5 53.5t-99 94.5t-68 145.5t-26 198.5q0 166 53.5 311t142.5 243t204 154t237 56q198 0 310 -142t112 -383
q0 -184 -96 -300.5t-242 -116.5q-32 0 -51 18.5t-19 52.5q0 5 13 138q0 2 4 23t6 32l-6 4q0 -1 -6 -29q-40 -110 -105 -173.5t-151 -63.5q-81 0 -120.5 54t-39.5 148q0 63 20 130.5t56.5 127t95 98t127.5 38.5q50 0 78.5 -12t56.5 -38q7 -10 14 -14zM643 883h-2
q-42 0 -76 -50t-51.5 -122t-17.5 -144q0 -153 71 -153q36 0 69.5 33t57.5 84t39.5 100t24.5 92q2 8 2 33q0 22 -4 30q-13 29 -23.5 46t-34.5 34t-55 17z" />
    <glyph glyph-name="A" unicode="A" horiz-adv-x="1228" 
d="M594 1266h2q82 0 172 -4q12 0 16 -9q275 -921 359 -1179q7 -21 26 -27l76 -20q10 -3 10 -27q0 -4 -6 -4q-14 0 -99.5 2t-143.5 2q-171 0 -281 -4q-6 0 -6 4q0 25 12 29l111 18q22 3 14 33q-11 31 -60 164t-61 170q-296 -6 -436 -17q-11 0 -14 -16q-2 -9 -29.5 -132
t-34.5 -167q-1 -17 4 -24.5t17 -10.5l106 -20q4 0 8 -9t4 -18q0 -4 -6 -4q-102 4 -215 4q-90 0 -172 -4q-4 0 -4 6t3 16t7 11l52 16q24 6 36 37q59 145 225 613.5t181 510.5q13 36 39 48t88 12zM498 1104h-13q-14 -44 -20 -70q-53 -177 -156 -549q-1 -6 2 -10t8 -4
q67 -9 199 -14.5t203 -3.5q-147 411 -197 579q-16 47 -26 72z" />
    <glyph glyph-name="B" unicode="B" horiz-adv-x="1200" 
d="M772 684v-8q24 -4 31 -4q145 -23 234 -112t89 -210q0 -354 -661 -354q-18 0 -94.5 2t-96.5 2q-75 0 -211 -4q-6 0 -6 4q0 24 13 27l92 18q22 6 22 33q1 49 -0.5 297.5t-1.5 253.5q0 342 -6 540q0 30 -22 33l-93 8q-14 3 -14 29q0 4 8 4q218 27 480 27q524 0 524 -291
q0 -99 -76.5 -176.5t-177.5 -108.5q-12 -3 -33 -10zM526 1233h-2q-21 0 -33 -10t-12 -25q-7 -98 -13.5 -287.5t-6.5 -236.5q11 -8 37 -8q107 0 185.5 76t78.5 208q0 131 -67 207t-167 76zM821 330v2q0 87 -48.5 156t-120 104t-148.5 35q-39 0 -47 -6q-3 -53 -8 -284t-5 -271
q0 -13 16.5 -21t39.5 -8q143 0 232 73.5t89 219.5z" />
    <glyph glyph-name="C" unicode="C" horiz-adv-x="1144" 
d="M86 545v2q0 187 68 331t176 234q206 166 489 166q155 0 225 -39q11 -5 11 -20l22 -287q1 -7 -9.5 -15t-18.5 -8q-5 0 -9 6q-104 228 -116 254q-13 26 -31 41q-27 27 -80 27q-60 0 -123 -32.5t-117 -92.5q-163 -193 -163 -541q0 -127 33 -225t88.5 -155.5t121 -86
t138.5 -28.5q60 0 118 12q71 12 178 55q3 1 5.5 -1.5t4 -8.5t1.5 -16q0 -9 -6 -15q-40 -21 -109.5 -50.5t-122.5 -45.5q-81 -22 -176 -22q-100 0 -187 18.5t-163.5 60.5t-130.5 106t-85.5 160t-31.5 216z" />
    <glyph glyph-name="D" unicode="D" horiz-adv-x="1347" 
d="M152 1204l-97 8q-4 0 -8 8.5t-4 16.5t6 8q80 10 232 19.5t276 9.5q342 0 525.5 -146t183.5 -432q0 -162 -56.5 -295t-155.5 -221t-235 -136t-295 -48q-32 0 -125.5 2t-115.5 2q-111 0 -217 -4q-7 0 -7 6q0 8 3.5 16.5t7.5 8.5l90 18q24 3 24 31q6 123 -4 561
q0 285 -8 537q0 28 -20 30zM535 33h2q57 0 111.5 18.5t110 66t96.5 119.5t67 189t26 264q0 249 -106 397t-299 148q-27 0 -36 -7.5t-11 -27.5q-10 -96 -22 -586.5t-9 -543.5q0 -17 19 -27t51 -10z" />
    <glyph glyph-name="E" unicode="E" horiz-adv-x="1085" 
d="M1042 258l-53 -258q-3 -10 -16 -10q-11 0 -164 6q-204 4 -492 4q-113 0 -249 -4q-7 0 -7 4q0 21 11 25l94 20q22 6 22 33q1 58 0.5 154t-1.5 240t-1 175q0 12 -4 251.5t-6 279.5q0 29 -20 36l-84 17q-3 0 -7 9.5t-4 19.5q0 4 5 4q25 0 71.5 -1t67.5 -1h114q128 0 238 0.5
t178.5 1.5t117 2t74.5 1.5t31 0.5q13 0 13 -13l14 -268q0 -4 -9.5 -10t-14.5 -6t-7 4q-61 132 -88 190q-13 23 -51 29q-60 12 -164.5 22.5t-134.5 10.5q-14 -1 -18 -6t-4 -17q-7 -93 -15 -280t-6 -238q83 -4 249 -8t175 -4q4 0 4 -4q0 -9 -6 -22t-10 -13q-39 -4 -187 -14
t-202 -15q-14 -2 -19.5 -6t-5.5 -16q-10 -340 -10 -514q0 -16 5 -21.5t17 -5.5q245 0 375 35q31 9 43 31q49 66 113 170q2 4 6 4q7 -2 15 -10.5t7 -14.5z" />
    <glyph glyph-name="F" unicode="F" horiz-adv-x="1042" 
d="M967 1255l18 -274q0 -5 -9.5 -11.5t-14.5 -6.5q-7 0 -9 6q-53 113 -96 194q-11 24 -43 29q-59 11 -165.5 22t-135.5 11q-23 0 -23 -23q-4 -81 -10 -288t-6 -257q306 -12 434 -12q4 0 4 -4q0 -32 -16 -35q-10 -1 -406 -28q-18 0 -18 -19q-8 -272 -8 -483q0 -26 24 -29
l140 -20q4 0 8 -8.5t4 -16.5q0 -6 -6 -6q-126 4 -291 4q-128 0 -264 -4q-6 0 -6 6q0 8 4 17t8 10l84 16q11 3 15 8.5t5 20.5q1 41 -2.5 288t-3.5 273q0 70 -3.5 287.5t-6.5 263.5q0 25 -18 28l-88 19q-9 3 -9 27q0 6 6 6q25 -1 72.5 -2t67.5 -2h102q188 0 341 2t228.5 4
t77.5 2q15 0 15 -15z" />
    <glyph glyph-name="G" unicode="G" horiz-adv-x="1290" 
d="M705 549h546q4 0 4 -4q0 -24 -10 -27l-78 -16q-17 -2 -20 -27q-8 -99 -19 -440q0 -16 -12 -19q-92 -32 -358 -32q-118 0 -217.5 19.5t-184.5 63t-144 109t-92.5 161.5t-33.5 216q0 179 65 318t175 229q207 178 532 178q160 0 240 -37q12 -5 12 -22l14 -265q0 -6 -9 -12
t-15 -6t-8 6q-55 114 -113 229q-10 20 -27 37q-39 31 -96 31q-78 0 -153.5 -37t-131.5 -106q-159 -207 -159 -523q0 -121 32 -225t86.5 -174.5t127.5 -110.5t153 -40q37 0 55 14q13 10 13 33q-9 320 -19 409q0 20 -20 23l-127 16q-6 0 -9.5 8.5t-3.5 16.5q0 6 5 6z" />
    <glyph glyph-name="H" unicode="H" horiz-adv-x="1425" 
d="M66 1262h534q4 0 4 -5q0 -30 -10 -30l-82 -17q-25 -6 -25 -28q-5 -84 -10.5 -256t-5.5 -211q1 -19 8.5 -24t24.5 -7q240 -10 452 -10q1 27 0 143t-2.5 231t-1.5 123q0 33 -22 39l-80 17q-12 3 -12 30q0 5 6 5h526q6 0 6 -7q0 -25 -10 -28l-78 -17q-17 -3 -20 -26
q-4 -59 -12.5 -272.5t-10.5 -288.5q-2 -56 -6.5 -291t-5.5 -254q0 -25 12 -31l103 -20q10 -5 10 -25q0 -6 -4 -6q-90 4 -252 4q-201 0 -271 -4q-6 0 -6 6t4.5 15t8.5 10l102 20q8 3 11.5 4.5t6.5 7.5t3 15q0 454 -5 561q-384 -16 -460 -21q-27 -3 -27 -26q-8 -218 -8 -518
q0 -22 24 -25l86 -18q6 -1 10.5 -9t4.5 -16q0 -6 -6 -6q-98 4 -258 4q-138 0 -248 -4q-6 0 -6 6q0 22 8 25l92 20q11 2 15.5 8t4.5 23q0 311 -6 545q0 43 -4 287t-4 264q0 31 -20 34l-84 19q-11 4 -11 28q0 7 7 7z" />
    <glyph glyph-name="I" unicode="I" horiz-adv-x="653" 
d="M66 1262h530q4 0 4 -9q0 -25 -10 -28l-80 -15q-21 -3 -21 -28q-8 -109 -18 -564q-8 -304 -8 -548q0 -19 22 -25l84 -18q6 -1 9.5 -9.5t3.5 -15.5q0 -6 -7 -6q-70 4 -260 4q-151 0 -245 -4q-4 0 -4 6q0 24 10 27l94 18q18 3 18 27q1 56 -6 567q-6 476 -10 528q0 35 -22 41
l-78 15q-11 4 -11 30q0 7 5 7z" />
    <glyph glyph-name="J" unicode="J" horiz-adv-x="985" 
d="M367 1262h579q6 0 6 -5q0 -27 -8 -30l-82 -19q-20 -6 -20 -32v-547q-5 -227 -39 -328q-39 -117 -129 -194t-199 -108.5t-239 -31.5q-110 0 -175 19q-11 4 -14 18l-39 279q-1 5 9.5 13.5t15.5 8.5q4 0 8 -4q100 -173 139 -225q20 -26 47 -41q35 -21 90 -21q105 0 158 69
t74 222q13 96 4 326q-16 412 -29 540q-3 35 -22 37l-129 19q-5 0 -9 9.5t-4 18.5q0 7 7 7z" />
    <glyph glyph-name="K" unicode="K" horiz-adv-x="1273" 
d="M68 1262h528q4 0 4 -7q0 -25 -10 -28l-86 -19q-21 -6 -23 -28q-18 -313 -18 -439q0 -32 -4 -90l6 -2q4 5 59 68q282 312 385 459q22 31 -4 38l-82 15q-12 0 -12 24q0 9 4 9h412q6 0 6 -7q0 -8 -4 -17.5t-8 -10.5l-47 -13q-45 -19 -56 -28q-90 -70 -440 -387
q-22 -22 -35 -43v-6q20 -23 41 -41q85 -81 182 -194.5t163.5 -199t174.5 -229.5q21 -31 49 -39l58 -18q14 -6 14 -25q0 -8 -6 -8q-90 4 -221 4q-158 0 -264 -4q-9 0 -9 8q0 20 13 23l92 18q14 3 16 12t-10 21q-79 80 -200.5 193.5t-211.5 189.5q-7 6 -16 15t-22.5 23
t-24.5 25l-6 -4v-100q-2 -109 -2 -350q0 -22 18 -25l94 -18q3 0 8 -8t5 -15q0 -8 -7 -8q-66 4 -270 4q-161 0 -231 -4q-4 0 -4 6q0 25 10 25l92 20q12 2 16 8t4 23q0 259 -8 579q0 57 -4 270.5t-6 243.5q-3 32 -23 37l-75 19q-11 4 -11 28q0 7 7 7z" />
    <glyph glyph-name="L" unicode="L" horiz-adv-x="1087" 
d="M70 1262h571q4 0 4 -5q0 -28 -10 -28l-111 -17q-13 -3 -18 -9t-6 -23q-4 -48 -8.5 -161.5t-9 -236.5t-5.5 -149q-1 -31 -4 -172l-5.5 -258.5t-2.5 -141.5q0 -22 27 -22q60 0 187 11t187 28q45 18 60 43l114 182q3 7 9 4q6 -1 14 -9t8 -13l-55 -277q-3 -10 -7.5 -14
t-17.5 -4q-19 0 -194 6q-230 4 -480 4q-57 0 -249 -4q-5 0 -5 6q0 8 3.5 16.5t7.5 8.5l92 18q22 3 22 31q1 40 -1.5 273.5t-2.5 254.5q0 450 -8 576q0 17 -4 23t-18 9l-80 19q-11 4 -11 24q0 7 7 7z" />
    <glyph glyph-name="M" unicode="M" horiz-adv-x="1744" 
d="M1247 1262h422q4 0 4 -7q0 -27 -12 -30l-72 -15q-25 -6 -28 -45q-1 -36 1.5 -274t2.5 -256q1 -48 4 -276t4 -277q2 -27 22 -33l80 -22q11 -4 11 -27q0 -4 -5 -4q-82 4 -227 4q-184 0 -270 -4q-6 0 -6 6q0 22 10 25l110 24q17 5 17 37q-1 73 -22.5 428.5t-24.5 437.5
q-4 46 -4 74h-15q-20 -54 -26 -70q-291 -728 -373 -913q-9 -20 -22.5 -27t-51.5 -10h-61q-15 0 -17 10q-195 432 -350 828q-2 5 -14 31.5t-15 37.5h-12q-1 -10 -2.5 -23.5t-3 -27.5t-2.5 -20q-48 -384 -84 -768q-3 -28 18 -31l123 -18q4 0 8.5 -9t4.5 -18q0 -4 -7 -4
q-78 4 -176 4q-81 0 -151 -4q-4 0 -4 6q0 7 4 16t8 9l80 18q22 3 22 31q1 51 9.5 277.5t9.5 264.5q1 26 5 159.5t7.5 253.5t3.5 143q-2 17 -7 24.5t-21 11.5l-84 17q-11 4 -11 28q0 7 9 7h432q10 0 14 -11q44 -108 174 -475.5t160 -445.5q23 -61 26 -68h13q7 16 16 44t10 30
q66 165 324 915q4 11 12 11z" />
    <glyph glyph-name="N" unicode="N" horiz-adv-x="1269" 
d="M29 1262h350q13 0 20 -11q48 -64 163 -239t250.5 -384t188.5 -288q17 -33 37 -66l9 7q0 17 -1.5 47.5t-1.5 44.5q-1 19 -4 164t-5.5 245.5t-7.5 221t-11 170.5q-3 32 -33 38l-113 17q-10 3 -10 26q0 7 4 7h396q6 0 6 -7q0 -22 -11 -26l-75 -17q-16 -3 -23 -13.5
t-10 -35.5q-15 -170 -29 -536q-3 -55 -18 -615q0 -10 -13 -16q-61 -16 -96 -16q-34 0 -53 24q-164 198 -623 813q-4 6 -15 23.5t-15 23.5l-11 -2q-2 -29 -2 -67q-24 -463 -28 -717q-2 -25 20 -31l131 -22q11 -4 11 -23q0 -6 -7 -6q-62 4 -184 4q-100 0 -170 -4q-4 0 -4 6
q0 23 10 23l105 22q22 3 22 31q0 31 -6.5 257t-7.5 279q-9 393 -19 555q-2 19 -8 28.5t-22 12.5l-82 17q-10 3 -10 28q0 7 6 7z" />
    <glyph glyph-name="O" unicode="O" horiz-adv-x="1374" 
d="M666 -16h-2q-274 0 -426 152.5t-152 438.5q0 205 76 363t224 249t349 91q265 0 411 -162.5t146 -427.5q0 -329 -161.5 -516.5t-464.5 -187.5zM702 23h3q262 0 262 630q0 114 -18 218.5t-52 187.5t-87.5 132.5t-119.5 49.5q-131 0 -206.5 -172t-75.5 -471
q0 -152 34.5 -281.5t102.5 -211.5t157 -82z" />
    <glyph glyph-name="P" unicode="P" horiz-adv-x="1134" 
d="M154 1200l-86 10q-4 0 -7.5 8.5t-3.5 16.5t4 8q270 27 529 27q257 0 379.5 -95t122.5 -260q0 -75 -38 -148.5t-106 -133.5t-174 -97.5t-231 -37.5q-70 0 -82 4q-8 -160 -8 -426q0 -22 24 -25l137 -24q5 0 10 -8.5t5 -16.5q0 -6 -6 -6q-164 4 -291 4q-144 0 -250 -4
q-6 0 -6 6q0 22 12 25l80 18q22 6 22 33q4 156 -4 571q0 196 -8 516q0 32 -24 35zM522 539h2q111 0 182.5 100.5t71.5 261.5q0 84 -28 159.5t-82.5 124t-122.5 48.5q-59 0 -62 -43q-20 -475 -20 -621q-1 -14 16 -22t43 -8z" />
    <glyph glyph-name="Q" unicode="Q" horiz-adv-x="1378" 
d="M1294 686v-2q0 -118 -23 -219t-59.5 -169.5t-85.5 -122.5t-95.5 -84.5t-96.5 -49.5q158 -91 375 -166q4 0 4 -4q0 -9 -11.5 -22t-19.5 -13q-224 35 -555 137q-39 13 -63 13q-264 0 -421 157t-157 441q0 312 176 504t475 192q136 0 243 -45.5t175 -125.5t103.5 -187
t35.5 -234zM969 643v2q0 154 -29 286t-92.5 220t-151.5 88q-130 0 -208 -167t-78 -458q0 -158 35.5 -291t104.5 -215.5t157 -82.5q70 0 122 47t82 132.5t44 194.5t14 244z" />
    <glyph glyph-name="R" unicode="R" horiz-adv-x="1234" 
d="M1090 936v-2q0 -57 -22 -109t-60 -91.5t-79 -68.5t-87 -51q130 -185 301 -534q12 -24 31 -29l81 -22q15 -6 15 -27q0 -6 -6 -6q-106 4 -230 4q-70 0 -254 -4q-6 0 -6 6q0 22 12 25l82 16q33 7 17 31q-172 258 -336 444q-10 10 -21 10q-4 0 -31 1t-36 1q-8 -344 -8 -450
q0 -25 20 -31l90 -22q12 -4 12 -25q0 -6 -6 -6q-114 4 -250 4q-157 0 -243 -4q-6 0 -6 6q0 25 10 25l90 18q20 6 20 29q0 38 -2 267t-2 280q0 13 -4 256t-6 288q-3 32 -18 35l-82 12q-5 2 -9 10t-4 17q0 6 7 6q319 25 497 25q523 0 523 -334zM510 567h2q113 0 189.5 101
t76.5 254q0 134 -66 223.5t-169 89.5q-32 0 -45 -6.5t-13 -24.5q-7 -104 -15.5 -335.5t-8.5 -268.5q0 -19 10 -26t39 -7z" />
    <glyph glyph-name="S" unicode="S" horiz-adv-x="1058" 
d="M977 391v-2q0 -182 -165.5 -293.5t-457.5 -111.5q-163 0 -225 22q-16 6 -18 21l-31 278q-1 4 10 12.5t16 8.5q6 0 9 -7q13 -23 52.5 -96.5t61.5 -111.5q18 -30 50 -48q46 -32 139 -32q134 0 221.5 60.5t87.5 158.5q0 91 -69 153t-230 123q-167 63 -246.5 143t-79.5 195
q0 80 45.5 155.5t123.5 132.5t189.5 91.5t235.5 34.5q143 0 203 -29q14 -6 14 -18l25 -266q0 -4 -10.5 -11.5t-16.5 -7.5t-8 4q-71 135 -119 219q-14 24 -39 37q-48 25 -110 25q-111 0 -190.5 -64t-79.5 -159q0 -80 56.5 -135t194.5 -123q67 -30 113 -54t96.5 -58.5t81 -69
t50.5 -80t20 -97.5z" />
    <glyph glyph-name="T" unicode="T" horiz-adv-x="1167" 
d="M1153 1257l12 -299q0 -6 -8.5 -11t-15.5 -5q-2 0 -6 4l-91 207q-14 33 -40 41q-84 24 -250 33q-4 -71 -11 -312.5t-8 -263.5q-8 -460 -8 -579q0 -24 23 -27l102 -18q10 0 10 -25q0 -6 -6 -6q-90 4 -276 4q-164 0 -254 -4q-7 0 -7 4q0 8 3.5 17.5t7.5 9.5l104 20
q17 2 17 29q2 70 -9 583q0 48 -10 568q-161 -9 -246 -31q-28 -9 -45 -43l-94 -205q-3 -6 -8 -6t-15 6t-10 10l21 302q0 14 14 14q13 0 139 -6q258 -6 408 -6q272 0 401 6q36 1 70.5 2t51 1.5t22.5 0.5q12 0 12 -15z" />
    <glyph glyph-name="U" unicode="U" horiz-adv-x="1312" 
d="M59 1262h512q7 0 7 -5q0 -28 -11 -28l-92 -15q-23 -3 -26 -26q-23 -233 -23 -621q0 -270 66.5 -407t187.5 -137q133 0 186.5 123t53.5 432q0 426 -21 606q-2 24 -25 30l-94 15q-10 0 -10 26q0 7 6 7h490q6 0 6 -7q0 -24 -12 -28l-62 -13q-12 -3 -16.5 -9t-3.5 -19
q1 -14 6 -77.5t7 -90.5t6 -89.5t6 -107.5t3.5 -109.5t1.5 -127.5q-1 -297 -153 -448.5t-420 -151.5q-96 0 -171.5 15t-143.5 55t-112.5 104.5t-70.5 168t-26 242.5q1 91 7.5 198t14 180t16 147t9.5 86q6 28 -25 34l-70 15q-10 0 -10 26q0 7 6 7z" />
    <glyph glyph-name="V" unicode="V" horiz-adv-x="1220" 
d="M702 84h15q3 13 10 34t8 25q190 698 234 1041q6 25 -19 28l-90 15q-12 4 -12 26q0 9 4 9h397q6 0 6 -7q0 -25 -10 -28l-39 -10q-30 -10 -39 -35q-70 -212 -217 -619t-202 -526q-6 -15 -11 -21t-26.5 -10.5t-50 -5.5t-95.5 -2h-88q-13 0 -16 10q-39 98 -94.5 268.5
t-95.5 302t-103.5 344.5t-79.5 267q-7 22 -22 27l-54 10q-10 3 -10 30q0 5 6 5h541q6 0 6 -5q0 -28 -12 -28l-88 -15q-10 -1 -15.5 -10.5t-3.5 -21.5q73 -345 248 -1037q8 -36 18 -61z" />
    <glyph glyph-name="W" unicode="W" horiz-adv-x="1857" 
d="M618 94h13q4 14 11.5 39t8.5 27q155 567 252 987q6 32 16.5 44t34 18.5t86.5 11.5q43 6 74 6q15 0 19 -15q51 -190 251 -1065q13 -44 19 -57h10q6 16 17 60q48 207 104 503.5t88 522.5q3 33 -18 36l-97 15q-12 3 -12 28q0 7 4 7h393q6 0 6 -7q0 -23 -10 -26l-45 -15
q-30 -8 -37 -36q-54 -191 -180.5 -594t-177.5 -533q-8 -24 -21 -33.5t-45 -13.5t-114 -6h-82q-12 0 -19 14q-13 43 -64.5 204t-84 269t-53.5 191q-4 14 -14.5 55t-16.5 62h-12q-10 -36 -41 -138q-155 -459 -217 -606q-8 -18 -14.5 -26t-30 -14t-57 -7.5t-105.5 -3.5h-64
q-13 0 -18 16q-80 272 -283 1176q-7 25 -24 27l-54 10q-4 1 -8 10.5t-4 17.5q0 7 6 7h559q6 0 6 -9q0 -7 -4 -16t-10 -10l-102 -15q-24 -3 -21 -30q71 -476 168 -1018q8 -31 14 -70z" />
    <glyph glyph-name="X" unicode="X" horiz-adv-x="1216" 
d="M-16 1262h589q7 0 7 -7t-3.5 -16.5t-7.5 -9.5l-75 -15q-28 -6 -17 -30q32 -60 101.5 -183t85.5 -151q3 -5 13.5 -25.5t14.5 -29.5h6q18 32 29 47q8 14 46 75.5t56 92.5t45.5 81t43.5 87q13 31 -19 39l-76 10q-10 3 -10 28q0 7 6 7h377q4 0 4 -5q0 -27 -10 -30l-41 -10
q-31 -10 -55 -37q-45 -47 -162.5 -192t-169.5 -204q-9 -15 -33 -43v-8q2 -3 33 -49q134 -197 368 -602q12 -19 33 -29l76 -26q12 -4 12 -25q0 -6 -6 -6q-126 4 -225 4q-90 0 -258 -4q-6 0 -6 6q0 7 3 16t7 9l88 18q31 7 16 27q-100 146 -297 422q-4 5 -15 22t-17 25h-6
q-20 -34 -27 -49q-195 -319 -244 -414q-9 -12 -4.5 -20t8.5 -10t15 -5l79 -14q4 -1 8.5 -10t4.5 -17q0 -6 -6 -6q-94 4 -228 4q-88 0 -178 -4q-6 0 -6 8q0 6 4 15t8 10l58 18q24 6 59 41q32 31 69 73t85 102t74.5 93.5t84 108t66.5 86.5q18 22 33 45v6q-18 26 -37 49
q-46 57 -197.5 274t-189.5 267q-22 22 -41 27l-45 10q-11 0 -11 26q0 7 7 7z" />
    <glyph glyph-name="Y" unicode="Y" horiz-adv-x="1187" 
d="M840 1262h391q6 0 6 -7q0 -23 -10 -26l-43 -15q-29 -10 -45 -38q-47 -86 -198 -335.5t-191 -322.5q-17 -27 -17 -72q-4 -164 -4 -376q0 -20 23 -27l98 -16q6 -1 10 -9t4 -16q0 -6 -6 -6q-98 4 -270 4q-168 0 -258 -4q-6 0 -6 6q0 22 12 25l104 20q11 2 15 8t4 23
q1 24 -8 368q-3 21 -15 54q-32 63 -163.5 304.5t-202.5 385.5q-10 20 -29 24l-57 13q-11 4 -11 28q0 7 9 7h575q6 0 6 -7q0 -24 -12 -28l-96 -13q-30 -9 -23 -28q169 -411 225 -539q3 -8 18.5 -43.5t22.5 -50.5h9q28 54 36 74q143 313 209 557q4 15 0.5 21t-16.5 9l-88 13
q-14 3 -14 28q0 7 6 7z" />
    <glyph glyph-name="Z" unicode="Z" horiz-adv-x="1169" 
d="M774 1155l-6 6q-16 3 -46 7.5t-36 5.5q-83 15 -204.5 27.5t-176.5 12.5q-23 0 -37 -26l-133 -256q-2 -4 -10 -4q-4 0 -16 7.5t-11 12.5l41 301q3 15 15 15q3 0 157 -1t275 -1q354 0 436 4q12 0 16 -11q52 -91 52 -145q0 -24 -21 -59q-140 -185 -387.5 -489.5
t-368.5 -440.5q-25 -33 -47 -58v-6h58q98 0 300.5 20t299.5 44q16 4 22.5 6.5t16.5 10t16 20.5l104 192q2 4 7 4q6 0 16.5 -7.5t9.5 -12.5l-47 -320q-2 -12 -6 -16t-16 -4q-2 0 -22 0.5t-61.5 1.5t-102 2t-164 1.5t-228.5 0.5q-68 0 -191.5 -1t-154.5 -1q-25 0 -41.5 14.5
t-32.5 59.5q-16 36 -16 53q0 6 4 14q61 85 328 450t354 490q17 28 55 76z" />
    <glyph glyph-name="bracketleft" unicode="[" horiz-adv-x="526" 
d="M543 -283l-412 -2q-7 -1 -9.5 3t-2.5 18q0 8 -3.5 216t-7 447.5t-4.5 298.5q-8 390 -8 742q0 14 3.5 17.5t13.5 2.5l440 -4q8 0 8 -6q0 -8 -6.5 -17.5t-9.5 -9.5l-217 -16q-29 -3 -29 -49q-3 -31 -9.5 -324.5t-6.5 -378.5q-1 -47 -3 -192t-4 -339.5t-4 -309.5
q0 -49 31 -52l232 -12q4 0 9 -9t5 -17q0 -7 -6 -7z" />
    <glyph glyph-name="backslash" unicode="\" horiz-adv-x="575" 
d="M121 1286h2q7 0 10 -10q176 -553 430 -1286v-4v-5.5t-2 -2.5t-6 -1q-16 0 -35 5t-22 12q-87 204 -171.5 409.5t-185 455.5t-129.5 321q-14 32 32.5 69t76.5 37z" />
    <glyph glyph-name="bracketright" unicode="]" horiz-adv-x="526" 
d="M387 -285l-412 2q-6 0 -6 7q0 8 5.5 17t9.5 9l233 12q29 3 29 52q-6 855 -6 862q0 69 -4.5 350t-6.5 332q-4 47 -28 49l-219 14q-4 0 -10.5 9.5t-6.5 17.5q0 6 8 6l443 6q10 1 13 -2.5t3 -17.5q0 -7 -2.5 -145t-6 -331t-5.5 -286q-1 -50 -5 -284.5t-8 -441.5t-4 -216
q0 -14 -2.5 -18t-11.5 -3z" />
    <glyph glyph-name="asciicircum" unicode="^" 
d="M373 903h2q8 0 16 -14q134 -248 275 -496q5 -13 -17 -28q-5 -5 -14 4q-45 56 -143.5 173t-120.5 144q-120 -146 -258 -317q-5 -7 -13 -2q-24 13 -16 26q153 271 272 498q7 12 17 12z" />
    <glyph glyph-name="underscore" unicode="_" horiz-adv-x="1024" 
d="M0 -174h1024v-62h-1024v62z" />
    <glyph glyph-name="grave" unicode="`" horiz-adv-x="350" 
d="M143 1298h2q26 0 39 -26q43 -101 103 -209q3 -4 -6.5 -13.5t-14.5 -9.5l-8 4q-52 50 -116 124.5t-83 105.5q-7 10 4 14q50 10 80 10z" />
    <glyph glyph-name="a" unicode="a" horiz-adv-x="1081" 
d="M662 547l8 2q-2 53 -19 125q-20 77 -65.5 124.5t-114.5 47.5q-141 0 -297 -135q-4 -4 -6 -4q-6 0 -12.5 13.5t0.5 20.5q197 207 479 207q79 0 138 -26.5t92.5 -67.5t53.5 -101.5t26.5 -117t6.5 -125.5q0 -85 -8 -225q-8 -184 -8 -215q0 -20 20 -25l86 -20q13 -7 13 -21
q0 -6 -8 -6q-25 2 -189 2q-112 0 -147 -2q-11 0 -11 10q-6 48 -6 135q0 4 -1 26.5t-1 31.5l-6 4q-12 -23 -29 -51q-46 -71 -127 -120.5t-198 -49.5q-70 0 -130 28.5t-101.5 92.5t-41.5 153q0 71 23.5 136.5t68.5 119.5t120.5 86.5t170.5 32.5q57 0 105 -16t74 -37
q24 -16 41 -33zM483 88h2q59 0 111 52.5t82 138.5q14 40 14 73q0 34 -18 78q-23 61 -70 106.5t-108 45.5q-50 0 -85 -40t-51 -100.5t-16 -132.5q0 -105 38 -163t101 -58z" />
    <glyph glyph-name="b" unicode="b" horiz-adv-x="1165" 
d="M387 563l10 -2q13 39 19 53q16 37 37.5 75.5t59.5 87t81 85t104 61.5t127 25q89 0 151.5 -53.5t91 -139t28.5 -194.5q0 -115 -29.5 -217.5t-85.5 -183.5t-147.5 -128.5t-206.5 -47.5q-92 0 -159.5 32.5t-131.5 98.5q-19 19 -31 4l-119 -125q-4 -4 -10 -4q-12 0 -28.5 6
t-16.5 10q-1 50 -2.5 185.5t-3 303.5t-2.5 226q-1 55 -2 191.5t-2 243t-2 124.5q-3 29 -23 29l-98 4q-6 0 -10 8t-4 16q0 9 6 9l409 45q21 3 21 -17q0 -84 -25 -717q0 -13 -6 -94zM598 20h2q97 0 151 116.5t54 330.5q0 86 -15 159t-48.5 121t-79.5 48q-60 0 -121 -67
t-102 -161.5t-58 -189.5q-4 -28 -4 -47q0 -10 2 -30t2 -24q16 -121 78.5 -188.5t138.5 -67.5z" />
    <glyph glyph-name="c" unicode="c" horiz-adv-x="948" 
d="M76 393v2q0 126 55.5 238t151.5 186q160 129 393 129q119 0 176 -24q10 -3 10 -19l12 -221q0 -4 -9.5 -10t-14.5 -6q-6 0 -8 4q-87 165 -92 174q-14 28 -37 43q-23 18 -72 18q-115 0 -197 -178q-61 -125 -61 -303q0 -172 77.5 -262t196.5 -90q53 0 105 12q68 14 135 47
q2 1 4.5 -1t4 -6.5t1.5 -10.5q0 -14 -8 -17q-79 -51 -205 -94q-58 -20 -170 -20q-97 0 -176 22t-141 69t-96.5 127.5t-34.5 190.5z" />
    <glyph glyph-name="d" unicode="d" horiz-adv-x="1175" 
d="M580 1358l458 33q10 1 13.5 -3.5t3.5 -13.5q0 -3 -4.5 -172t-9.5 -352t-5 -221q-6 -159 -6 -553q0 -16 4 -22t15 -9l104 -20q12 -4 12 -21q0 -6 -6 -6q-59 2 -196 2q-131 0 -168 -2q-13 0 -13 18q0 13 -1 116t-1 126q0 16 2 45t2 45l-8 2q-4 -10 -11 -29.5t-11 -29.5
q-152 -307 -385 -307q-131 0 -212 99.5t-81 274.5q0 166 53.5 298.5t162 212t255.5 79.5q109 0 188 -59q14 -10 35 -35l6 2q-2 21 -5 63.5t-3 43.5q-1 16 -4.5 147t-5.5 182q-3 27 -27 27l-143 8q-6 0 -10.5 9.5t-4.5 17.5q0 4 7 4zM514 129h2q79 0 149 102.5t113 278.5
q10 38 10 68q0 32 -8 90q-22 99 -77.5 169t-131.5 70q-98 0 -153.5 -118.5t-55.5 -333.5q0 -139 40 -232.5t112 -93.5z" />
    <glyph glyph-name="e" unicode="e" horiz-adv-x="1024" 
d="M956 541v-2q0 -19 -11.5 -35.5t-29.5 -22.5q-51 -17 -263.5 -20.5t-278.5 4.5q-3 -75 10 -139q26 -113 101.5 -181.5t166.5 -68.5q76 0 137 14q94 23 150 53q2 1 4.5 -2t4 -9t1.5 -13q0 -5 -8 -13q-106 -65 -235 -102q-64 -20 -181 -20q-99 0 -179 24t-141 73.5
t-94.5 132t-33.5 192.5q0 103 36.5 201t99.5 173.5t156 121.5t199 46q98 0 175.5 -39t122.5 -100.5t68 -130.5t23 -137zM532 909l-2 -2q-67 0 -113.5 -102.5t-43.5 -302.5q90 -5 163 -1t101 13q29 14 29 66q0 48 -6 99t-19.5 106t-42 89.5t-66.5 34.5z" />
    <glyph glyph-name="f" unicode="f" horiz-adv-x="792" 
d="M481 913l355 -6q6 0 6 -6q0 -8 -4.5 -21t-8.5 -14l-348 -24q-11 -369 -12 -385q-4 -132 -4 -385q3 -24 24 -27l181 -18q10 0 10 -27q0 -4 -6 -4q-208 4 -334 4q-150 0 -268 -4q-4 0 -4 4q0 6 3 15.5t7 9.5l110 18q21 3 21 27q0 44 -5.5 207t-6.5 200q-1 32 -3.5 117.5
t-5 157.5t-2.5 88l-159 -4q-7 0 -7 8q0 14 9 37q9 30 37 30h122q5 95 36 178t89.5 152t157 109.5t225.5 40.5q102 0 164 -27q10 -3 10 -12l13 -222q0 -6 -10.5 -13t-16.5 -7q-3 0 -8 8q-12 23 -45 86.5t-47 87.5q-13 26 -33 39q-27 19 -57 19q-79 0 -130.5 -115.5
t-54.5 -321.5z" />
    <glyph glyph-name="g" unicode="g" horiz-adv-x="1122" 
d="M92 590v2q0 156 137.5 256t358.5 100q53 0 200 -12q20 -4 64 -4l272 2q6 0 6 -6q0 -27 -10 -27l-207 -33q51 -36 74 -92.5t23 -111.5q0 -78 -33.5 -141t-93.5 -105.5t-134.5 -69.5t-164.5 -41q-53 -9 -103 -22q-127 -30 -127 -68q0 -24 59.5 -37t237.5 -33
q243 -26 351 -72.5t108 -142.5q0 -141 -153 -233t-459 -92q-98 0 -183 11.5t-153.5 34.5t-108 62t-39.5 90q0 59 59.5 97t280.5 131q-118 27 -184 59q-49 24 -49 96q0 23 18 29q54 19 143 48t121 40q-138 12 -224.5 93.5t-86.5 191.5zM549 340h2q168 0 168 287
q0 126 -39 205t-119 79q-176 0 -176 -297q0 -120 47 -197t117 -77zM573 -352h2q124 0 189 48t67 122q0 29 -11 52t-37.5 41t-55.5 31.5t-80 27t-95 22.5t-116 22q-23 4 -32 3.5t-17 -7.5q-80 -61 -80 -164q0 -88 75.5 -143t190.5 -55z" />
    <glyph glyph-name="h" unicode="h" horiz-adv-x="1245" 
d="M-8 1352l436 39q8 1 12 -4t4 -15q0 -94 -28 -850q0 -17 -4 -67h10q1 3 20 61q19 52 45.5 106.5t67.5 114t87 105.5t105 76t119 30q122 0 184 -114t62 -318q0 -169 -22 -426q-1 -24 2 -33t14 -12l98 -20q3 0 6.5 -8t3.5 -17q0 -4 -6 -4q-74 4 -243 4q-172 0 -258 -4
q-7 0 -7 4q0 25 9 25l102 18q20 3 23 29q10 88 10 299q0 387 -135 387q-85 0 -164 -130t-117 -319q-18 -95 -18 -239q0 -22 22 -25l100 -20q3 0 7 -8t4 -15q0 -6 -6 -6q-86 4 -263 4q-171 0 -237 -4q-6 0 -6 6t3.5 14.5t6.5 8.5l98 22q14 2 17 25q1 57 0.5 154t-1.5 250.5
t-1 195.5q0 272 -9 614q0 27 -22 29l-125 6q-4 0 -8 8t-4 17q0 6 6 6z" />
    <glyph glyph-name="i" unicode="i" horiz-adv-x="585" 
d="M283 1321h2q62 0 100.5 -39t38.5 -94q0 -59 -40 -100t-101 -41q-58 0 -104 37.5t-46 97.5q0 53 41.5 96t108.5 43zM31 881l403 67q19 3 19 -16q-13 -268 -17 -465q-6 -276 -6 -397q0 -22 19 -27l102 -20q3 0 6.5 -8t3.5 -13q0 -6 -4 -6q-98 4 -256 4q-168 0 -250 -4
q-6 0 -6 4q0 20 10 23l97 22q22 6 22 27q0 20 -1.5 92.5t-3.5 169t-3 129.5q-6 247 -10 352q-4 31 -23 31l-92 4q-5 0 -9.5 9t-4.5 18q0 4 4 4z" />
    <glyph glyph-name="j" unicode="j" horiz-adv-x="579" 
d="M281 1321h2q59 0 98 -39.5t39 -93.5q0 -60 -40.5 -99.5t-103.5 -39.5q-56 0 -101.5 39t-45.5 96q0 52 42 94.5t110 42.5zM12 877l434 69q19 3 19 -16q-1 -24 -3.5 -224.5t-4.5 -267.5q-1 -12 -3 -67.5t-3.5 -83.5t-6 -77t-10.5 -91q-12 -86 -35.5 -158.5t-66 -139
t-99.5 -113t-140 -74t-185 -27.5q-91 0 -137 14q-8 3 -11 14l-36 215q-1 6 8 13.5t14 7.5q4 0 6 -4q79 -115 109 -152q19 -25 45 -43q30 -20 65 -20q88 0 142.5 96t66.5 295q3 63 3.5 178.5t-1.5 175.5q0 73 -4.5 213t-11.5 191q-4 33 -23 35l-120 4q-7 0 -12 10t-5 18
q0 9 6 9z" />
    <glyph glyph-name="k" unicode="k" horiz-adv-x="1126" 
d="M698 932h387q7 0 7 -8q0 -21 -11 -25l-49 -12q-19 -6 -57 -27q-213 -139 -342 -227q-6 -4 -15 -11t-10 -8v-8q25 -21 47 -49q193 -204 414 -481q24 -24 45 -31l57 -20q11 -3 11 -23q0 -6 -6 -6q-82 4 -197 4q-90 0 -246 -4q-6 0 -6 6q0 18 10 21l76 18q31 9 8 29
q-152 134 -354 292q-2 2 -19 15.5t-26 21.5l-6 -2q0 -17 -1 -44.5t-1 -33.5q-6 -223 -4 -253q2 -14 5 -18t13 -5l107 -18q12 -3 12 -23q0 -6 -8 -6q-94 4 -258 4q-168 0 -246 -4q-6 0 -6 6q0 21 12 23l100 18q17 3 17 25q1 39 -1.5 309t-2.5 291q0 283 -9 616q0 26 -24 29
l-123 8q-3 0 -7.5 9.5t-4.5 15.5q0 4 6 4l434 41q18 3 18 -15q-1 -20 -12.5 -354t-13.5 -432q0 -10 -2 -37t-2 -37l6 -2l49 49q187 153 326 289q8 8 8 17t-10 12l-86 16q-6 1 -10.5 10.5t-4.5 18.5q0 6 6 6z" />
    <glyph glyph-name="l" unicode="l" horiz-adv-x="573" 
d="M-10 1346l438 45q9 1 12.5 -2.5t3.5 -14.5q0 -9 -3.5 -124.5t-8 -277t-6.5 -265.5q-1 -59 -3.5 -214t-4.5 -280.5t-2 -142.5q0 -13 4.5 -18.5t15.5 -8.5l107 -18q4 0 8 -8.5t4 -16.5q0 -4 -4 -4q-106 4 -272 4q-158 0 -244 -4q-6 0 -6 6q0 20 12 23l100 18q23 7 23 25
q2 57 0.5 169.5t-4 269t-2.5 179.5q0 46 -13 592q0 29 -24 29l-121 6q-6 0 -11 8t-5 16q0 9 6 9z" />
    <glyph glyph-name="m" unicode="m" horiz-adv-x="1880" 
d="M1749 49l102 -24q11 -4 11 -23q0 -6 -7 -6q-122 4 -245 4q-154 0 -252 -4q-6 0 -6 4q0 22 10 25l92 22q18 3 21 25q6 53 6 290q0 80 -7 147.5t-23 125t-45 90.5t-69 33q-48 0 -89.5 -39t-70.5 -103.5t-49 -136t-32 -147.5q-19 -136 -19 -256q0 -21 23 -27l110 -24
q11 -4 11 -23q0 -6 -4 -6q-132 4 -261 4q-143 0 -249 -4q-7 0 -7 6q0 20 11 23l88 22q12 3 16 8.5t6 18.5q4 31 4 278q0 86 -6 153t-20.5 127t-43.5 93t-71 33q-44 0 -84.5 -36t-71 -96.5t-53 -131.5t-37.5 -150q-18 -153 -18 -272q0 -20 18 -25l94 -22q13 -3 13 -23
q0 -6 -6 -6q-172 4 -254 4q-98 0 -234 -4q-6 0 -6 4q0 22 10 25l92 20q21 7 21 27q0 45 -2 201t-2 202q-10 323 -12 346q-3 31 -23 33l-88 4q-4 0 -8 8t-4 17q0 6 8 8l395 55q8 1 11 -2.5t3 -11.5q0 -24 -6.5 -160t-11.5 -209q0 -7 -2 -31t-2 -34l12 -4q5 21 19 63
q19 52 41.5 100.5t59 103.5t78 94.5t99.5 66t121 26.5q111 0 172 -96.5t66 -265.5v-60l8 -2q16 56 18 62q16 46 37.5 91t57.5 95.5t77.5 88t98.5 62.5t120 25q115 0 178.5 -109.5t63.5 -322.5q0 -132 -22 -434q0 -17 4 -23.5t16 -9.5z" />
    <glyph glyph-name="n" unicode="n" horiz-adv-x="1253" 
d="M1122 47l105 -24q10 0 10 -23q0 -4 -4 -4q-140 4 -260 4q-154 0 -256 -4q-6 0 -6 4q0 6 3 14.5t7 8.5l98 22q22 6 25 29q10 108 10 297q0 385 -139 385q-74 0 -144 -109.5t-116 -296.5q-34 -154 -31 -278q0 -24 18 -27l101 -22q10 0 10 -23q0 -4 -6 -4q-160 4 -256 4
q-128 0 -250 -4q-4 0 -4 4q0 22 10 25l105 18q18 6 18 29q0 27 -2 184.5t-2 206.5q-1 20 -3 104.5t-4 154t-3 93.5q-1 12 -2 17t-5.5 10t-13.5 6l-90 6q-4 0 -8 8.5t-4 16.5q0 6 6 6l397 63q17 3 17 -16q-5 -79 -17 -400q0 -23 -4 -69l10 -2q11 38 19 57q23 72 61.5 144.5
t90.5 138t120.5 106.5t140.5 41q123 0 185.5 -111.5t62.5 -326.5q0 -192 -22 -428q-3 -30 22 -35z" />
    <glyph glyph-name="o" unicode="o" horiz-adv-x="1155" 
d="M526 -16h-2q-213 0 -330.5 119t-117.5 319q0 84 20.5 160t64.5 143.5t108 116.5t155.5 77.5t202.5 28.5q117 0 206.5 -35.5t143 -97.5t80 -141.5t26.5 -173.5q0 -103 -35 -195t-102 -164t-175.5 -114.5t-244.5 -42.5zM586 23h2q53 0 90.5 32.5t58.5 94.5t30 140.5
t9 180.5q0 123 -19.5 219t-64.5 157.5t-112 61.5q-66 0 -111 -57t-66.5 -157t-21.5 -238q0 -120 23.5 -217t71 -157t110.5 -60z" />
    <glyph glyph-name="p" unicode="p" horiz-adv-x="1198" 
d="M426 70l-6 -2q1 -20 1 -42.5t-0.5 -47t-0.5 -33.5q-4 -104 -4 -250q0 -13 3.5 -18t14.5 -7l139 -22q11 -4 11 -23q0 -6 -4 -6q-180 4 -287 4q-96 0 -240 -4q-4 0 -4 4q0 25 10 25l84 18q21 3 21 27q2 29 -6 514q0 96 -4 331.5t-7 278.5q0 16 -3.5 23t-14.5 8l-106 2
q-7 1 -12 10t-5 17q0 6 6 8l416 63q7 1 10.5 -2.5t3.5 -11.5q0 -22 -4.5 -151.5t-5.5 -164.5q0 -10 -2 -29t-2 -26l12 -2q10 35 23 60q22 55 55.5 107t82 104t116.5 84t143 32q130 0 200 -111.5t70 -279.5q0 -114 -28.5 -215t-84.5 -182t-148.5 -128.5t-209.5 -47.5
q-116 0 -194 55q-13 8 -39 31zM643 23h2q95 0 145 115t50 321q0 86 -15 159.5t-50.5 124t-84.5 50.5q-56 0 -111.5 -65.5t-95 -163t-61.5 -206.5q-4 -32 -4 -51q0 -23 4 -47q23 -120 85 -178.5t136 -58.5z" />
    <glyph glyph-name="q" unicode="q" horiz-adv-x="1171" 
d="M864 829l119 113q4 4 10 4q17 0 38.5 -11t21.5 -26q0 -50 -7 -327.5t-8 -350.5q-1 -77 -5.5 -299.5t-4.5 -246.5q0 -17 21 -21l92 -16q8 -4 8 -23q0 -6 -4 -6q-46 4 -254 4q-167 0 -281 -4q-4 0 -4 4q0 22 10 25l134 18q24 7 26 31q0 3 -2 211t-2 285q0 96 4 143l-8 2
q-16 -46 -27 -68q-65 -128 -160.5 -207t-220.5 -79q-131 0 -207.5 104.5t-76.5 273.5q0 166 54.5 297t166.5 210t266 79q149 0 246 -76q21 -15 49 -43h6zM582 909h-2q-103 0 -159 -127.5t-56 -337.5q0 -141 40.5 -229t104.5 -88q87 0 157 107t109 274q10 30 10 67
q0 40 -4 72q-13 112 -65 187t-135 75z" />
    <glyph glyph-name="r" unicode="r" horiz-adv-x="897" 
d="M428 459h8q2 12 5.5 30t4.5 23q19 80 47.5 151.5t69.5 138.5t99 106.5t124 39.5q44 0 66 -16q6 -6 6 -14l14 -285q0 -5 -9 -12t-13 -7t-6 4q-44 83 -82 142q-24 35 -57 35q-82 0 -152 -133.5t-113 -350.5q-7 -41 -13.5 -121.5t-6.5 -119.5q0 -22 22 -25l160 -22
q3 0 6.5 -8t3.5 -13q0 -6 -4 -6q-114 4 -315 4q-202 0 -252 -4q-4 0 -4 4q0 23 10 23l103 20q18 6 18 27q0 143 -6 389q-1 26 -2 112t-2.5 152.5t-3.5 91.5q0 30 -23 33l-92 6q-12 0 -12 25q0 8 6 8l397 59q21 5 21 -18q0 -25 -7.5 -177.5t-13.5 -232.5q0 -9 -1 -30t-1 -29z
" />
    <glyph glyph-name="s" unicode="s" horiz-adv-x="917" 
d="M90 627v2q0 124 145.5 221.5t360.5 97.5q133 0 186 -24q11 -11 11 -19l18 -209q0 -6 -10.5 -13t-16.5 -7t-8 6q-18 29 -48.5 83.5t-41.5 72.5q-13 18 -35 34q-49 29 -131 29q-75 0 -126.5 -42t-51.5 -103t45.5 -100t161.5 -81q153 -52 223 -111t70 -153
q0 -147 -148.5 -237t-396.5 -90q-39 0 -97.5 6.5t-86.5 17.5q-13 6 -15 21l-16 213q0 7 10.5 12.5t16.5 5.5t8 -4q10 -17 28 -50.5t33.5 -61t30.5 -50.5q10 -15 37 -35q19 -11 56 -20.5t73 -9.5q96 0 158.5 39.5t62.5 109.5q0 65 -49 105t-176 82q-151 47 -216 108t-65 154z
" />
    <glyph glyph-name="t" unicode="t" horiz-adv-x="835" 
d="M827 870l-352 -26q-12 -157 -12 -428q0 -192 48 -272.5t157 -80.5q10 0 67 5q40 3 109 28q4 1 6 -5t2 -17t-8 -15q-110 -54 -209 -71q-46 -4 -98 -4q-89 0 -153 17.5t-113.5 59.5t-74.5 117t-26 184q0 208 35 482l-176 -6q-9 0 -9 8q0 14 7 35q8 34 41 34h145
q27 159 29 166q8 31 28.5 52.5t67.5 42.5q139 61 160 61q13 0 10 -18q-23 -197 -29 -308l359 -2q4 0 4 -6q0 -10 -5 -21.5t-10 -11.5z" />
    <glyph glyph-name="u" unicode="u" horiz-adv-x="1210" 
d="M786 856l-92 8q-4 0 -8 7.5t-4 13.5q0 8 6 10l365 51q7 2 11.5 -2.5t4.5 -13.5v-471q0 -247 10 -379q3 -28 25 -33l78 -20q10 -3 10 -25q0 -4 -6 -4q-53 2 -199 2q-135 0 -176 -2q-12 0 -12 20v273v63h-11q-3 -9 -6.5 -20.5t-6 -19.5t-5.5 -13q-129 -317 -375 -317
q-119 0 -193.5 104t-74.5 318q0 185 29 417q3 35 -23 35h-86q-6 0 -11 9.5t-5 17.5q0 6 8 6l362 55q17 3 17 -18q-12 -396 -12 -402q0 -212 31.5 -307.5t103.5 -95.5q91 0 161.5 138t94.5 349q10 88 10 205q0 38 -21 41z" />
    <glyph glyph-name="v" unicode="v" horiz-adv-x="1056" 
d="M702 932h369q4 0 4 -6q0 -22 -12 -25l-39 -12q-27 -8 -33 -29q-48 -119 -180 -427t-172 -392q-15 -27 -38 -33.5t-114 -9.5h-84q-15 0 -20 12q-51 115 -149.5 393.5t-153.5 456.5q-3 20 -23 27l-55 14q-8 3 -8 25q0 6 6 6h524q6 0 6 -6q0 -22 -10 -25l-76 -12
q-20 -6 -14 -29q22 -117 74 -341t88 -351q1 -4 8 -25t10 -34h11q4 11 12.5 33.5t11.5 31.5q46 137 94.5 332.5t75.5 347.5q5 27 -18 33l-92 14q-9 0 -9 27q0 4 6 4z" />
    <glyph glyph-name="w" unicode="w" horiz-adv-x="1675" 
d="M584 115h12q5 15 13 37.5t9 25.5q101 274 199 649q9 33 32 43.5t105 14.5q27 4 66 4q11 0 14 -12q30 -96 112 -381t93 -322q1 -6 8.5 -28t9.5 -33h13q11 28 20 59q114 446 146 680q3 32 -21 35l-90 16q-10 0 -10 25q0 4 6 4h365q4 0 4 -6q0 -21 -11 -25l-37 -10
q-29 -6 -36 -33q-39 -117 -154.5 -416t-167.5 -411q-9 -19 -33.5 -24.5t-126.5 -8.5h-75q-16 0 -19 12q-122 315 -174 475q-4 13 -11 35.5t-11 34.5h-9q-11 -35 -30 -80q-30 -79 -104 -255t-77 -183q-9 -17 -20 -24t-44.5 -10.5t-109.5 -4.5h-69q-12 0 -15 12
q-43 120 -120.5 384.5t-131.5 469.5q-2 9 -9.5 17.5t-16.5 9.5l-51 10q-11 4 -11 25q0 6 9 6h522q6 0 6 -6q0 -23 -10 -23l-78 -12q-24 -3 -21 -29q57 -372 125 -690q1 -4 7 -24.5t8 -32.5z" />
    <glyph glyph-name="x" unicode="x" horiz-adv-x="1044" 
d="M-2 932h528q9 0 9 -6q0 -5 -3.5 -14.5t-7.5 -10.5l-59 -14q-9 -3 -12.5 -10t2.5 -15q40 -69 129 -207q7 -11 28 -49h9q13 26 28 47q68 102 117 201q6 12 2 20.5t-16 10.5l-66 14q-12 2 -12 27q0 6 4 6h336q4 0 4 -6q0 -24 -12 -27l-41 -10q-28 -8 -43 -23
q-57 -58 -141 -153.5t-105 -118.5q-20 -24 -29 -33v-6q7 -9 19.5 -25.5t19.5 -25.5q28 -38 55 -76.5t61 -90.5t50.5 -76.5t61.5 -94.5t55 -86q13 -26 39 -37l49 -18q10 -3 10 -23q0 -6 -6 -6q-90 4 -191 4q-109 0 -227 -4q-6 0 -6 6q0 20 12 23l66 16q33 7 14 29
q-94 133 -221 274q-3 3 -16.5 20.5t-22.5 26.5h-6q-5 -9 -29 -45q-114 -171 -168 -266q-14 -27 13 -35l71 -20q12 -3 12 -23q0 -6 -8 -6q-110 4 -196 4q-104 0 -170 -4q-6 0 -6 6q0 20 12 23l76 26q22 6 49 37q211 229 268 297q6 7 41 47v8q-6 6 -19.5 20.5t-19.5 20.5
q-25 30 -135.5 169t-173.5 214q-16 20 -33 25l-43 10q-10 3 -10 27q0 6 4 6z" />
    <glyph glyph-name="y" unicode="y" horiz-adv-x="1044" 
d="M698 932h363q6 0 6 -6q0 -24 -12 -27l-33 -10q-15 -3 -23.5 -10t-15.5 -25q-46 -128 -169 -402t-208 -421q-260 -424 -479 -424q-75 0 -82 22l-39 228q-1 4 9 13t16 9q4 0 6 -2l59 -98q17 -24 34 -33.5t44 -9.5q53 0 131.5 45t136.5 131q13 17 2 39q-71 160 -191 455.5
t-173 451.5q-12 25 -25 27l-53 14q-12 3 -12 27q0 6 8 6h520q6 0 6 -6q0 -8 -4 -17t-10 -10l-76 -14q-11 -2 -16 -10.5t-2 -20.5q150 -532 178 -625q8 -23 16 -55h11q21 52 22 59q52 149 102 331t64 288q3 18 -1 25t-17 10l-86 12q-13 3 -13 27q0 6 6 6z" />
    <glyph glyph-name="z" unicode="z" horiz-adv-x="1005" 
d="M258 53l2 -2q11 -1 23 -1t25.5 0.5t21.5 0.5q76 2 219 17t223 36q29 7 43 33l88 154q2 4 6 4q7 0 16.5 -6.5t8.5 -12.5l-39 -268q0 -12 -18 -12q-17 0 -178.5 2t-290.5 2q-79 0 -164.5 -1t-120.5 -1q-22 0 -35.5 12.5t-30.5 48.5q-16 37 -16 50q0 6 4 14
q64 80 186.5 228.5t214.5 261.5t132 169q7 11 23.5 31.5t19.5 24.5v6q-13 6 -48 10q-213 37 -303 37q-24 0 -37 -25l-110 -200q-2 -4 -6 -4q-7 0 -17.5 8t-9.5 14l31 238q0 16 14 16q129 -6 326 -6q108 0 254.5 1t148.5 1q12 0 15 -10q39 -85 39 -136q0 -33 -19 -57
q-104 -124 -280 -308.5t-310 -316.5q-12 -14 -51 -53z" />
    <glyph glyph-name="braceleft" unicode="{" horiz-adv-x="526" 
d="M145 621v-11q150 -25 146 -180q-2 -64 -12 -172.5t-9.5 -171t17.5 -119.5q25 -79 84 -133t141 -74q6 0 6 -4q0 -5 -5 -12.5t-11 -7.5q-134 13 -227 65t-130 125q-18 36 -23.5 85t-3 89t13 143t15.5 177q5 82 -27 129t-122 43q-3 0 -6.5 12t-3.5 21q0 8 6 8q41 -1 70.5 9
t43.5 26t23 36.5t8.5 40.5t-0.5 37q-5 85 -15.5 179t-16.5 142t-3.5 97.5t19.5 85.5q37 77 133 130t248 61q3 0 9.5 -8.5t6.5 -12.5t-4 -4q-149 -31 -199 -203q-14 -44 -19.5 -100t-4.5 -100.5t3.5 -122t2.5 -125.5q0 -72 -37.5 -120.5t-116.5 -59.5z" />
    <glyph glyph-name="bar" unicode="|" horiz-adv-x="471" 
d="M178 1536h115v-2048h-115v2048z" />
    <glyph glyph-name="braceright" unicode="}" horiz-adv-x="526" 
d="M379 612v9q-79 11 -116.5 59.5t-37.5 122.5q0 45 4 154.5t0.5 172t-20.5 119.5q-26 87 -73 138t-126 65q-4 0 -4 4t7 12.5t10 8.5q153 -8 248 -60t132 -129q17 -36 19.5 -86t-3.5 -98t-17.5 -143.5t-16.5 -180.5q-1 -27 2 -47t15.5 -46.5t45 -40.5t82.5 -13q7 0 7 -8
q0 -9 -4 -21t-7 -12q-90 4 -122 -43.5t-27 -130.5q5 -65 12.5 -146.5t11 -121t4 -86t-6 -78t-21.5 -60.5q-37 -74 -129 -125.5t-225 -64.5q-6 0 -12.5 7.5t-6.5 12.5q0 3 6 6q83 17 142 71t84 134q17 57 18 119t-9 172.5t-12 173.5q-4 151 146 180z" />
    <glyph glyph-name="asciitilde" unicode="~" 
d="M256 741h2q65 0 137 -69q72 -60 123 -60q40 0 64 41t26 86q0 15 37 15q4 0 4 -4q2 -40 -3 -80t-18.5 -79.5t-43.5 -64t-72 -24.5q-65 0 -141 55q-67 55 -123 55q-42 0 -72.5 -34t-36.5 -78q-5 -15 -37 -15q-4 0 -4 9q-3 93 39.5 170t118.5 77z" />
    <glyph glyph-name="uni00A0" unicode="&#xa0;" horiz-adv-x="397" 
 />
    <glyph glyph-name="exclamdown" unicode="&#xa1;" horiz-adv-x="401" 
d="M205 741h-2q-44 0 -74.5 32t-30.5 73t30.5 71.5t78.5 30.5q42 0 73 -28.5t31 -71.5q0 -42 -29.5 -74.5t-76.5 -32.5zM223 606h2q6 0 6 -6q77 -685 86 -827q2 -42 -15.5 -67.5t-68.5 -35.5q-92 -18 -139 -18q-12 0 -12 12q3 60 20 210.5t43.5 368.5t40.5 347q1 6 14.5 11
t22.5 5z" />
    <glyph glyph-name="cent" unicode="&#xa2;" horiz-adv-x="843" 
d="M487 178l-10 -205q0 -4 -4 -4q-9 0 -29.5 5t-21.5 8l6 194q-158 8 -253 87.5t-95 238.5q0 93 38 177t99 142q109 95 254 121l8 203q1 4 20.5 8t32.5 4q5 0 5 -4l-9 -205q116 8 201 -18q8 -8 8 -19l11 -180q0 -3 -9 -7.5t-12 -4.5q-4 0 -6 4q-9 16 -34 64.5t-42 76.5
q-14 21 -24 31q-26 16 -60 16q-51 0 -96.5 -34t-77.5 -93q-53 -104 -53 -254q0 -136 65 -206t168 -70q32 0 86 8q57 13 111 37q6 3 6 -4q2 -6 2 -14.5t-2 -10.5q-65 -41 -170 -75q-57 -17 -113 -17z" />
    <glyph glyph-name="sterling" unicode="&#xa3;" horiz-adv-x="1034" 
d="M866 602l-366 -24q-17 -160 -68 -283q-57 -140 -164 -223q-13 -9 -11 -15t13 -6q105 0 287 9.5t246 27.5q28 9 43 33q7 10 100 160q2 4 6 4q6 0 15 -9t8 -14l-47 -256q-3 -10 -15 -10q-13 -1 -75.5 0t-217 2.5t-335.5 1.5q-169 0 -275 -4q-6 0 -6 4q0 7 3 17t7 10l105 22
q27 3 51 27q42 50 63 198q19 125 13 301l-174 -4q-9 0 -9 9q0 20 13.5 44.5t32.5 24.5l137 2q5 125 39 228.5t95 181.5t155.5 121t214.5 43q112 0 168 -27q10 -3 10 -16l10 -219q0 -6 -9.5 -12.5t-17.5 -6.5q-1 0 -6 8q-88 186 -90 189q-12 20 -20 24q-24 21 -68 21
q-45 0 -82 -29.5t-67.5 -91.5t-49 -168.5t-22.5 -249.5l366 -6q7 0 7 -4q0 -10 -4.5 -22.5t-8.5 -12.5z" />
    <glyph glyph-name="currency" unicode="&#xa4;" horiz-adv-x="976" 
d="M893 643v-2q0 -106 -41.5 -196t-112.5 -150q70 -107 97 -145q2 -4 -3.5 -9.5t-16.5 -9.5t-23 -4q-13 0 -21 8q-7 8 -21 26l-35 45t-36 46q-95 -59 -234 -59q-121 0 -176 36q-25 -31 -94 -118q-6 -9 -22 -9q-11 0 -22 3.5t-16.5 8.5t-2.5 9q6 10 21 33t37 57.5t38 58.5
q-56 43 -88.5 117.5t-32.5 163.5q0 98 36.5 187t94.5 147q-19 23 -49 61.5t-35 44.5q-7 14 15.5 46t31.5 32q5 0 8 -6q8 -12 39 -57t50 -72q45 36 110 57t135 21q136 0 207 -58l72 109q12 12 26 12q11 0 28 -5t28.5 -11.5t7.5 -11.5q-5 -8 -42 -61t-58 -81
q45 -45 72.5 -115.5t27.5 -148.5zM483 240h2q64 0 108.5 53t64.5 137.5t20 192.5q0 95 -20.5 171.5t-60.5 122.5t-93 46q-92 0 -147.5 -110t-55.5 -280q0 -140 51 -236.5t131 -96.5z" />
    <glyph glyph-name="yen" unicode="&#xa5;" horiz-adv-x="1120" 
d="M920 338l-246 -8q-4 -218 -4 -260q0 -20 20 -27l98 -16q5 -2 10 -10t5 -15q0 -6 -6 -6q-94 4 -260 4q-140 0 -226 -4q-4 0 -4 6q0 22 10 25l103 20q11 2 15.5 8t4.5 23q0 72 -4 252l-231 -8q-18 -2 -22.5 8t-4.5 49q0 8 6 8l248 -4v47q0 13 -6 37l-238 -6q-6 0 -6 10
q0 59 27 59l197 -6q-35 67 -146 281t-174 332q-9 17 -29 24l-55 13q-10 3 -10 28q0 6 6 6h520q6 0 6 -6q0 -9 -3.5 -17.5t-6.5 -8.5l-86 -17q-30 -4 -22 -26q23 -57 89 -235t107 -277q15 -34 37 -93h10q30 67 31 70q125 287 197 532q7 25 -17 31l-80 15q-12 0 -12 26
q0 6 6 6h359q6 0 6 -6q0 -7 -4 -15.5t-7 -10.5l-43 -15q-28 -9 -45 -39q-138 -269 -344 -600l238 -2q4 0 4 -4q0 -39 -18 -39q-39 -2 -119 -5t-119 -5q-6 -9 -6 -29v-53l254 -4q4 0 4 -6q0 -37 -14 -37z" />
    <glyph glyph-name="brokenbar" unicode="&#xa6;" horiz-adv-x="471" 
d="M178 1382h115v-716h-115v716zM178 358h115v-716h-115v716z" />
    <glyph glyph-name="section" unicode="&#xa7;" horiz-adv-x="921" 
d="M797 1239l18 -221q0 -3 -9 -10t-13 -7t-9 5q-69 131 -94 172q-11 20 -31 34q-48 19 -98 19q-96 0 -175 -53.5t-79 -133.5q0 -36 15 -66t34.5 -50t59 -41.5t68 -33.5t81.5 -32q147 -53 220 -122.5t73 -176.5q0 -159 -143 -258q36 -30 59 -77.5t23 -98.5
q0 -152 -142.5 -241t-371.5 -89q-128 0 -187 19q-12 8 -14 18l-25 230q0 4 10 11t15 7q6 0 8 -4q83 -153 92 -168q12 -20 37 -41q43 -27 119 -27q118 0 195 48t77 126q0 90 -63 140t-213 102q-133 47 -198.5 115t-65.5 178q0 75 43 144t98 108q-82 70 -82 168q0 87 65 167
t180 129.5t249 49.5q107 0 161 -23q13 -3 13 -16zM711 399v2q0 52 -21 93t-65 73t-92.5 55.5t-122.5 49.5q-106 31 -164 65q-43 -43 -43 -116q0 -50 16 -86t55.5 -65t86 -50.5t128.5 -50.5q124 -40 187 -82q35 46 35 112z" />
    <glyph glyph-name="dieresis" unicode="&#xa8;" horiz-adv-x="552" 
d="M135 1214h2q29 0 48.5 -20t19.5 -49q0 -30 -20.5 -52t-51.5 -22q-33 0 -53.5 20t-20.5 50q0 29 21 51t55 22zM424 1214h2q30 0 49 -19t19 -50t-19.5 -52.5t-52.5 -21.5q-31 0 -51.5 20.5t-20.5 49.5t20 51t54 22z" />
    <glyph glyph-name="copyright" unicode="&#xa9;" horiz-adv-x="1142" 
d="M535 82h-3q-86 0 -167 31t-148 89.5t-107 153.5t-40 213q0 135 42.5 250t115.5 193.5t172.5 123t211.5 44.5q106 0 195 -42.5t146 -113.5t88.5 -162.5t31.5 -191.5q0 -167 -60 -298t-183.5 -210.5t-294.5 -79.5zM543 127h2q113 0 203.5 42t148.5 115t88.5 169t30.5 206
q0 69 -15.5 136t-49.5 129.5t-82 109.5t-118.5 75t-154.5 28q-201 0 -335 -160.5t-134 -401.5q0 -92 25 -168.5t66.5 -127.5t96 -86t112 -50.5t116.5 -15.5zM797 932l12 -146q0 -4 -9 -9t-14 -5q-2 0 -4 4l-59 119q-9 18 -14 23q-14 14 -43 14q-60 0 -109 -62
q-78 -105 -78 -270q0 -125 51.5 -186.5t135.5 -61.5q15 0 63 6q16 3 48 14t44 15q1 1 2 -2q2 -6 2 -18q0 -9 -4 -13q-55 -29 -119 -45q-45 -10 -96 -10q-145 0 -231 69t-86 218q0 94 37.5 170.5t99.5 122.5q111 84 248 84q74 0 114 -21q9 -3 9 -10z" />
    <glyph glyph-name="ordfeminine" unicode="&#xaa;" horiz-adv-x="731" 
d="M461 770l-4 2q-8 -16 -17 -31q-32 -43 -85.5 -68.5t-118.5 -25.5q-81 0 -132 43.5t-51 122.5q0 92 64.5 158.5t185.5 66.5q55 0 109 -30q10 -5 26 -21l6 2q-5 51 -12 72q-29 98 -110 98q-88 0 -187 -80q-4 -4 -6 -4q-5 0 -11 12t-1 19q124 121 305 121q51 0 89.5 -16
t60 -40.5t34.5 -61t17 -70.5t4 -76q0 -93 -4 -136q-1 -28 -4 -68.5t-3 -49.5q0 -12 15 -15l55 -14q8 0 8 -21q0 -4 -4 -4q-18 2 -123 2q-25 0 -55.5 -1t-40.5 -1q-8 0 -8 7q0 4 -1 31t-1 42v35zM330 717h2q35 0 67.5 30t49.5 78q10 20 10 43q0 21 -13 47q-15 33 -43 55.5
t-63 22.5q-50 0 -75 -42.5t-25 -106.5q0 -61 24.5 -94t65.5 -33z" />
    <glyph glyph-name="guillemotleft" unicode="&#xab;" horiz-adv-x="567" 
d="M35 522v2q0 5 8 13q25 26 112 109.5t113 111.5q5 5 8 2q18 -18 15 -23q-47 -96 -105 -209q3 -4 44.5 -80t58.5 -106q3 -4 -13 -20q-3 -3 -6 0q-55 41 -229 190q-6 3 -6 10zM272 522v2q0 2 7 13q23 23 111 107.5t116 113.5q3 5 6 2q6 -5 10.5 -12.5t3.5 -10.5
q-59 -127 -104 -209q8 -15 46.5 -86t55.5 -100q2 -2 -2 -9t-10 -11q-3 -3 -6 0q-24 17 -65.5 51.5t-95.5 80t-69 58.5q-4 2 -4 10z" />
    <glyph glyph-name="logicalnot" unicode="&#xac;" 
d="M84 651v2q0 9 8 9q9 -1 567 -21q2 0 4 -3t3 -3q-4 -70 -12.5 -178t-10.5 -144q0 -8 -8 -8q-7 0 -22 7t-15 12q-3 41 -14 129t-13 108q-58 -1 -247 -8.5t-199 -7.5q-41 0 -41 106z" />
    <glyph glyph-name="uni00AD" unicode="&#xad;" horiz-adv-x="540" 
d="M479 631v-2q0 -17 -6 -34t-16 -17q-23 -2 -109 -10.5t-159.5 -15t-120.5 -9.5q-7 0 -7 10q0 28 7 60t18 32q278 -8 387 -8q6 0 6 -6z" />
    <glyph glyph-name="registered" unicode="&#xae;" horiz-adv-x="473" 
d="M248 1309h2q95 0 154 -58t59 -149q0 -96 -65 -156.5t-171 -60.5q-83 0 -147 54.5t-64 143.5q0 101 65.5 163.5t166.5 62.5zM242 1282h-2q-82 0 -135.5 -53.5t-53.5 -143.5q0 -84 54.5 -128t130.5 -44q85 0 138.5 51.5t53.5 135.5q0 79 -48.5 130.5t-137.5 51.5zM231 1225
h2q52 0 79.5 -17t27.5 -47q0 -39 -49 -63q41 -51 59 -86l6 -6l13 -5q4 -4 4 -14q0 -2 -2 -2q-4 1 -12.5 1t-18.5 -0.5t-14 -0.5q-5 0 -17 0.5t-21 0.5t-14 -1q-4 0 -4 2t2.5 8t3.5 6l13 3q3 3 2 4t-25 28.5t-35 38.5q0 2 -4 2h-10q-2 -12 -2 -67q0 -4 4 -4l14 -5q5 0 5 -14
q0 -2 -2 -2h-50h-53q-4 0 -4 2q0 12 4 12l17 5l3 2q3 2 3 4q0 5 -1 44.5t-1 49.5q0 7 -2 44.5t-2 45.5q0 1 -7 8l-14 2q-4 0 -4 13v4q46 4 106 4zM223 1098h2q18 0 31.5 17.5t13.5 45.5q0 21 -12.5 33t-28.5 12q-12 0 -12 -6q0 -15 -1 -55.5t-1 -42.5q0 -4 8 -4z" />
    <glyph glyph-name="macron" unicode="&#xaf;" horiz-adv-x="458" 
d="M397 1161v-2q0 -10 -5 -24.5t-9 -14.5q-142 -15 -317 -24q-5 0 -5 4q0 24 5.5 54t13.5 30q60 -2 170.5 -9t142.5 -8q4 0 4 -6z" />
    <glyph glyph-name="degree" unicode="&#xb0;" horiz-adv-x="444" 
d="M225 1300h2q77 0 122.5 -38.5t45.5 -102.5q0 -69 -47 -113.5t-127 -44.5q-76 0 -123 39t-47 109q0 65 46.5 108t127.5 43zM307 1151v2q0 44 -22.5 74t-61.5 30q-37 0 -60.5 -32t-23.5 -74q0 -47 23.5 -77t62.5 -30q36 0 59 31.5t23 75.5z" />
    <glyph glyph-name="plusminus" unicode="&#xb1;" 
d="M68 641v2q0 12 8 12q1 0 95 -6.5t144 -7.5q-3 58 -10.5 163t-9.5 130q0 10 12 10q48 0 87.5 -5.5t39.5 -14.5q-2 -34 -8 -135t-8 -152q46 -3 139.5 -7.5t118.5 -6.5q6 0 6 -9q0 -13 -4 -28t-8 -15q-131 -14 -254 -22q-12 -138 -23 -281q0 -8 -10 -8q-16 0 -28.5 7
t-12.5 14q-4 37 -11.5 121.5t-13.5 142.5q-42 -2 -121 -7.5t-98 -5.5q-15 0 -22.5 35.5t-7.5 73.5zM666 158v-2q0 -11 -4 -28t-9 -17q-73 -6 -296 -19.5t-244 -13.5q-15 -1 -25 18t-13 40.5t-3 43.5q0 10 8 10q214 -12 579 -26q7 0 7 -6z" />
    <glyph glyph-name="twosuperior" unicode="&#xb2;" horiz-adv-x="649" 
d="M190 532l3 -2h49q175 11 225 23q20 6 33 25l55 81q3 3 6 3q6 0 13.5 -5.5t7.5 -9.5l-25 -145q-2 -6 -2.5 -7t-3 -4.5t-4.5 -4.5t-6 -1q-78 4 -269 4h-190q-26 0 -35 27l-8 16q0 11 4 13q67 53 116 98t98.5 103t76 121.5t26.5 127.5q0 78 -37 118t-96 40q-78 0 -143 -72
q-4 -4 -8 -4q-5 0 -11 14t-2 21q34 47 101.5 80t152.5 33q107 0 174.5 -58.5t67.5 -160.5q0 -70 -31 -140t-82 -127t-101 -99.5t-103 -76.5q-8 -8 -52 -31z" />
    <glyph glyph-name="threesuperior" unicode="&#xb3;" horiz-adv-x="651" 
d="M336 883v-6q15 0 43 -7q92 -11 143 -60.5t51 -111.5q0 -109 -98 -164t-250 -55q-109 0 -170 39q-5 4 -6 13.5t0.5 17.5t3.5 8l8 -4q56 -27 129 -27q80 0 136.5 42t56.5 118q0 68 -51.5 115t-171.5 47q-13 0 -13 26q0 5 7 5q202 18 202 170q0 50 -34.5 83t-90.5 33
q-40 0 -80 -18.5t-59 -44.5q-2 -2 -8 -2q-5 0 -9.5 12t-0.5 18q24 36 86.5 65.5t136.5 29.5q120 0 183 -46.5t63 -123.5q0 -58 -50 -102t-126 -64q-28 -5 -31 -6z" />
    <glyph glyph-name="acute" unicode="&#xb4;" horiz-adv-x="350" 
d="M84 1040h-2q-2 0 -7.5 3.5t-10 10.5t-1.5 13q63 110 103 205q9 24 39 24q5 1 82 -8q9 -3 4 -14q-17 -30 -83.5 -105.5t-117.5 -126.5q-2 -2 -6 -2z" />
    <glyph glyph-name="mu" unicode="&#xb5;" horiz-adv-x="1204" 
d="M37 891l362 55q17 3 17 -18q-1 -18 -4.5 -105.5t-6 -170.5t-2.5 -126q0 -212 32.5 -306.5t107.5 -94.5q67 0 120.5 73.5t86.5 200.5q18 67 33 175t18 198q0 32 4 78q3 84 145 90l88 2q14 0 19.5 -6.5t5.5 -22.5q0 -42 -2 -227.5t-2 -226.5q0 -167 8 -379q3 -28 25 -33
l75 -20q5 -1 9 -9t4 -14t-6 -6q-49 2 -195 2q-135 0 -176 -2q-12 0 -12 20q0 4 -1.5 116t-1.5 159q0 6 1.5 26.5t1.5 34.5h-11q-14 -45 -18 -57q-43 -130 -120 -215.5t-173 -85.5q-73 0 -125 49q-4 -49 -10 -120t-13.5 -151.5t-9.5 -107.5q-6 -57 -176 -57q-8 0 -8 10
q-2 241 4 703q3 311 23 501q3 35 -23 35h-86q-6 0 -11 9.5t-5 17.5q0 6 8 6z" />
    <glyph glyph-name="paragraph" unicode="&#xb6;" horiz-adv-x="1099" 
d="M1049 1217h-101q-7 -31 -14 -142.5t-15 -307t-13 -329t-13.5 -375.5t-9.5 -280q0 -8 -20 -21.5t-27 -13.5t-7 8q-4 261 -18.5 802.5t-19.5 662.5l-41 2q-23 0 -23 -41q-2 -71 -11 -361t-20 -621.5t-14 -424.5q0 -6 -19 -16.5t-28 -10.5q-6 0 -6 8q-3 146 -7.5 312t-8 268
t-3.5 115q-245 -19 -391.5 78t-146.5 272q0 143 83.5 250.5t227.5 163t328 55.5q95 0 201 -7.5t147 -15.5q4 0 4 -6q0 -24 -14 -24zM578 487h2q19 0 24.5 5.5t5.5 21.5q0 17 -12.5 339.5t-15.5 365.5q-121 -3 -193 -109.5t-72 -280.5q0 -84 23 -151t61.5 -107.5t83.5 -62
t93 -21.5z" />
    <glyph glyph-name="periodcentered" unicode="&#xb7;" horiz-adv-x="378" 
d="M190 758h3q46 0 76 -33.5t30 -77.5q0 -43 -31 -74.5t-80 -31.5q-46 0 -77 29.5t-31 74.5q0 44 30 78.5t80 34.5z" />
    <glyph glyph-name="cedilla" unicode="&#xb8;" horiz-adv-x="325" 
d="M264 0l-86 -98q-6 -6 4 -6q32 -2 52 -22t20 -52q0 -53 -50.5 -90t-117.5 -43q-8 -2 -16 3.5t-9 12.5q-4 8 2 8q47 14 73 37.5t26 54.5q0 23 -17 37t-45 13q-3 0 -6 5t0 9l117 131h53z" />
    <glyph glyph-name="onesuperior" unicode="&#xb9;" horiz-adv-x="501" 
d="M45 1112l293 111q7 3 11.5 -0.5t4.5 -10.5l-5 -176q-5 -176 -5 -217q-1 -44 -2.5 -111.5l-2.5 -112.5t-1 -52q0 -11 18 -15l76 -10q8 0 8 -22q0 -7 -4 -7q-62 3 -180 3q-134 0 -180 -3q-4 0 -4 7q0 22 10 22l78 10q16 4 16 21q0 13 -2 127t-2 135q-1 23 -4 134.5
t-4 139.5q-3 15 -17 15l-90 -17q-6 0 -14 21q-3 6 2 8z" />
    <glyph glyph-name="ordmasculine" unicode="&#xba;" 
d="M344 647h-2q-137 0 -213 71.5t-76 192.5q0 63 21.5 119t63.5 100.5t111.5 70.5t158.5 26q147 0 219.5 -75.5t72.5 -193.5q0 -132 -92.5 -221.5t-263.5 -89.5zM381 684h2q66 0 92.5 66t26.5 192q0 110 -29.5 179t-93.5 69t-95.5 -69t-31.5 -189q0 -109 33.5 -178.5
t95.5 -69.5z" />
    <glyph glyph-name="guillemotright" unicode="&#xbb;" horiz-adv-x="567" 
d="M297 555v-2l-8 -12q-20 -20 -109 -104.5t-117 -114.5q-5 -3 -8 0q-17 17 -14 22q11 22 51 101t53 104q-10 18 -47.5 88t-54.5 100q-1 1 3 9.5t9 13.5q3 3 6 0q161 -142 230 -195q6 -6 6 -10zM535 555v-2q0 -1 -1.5 -2.5t-3.5 -4.5t-4 -5q-23 -23 -110.5 -107t-114.5 -112
q-5 -3 -8 0q-20 15 -17 22q78 144 105 205q-39 75 -102 188q-2 2 3 10.5t11 12.5q3 3 6 0q123 -113 229 -195q7 -7 7 -10z" />
    <glyph glyph-name="onequarter" unicode="&#xbc;" horiz-adv-x="1361" 
d="M1047 727h2q53 0 125 -10q12 0 12 -10q0 -36 -6 -239.5t-6 -234.5q86 -8 131 -8q4 0 4 -4q0 -28 -11 -28q-12 -1 -61.5 -3.5t-62.5 -3.5q-7 -93 -7 -135q0 -13 15 -16l51 -8q8 -3 8 -23q0 -6 -4 -6q-55 2 -143 2q-133 0 -164 -2q-4 0 -4 4q0 5 1.5 11t3.5 10t3 4l67 10
q15 0 15 14q0 92 -2 131h-334q-22 0 -41 31q-10 25 -10 31q0 2 4 10q188 234 350 448q20 25 64 25zM768 272l2 -6q36 -4 45 -6q129 -15 199 -18q-4 62 -4 321q0 27 4 109h-6q-24 -51 -31 -60q-98 -167 -174 -284q-4 -8 -10.5 -18t-14 -21.5t-10.5 -16.5zM995 1229h2
q11 0 4 -15q-67 -119 -300 -553.5t-373 -666.5q-3 -6 -13 -6q-50 0 -50 7q0 2 1 3q112 213 336 684.5t244 511.5q12 22 41.5 28.5t107.5 6.5zM43 1112l295 111q6 3 11 -1t5 -10t-2.5 -82.5t-5.5 -167.5t-4 -118q-4 -254 -4 -299q0 -11 18 -15l74 -12q3 0 6.5 -7.5t3.5 -14.5
t-4 -7q-62 3 -182 3q-132 0 -178 -3q-4 0 -4 7q0 22 8 22l78 12q16 3 16 15q0 188 -4 266q0 176 -8 274q0 15 -17 15l-88 -17q-8 0 -16 21q0 6 2 8z" />
    <glyph glyph-name="onehalf" unicode="&#xbd;" horiz-adv-x="1363" 
d="M991 1229h2q13 0 4 -17q-34 -61 -281 -520.5t-390 -697.5q-3 -6 -13 -6q-50 0 -50 10q0 1 1 2q112 212 340 691t240 503q11 22 41 28.5t106 6.5zM43 1112l295 111q6 3 10 -1t4 -10q0 -49 -10 -389q-4 -218 -4 -278q0 -11 18 -15l74 -12q3 0 6.5 -7.5t3.5 -14.5t-4 -7
q-62 3 -182 3q-132 0 -178 -3q-4 0 -4 7q0 22 8 22l78 12q16 0 16 15q0 188 -4 266q0 176 -8 274q0 15 -17 15l-88 -17q-8 0 -16 21q0 6 2 8zM905 43l2 -4q7 0 24 1t23 1q189 12 228 20q18 6 30 27l56 80q2 4 8 4q4 0 11 -5.5t7 -8.5l-24 -146q-3 -16 -15 -16q-7 0 -93.5 2
t-176.5 2q-53 0 -119.5 -1t-70.5 -1q-26 0 -35 27l-6 16q-3 9 4 12q53 43 92 77.5t83.5 82.5t73 91.5t47.5 96.5t19 105q0 77 -37 117.5t-96 40.5q-78 0 -143 -72q-2 -4 -6 -4q-6 0 -11.5 13.5t-1.5 19.5q32 47 100 80.5t152 33.5q108 0 175 -59t67 -160q0 -70 -30.5 -140
t-81.5 -127.5t-100.5 -99.5t-103.5 -77q-31 -18 -51 -29z" />
    <glyph glyph-name="threequarters" unicode="&#xbe;" horiz-adv-x="1462" 
d="M1157 727h2q55 0 123 -8q14 -3 14 -12q0 -38 -7 -246.5t-7 -227.5q86 -8 133 -8q4 0 4 -6q0 -10 -3.5 -18t-8.5 -8q-12 -1 -62 -3.5t-63 -3.5q-4 -110 -4 -135q0 -13 12 -16l53 -8q7 -3 7 -23q0 -6 -4 -6q-53 2 -142 2q-133 0 -166 -2q-2 0 -2 4q0 25 8 25l68 10
q14 3 14 14q0 14 -1 62.5t-1 68.5h-336q-19 0 -38 31q-13 22 -13 29l6 12q207 258 351 448q18 25 63 25zM877 272l2 -6q8 -1 24.5 -3t24.5 -3q117 -15 194 -18q0 18 -1 165.5t-1 155.5q0 7 1 46.5t1 62.5h-6q-23 -48 -31 -62q-41 -67 -99.5 -162.5t-74.5 -121.5
q-5 -8 -17 -27t-17 -27zM1104 1229h2q5 0 6 -4.5t-2 -10.5q-49 -87 -289.5 -535.5t-382.5 -684.5q-3 -6 -12 -6q-50 0 -50 10q0 1 1 2q83 158 186 370.5t220.5 462t172.5 363.5q12 21 41.5 27t106.5 6zM336 883v-6q15 0 43 -7q92 -11 143 -60.5t51 -111.5q0 -109 -98 -164
t-250 -55q-109 0 -170 39q-5 4 -6 13.5t0.5 17.5t3.5 8l8 -4q56 -27 129 -27q80 0 136.5 42t56.5 118q0 68 -51.5 115t-171.5 47q-13 0 -13 26q0 5 7 5q202 18 202 170q0 50 -34 83t-89 33q-41 0 -81 -18.5t-60 -44.5q-2 -2 -8 -2q-5 0 -9.5 12t-0.5 18q24 36 86.5 65.5
t136.5 29.5q120 0 183 -46.5t63 -123.5q0 -58 -50 -102t-126 -64q-28 -5 -31 -6z" />
    <glyph glyph-name="questiondown" unicode="&#xbf;" horiz-adv-x="827" 
d="M96 -35v2q0 146 110.5 259t299.5 182q22 7 22 41q2 60 -14 169q-1 5 8 14t13 9q2 0 6 -4q22 -32 50.5 -93t35.5 -98q8 -38 -19 -59q-122 -93 -176.5 -186.5t-54.5 -206.5q0 -97 59.5 -163.5t157.5 -66.5q65 0 123 31t100 86q4 4 6 4q5 0 12.5 -11t4.5 -17
q-40 -77 -144.5 -140t-232.5 -63q-96 0 -169 27t-115 72t-62.5 98.5t-20.5 113.5zM518 741h-2q-44 0 -74 32t-30 75q0 40 30 70t78 30q44 0 74.5 -28.5t30.5 -71.5q0 -42 -30 -74.5t-77 -32.5z" />
    <glyph glyph-name="Agrave" unicode="&#xc0;" horiz-adv-x="1228" 
d="M594 1266h2q82 0 172 -4q12 0 16 -9q275 -921 359 -1179q7 -21 26 -27l76 -20q10 -3 10 -27q0 -4 -6 -4q-14 0 -99.5 2t-143.5 2q-171 0 -281 -4q-6 0 -6 4q0 25 12 29l111 18q22 3 14 33q-11 31 -60 164t-61 170q-296 -6 -436 -17q-11 0 -14 -16q-2 -9 -29.5 -132
t-34.5 -167q-1 -17 4 -24.5t17 -10.5l106 -20q4 0 8 -9t4 -18q0 -4 -6 -4q-102 4 -215 4q-90 0 -172 -4q-4 0 -4 6t3 16t7 11l52 16q24 6 36 37q59 145 225 613.5t181 510.5q13 36 39 48t88 12zM498 1104h-13q-14 -44 -20 -70q-53 -177 -156 -549q-1 -6 2 -10t8 -4
q67 -9 199 -14.5t203 -3.5q-147 411 -197 579q-16 47 -26 72zM676 1333h-2q-4 0 -6 2q-67 35 -150.5 97.5t-105.5 93.5q-7 10 4 14q46 8 88 8q22 0 39 -20q78 -103 151 -174q4 -5 -5 -13t-13 -8z" />
    <glyph glyph-name="Aacute" unicode="&#xc1;" horiz-adv-x="1228" 
d="M594 1266h2q82 0 172 -4q12 0 16 -9q275 -921 359 -1179q7 -21 26 -27l76 -20q10 -3 10 -27q0 -4 -6 -4q-14 0 -99.5 2t-143.5 2q-171 0 -281 -4q-6 0 -6 4q0 25 12 29l111 18q22 3 14 33q-11 31 -60 164t-61 170q-296 -6 -436 -17q-11 0 -14 -16q-2 -9 -29.5 -132
t-34.5 -167q-1 -17 4 -24.5t17 -10.5l106 -20q4 0 8 -9t4 -18q0 -4 -6 -4q-102 4 -215 4q-90 0 -172 -4q-4 0 -4 6t3 16t7 11l52 16q24 6 36 37q59 145 225 613.5t181 510.5q13 36 39 48t88 12zM498 1104h-13q-14 -44 -20 -70q-53 -177 -156 -549q-1 -6 2 -10t8 -4
q67 -9 199 -14.5t203 -3.5q-147 411 -197 579q-16 47 -26 72zM584 1331h-2q-5 0 -13 8.5t-4 12.5q73 69 154 176q13 20 41 20q2 0 82 -8q15 -3 6 -16q-22 -31 -105 -92.5t-151 -96.5z" />
    <glyph glyph-name="Acircumflex" unicode="&#xc2;" horiz-adv-x="1228" 
d="M594 1266h2q82 0 172 -4q12 0 16 -9q275 -921 359 -1179q7 -21 26 -27l76 -20q10 -3 10 -27q0 -4 -6 -4q-14 0 -99.5 2t-143.5 2q-171 0 -281 -4q-6 0 -6 4q0 25 12 29l111 18q22 3 14 33q-11 31 -60 164t-61 170q-296 -6 -436 -17q-11 0 -14 -16q-2 -9 -29.5 -132
t-34.5 -167q-1 -17 4 -24.5t17 -10.5l106 -20q4 0 8 -9t4 -18q0 -4 -6 -4q-102 4 -215 4q-90 0 -172 -4q-4 0 -4 6t3 16t7 11l52 16q24 6 36 37q59 145 225 613.5t181 510.5q13 36 39 48t88 12zM498 1104h-13q-14 -44 -20 -70q-53 -177 -156 -549q-1 -6 2 -10t8 -4
q67 -9 199 -14.5t203 -3.5q-147 411 -197 579q-16 47 -26 72zM629 1548h2q5 0 12 -10q13 -14 46.5 -50.5t65.5 -71t56 -62.5q6 -6 -6 -23q-6 -3 -12 0q-22 14 -166 103q-29 -19 -164 -103q-5 -3 -10 2q-15 15 -9 23q74 82 166 180q6 12 19 12z" />
    <glyph glyph-name="Atilde" unicode="&#xc3;" horiz-adv-x="1228" 
d="M594 1266h2q82 0 172 -4q12 0 16 -9q275 -921 359 -1179q7 -21 26 -27l76 -20q10 -3 10 -27q0 -4 -6 -4q-14 0 -99.5 2t-143.5 2q-171 0 -281 -4q-6 0 -6 4q0 25 12 29l111 18q22 3 14 33q-11 31 -60 164t-61 170q-296 -6 -436 -17q-11 0 -14 -16q-2 -9 -29.5 -132
t-34.5 -167q-1 -17 4 -24.5t17 -10.5l106 -20q4 0 8 -9t4 -18q0 -4 -6 -4q-102 4 -215 4q-90 0 -172 -4q-4 0 -4 6t3 16t7 11l52 16q24 6 36 37q59 145 225 613.5t181 510.5q13 36 39 48t88 12zM498 1104h-13q-14 -44 -20 -70q-53 -177 -156 -549q-1 -6 2 -10t8 -4
q67 -9 199 -14.5t203 -3.5q-147 411 -197 579q-16 47 -26 72zM696 1354h-2q-16 0 -42.5 11.5t-43.5 23.5q-54 26 -80 26q-51 0 -71 -67q-4 -11 -27 -11q-2 0 -2 6q0 65 30 114.5t79 49.5q41 0 94 -34q55 -33 78 -33q26 0 42 19.5t19 51.5q3 15 27 15q4 0 4 -6
q0 -66 -26.5 -116t-78.5 -50z" />
    <glyph glyph-name="Adieresis" unicode="&#xc4;" horiz-adv-x="1228" 
d="M594 1266h2q82 0 172 -4q12 0 16 -9q275 -921 359 -1179q7 -21 26 -27l76 -20q10 -3 10 -27q0 -4 -6 -4q-14 0 -99.5 2t-143.5 2q-171 0 -281 -4q-6 0 -6 4q0 25 12 29l111 18q22 3 14 33q-11 31 -60 164t-61 170q-296 -6 -436 -17q-11 0 -14 -16q-2 -9 -29.5 -132
t-34.5 -167q-1 -17 4 -24.5t17 -10.5l106 -20q4 0 8 -9t4 -18q0 -4 -6 -4q-102 4 -215 4q-90 0 -172 -4q-4 0 -4 6t3 16t7 11l52 16q24 6 36 37q59 145 225 613.5t181 510.5q13 36 39 48t88 12zM498 1104h-13q-14 -44 -20 -70q-53 -177 -156 -549q-1 -6 2 -10t8 -4
q67 -9 199 -14.5t203 -3.5q-147 411 -197 579q-16 47 -26 72zM475 1503h2q32 0 52 -19.5t20 -49.5q0 -32 -20.5 -54t-53.5 -22t-54.5 20.5t-21.5 51.5q0 30 21 51.5t55 21.5zM784 1503h2q29 0 49.5 -20t20.5 -49q0 -31 -21 -53.5t-53 -22.5q-33 0 -54 21t-21 51q0 29 21 51
t56 22z" />
    <glyph glyph-name="Aring" unicode="&#xc5;" horiz-adv-x="1228" 
d="M594 1266h2q82 0 172 -4q12 0 16 -9q275 -921 359 -1179q7 -21 26 -27l76 -20q10 -3 10 -27q0 -4 -6 -4q-14 0 -99.5 2t-143.5 2q-171 0 -281 -4q-6 0 -6 4q0 25 12 29l111 18q22 3 14 33q-11 31 -60 164t-61 170q-296 -6 -436 -17q-11 0 -14 -16q-2 -9 -29.5 -132
t-34.5 -167q-1 -17 4 -24.5t17 -10.5l106 -20q4 0 8 -9t4 -18q0 -4 -6 -4q-102 4 -215 4q-90 0 -172 -4q-4 0 -4 6t3 16t7 11l52 16q24 6 36 37q59 145 225 613.5t181 510.5q13 36 39 48t88 12zM498 1104h-13q-14 -44 -20 -70q-53 -177 -156 -549q-1 -6 2 -10t8 -4
q67 -9 199 -14.5t203 -3.5q-147 411 -197 579q-16 47 -26 72zM618 1563h3q62 0 100.5 -29.5t38.5 -79.5q0 -48 -41.5 -80.5t-104.5 -32.5t-103 29t-40 80q0 47 41 80t106 33zM612 1528h-2q-28 0 -47.5 -22.5t-19.5 -55.5t20 -52.5t51 -19.5q32 0 52 21.5t20 54.5
q0 36 -20 55t-54 19z" />
    <glyph glyph-name="AE" unicode="&#xc6;" horiz-adv-x="1652" 
d="M1542 1255l14 -268q0 -4 -9.5 -10t-14.5 -6q-4 0 -6 4q-80 173 -88 190q-12 22 -52 29q-59 12 -159.5 22.5t-130.5 10.5q-23 -3 -23 -23q-6 -89 -11 -283.5t-5 -297.5q57 -2 153 -5t165.5 -5.5t90.5 -2.5q4 0 4 -6q0 -8 -5 -20.5t-9 -12.5q-44 -4 -188 -12.5t-187 -11.5
q-14 -2 -19.5 -6.5t-6.5 -16.5q-8 -272 -8 -454q0 -27 22 -27q234 0 358 35q34 10 46 31q13 17 112 170q2 4 6 4q5 0 13.5 -9.5t7.5 -15.5l-53 -258q-3 -10 -15 -10q-11 0 -158 6q-196 4 -483 4q-114 0 -250 -4q-6 0 -6 4q0 22 10 25l95 20q24 7 24 33q0 151 -8 467
q-244 0 -336 -10q-10 0 -18 -15q-157 -334 -197 -438q-12 -27 16 -35l107 -20q12 0 12 -25q0 -6 -6 -6q-98 4 -231 4q-96 0 -178 -4q-5 0 -5 4q0 7 3.5 17.5t7.5 11.5l53 16q27 7 43 31q82 122 363.5 610.5t322.5 556.5q13 19 27 19h159q281 0 469 4q42 0 76.5 0.5t52.5 1
t21 0.5q12 0 12 -13zM750 1163h-13q-10 -17 -24.5 -46.5t-18.5 -35.5q-10 -20 -98 -195.5t-127 -256.5q-9 -18 6 -21q94 -12 291 -16q0 34 -5 217t-5 217q0 35 -6 137z" />
    <glyph glyph-name="Ccedilla" unicode="&#xc7;" horiz-adv-x="1144" 
d="M678 -16l-76 -86q-3 -3 -1.5 -4t7.5 -3q34 0 58 -20.5t24 -52.5q0 -56 -55 -94t-125 -46q-7 0 -14.5 5.5t-10.5 13.5q0 6 4 8q50 12 77.5 36.5t27.5 57.5q0 26 -20 40t-50 11q-5 0 -7 5.5t1 11.5l107 119q-92 6 -170.5 28t-147.5 65.5t-117 106.5t-76 154.5t-28 204.5
q0 189 68 333t176 234q206 166 489 166q155 0 225 -39q11 -5 11 -20l22 -287q1 -7 -9.5 -15t-18.5 -8q-5 0 -9 6q-104 228 -116 254q-12 24 -29 41q-31 27 -82 27q-60 0 -123 -32.5t-117 -92.5q-163 -193 -163 -541q0 -127 33 -225t88.5 -155.5t121 -86t138.5 -28.5
q60 0 118 12q71 12 178 55q3 1 5.5 -1.5t4 -8.5t1.5 -16q0 -9 -6 -15q-40 -21 -109.5 -50.5t-122.5 -45.5q-81 -22 -182 -22z" />
    <glyph glyph-name="Egrave" unicode="&#xc8;" horiz-adv-x="1085" 
d="M1042 258l-53 -258q-3 -10 -16 -10q-11 0 -164 6q-204 4 -492 4q-113 0 -249 -4q-7 0 -7 4q0 21 11 25l94 20q22 6 22 33q1 58 0.5 154t-1.5 240t-1 175q0 12 -4 251.5t-6 279.5q0 29 -20 36l-84 17q-3 0 -7 9.5t-4 19.5q0 4 5 4q25 0 71.5 -1t67.5 -1h114q128 0 238 0.5
t178.5 1.5t117 2t74.5 1.5t31 0.5q13 0 13 -13l14 -268q0 -4 -9.5 -10t-14.5 -6t-7 4q-61 132 -88 190q-13 23 -51 29q-60 12 -164.5 22.5t-134.5 10.5q-14 -1 -18 -6t-4 -17q-7 -93 -15 -280t-6 -238q83 -4 249 -8t175 -4q4 0 4 -4q0 -9 -6 -22t-10 -13q-39 -4 -187 -14
t-202 -15q-14 -2 -19.5 -6t-5.5 -16q-10 -340 -10 -514q0 -16 5 -21.5t17 -5.5q245 0 375 35q31 9 43 31q49 66 113 170q2 4 6 4q7 -2 15 -10.5t7 -14.5zM623 1331h-2q-3 0 -7 4q-67 35 -150.5 97.5t-105.5 93.5q-7 10 4 14q46 8 89 8q21 0 38 -20q75 -100 152 -174
q4 -5 -5 -14t-13 -9z" />
    <glyph glyph-name="Eacute" unicode="&#xc9;" horiz-adv-x="1085" 
d="M1042 258l-53 -258q-3 -10 -16 -10q-11 0 -164 6q-204 4 -492 4q-113 0 -249 -4q-7 0 -7 4q0 21 11 25l94 20q22 6 22 33q1 58 0.5 154t-1.5 240t-1 175q0 12 -4 251.5t-6 279.5q0 29 -20 36l-84 17q-3 0 -7 9.5t-4 19.5q0 4 5 4q25 0 71.5 -1t67.5 -1h114q128 0 238 0.5
t178.5 1.5t117 2t74.5 1.5t31 0.5q13 0 13 -13l14 -268q0 -4 -9.5 -10t-14.5 -6t-7 4q-61 132 -88 190q-13 23 -51 29q-60 12 -164.5 22.5t-134.5 10.5q-14 -1 -18 -6t-4 -17q-7 -93 -15 -280t-6 -238q83 -4 249 -8t175 -4q4 0 4 -4q0 -9 -6 -22t-10 -13q-39 -4 -187 -14
t-202 -15q-14 -2 -19.5 -6t-5.5 -16q-10 -340 -10 -514q0 -16 5 -21.5t17 -5.5q245 0 375 35q31 9 43 31q49 66 113 170q2 4 6 4q7 -2 15 -10.5t7 -14.5zM535 1331h-3q-5 0 -12 8.5t-2 12.5q71 69 152 176q17 20 41 20q15 0 48.5 -4t35.5 -4q7 -1 8 -6.5t-4 -9.5
q-20 -30 -103.5 -91.5t-152.5 -97.5q-4 -4 -8 -4z" />
    <glyph glyph-name="Ecircumflex" unicode="&#xca;" horiz-adv-x="1085" 
d="M1042 258l-53 -258q-3 -10 -16 -10q-11 0 -164 6q-204 4 -492 4q-113 0 -249 -4q-7 0 -7 4q0 21 11 25l94 20q22 6 22 33q1 58 0.5 154t-1.5 240t-1 175q0 12 -4 251.5t-6 279.5q0 29 -20 36l-84 17q-3 0 -7 9.5t-4 19.5q0 4 5 4q25 0 71.5 -1t67.5 -1h114q128 0 238 0.5
t178.5 1.5t117 2t74.5 1.5t31 0.5q13 0 13 -13l14 -268q0 -4 -9.5 -10t-14.5 -6t-7 4q-61 132 -88 190q-13 23 -51 29q-60 12 -164.5 22.5t-134.5 10.5q-14 -1 -18 -6t-4 -17q-7 -93 -15 -280t-6 -238q83 -4 249 -8t175 -4q4 0 4 -4q0 -9 -6 -22t-10 -13q-39 -4 -187 -14
t-202 -15q-14 -2 -19.5 -6t-5.5 -16q-10 -340 -10 -514q0 -16 5 -21.5t17 -5.5q245 0 375 35q31 9 43 31q49 66 113 170q2 4 6 4q7 -2 15 -10.5t7 -14.5zM582 1561h2q5 0 12 -11q27 -31 170 -184q3 -4 0 -12t-8 -11q-3 -7 -13 0q-21 13 -78 48t-87 53q-14 -9 -45 -28.5
t-60 -37.5t-59 -35q-5 -2 -10 3q-16 11 -7 20q26 30 87.5 97t76.5 85q13 13 19 13z" />
    <glyph glyph-name="Edieresis" unicode="&#xcb;" horiz-adv-x="1085" 
d="M1042 258l-53 -258q-3 -10 -16 -10q-11 0 -164 6q-204 4 -492 4q-113 0 -249 -4q-7 0 -7 4q0 21 11 25l94 20q22 6 22 33q1 58 0.5 154t-1.5 240t-1 175q0 12 -4 251.5t-6 279.5q0 29 -20 36l-84 17q-3 0 -7 9.5t-4 19.5q0 4 5 4q25 0 71.5 -1t67.5 -1h114q128 0 238 0.5
t178.5 1.5t117 2t74.5 1.5t31 0.5q13 0 13 -13l14 -268q0 -4 -9.5 -10t-14.5 -6t-7 4q-61 132 -88 190q-13 23 -51 29q-60 12 -164.5 22.5t-134.5 10.5q-14 -1 -18 -6t-4 -17q-7 -93 -15 -280t-6 -238q83 -4 249 -8t175 -4q4 0 4 -4q0 -9 -6 -22t-10 -13q-39 -4 -187 -14
t-202 -15q-14 -2 -19.5 -6t-5.5 -16q-10 -340 -10 -514q0 -16 5 -21.5t17 -5.5q245 0 375 35q31 9 43 31q49 66 113 170q2 4 6 4q7 -2 15 -10.5t7 -14.5zM424 1509h2q32 0 52 -19.5t20 -49.5q0 -31 -20.5 -53.5t-53.5 -22.5t-54.5 21t-21.5 51t21 51.5t55 21.5zM733 1509h2
q29 0 49.5 -20t20.5 -49q0 -30 -21.5 -53t-52.5 -23q-33 0 -54.5 21t-21.5 51q0 29 21.5 51t56.5 22z" />
    <glyph glyph-name="Igrave" unicode="&#xcc;" horiz-adv-x="653" 
d="M66 1262h530q4 0 4 -9q0 -25 -10 -28l-80 -15q-21 -3 -21 -28q-8 -109 -18 -564q-8 -304 -8 -548q0 -19 22 -25l84 -18q6 -1 9.5 -9.5t3.5 -15.5q0 -6 -7 -6q-70 4 -260 4q-151 0 -245 -4q-4 0 -4 6q0 24 10 27l94 18q18 3 18 27q1 56 -6 567q-6 476 -10 528q0 35 -22 41
l-78 15q-11 4 -11 30q0 7 5 7zM369 1333h-2q-5 0 -7 2q-67 35 -150.5 97.5t-105.5 93.5q-7 10 5 14q46 8 88 8q22 0 39 -20q78 -103 151 -174q4 -5 -5 -13t-13 -8z" />
    <glyph glyph-name="Iacute" unicode="&#xcd;" horiz-adv-x="653" 
d="M66 1262h530q4 0 4 -9q0 -25 -10 -28l-80 -15q-21 -3 -21 -28q-8 -109 -18 -564q-8 -304 -8 -548q0 -19 22 -25l84 -18q6 -1 9.5 -9.5t3.5 -15.5q0 -6 -7 -6q-70 4 -260 4q-151 0 -245 -4q-4 0 -4 6q0 24 10 27l94 18q18 3 18 27q1 56 -6 567q-6 476 -10 528q0 35 -22 41
l-78 15q-11 4 -11 30q0 7 5 7zM305 1331h-2q-6 0 -13 8.5t-3 12.5q83 79 151 176q17 20 41 20q4 0 84 -8q15 -3 6 -16q-21 -30 -105 -91.5t-151 -97.5z" />
    <glyph glyph-name="Icircumflex" unicode="&#xce;" horiz-adv-x="653" 
d="M66 1262h530q4 0 4 -9q0 -25 -10 -28l-80 -15q-21 -3 -21 -28q-8 -109 -18 -564q-8 -304 -8 -548q0 -19 22 -25l84 -18q6 -1 9.5 -9.5t3.5 -15.5q0 -6 -7 -6q-70 4 -260 4q-151 0 -245 -4q-4 0 -4 6q0 24 10 27l94 18q18 3 18 27q1 56 -6 567q-6 476 -10 528q0 35 -22 41
l-78 15q-11 4 -11 30q0 7 5 7zM330 1561h2q5 0 12 -11q27 -31 170 -184q3 -4 0 -12t-8 -11q-3 -6 -12 0q-14 8 -74.5 45.5t-91.5 55.5q-9 -6 -66 -42t-96 -59q-6 -3 -12 3q-16 11 -7 20q26 30 87.5 97t76.5 85q13 13 19 13z" />
    <glyph glyph-name="Idieresis" unicode="&#xcf;" horiz-adv-x="653" 
d="M66 1262h530q4 0 4 -9q0 -25 -10 -28l-80 -15q-21 -3 -21 -28q-8 -109 -18 -564q-8 -304 -8 -548q0 -19 22 -25l84 -18q6 -1 9.5 -9.5t3.5 -15.5q0 -6 -7 -6q-70 4 -260 4q-151 0 -245 -4q-4 0 -4 6q0 24 10 27l94 18q18 3 18 27q1 56 -6 567q-6 476 -10 528q0 35 -22 41
l-78 15q-11 4 -11 30q0 7 5 7zM182 1511h2q30 0 50 -20.5t20 -50.5t-20.5 -52t-53.5 -22q-32 0 -54 20.5t-22 49.5q0 30 22 52.5t56 22.5zM489 1511h3q30 0 49.5 -20.5t19.5 -50.5t-20.5 -52t-53.5 -22q-32 0 -52.5 20t-20.5 50t20 52.5t55 22.5z" />
    <glyph glyph-name="Eth" unicode="&#xd0;" horiz-adv-x="1388" 
d="M221 586l-158 -4q-8 0 -8 8q0 12 13 47q8 22 41 22h110q0 341 -6 512q0 30 -23 33l-94 8q-10 0 -10 25q0 8 4 8q80 10 232 19.5t276 9.5q342 0 525.5 -146t183.5 -432q0 -162 -56.5 -295t-155.5 -221t-235 -136t-295 -48q-32 0 -125.5 2t-115.5 2q-108 0 -218 -4
q-6 0 -6 6q0 8 3.5 16.5t7.5 8.5l92 18q22 3 24 31q1 47 -6 510zM516 657l262 -2q6 0 6 -6q0 -10 -5.5 -24t-12.5 -15l-252 -16q-11 -475 -8 -524q3 -37 72 -37q56 0 110 18.5t109.5 66t96.5 119.5t67 189t26 264q0 249 -106 397t-295 148q-29 0 -39 -7.5t-12 -27.5
q-12 -132 -19 -543z" />
    <glyph glyph-name="Ntilde" unicode="&#xd1;" horiz-adv-x="1269" 
d="M29 1262h350q13 0 20 -11q48 -64 163 -239t250.5 -384t188.5 -288q17 -33 37 -66l9 7q0 17 -1.5 47.5t-1.5 44.5q-1 19 -4 164t-5.5 245.5t-7.5 221t-11 170.5q-3 32 -33 38l-113 17q-10 3 -10 26q0 7 4 7h396q6 0 6 -7q0 -22 -11 -26l-75 -17q-16 -3 -23 -13.5
t-10 -35.5q-15 -170 -29 -536q-3 -55 -18 -615q0 -10 -13 -16q-61 -16 -96 -16q-34 0 -53 24q-164 198 -623 813q-4 6 -15 23.5t-15 23.5l-11 -2q-2 -29 -2 -67q-24 -463 -28 -717q-2 -25 20 -31l131 -22q11 -4 11 -23q0 -6 -7 -6q-62 4 -184 4q-100 0 -170 -4q-4 0 -4 6
q0 23 10 23l105 22q22 3 22 31q0 31 -6.5 257t-7.5 279q-9 393 -19 555q-2 19 -8 28.5t-22 12.5l-82 17q-10 3 -10 28q0 7 6 7zM762 1350h-2q-16 0 -42.5 11t-43.5 23q-56 27 -80 27q-52 0 -72 -68q-3 -10 -26 -10q-2 0 -2 6q0 65 29.5 114.5t78.5 49.5q39 0 94 -35
q53 -32 78 -32q26 0 42.5 19.5t19.5 51.5q3 15 26 15q4 0 4 -6q0 -66 -26 -116t-78 -50z" />
    <glyph glyph-name="Ograve" unicode="&#xd2;" horiz-adv-x="1374" 
d="M666 -16h-2q-274 0 -426 152.5t-152 438.5q0 205 76 363t224 249t349 91q265 0 411 -162.5t146 -427.5q0 -329 -161.5 -516.5t-464.5 -187.5zM702 23h3q262 0 262 630q0 114 -18 218.5t-52 187.5t-87.5 132.5t-119.5 49.5q-131 0 -206.5 -172t-75.5 -471
q0 -152 34.5 -281.5t102.5 -211.5t157 -82zM717 1352h-2l-4 4q-68 35 -151 97t-105 93q-8 12 2 15q50 8 88 8q25 0 39 -21q72 -95 151 -174q5 -5 -3.5 -13.5t-14.5 -8.5z" />
    <glyph glyph-name="Oacute" unicode="&#xd3;" horiz-adv-x="1374" 
d="M666 -16h-2q-274 0 -426 152.5t-152 438.5q0 205 76 363t224 249t349 91q265 0 411 -162.5t146 -427.5q0 -329 -161.5 -516.5t-464.5 -187.5zM702 23h3q262 0 262 630q0 114 -18 218.5t-52 187.5t-87.5 132.5t-119.5 49.5q-131 0 -206.5 -172t-75.5 -471
q0 -152 34.5 -281.5t102.5 -211.5t157 -82zM690 1352h-2q-5 0 -12 8t-2 12q62 59 151 176q17 21 41 21q4 0 84 -8q15 -3 6 -17q-21 -30 -105 -91t-153 -97q-4 -4 -8 -4z" />
    <glyph glyph-name="Ocircumflex" unicode="&#xd4;" horiz-adv-x="1374" 
d="M666 -16h-2q-274 0 -426 152.5t-152 438.5q0 205 76 363t224 249t349 91q265 0 411 -162.5t146 -427.5q0 -329 -161.5 -516.5t-464.5 -187.5zM702 23h3q262 0 262 630q0 114 -18 218.5t-52 187.5t-87.5 132.5t-119.5 49.5q-131 0 -206.5 -172t-75.5 -471
q0 -152 34.5 -281.5t102.5 -211.5t157 -82zM705 1561h2q5 0 12 -11q27 -31 170 -184q3 -4 0 -12t-8 -11q-3 -7 -13 0q-14 8 -74.5 45.5t-91.5 55.5q-3 -2 -63.5 -40t-99.5 -61q-5 -3 -11 3q-5 3 -7.5 9t1.5 11q31 36 93.5 104.5t70.5 77.5q13 13 19 13z" />
    <glyph glyph-name="Otilde" unicode="&#xd5;" horiz-adv-x="1374" 
d="M666 -16h-2q-274 0 -426 152.5t-152 438.5q0 205 76 363t224 249t349 91q265 0 411 -162.5t146 -427.5q0 -329 -161.5 -516.5t-464.5 -187.5zM702 23h3q262 0 262 630q0 114 -18 218.5t-52 187.5t-87.5 132.5t-119.5 49.5q-131 0 -206.5 -172t-75.5 -471
q0 -152 34.5 -281.5t102.5 -211.5t157 -82zM762 1362h-2q-25 0 -88 33q-50 26 -80 26q-51 0 -70 -67q-3 -8 -26 -8q-5 0 -2 6q0 65 29.5 113t78.5 48q41 0 94 -34q52 -31 78 -31t42.5 20t19.5 52q3 12 26 12q4 0 4 -4q0 -67 -25.5 -116.5t-78.5 -49.5z" />
    <glyph glyph-name="Odieresis" unicode="&#xd6;" horiz-adv-x="1374" 
d="M666 -16h-2q-274 0 -426 152.5t-152 438.5q0 205 76 363t224 249t349 91q265 0 411 -162.5t146 -427.5q0 -329 -161.5 -516.5t-464.5 -187.5zM702 23h3q262 0 262 630q0 114 -18 218.5t-52 187.5t-87.5 132.5t-119.5 49.5q-131 0 -206.5 -172t-75.5 -471
q0 -152 34.5 -281.5t102.5 -211.5t157 -82zM557 1509h2q31 0 50.5 -19.5t19.5 -49.5q0 -31 -20.5 -53.5t-53.5 -22.5q-32 0 -54 21t-22 51t22 51.5t56 21.5zM864 1509h2q30 0 50 -19.5t20 -49.5q0 -31 -20.5 -53.5t-53.5 -22.5q-32 0 -53 21t-21 51t20.5 51.5t55.5 21.5z
" />
    <glyph glyph-name="multiply" unicode="&#xd7;" 
d="M596 276h-2q-5 0 -10 5q-19 17 -96.5 95.5t-116.5 115.5q-50 -50 -215 -220q-6 -6 -11 -6q-7 0 -19.5 19t-8.5 26q23 31 84.5 111.5t105.5 138.5q-38 39 -114 119.5t-89 93.5q-10 12 28 59.5t50 47.5q7 0 11 -4q14 -18 82.5 -106.5t103.5 -129.5q85 117 174 238q4 4 10 4
q12 0 51 -43t31 -54q-26 -30 -100.5 -111t-104.5 -114q25 -34 101 -132t94 -124q4 -6 -12 -17.5t-27 -11.5z" />
    <glyph glyph-name="Oslash" unicode="&#xd8;" horiz-adv-x="1374" 
d="M733 1278h2q180 0 322 -86q18 26 96 145q5 9 10 9q10 0 32 -37t13 -52q-16 -24 -46 -68t-38 -56q168 -159 168 -445q0 -331 -165.5 -517.5t-460.5 -186.5q-179 0 -301 61q-88 -106 -119 -145q-11 -11 -45 -11q-13 0 -6 15q23 31 63.5 91t54.5 79q-227 161 -227 501
q0 151 43.5 279t125 222.5t204.5 148t274 53.5zM692 1241h-2q-129 0 -208 -173.5t-79 -469.5q0 -159 50 -336q243 373 469 729q-29 114 -87.5 182t-142.5 68zM971 653v2q0 92 -23 230q-87 -128 -247 -366.5t-218 -323.5q38 -83 93.5 -126.5t121.5 -43.5q135 0 204 160
t69 468z" />
    <glyph glyph-name="Ugrave" unicode="&#xd9;" horiz-adv-x="1312" 
d="M59 1262h512q7 0 7 -5q0 -28 -11 -28l-92 -15q-23 -3 -26 -26q-23 -233 -23 -621q0 -270 66.5 -407t187.5 -137q133 0 186.5 123t53.5 432q0 426 -21 606q-2 24 -25 30l-94 15q-10 0 -10 26q0 7 6 7h490q6 0 6 -7q0 -24 -12 -28l-62 -13q-12 -3 -16.5 -9t-3.5 -19
q1 -14 6 -77.5t7 -90.5t6 -89.5t6 -107.5t3.5 -109.5t1.5 -127.5q-1 -297 -153 -448.5t-420 -151.5q-96 0 -171.5 15t-143.5 55t-112.5 104.5t-70.5 168t-26 242.5q1 91 7.5 198t14 180t16 147t9.5 86q6 28 -25 34l-70 15q-10 0 -10 26q0 7 6 7zM723 1333h-2q-4 0 -6 2
q-67 35 -150.5 97.5t-105.5 93.5q-7 10 4 14q46 8 86 8q24 0 41 -20q78 -103 151 -174q4 -5 -5 -13t-13 -8z" />
    <glyph glyph-name="Uacute" unicode="&#xda;" horiz-adv-x="1312" 
d="M59 1262h512q7 0 7 -5q0 -28 -11 -28l-92 -15q-23 -3 -26 -26q-23 -233 -23 -621q0 -270 66.5 -407t187.5 -137q133 0 186.5 123t53.5 432q0 426 -21 606q-2 24 -25 30l-94 15q-10 0 -10 26q0 7 6 7h490q6 0 6 -7q0 -24 -12 -28l-62 -13q-12 -3 -16.5 -9t-3.5 -19
q1 -14 6 -77.5t7 -90.5t6 -89.5t6 -107.5t3.5 -109.5t1.5 -127.5q-1 -297 -153 -448.5t-420 -151.5q-96 0 -171.5 15t-143.5 55t-112.5 104.5t-70.5 168t-26 242.5q1 91 7.5 198t14 180t16 147t9.5 86q6 28 -25 34l-70 15q-10 0 -10 26q0 7 6 7zM690 1331h-2q-5 0 -12.5 8.5
t-3.5 12.5q69 66 153 176q13 20 39 20q4 0 84 -8q15 -3 6 -16q-21 -30 -105 -91.5t-151 -97.5z" />
    <glyph glyph-name="Ucircumflex" unicode="&#xdb;" horiz-adv-x="1312" 
d="M59 1262h512q7 0 7 -5q0 -28 -11 -28l-92 -15q-23 -3 -26 -26q-23 -233 -23 -621q0 -270 66.5 -407t187.5 -137q133 0 186.5 123t53.5 432q0 426 -21 606q-2 24 -25 30l-94 15q-10 0 -10 26q0 7 6 7h490q6 0 6 -7q0 -24 -12 -28l-62 -13q-12 -3 -16.5 -9t-3.5 -19
q1 -14 6 -77.5t7 -90.5t6 -89.5t6 -107.5t3.5 -109.5t1.5 -127.5q-1 -297 -153 -448.5t-420 -151.5q-96 0 -171.5 15t-143.5 55t-112.5 104.5t-70.5 168t-26 242.5q1 91 7.5 198t14 180t16 147t9.5 86q6 28 -25 34l-70 15q-10 0 -10 26q0 7 6 7zM696 1561h2q8 0 15 -11
q31 -38 168 -184q3 -4 -0.5 -12t-8.5 -11q-3 -6 -12 0q-14 8 -74.5 45.5t-91.5 55.5q-9 -6 -66 -42t-96 -59q-6 -3 -12 3q-5 3 -7.5 9t1.5 11q26 30 87.5 97t76.5 85q13 13 18 13z" />
    <glyph glyph-name="Udieresis" unicode="&#xdc;" horiz-adv-x="1312" 
d="M59 1262h512q7 0 7 -5q0 -28 -11 -28l-92 -15q-23 -3 -26 -26q-23 -233 -23 -621q0 -270 66.5 -407t187.5 -137q133 0 186.5 123t53.5 432q0 426 -21 606q-2 24 -25 30l-94 15q-10 0 -10 26q0 7 6 7h490q6 0 6 -7q0 -24 -12 -28l-62 -13q-12 -3 -16.5 -9t-3.5 -19
q1 -14 6 -77.5t7 -90.5t6 -89.5t6 -107.5t3.5 -109.5t1.5 -127.5q-1 -297 -153 -448.5t-420 -151.5q-96 0 -171.5 15t-143.5 55t-112.5 104.5t-70.5 168t-26 242.5q1 91 7.5 198t14 180t16 147t9.5 86q6 28 -25 34l-70 15q-10 0 -10 26q0 7 6 7zM539 1511h2q30 0 49.5 -20.5
t19.5 -50.5t-20 -52t-53 -22q-32 0 -54 20.5t-22 49.5q0 30 22 52.5t56 22.5zM846 1511h2q30 0 50 -20.5t20 -50.5t-20.5 -52t-53.5 -22q-32 0 -53 20t-21 50t20.5 52.5t55.5 22.5z" />
    <glyph glyph-name="Yacute" unicode="&#xdd;" horiz-adv-x="1187" 
d="M840 1262h391q6 0 6 -7q0 -23 -10 -26l-43 -15q-29 -10 -45 -38q-47 -86 -198 -335.5t-191 -322.5q-17 -27 -17 -72q-4 -164 -4 -376q0 -20 23 -27l98 -16q6 -1 10 -9t4 -16q0 -6 -6 -6q-98 4 -270 4q-168 0 -258 -4q-6 0 -6 6q0 22 12 25l104 20q11 2 15 8t4 23
q1 24 -8 368q-3 21 -15 54q-32 63 -163.5 304.5t-202.5 385.5q-10 20 -29 24l-57 13q-11 4 -11 28q0 7 9 7h575q6 0 6 -7q0 -24 -12 -28l-96 -13q-30 -9 -23 -28q169 -411 225 -539q3 -8 18.5 -43.5t22.5 -50.5h9q28 54 36 74q143 313 209 557q4 15 0.5 21t-16.5 9l-88 13
q-14 3 -14 28q0 7 6 7zM698 1331h-2q-5 0 -12 8.5t-2 12.5q86 81 152 176q17 20 40 20q4 0 84 -8q16 -3 7 -16q-22 -30 -106 -91.5t-152 -97.5q-4 -4 -9 -4z" />
    <glyph glyph-name="Thorn" unicode="&#xde;" horiz-adv-x="1142" 
d="M59 1262h531q6 0 6 -7q0 -8 -3 -18t-7 -10l-92 -17q-21 -6 -21 -22q-4 -78 -4 -156q58 8 106 8q260 0 382 -92t122 -256q0 -74 -36 -146t-102 -131t-170.5 -95.5t-229.5 -36.5q-72 0 -86 6q-2 -76 -2 -213q0 -22 24 -25l131 -24q5 0 10 -8.5t5 -16.5q0 -6 -7 -6
q-164 4 -284 4q-144 0 -250 -4q-6 0 -6 6q0 22 12 25l80 18q22 6 22 33q2 75 -8 571q-1 23 -3 143.5t-4.5 229t-4.5 143.5q0 40 -20 43l-87 19q-10 3 -10 28q0 7 6 7zM520 322h2q109 0 179.5 98.5t70.5 257.5q0 134 -65.5 228.5t-167.5 94.5q-31 0 -50.5 -11t-19.5 -32
q-12 -285 -12 -604q0 -15 18 -23.5t45 -8.5z" />
    <glyph glyph-name="germandbls" unicode="&#xdf;" horiz-adv-x="1335" 
d="M184 838l-135 4q-10 0 -10 6q0 49 33 53l112 6q2 95 38 180.5t103 154t174.5 109t241.5 40.5q170 0 252 -65.5t82 -160.5q0 -34 -12.5 -66t-28.5 -54.5t-44.5 -47t-48.5 -38.5t-52.5 -35t-44.5 -29q-62 -44 -62 -102q0 -27 11.5 -49.5t25 -37t48.5 -32.5t57 -27.5
t75 -30.5q142 -51 205.5 -119.5t63.5 -170.5q0 -98 -67 -177.5t-174 -122t-228 -42.5q-93 0 -140 12q-12 6 -14 20l-14 172q0 6 10 12.5t16 6.5q3 0 5 -4l33 -57t34 -56q20 -30 37 -43q30 -20 86 -20q71 0 127.5 44.5t56.5 114.5q0 64 -42 112.5t-152 100.5
q-110 48 -163.5 111t-53.5 158q0 39 15.5 77.5t32.5 61.5t46.5 57t38.5 47q78 108 78 244q0 73 -37.5 134t-102.5 61q-104 0 -159.5 -113t-61.5 -328q-6 -202 -6 -452q0 -18 -2.5 -187.5t-1.5 -199.5q2 -21 22 -27l68 -20q12 -4 12 -23q0 -4 -6 -4q-184 4 -221 4
q-152 0 -270 -4q-4 0 -4 6q0 5 3 14t7 9l112 18q21 3 21 27q0 23 -16 407q-9 185 -9 361z" />
    <glyph glyph-name="agrave" unicode="&#xe0;" horiz-adv-x="1081" 
d="M662 547l8 2q-2 53 -19 125q-20 77 -65.5 124.5t-114.5 47.5q-141 0 -297 -135q-4 -4 -6 -4q-6 0 -12.5 13.5t0.5 20.5q197 207 479 207q79 0 138 -26.5t92.5 -67.5t53.5 -101.5t26.5 -117t6.5 -125.5q0 -85 -8 -225q-8 -184 -8 -215q0 -20 20 -25l86 -20q13 -7 13 -21
q0 -6 -8 -6q-25 2 -189 2q-112 0 -147 -2q-11 0 -11 10q-6 48 -6 135q0 4 -1 26.5t-1 31.5l-6 4q-12 -23 -29 -51q-46 -71 -127 -120.5t-198 -49.5q-70 0 -130 28.5t-101.5 92.5t-41.5 153q0 71 23.5 136.5t68.5 119.5t120.5 86.5t170.5 32.5q57 0 105 -16t74 -37
q24 -16 41 -33zM483 88h2q59 0 111 52.5t82 138.5q14 40 14 73q0 34 -18 78q-23 61 -70 106.5t-108 45.5q-50 0 -85 -40t-51 -100.5t-16 -132.5q0 -105 38 -163t101 -58zM508 1298h2q26 0 39 -26q46 -108 102 -209q3 -4 -6 -13.5t-14 -9.5q-4 0 -8 4q-53 50 -117.5 124.5
t-81.5 105.5q-6 10 2 14q57 10 82 10z" />
    <glyph glyph-name="aacute" unicode="&#xe1;" horiz-adv-x="1081" 
d="M662 547l8 2q-2 53 -19 125q-20 77 -65.5 124.5t-114.5 47.5q-141 0 -297 -135q-4 -4 -6 -4q-6 0 -12.5 13.5t0.5 20.5q197 207 479 207q79 0 138 -26.5t92.5 -67.5t53.5 -101.5t26.5 -117t6.5 -125.5q0 -85 -8 -225q-8 -184 -8 -215q0 -20 20 -25l86 -20q13 -7 13 -21
q0 -6 -8 -6q-25 2 -189 2q-112 0 -147 -2q-11 0 -11 10q-6 48 -6 135q0 4 -1 26.5t-1 31.5l-6 4q-12 -23 -29 -51q-46 -71 -127 -120.5t-198 -49.5q-70 0 -130 28.5t-101.5 92.5t-41.5 153q0 71 23.5 136.5t68.5 119.5t120.5 86.5t170.5 32.5q57 0 105 -16t74 -37
q24 -16 41 -33zM483 88h2q59 0 111 52.5t82 138.5q14 40 14 73q0 34 -18 78q-23 61 -70 106.5t-108 45.5q-50 0 -85 -40t-51 -100.5t-16 -132.5q0 -105 38 -163t101 -58zM543 1040h-2q-4 0 -14 9t-5 18q55 96 101 205q9 24 39 24q6 1 83 -8q9 -3 3 -14q-16 -29 -81.5 -103.5
t-119.5 -128.5q-2 -2 -4 -2z" />
    <glyph glyph-name="acircumflex" unicode="&#xe2;" horiz-adv-x="1081" 
d="M662 547l8 2q-2 53 -19 125q-20 77 -65.5 124.5t-114.5 47.5q-141 0 -297 -135q-4 -4 -6 -4q-6 0 -12.5 13.5t0.5 20.5q197 207 479 207q79 0 138 -26.5t92.5 -67.5t53.5 -101.5t26.5 -117t6.5 -125.5q0 -85 -8 -225q-8 -184 -8 -215q0 -20 20 -25l86 -20q13 -7 13 -21
q0 -6 -8 -6q-25 2 -189 2q-112 0 -147 -2q-11 0 -11 10q-6 48 -6 135q0 4 -1 26.5t-1 31.5l-6 4q-12 -23 -29 -51q-46 -71 -127 -120.5t-198 -49.5q-70 0 -130 28.5t-101.5 92.5t-41.5 153q0 71 23.5 136.5t68.5 119.5t120.5 86.5t170.5 32.5q57 0 105 -16t74 -37
q24 -16 41 -33zM483 88h2q59 0 111 52.5t82 138.5q14 40 14 73q0 34 -18 78q-23 61 -70 106.5t-108 45.5q-50 0 -85 -40t-51 -100.5t-16 -132.5q0 -105 38 -163t101 -58zM571 1311h2q6 0 15 -13q57 -90 137 -229q3 -6 -8 -22q-7 -4 -10 2q-19 19 -63.5 61.5t-72.5 69.5
q-81 -84 -127 -129q-6 -6 -10 -2q-15 10 -10 20q114 201 131 227q1 2 3.5 5.5t4 5t3.5 3t5 1.5z" />
    <glyph glyph-name="atilde" unicode="&#xe3;" horiz-adv-x="1081" 
d="M662 547l8 2q-2 53 -19 125q-20 77 -65.5 124.5t-114.5 47.5q-141 0 -297 -135q-4 -4 -6 -4q-6 0 -12.5 13.5t0.5 20.5q197 207 479 207q79 0 138 -26.5t92.5 -67.5t53.5 -101.5t26.5 -117t6.5 -125.5q0 -85 -8 -225q-8 -184 -8 -215q0 -20 20 -25l86 -20q13 -7 13 -21
q0 -6 -8 -6q-25 2 -189 2q-112 0 -147 -2q-11 0 -11 10q-6 48 -6 135q0 4 -1 26.5t-1 31.5l-6 4q-12 -23 -29 -51q-46 -71 -127 -120.5t-198 -49.5q-70 0 -130 28.5t-101.5 92.5t-41.5 153q0 71 23.5 136.5t68.5 119.5t120.5 86.5t170.5 32.5q57 0 105 -16t74 -37
q24 -16 41 -33zM483 88h2q59 0 111 52.5t82 138.5q14 40 14 73q0 34 -18 78q-23 61 -70 106.5t-108 45.5q-50 0 -85 -40t-51 -100.5t-16 -132.5q0 -105 38 -163t101 -58zM639 1075h-2q-25 0 -82 35q-39 27 -72 27q-48 0 -63 -64q-3 -10 -27 -10q-4 0 -4 4q2 60 31 110t72 50
q35 0 86 -37q47 -33 73 -33q22 0 35.5 20.5t15.5 47.5q0 14 27 14q2 0 2 -4q0 -59 -22.5 -109.5t-69.5 -50.5z" />
    <glyph glyph-name="adieresis" unicode="&#xe4;" horiz-adv-x="1081" 
d="M662 547l8 2q-2 53 -19 125q-20 77 -65.5 124.5t-114.5 47.5q-141 0 -297 -135q-4 -4 -6 -4q-6 0 -12.5 13.5t0.5 20.5q197 207 479 207q79 0 138 -26.5t92.5 -67.5t53.5 -101.5t26.5 -117t6.5 -125.5q0 -85 -8 -225q-8 -184 -8 -215q0 -20 20 -25l86 -20q13 -7 13 -21
q0 -6 -8 -6q-25 2 -189 2q-112 0 -147 -2q-11 0 -11 10q-6 48 -6 135q0 4 -1 26.5t-1 31.5l-6 4q-12 -23 -29 -51q-46 -71 -127 -120.5t-198 -49.5q-70 0 -130 28.5t-101.5 92.5t-41.5 153q0 71 23.5 136.5t68.5 119.5t120.5 86.5t170.5 32.5q57 0 105 -16t74 -37
q24 -16 41 -33zM483 88h2q59 0 111 52.5t82 138.5q14 40 14 73q0 34 -18 78q-23 61 -70 106.5t-108 45.5q-50 0 -85 -40t-51 -100.5t-16 -132.5q0 -105 38 -163t101 -58zM422 1214h2q29 0 47 -19.5t18 -49.5q0 -31 -19.5 -52.5t-51.5 -21.5t-52 20t-20 50q0 29 21 51t55 22z
M711 1214h2q29 0 48 -19t19 -50t-19.5 -52.5t-51.5 -21.5q-31 0 -51.5 20.5t-20.5 49.5t20 51t54 22z" />
    <glyph glyph-name="aring" unicode="&#xe5;" horiz-adv-x="1081" 
d="M662 547l8 2q-2 53 -19 125q-20 77 -65.5 124.5t-114.5 47.5q-141 0 -297 -135q-4 -4 -6 -4q-6 0 -12.5 13.5t0.5 20.5q197 207 479 207q79 0 138 -26.5t92.5 -67.5t53.5 -101.5t26.5 -117t6.5 -125.5q0 -85 -8 -225q-8 -184 -8 -215q0 -20 20 -25l86 -20q13 -7 13 -21
q0 -6 -8 -6q-25 2 -189 2q-112 0 -147 -2q-11 0 -11 10q-6 48 -6 135q0 4 -1 26.5t-1 31.5l-6 4q-12 -23 -29 -51q-46 -71 -127 -120.5t-198 -49.5q-70 0 -130 28.5t-101.5 92.5t-41.5 153q0 71 23.5 136.5t68.5 119.5t120.5 86.5t170.5 32.5q57 0 105 -16t74 -37
q24 -16 41 -33zM483 88h2q59 0 111 52.5t82 138.5q14 40 14 73q0 34 -18 78q-23 61 -70 106.5t-108 45.5q-50 0 -85 -40t-51 -100.5t-16 -132.5q0 -105 38 -163t101 -58zM578 1266h2q57 0 92 -28.5t35 -74.5q0 -49 -37 -79.5t-97 -30.5t-97.5 26.5t-37.5 77.5q0 46 38 77.5
t102 31.5zM575 1231h-2q-28 0 -47.5 -21.5t-19.5 -50.5q0 -33 19 -51t48 -18q28 0 46 20.5t18 52.5q0 30 -17.5 49t-44.5 19z" />
    <glyph glyph-name="ae" unicode="&#xe6;" horiz-adv-x="1595" 
d="M842 803h6q12 18 29 35q47 52 117 81t147 29q99 0 177 -39t122 -101t66 -130.5t22 -136.5q0 -48 -43 -60q-43 -16 -257 -20t-282 4q0 -75 12 -139q24 -113 101.5 -181.5t169.5 -68.5q75 0 133 14q73 17 143 51q2 1 4.5 -1.5t4.5 -8t2 -12.5q0 -11 -9 -15
q-110 -66 -227 -100q-65 -20 -166 -20q-262 0 -371 176q-20 30 -30 59h-11q-27 -43 -32 -49q-129 -186 -336 -186q-114 0 -194.5 71.5t-80.5 202.5q0 71 23.5 136.5t69 119.5t120 86.5t168.5 32.5q107 0 181 -53q7 -5 21 -17.5t17 -15.5l9 2q-3 70 -19 125q-45 170 -180 170
q-143 0 -293 -133l-8 -4q-6 0 -12 14t0 20q190 207 452 207q148 0 211 -102q11 -16 23 -43zM1108 909h-2q-67 0 -114 -103.5t-44 -303.5q78 -5 155.5 0t104.5 12q31 12 31 64q0 48 -5.5 99t-18.5 106.5t-41 90.5t-66 35zM346 309v-2q0 -104 37 -161.5t98 -57.5q57 0 113 55
t82 138q14 40 14 71q0 38 -18 78q-27 63 -72 107.5t-104 44.5q-73 0 -111.5 -79.5t-38.5 -193.5z" />
    <glyph glyph-name="ccedilla" unicode="&#xe7;" horiz-adv-x="948" 
d="M76 393v2q0 126 55 236.5t150 185.5q162 131 395 131q119 0 176 -24q10 -3 10 -19l12 -221q0 -4 -9.5 -10t-14.5 -6q-6 0 -8 4q-87 165 -92 174q-14 28 -37 43q-23 18 -72 18q-115 0 -197 -178q-61 -125 -61 -303q0 -172 77.5 -262t196.5 -90q53 0 105 12q68 14 135 47
q2 1 4.5 -1t4 -6.5t1.5 -10.5q0 -14 -8 -17q-79 -51 -205 -94q-59 -18 -151 -20l-72 -82q-5 -2 -1 -5q2 -1 5 -1q31 -2 51.5 -22t20.5 -52q0 -52 -50.5 -88.5t-117.5 -44.5q-9 -2 -17.5 3.5t-9.5 14.5q0 6 4 6q47 12 72 36.5t25 55.5q0 23 -17 37t-45 13q-4 0 -6 5t2 11
l102 113q-72 3 -132.5 18.5t-113 47t-89 78t-57.5 114t-21 151.5z" />
    <glyph glyph-name="egrave" unicode="&#xe8;" horiz-adv-x="1024" 
d="M956 541v-2q0 -19 -11.5 -35.5t-29.5 -22.5q-51 -17 -263.5 -20.5t-278.5 4.5q-3 -75 10 -139q26 -113 101.5 -181.5t166.5 -68.5q76 0 137 14q94 23 150 53q2 1 4.5 -2t4 -9t1.5 -13q0 -5 -8 -13q-106 -65 -235 -102q-64 -20 -181 -20q-99 0 -179 24t-141 73.5
t-94.5 132t-33.5 192.5q0 103 36.5 201t99.5 173.5t156 121.5t199 46q98 0 175.5 -39t122.5 -100.5t68 -130.5t23 -137zM532 909l-2 -2q-67 0 -113.5 -102.5t-43.5 -302.5q90 -5 163 -1t101 13q29 14 29 66q0 48 -6 99t-19.5 106t-42 89.5t-66.5 34.5zM442 1298h2
q27 0 37 -26q77 -158 105 -209q3 -4 -6.5 -14.5t-14.5 -10.5q-2 0 -8 6q-53 50 -117.5 124.5t-81.5 105.5q-6 10 2 14q50 10 82 10z" />
    <glyph glyph-name="eacute" unicode="&#xe9;" horiz-adv-x="1024" 
d="M956 541v-2q0 -19 -11.5 -35.5t-29.5 -22.5q-51 -17 -263.5 -20.5t-278.5 4.5q-3 -75 10 -139q26 -113 101.5 -181.5t166.5 -68.5q76 0 137 14q94 23 150 53q2 1 4.5 -2t4 -9t1.5 -13q0 -5 -8 -13q-106 -65 -235 -102q-64 -20 -181 -20q-99 0 -179 24t-141 73.5
t-94.5 132t-33.5 192.5q0 103 36.5 201t99.5 173.5t156 121.5t199 46q98 0 175.5 -39t122.5 -100.5t68 -130.5t23 -137zM532 909l-2 -2q-67 0 -113.5 -102.5t-43.5 -302.5q90 -5 163 -1t101 13q29 14 29 66q0 48 -6 99t-19.5 106t-42 89.5t-66.5 34.5zM530 1038l-2 2
q-4 0 -13.5 9t-4.5 18q22 38 42.5 79t39.5 82.5t20 43.5q9 24 39 24q5 1 82 -8q9 -3 4 -14q-31 -54 -200 -234q-2 -2 -7 -2z" />
    <glyph glyph-name="ecircumflex" unicode="&#xea;" horiz-adv-x="1024" 
d="M956 541v-2q0 -19 -11.5 -35.5t-29.5 -22.5q-51 -17 -263.5 -20.5t-278.5 4.5q-3 -75 10 -139q26 -113 101.5 -181.5t166.5 -68.5q76 0 137 14q94 23 150 53q2 1 4.5 -2t4 -9t1.5 -13q0 -5 -8 -13q-106 -65 -235 -102q-64 -20 -181 -20q-99 0 -179 24t-141 73.5
t-94.5 132t-33.5 192.5q0 103 36.5 201t99.5 173.5t156 121.5t199 46q98 0 175.5 -39t122.5 -100.5t68 -130.5t23 -137zM532 909l-2 -2q-67 0 -113.5 -102.5t-43.5 -302.5q90 -5 163 -1t101 13q29 14 29 66q0 48 -6 99t-19.5 106t-42 89.5t-66.5 34.5zM549 1311h2
q5 0 14 -13q57 -90 137 -229q3 -6 -8 -22q-7 -3 -10 0q-86 86 -135 133q-21 -22 -60 -63t-67 -68q-7 -3 -10 0q-16 11 -11 20q114 201 131 227q11 15 17 15z" />
    <glyph glyph-name="edieresis" unicode="&#xeb;" horiz-adv-x="1024" 
d="M956 541v-2q0 -19 -11.5 -35.5t-29.5 -22.5q-51 -17 -263.5 -20.5t-278.5 4.5q-3 -75 10 -139q26 -113 101.5 -181.5t166.5 -68.5q76 0 137 14q94 23 150 53q2 1 4.5 -2t4 -9t1.5 -13q0 -5 -8 -13q-106 -65 -235 -102q-64 -20 -181 -20q-99 0 -179 24t-141 73.5
t-94.5 132t-33.5 192.5q0 103 36.5 201t99.5 173.5t156 121.5t199 46q98 0 175.5 -39t122.5 -100.5t68 -130.5t23 -137zM532 909l-2 -2q-67 0 -113.5 -102.5t-43.5 -302.5q90 -5 163 -1t101 13q29 14 29 66q0 48 -6 99t-19.5 106t-42 89.5t-66.5 34.5zM393 1214h2
q28 0 47 -20t19 -49q0 -30 -20.5 -52t-51.5 -22q-32 0 -52 20t-20 50q0 29 21 51t55 22zM682 1214h2q29 0 47.5 -19t18.5 -50q0 -30 -19.5 -52t-50.5 -22q-32 0 -53 20t-21 50q0 29 21 51t55 22z" />
    <glyph glyph-name="igrave" unicode="&#xec;" horiz-adv-x="585" 
d="M31 881l403 67q19 3 19 -16q-13 -268 -17 -465q-6 -276 -6 -397q0 -22 19 -27l102 -20q3 0 6.5 -8t3.5 -13q0 -6 -4 -6q-98 4 -256 4q-168 0 -250 -4q-6 0 -6 4q0 20 10 23l97 22q22 6 22 27q0 20 -1.5 92.5t-3.5 169t-3 129.5q-6 247 -10 352q-4 31 -23 31l-92 4
q-5 0 -9.5 9t-4.5 18q0 4 4 4zM180 1298h2q26 0 39 -26q44 -104 105 -209q3 -4 -7 -14.5t-14 -10.5q-2 0 -8 6q-52 49 -117 123.5t-84 106.5q-4 11 4 14q50 10 80 10z" />
    <glyph glyph-name="iacute" unicode="&#xed;" horiz-adv-x="585" 
d="M31 881l403 67q19 3 19 -16q-13 -268 -17 -465q-6 -276 -6 -397q0 -22 19 -27l102 -20q3 0 6.5 -8t3.5 -13q0 -6 -4 -6q-98 4 -256 4q-168 0 -250 -4q-6 0 -6 4q0 20 10 23l97 22q22 6 22 27q0 20 -1.5 92.5t-3.5 169t-3 129.5q-6 247 -10 352q-4 31 -23 31l-92 4
q-5 0 -9.5 9t-4.5 18q0 4 4 4zM283 1040h-2q-4 0 -14 9t-5 18q24 42 103 205q9 24 38 24q5 1 82 -8q9 -3 4 -14q-17 -29 -81.5 -102.5t-118.5 -129.5q-2 -2 -6 -2z" />
    <glyph glyph-name="icircumflex" unicode="&#xee;" horiz-adv-x="585" 
d="M31 881l403 67q19 3 19 -16q-13 -268 -17 -465q-6 -276 -6 -397q0 -22 19 -27l102 -20q3 0 6.5 -8t3.5 -13q0 -6 -4 -6q-98 4 -256 4q-168 0 -250 -4q-6 0 -6 4q0 20 10 23l97 22q22 6 22 27q0 20 -1.5 92.5t-3.5 169t-3 129.5q-6 247 -10 352q-4 31 -23 31l-92 4
q-5 0 -9.5 9t-4.5 18q0 4 4 4zM289 1311h2q5 0 14 -13q57 -90 137 -229q3 -6 -8 -22q-7 -4 -10 2q-26 25 -68 66t-67 65q-81 -84 -127 -129q-6 -6 -10 -2q-16 11 -11 20q114 201 131 227q11 15 17 15z" />
    <glyph glyph-name="idieresis" unicode="&#xef;" horiz-adv-x="585" 
d="M31 881l403 67q19 3 19 -16q-13 -268 -17 -465q-6 -276 -6 -397q0 -22 19 -27l102 -20q3 0 6.5 -8t3.5 -13q0 -6 -4 -6q-98 4 -256 4q-168 0 -250 -4q-6 0 -6 4q0 20 10 23l97 22q22 6 22 27q0 20 -1.5 92.5t-3.5 169t-3 129.5q-6 247 -10 352q-4 31 -23 31l-92 4
q-5 0 -9.5 9t-4.5 18q0 4 4 4zM152 1214h2q29 0 48 -20t19 -49q0 -30 -20 -52t-51 -22q-33 0 -53.5 20t-20.5 50q0 29 21 51t55 22zM440 1214h2q30 0 49 -19t19 -50t-19.5 -52.5t-52.5 -21.5q-30 0 -50.5 20.5t-20.5 49.5q0 30 19.5 51.5t53.5 21.5z" />
    <glyph glyph-name="eth" unicode="&#xf0;" horiz-adv-x="1138" 
d="M596 1176l-231 -123q-10 -5 -13 8q-5 38 -1 54.5t24 25.5l174 84q-35 42 -104.5 92t-127.5 72q-4 0 -4 4q0 5 10 15.5t17 10.5q73 -3 173.5 -40t176.5 -89l234 101q8 4 8 -5q0 -36 -10 -38l-174 -97q142 -106 228.5 -276t86.5 -395q0 -121 -33.5 -227t-98.5 -189.5
t-171.5 -131.5t-241.5 -48q-201 0 -321.5 115t-120.5 313q0 100 34.5 192.5t96.5 165t158 115.5t210 43q85 0 142 -39q24 -20 37 -33l6 4q-5 15 -14 38.5t-11 29.5q-21 63 -60.5 134.5t-78.5 113.5zM571 23h2q63 0 107.5 64.5t65 169t20.5 239.5q0 191 -37 284
q-45 109 -147 109q-68 0 -115.5 -65t-68.5 -166t-21 -228q0 -183 50 -295t144 -112z" />
    <glyph glyph-name="ntilde" unicode="&#xf1;" horiz-adv-x="1253" 
d="M1122 47l105 -24q10 0 10 -23q0 -4 -4 -4q-140 4 -260 4q-154 0 -256 -4q-6 0 -6 4q0 6 3 14.5t7 8.5l98 22q22 6 25 29q10 108 10 297q0 385 -139 385q-74 0 -144 -109.5t-116 -296.5q-34 -154 -31 -278q0 -24 18 -27l101 -22q10 0 10 -23q0 -4 -6 -4q-160 4 -256 4
q-128 0 -250 -4q-4 0 -4 4q0 22 10 25l105 18q18 6 18 29q0 27 -2 184.5t-2 206.5q-1 20 -3 104.5t-4 154t-3 93.5q-1 12 -2 17t-5.5 10t-13.5 6l-90 6q-4 0 -8 8.5t-4 16.5q0 6 6 6l397 63q17 3 17 -16q-5 -79 -17 -400q0 -23 -4 -69l10 -2q11 38 19 57q23 72 61.5 144.5
t90.5 138t120.5 106.5t140.5 41q123 0 185.5 -111.5t62.5 -326.5q0 -192 -22 -428q-3 -30 22 -35zM772 1075h-2q-30 0 -80 35q-42 27 -72 27q-48 0 -63 -64q-3 -10 -29 -10q-2 0 -2 4q0 60 29 110t72 50q37 0 88 -37q47 -33 73 -33q22 0 35.5 20t16.5 48q0 14 26 14
q2 0 2 -4q0 -58 -23.5 -109t-70.5 -51z" />
    <glyph glyph-name="ograve" unicode="&#xf2;" horiz-adv-x="1155" 
d="M526 -16h-2q-213 0 -330.5 119t-117.5 319q0 84 20.5 160t64.5 143.5t108 116.5t155.5 77.5t202.5 28.5q117 0 206.5 -35.5t143 -97.5t80 -141.5t26.5 -173.5q0 -103 -35 -195t-102 -164t-175.5 -114.5t-244.5 -42.5zM586 23h2q53 0 90.5 32.5t58.5 94.5t30 140.5
t9 180.5q0 123 -19.5 219t-64.5 157.5t-112 61.5q-66 0 -111 -57t-66.5 -157t-21.5 -238q0 -120 23.5 -217t71 -157t110.5 -60zM475 1298h2q26 0 39 -26q44 -104 105 -209q3 -4 -6.5 -14.5t-14.5 -10.5q-2 0 -8 6q-52 49 -117 123.5t-84 106.5q-4 11 4 14q50 10 80 10z" />
    <glyph glyph-name="oacute" unicode="&#xf3;" horiz-adv-x="1155" 
d="M526 -16h-2q-213 0 -330.5 119t-117.5 319q0 84 20.5 160t64.5 143.5t108 116.5t155.5 77.5t202.5 28.5q117 0 206.5 -35.5t143 -97.5t80 -141.5t26.5 -173.5q0 -103 -35 -195t-102 -164t-175.5 -114.5t-244.5 -42.5zM586 23h2q53 0 90.5 32.5t58.5 94.5t30 140.5
t9 180.5q0 123 -19.5 219t-64.5 157.5t-112 61.5q-66 0 -111 -57t-66.5 -157t-21.5 -238q0 -120 23.5 -217t71 -157t110.5 -60zM584 1040h-2q-4 0 -14 9t-5 18q55 96 101 205q9 24 38 24q6 1 84 -8q8 -3 2 -14q-16 -30 -81.5 -104.5t-118.5 -127.5q-2 -2 -4 -2z" />
    <glyph glyph-name="ocircumflex" unicode="&#xf4;" horiz-adv-x="1155" 
d="M526 -16h-2q-213 0 -330.5 119t-117.5 319q0 84 20.5 160t64.5 143.5t108 116.5t155.5 77.5t202.5 28.5q117 0 206.5 -35.5t143 -97.5t80 -141.5t26.5 -173.5q0 -103 -35 -195t-102 -164t-175.5 -114.5t-244.5 -42.5zM586 23h2q53 0 90.5 32.5t58.5 94.5t30 140.5
t9 180.5q0 123 -19.5 219t-64.5 157.5t-112 61.5q-66 0 -111 -57t-66.5 -157t-21.5 -238q0 -120 23.5 -217t71 -157t110.5 -60zM586 1311h2q5 0 14 -13q81 -128 137 -229q3 -6 -8 -22q-7 -4 -10 2q-26 25 -68 66t-67 65q-81 -84 -127 -129q-6 -6 -8 -2q-18 9 -13 20
q114 201 131 227q11 15 17 15z" />
    <glyph glyph-name="otilde" unicode="&#xf5;" horiz-adv-x="1155" 
d="M526 -16h-2q-213 0 -330.5 119t-117.5 319q0 84 20.5 160t64.5 143.5t108 116.5t155.5 77.5t202.5 28.5q117 0 206.5 -35.5t143 -97.5t80 -141.5t26.5 -173.5q0 -103 -35 -195t-102 -164t-175.5 -114.5t-244.5 -42.5zM586 23h2q53 0 90.5 32.5t58.5 94.5t30 140.5
t9 180.5q0 123 -19.5 219t-64.5 157.5t-112 61.5q-66 0 -111 -57t-66.5 -157t-21.5 -238q0 -120 23.5 -217t71 -157t110.5 -60zM662 1075h-3q-29 0 -79 35q-42 27 -74 27q-47 0 -62 -64q-3 -10 -28 -10q-2 0 -2 4q0 60 28.5 110t71.5 50q37 0 88 -37q47 -33 74 -33
q22 0 35 20t16 48q0 14 25 14q4 0 4 -4q0 -58 -23.5 -109t-70.5 -51z" />
    <glyph glyph-name="odieresis" unicode="&#xf6;" horiz-adv-x="1155" 
d="M526 -16h-2q-213 0 -330.5 119t-117.5 319q0 84 20.5 160t64.5 143.5t108 116.5t155.5 77.5t202.5 28.5q117 0 206.5 -35.5t143 -97.5t80 -141.5t26.5 -173.5q0 -103 -35 -195t-102 -164t-175.5 -114.5t-244.5 -42.5zM586 23h2q53 0 90.5 32.5t58.5 94.5t30 140.5
t9 180.5q0 123 -19.5 219t-64.5 157.5t-112 61.5q-66 0 -111 -57t-66.5 -157t-21.5 -238q0 -120 23.5 -217t71 -157t110.5 -60zM438 1214h2q29 0 48.5 -20t19.5 -49q0 -30 -20.5 -52t-51.5 -22q-33 0 -53.5 20t-20.5 50q0 29 21 51t55 22zM727 1214h2q29 0 48.5 -19
t19.5 -50t-19.5 -52.5t-52.5 -21.5q-31 0 -51.5 20.5t-20.5 49.5t20 51t54 22z" />
    <glyph glyph-name="divide" unicode="&#xf7;" 
d="M373 913h2q34 0 56 -23t22 -56t-22.5 -55.5t-59.5 -22.5q-35 0 -57.5 21t-22.5 57q0 31 22.5 55t59.5 24zM672 610v-2q0 -9 -4.5 -27t-8.5 -18q-70 -7 -294 -21t-248 -14q-14 -1 -24 19t-13.5 43t-3.5 45q0 8 8 8q36 -1 282.5 -13t299.5 -14q6 0 6 -6zM375 418h2
q33 0 54.5 -23.5t21.5 -56.5q0 -32 -22.5 -55t-59.5 -23q-33 0 -55.5 21t-22.5 57q0 32 22 56t60 24z" />
    <glyph glyph-name="oslash" unicode="&#xf8;" horiz-adv-x="1155" 
d="M627 948h2q128 0 229 -49q6 9 39 60t51 77q7 7 15 2q19 -14 30 -37t2 -36q-50 -66 -75 -101q82 -59 122.5 -154.5t40.5 -209.5q0 -103 -35 -194.5t-101.5 -164t-175 -115t-245.5 -42.5q-119 0 -219 41q-95 -116 -108 -131q-8 -13 -45 -13q-6 0 -8.5 3.5t1.5 9.5
q13 17 37.5 48.5t44 57t35.5 47.5q-91 57 -139.5 154t-48.5 221q0 84 20.5 160t64.5 143.5t108 116.5t155.5 77.5t202.5 28.5zM580 909h-2q-98 0 -153.5 -123t-55.5 -329q0 -120 26 -250q131 202 355 551q-23 70 -66 110.5t-104 40.5zM788 471v2q0 81 -14 203
q-28 -40 -358 -520q26 -62 71 -97.5t99 -35.5t93.5 33t63 94.5t34.5 141t11 179.5z" />
    <glyph glyph-name="ugrave" unicode="&#xf9;" horiz-adv-x="1210" 
d="M786 856l-92 8q-4 0 -8 7.5t-4 13.5q0 8 6 10l365 51q7 2 11.5 -2.5t4.5 -13.5v-471q0 -247 10 -379q3 -28 25 -33l78 -20q10 -3 10 -25q0 -4 -6 -4q-53 2 -199 2q-135 0 -176 -2q-12 0 -12 20v273v63h-11q-3 -9 -6.5 -20.5t-6 -19.5t-5.5 -13q-129 -317 -375 -317
q-119 0 -193.5 104t-74.5 318q0 185 29 417q3 35 -23 35h-86q-6 0 -11 9.5t-5 17.5q0 6 8 6l362 55q17 3 17 -18q-12 -396 -12 -402q0 -212 31.5 -307.5t103.5 -95.5q91 0 161.5 138t94.5 349q10 88 10 205q0 38 -21 41zM500 1298h2q26 0 39 -26q47 -110 104 -209
q3 -4 -6 -14.5t-14 -10.5q-3 0 -9 6q-52 49 -116 123.5t-84 106.5q-4 11 4 14q50 10 80 10z" />
    <glyph glyph-name="uacute" unicode="&#xfa;" horiz-adv-x="1210" 
d="M786 856l-92 8q-4 0 -8 7.5t-4 13.5q0 8 6 10l365 51q7 2 11.5 -2.5t4.5 -13.5v-471q0 -247 10 -379q3 -28 25 -33l78 -20q10 -3 10 -25q0 -4 -6 -4q-53 2 -199 2q-135 0 -176 -2q-12 0 -12 20v273v63h-11q-3 -9 -6.5 -20.5t-6 -19.5t-5.5 -13q-129 -317 -375 -317
q-119 0 -193.5 104t-74.5 318q0 185 29 417q3 35 -23 35h-86q-6 0 -11 9.5t-5 17.5q0 6 8 6l362 55q17 3 17 -18q-12 -396 -12 -402q0 -212 31.5 -307.5t103.5 -95.5q91 0 161.5 138t94.5 349q10 88 10 205q0 38 -21 41zM598 1040h-2q-4 0 -13.5 9t-4.5 18q22 38 42.5 79
t39.5 82.5t20 43.5q9 24 39 24q5 1 82 -8q9 -3 4 -14q-17 -29 -81 -102t-120 -130q-2 -2 -6 -2z" />
    <glyph glyph-name="ucircumflex" unicode="&#xfb;" horiz-adv-x="1210" 
d="M786 856l-92 8q-4 0 -8 7.5t-4 13.5q0 8 6 10l365 51q7 2 11.5 -2.5t4.5 -13.5v-471q0 -247 10 -379q3 -28 25 -33l78 -20q10 -3 10 -25q0 -4 -6 -4q-53 2 -199 2q-135 0 -176 -2q-12 0 -12 20v273v63h-11q-3 -9 -6.5 -20.5t-6 -19.5t-5.5 -13q-129 -317 -375 -317
q-119 0 -193.5 104t-74.5 318q0 185 29 417q3 35 -23 35h-86q-6 0 -11 9.5t-5 17.5q0 6 8 6l362 55q17 3 17 -18q-12 -396 -12 -402q0 -212 31.5 -307.5t103.5 -95.5q91 0 161.5 138t94.5 349q10 88 10 205q0 38 -21 41zM610 1311h2q6 0 15 -13q57 -90 137 -229
q4 -8 -10 -22q-1 -2 -4.5 -1.5t-4.5 3.5q-26 25 -68 66t-67 65q-15 -15 -56 -57.5t-71 -71.5q-6 -6 -10 -2q-15 10 -10 20q114 201 131 227q1 2 3.5 5.5t4 5t3.5 3t5 1.5z" />
    <glyph glyph-name="udieresis" unicode="&#xfc;" horiz-adv-x="1210" 
d="M786 856l-92 8q-4 0 -8 7.5t-4 13.5q0 8 6 10l365 51q7 2 11.5 -2.5t4.5 -13.5v-471q0 -247 10 -379q3 -28 25 -33l78 -20q10 -3 10 -25q0 -4 -6 -4q-53 2 -199 2q-135 0 -176 -2q-12 0 -12 20v273v63h-11q-3 -9 -6.5 -20.5t-6 -19.5t-5.5 -13q-129 -317 -375 -317
q-119 0 -193.5 104t-74.5 318q0 185 29 417q3 35 -23 35h-86q-6 0 -11 9.5t-5 17.5q0 6 8 6l362 55q17 3 17 -18q-12 -396 -12 -402q0 -212 31.5 -307.5t103.5 -95.5q91 0 161.5 138t94.5 349q10 88 10 205q0 38 -21 41zM463 1214h2q29 0 48 -20t19 -49q0 -30 -20 -52
t-51 -22q-33 0 -53.5 20t-20.5 50q0 29 21 51t55 22zM754 1214h2q29 0 47 -19t18 -50t-19 -52.5t-50 -21.5q-32 0 -53 20t-21 50q0 29 21 51t55 22z" />
    <glyph glyph-name="yacute" unicode="&#xfd;" horiz-adv-x="1044" 
d="M698 932h363q6 0 6 -6q0 -24 -12 -27l-33 -10q-15 -3 -23.5 -10t-15.5 -25q-46 -128 -169 -402t-208 -421q-260 -424 -479 -424q-75 0 -82 22l-39 228q-1 4 9 13t16 9q4 0 6 -2l59 -98q17 -24 34 -33.5t44 -9.5q53 0 131.5 45t136.5 131q13 17 2 39q-71 160 -191 455.5
t-173 451.5q-12 25 -25 27l-53 14q-12 3 -12 27q0 6 8 6h520q6 0 6 -6q0 -8 -4 -17t-10 -10l-76 -14q-11 -2 -16 -10.5t-2 -20.5q150 -532 178 -625q8 -23 16 -55h11q21 52 22 59q52 149 102 331t64 288q3 18 -1 25t-17 10l-86 12q-13 3 -13 27q0 6 6 6zM625 1038h-2
q-2 0 -8 4t-10.5 11.5t-0.5 13.5q55 96 101 205q12 24 40 24q5 1 82 -8q9 -3 2 -14q-16 -29 -79.5 -102.5t-120.5 -131.5q-2 -2 -4 -2z" />
    <glyph glyph-name="thorn" unicode="&#xfe;" horiz-adv-x="1187" 
d="M418 70l-6 -2q0 -24 -1 -66t-1 -57q-4 -204 -4 -250q0 -22 20 -25l137 -22q10 -3 10 -23q0 -6 -4 -6q-88 4 -286 4q-94 0 -238 -4q-6 0 -6 6q0 23 12 23l84 18q19 3 19 27q4 72 -4 604q-1 38 -3 234t-4 364t-4 195q-1 11 -2.5 16t-5.5 8.5t-12 3.5l-107 2q-6 1 -11 10.5
t-5 18.5q0 4 6 6l416 64q16 3 16 -15q0 -40 -4.5 -278t-7.5 -293q0 -11 -1 -37t-1 -33l10 -2q11 35 23 60q22 55 55.5 107t82 104t117 84t144.5 32q88 0 150 -54.5t90 -141t28 -195.5q0 -91 -17.5 -174t-55 -156t-91.5 -127t-131.5 -85t-169.5 -31q-120 0 -200 55
q-30 24 -37 31zM633 23h2q95 0 144.5 114t49.5 316q0 92 -15.5 167.5t-49.5 124t-82 48.5q-56 0 -111.5 -66t-95.5 -163.5t-61 -205.5q-6 -24 -6 -51q0 -23 4 -47q24 -120 86.5 -178.5t134.5 -58.5z" />
    <glyph glyph-name="ydieresis" unicode="&#xff;" horiz-adv-x="1044" 
d="M698 932h363q6 0 6 -6q0 -24 -12 -27l-33 -10q-15 -3 -23.5 -10t-15.5 -25q-46 -128 -169 -402t-208 -421q-260 -424 -479 -424q-75 0 -82 22l-39 228q-1 4 9 13t16 9q4 0 6 -2l59 -98q17 -24 34 -33.5t44 -9.5q53 0 131.5 45t136.5 131q13 17 2 39q-71 160 -191 455.5
t-173 451.5q-12 25 -25 27l-53 14q-12 3 -12 27q0 6 8 6h520q6 0 6 -6q0 -8 -4 -17t-10 -10l-76 -14q-11 -2 -16 -10.5t-2 -20.5q150 -532 178 -625q8 -23 16 -55h11q21 52 22 59q52 149 102 331t64 288q3 18 -1 25t-17 10l-86 12q-13 3 -13 27q0 6 6 6zM473 1214h2
q29 0 47.5 -19.5t18.5 -49.5q0 -31 -19.5 -52.5t-52.5 -21.5q-32 0 -52 20t-20 50q0 29 21 51t55 22zM762 1214h2q29 0 48 -19t19 -50t-19.5 -52.5t-51.5 -21.5q-31 0 -51.5 20.5t-20.5 49.5t20 51t54 22z" />
    <glyph glyph-name="dotlessi" unicode="&#x131;" horiz-adv-x="585" 
d="M31 881l403 67q19 3 19 -16q-13 -268 -17 -465q-6 -276 -6 -397q0 -22 19 -27l102 -20q3 0 6.5 -8t3.5 -13q0 -6 -4 -6q-98 4 -256 4q-168 0 -250 -4q-6 0 -6 4q0 20 10 23l97 22q22 6 22 27q0 20 -1.5 92.5t-3.5 169t-3 129.5q-6 247 -10 352q-4 31 -23 31l-92 4
q-5 0 -9.5 9t-4.5 18q0 4 4 4z" />
    <glyph glyph-name="Lslash" unicode="&#x141;" horiz-adv-x="1150" 
d="M250 506l-172 -90q-4 -3 -7 -1t-3 11q0 45 5 61t23 25l152 76q-1 23 -2.5 166.5t-4 270.5t-5.5 155q-1 17 -6 23t-17 9l-80 19q-10 3 -10 24q0 7 4 7h571q7 0 7 -5q0 -10 -4 -19t-7 -9l-112 -17q-12 -3 -17 -9t-6 -23q-5 -56 -18 -482l276 138q8 4 8 -5q0 -42 -12 -49
l-274 -157q-9 -554 -9 -564q0 -22 27 -22q59 0 187 11.5t186 27.5q45 16 59 43l115 182q6 6 10 4q6 -2 14 -10t7 -12l-54 -277q-6 -18 -24 -18q-23 0 -195 6q-234 4 -479 4q-62 0 -250 -4q-6 0 -6 6q0 25 10 25l92 18q25 4 25 31q0 152 -4 430z" />
    <glyph glyph-name="lslash" unicode="&#x142;" horiz-adv-x="661" 
d="M467 739l190 95q9 4 9 -3q0 -40 -13 -49l-188 -112q-1 -50 -3.5 -197.5t-4.5 -266.5t-2 -136q0 -13 4.5 -18.5t15.5 -8.5l107 -18q4 -1 8 -9t4 -14t-4 -6q-106 4 -271 4q-155 0 -245 -4q-4 0 -4 6q0 20 10 23l100 18q23 6 25 25q0 8 -6 487l-146 -78q-5 -2 -7.5 0.5
t-2.5 9.5q0 47 6.5 63.5t26.5 27.5l123 61q-12 590 -15 639q0 29 -22 29l-121 6q-6 0 -12 8t-6 16q0 9 8 9l436 45q18 3 18 -15q0 -11 -3 -114t-7.5 -259t-7.5 -264z" />
    <glyph glyph-name="OE" unicode="&#x152;" horiz-adv-x="1839" 
d="M1726 1253l15 -266q0 -4 -10 -10t-15 -6q-4 0 -6 4q-80 173 -88 190q-12 22 -51 29q-60 12 -165.5 22.5t-137.5 10.5q-21 -2 -21 -23q-5 -85 -10.5 -270.5t-5.5 -247.5q286 -12 420 -12q4 0 4 -4q0 -9 -5.5 -22t-9.5 -13q-39 -4 -185 -14t-200 -15q-14 -2 -19.5 -6
t-6.5 -16q-8 -272 -8 -514q0 -27 22 -27q242 0 369 35q29 9 45 31q13 17 112 170q2 4 7 4t13 -9.5t7 -15.5l-53 -258q-3 -10 -14 -10q-20 0 -173 6q-204 4 -466 4q-15 0 -52 -2t-49 -2q-14 0 -14 14v82v39h-8q-7 -11 -33 -41q-42 -46 -116.5 -76t-162.5 -30q-267 0 -418 154
t-151 444q0 143 36 266t107 220.5t189 153.5t270 56q142 0 248 -98q15 -15 27 -33h8v45q-2 14 -2 57q0 13 12 13h106q282 0 474 4q43 0 78.5 0.5t53.5 1t21 0.5q12 0 12 -15zM688 25h2q75 0 128.5 61t85.5 204t32 363q0 115 -13.5 215.5t-42 186t-79.5 135t-119 49.5
q-123 0 -198.5 -169.5t-75.5 -471.5q0 -152 34 -282t99 -210.5t147 -80.5z" />
    <glyph glyph-name="oe" unicode="&#x153;" horiz-adv-x="1703" 
d="M934 791h8q12 21 29 38q109 119 280 119q80 0 146 -26t109.5 -67.5t74 -96t44 -109t13.5 -108.5q0 -20 -12 -36t-31 -24q-39 -16 -255.5 -20t-286.5 4q0 -80 12 -139q23 -113 100.5 -182.5t169.5 -69.5q69 0 135 16q91 22 146 53q2 1 4.5 -1.5t4 -8.5t1.5 -14
q0 -10 -8 -13q-37 -24 -102 -53.5t-127 -48.5q-65 -20 -154 -20q-102 0 -169 26t-128 82q-16 13 -35 41h-4q-29 -34 -33 -37q-124 -112 -325 -112q-225 0 -345 115t-120 323q0 84 20 160t63 143.5t105 116.5t151.5 77.5t196.5 28.5q184 0 291 -114q24 -29 31 -43zM582 23h2
q188 0 188 450q0 122 -18.5 217t-62.5 157t-109 62q-99 0 -150 -121t-51 -331q0 -185 54 -309.5t147 -124.5zM1217 909h-3q-68 0 -115 -103.5t-44 -303.5q89 -5 162.5 -0.5t99.5 12.5q31 12 31 59t-5.5 97.5t-18 108t-40.5 94t-67 36.5z" />
    <glyph glyph-name="Scaron" unicode="&#x160;" horiz-adv-x="1058" 
d="M977 391v-2q0 -182 -165.5 -293.5t-457.5 -111.5q-163 0 -225 22q-16 6 -18 21l-31 278q-1 4 10 12.5t16 8.5q6 0 9 -7q13 -23 52.5 -96.5t61.5 -111.5q18 -30 50 -48q46 -32 139 -32q134 0 221.5 60.5t87.5 158.5q0 91 -69 153t-230 123q-167 63 -246.5 143t-79.5 195
q0 80 45.5 155.5t123.5 132.5t189.5 91.5t235.5 34.5q143 0 203 -29q14 -6 14 -18l25 -266q0 -4 -10.5 -11.5t-16.5 -7.5t-8 4q-71 135 -119 219q-14 24 -39 37q-48 25 -110 25q-111 0 -190.5 -64t-79.5 -159q0 -80 56.5 -135t194.5 -123q67 -30 113 -54t96.5 -58.5t81 -69
t50.5 -80t20 -97.5zM557 1335h-2q-7 0 -14 11q-22 25 -84.5 92.5t-83.5 91.5q-8 8 8 24q5 5 8 2q37 -23 92.5 -56t77.5 -46q114 68 164 100q5 3 10 -2q11 -17 6 -22q-163 -181 -164 -182q-13 -13 -18 -13z" />
    <glyph glyph-name="scaron" unicode="&#x161;" horiz-adv-x="917" 
d="M90 627v2q0 124 145.5 221.5t360.5 97.5q133 0 186 -24q11 -11 11 -19l18 -209q0 -6 -10.5 -13t-16.5 -7t-8 6q-18 29 -48.5 83.5t-41.5 72.5q-13 18 -35 34q-49 29 -131 29q-75 0 -126.5 -42t-51.5 -103t45.5 -100t161.5 -81q153 -52 223 -111t70 -153
q0 -147 -148.5 -237t-396.5 -90q-39 0 -97.5 6.5t-86.5 17.5q-13 6 -15 21l-16 213q0 7 10.5 12.5t16.5 5.5t8 -4q10 -17 28 -50.5t33.5 -61t30.5 -50.5q10 -15 37 -35q19 -11 56 -20.5t73 -9.5q96 0 158.5 39.5t62.5 109.5q0 65 -49 105t-176 82q-151 47 -216 108t-65 154z
M471 1044h-2q-5 0 -14 13q-68 107 -138 229q-4 8 11 23q5 3 10 -2q27 -26 66.5 -65.5t66.5 -65.5q49 51 129 131q7 3 10 0q11 -16 8 -21q-71 -131 -131 -227q-1 -2 -3.5 -5.5t-4 -5t-3.5 -3t-5 -1.5z" />
    <glyph glyph-name="Ydieresis" unicode="&#x178;" horiz-adv-x="1187" 
d="M840 1262h391q6 0 6 -7q0 -23 -10 -26l-43 -15q-29 -10 -45 -38q-47 -86 -198 -335.5t-191 -322.5q-17 -27 -17 -72q-4 -164 -4 -376q0 -20 23 -27l98 -16q6 -1 10 -9t4 -16q0 -6 -6 -6q-98 4 -270 4q-168 0 -258 -4q-6 0 -6 6q0 22 12 25l104 20q11 2 15 8t4 23
q1 24 -8 368q-3 21 -15 54q-32 63 -163.5 304.5t-202.5 385.5q-10 20 -29 24l-57 13q-11 4 -11 28q0 7 9 7h575q6 0 6 -7q0 -24 -12 -28l-96 -13q-30 -9 -23 -28q169 -411 225 -539q3 -8 18.5 -43.5t22.5 -50.5h9q28 54 36 74q143 313 209 557q4 15 0.5 21t-16.5 9l-88 13
q-14 3 -14 28q0 7 6 7zM537 1511h2q30 0 49.5 -20.5t19.5 -50.5t-20 -52t-53 -22q-32 0 -54 20.5t-22 49.5q0 30 22 52.5t56 22.5zM844 1511h2q30 0 49.5 -20.5t19.5 -50.5t-20 -52t-53 -22q-32 0 -53 20t-21 50t20.5 52.5t55.5 22.5z" />
    <glyph glyph-name="Zcaron" unicode="&#x17d;" horiz-adv-x="1169" 
d="M774 1155l-6 6q-16 3 -46 7.5t-36 5.5q-83 15 -204.5 27.5t-176.5 12.5q-23 0 -37 -26l-133 -256q-2 -4 -10 -4q-4 0 -16 7.5t-11 12.5l41 301q3 15 15 15q3 0 157 -1t275 -1q354 0 436 4q12 0 16 -11q52 -91 52 -145q0 -24 -21 -59q-140 -185 -387.5 -489.5
t-368.5 -440.5q-25 -33 -47 -58v-6h58q98 0 300.5 20t299.5 44q16 4 22.5 6.5t16.5 10t16 20.5l104 192q2 4 7 4q6 0 16.5 -7.5t9.5 -12.5l-47 -320q-2 -12 -6 -16t-16 -4q-2 0 -22 0.5t-61.5 1.5t-102 2t-164 1.5t-228.5 0.5q-68 0 -191.5 -1t-154.5 -1q-25 0 -41.5 14.5
t-32.5 59.5q-16 36 -16 53q0 6 4 14q61 85 328 450t354 490q17 28 55 76zM621 1335h-3q-5 0 -12 11q-23 26 -84.5 93t-83.5 91q-10 10 8 24q6 6 9 2q37 -23 92.5 -56t77.5 -46q103 61 163 100q4 4 11 -2q10 -16 6 -22q-27 -29 -88.5 -96.5t-77.5 -85.5q-13 -13 -18 -13z" />
    <glyph glyph-name="zcaron" unicode="&#x17e;" horiz-adv-x="1005" 
d="M258 53l2 -2q11 -1 23 -1t25.5 0.5t21.5 0.5q76 2 219 17t223 36q29 7 43 33l88 154q2 4 6 4q7 0 16.5 -6.5t8.5 -12.5l-39 -268q0 -12 -18 -12q-17 0 -178.5 2t-290.5 2q-79 0 -164.5 -1t-120.5 -1q-22 0 -35.5 12.5t-30.5 48.5q-16 37 -16 50q0 6 4 14
q64 80 186.5 228.5t214.5 261.5t132 169q7 11 23.5 31.5t19.5 24.5v6q-13 6 -48 10q-213 37 -303 37q-24 0 -37 -25l-110 -200q-2 -4 -6 -4q-7 0 -17.5 8t-9.5 14l31 238q0 16 14 16q129 -6 326 -6q108 0 254.5 1t148.5 1q12 0 15 -10q39 -85 39 -136q0 -33 -19 -57
q-104 -124 -280 -308.5t-310 -316.5q-12 -14 -51 -53zM543 1044h-2q-6 0 -15 13q-57 90 -137 229q-4 9 10 23q6 3 11 -2q30 -28 71 -69l62 -62q49 51 129 131q7 3 10 0q11 -16 8 -21q-71 -131 -131 -227q-1 -2 -3.5 -5.5t-4 -5t-3.5 -3t-5 -1.5z" />
    <glyph glyph-name="florin" unicode="&#x192;" horiz-adv-x="950" 
d="M834 616l-361 -24q-11 -100 -59 -416.5t-68 -413.5q-3 -20 -58 -34.5t-89 -14.5q-9 0 -9 11q4 47 20 448.5t17 417.5l-170 -4q-8 0 -8 8q0 24 14 46t31 22l139 2q23 264 152 412.5t367 148.5q102 0 166 -27q10 -2 10 -14l-4 -215q0 -6 -10 -12.5t-17 -6.5q-3 0 -6 8
q-7 17 -32.5 80.5t-41.5 94.5q-4 12 -20 28q-28 25 -70 25q-90 0 -150 -124t-98 -400l363 -7q4 0 4 -2q0 -9 -4.5 -23t-7.5 -14z" />
    <glyph glyph-name="circumflex" unicode="&#x2c6;" horiz-adv-x="428" 
d="M211 1311h2q5 0 14 -13q68 -107 138 -229q2 -4 0.5 -7.5t-6 -8.5t-5.5 -6q-3 -3 -10 0q-68 70 -133 133q-21 -22 -60 -63t-67 -68q-7 -3 -10 0q-17 11 -13 20q95 168 134 227q1 2 3.5 5.5t4 5t3.5 3t5 1.5z" />
    <glyph glyph-name="caron" unicode="&#x2c7;" horiz-adv-x="428" 
d="M215 1044h-2q-5 0 -14 13q-68 107 -138 229q-5 11 13 23q6 3 8 -2q28 -25 67.5 -65t67.5 -66q98 102 127 131q7 3 10 0q1 -1 5 -5.5t6 -8t0 -7.5q-73 -129 -134 -227q-7 -15 -16 -15z" />
    <glyph glyph-name="uni02C9" unicode="&#x2c9;" horiz-adv-x="458" 
d="M397 1161v-2q0 -10 -5 -24.5t-9 -14.5q-142 -15 -317 -24q-5 0 -5 4q0 24 5.5 54t13.5 30q60 -2 170.5 -9t142.5 -8q4 0 4 -6z" />
    <glyph glyph-name="breve" unicode="&#x2d8;" horiz-adv-x="432" 
d="M68 1239h2q19 0 24 -12q44 -74 127 -74q41 0 73 23.5t44 52.5q2 10 24 10q9 0 7 -12q-6 -52 -47 -108t-107 -56t-105.5 50t-48.5 112q-2 14 7 14z" />
    <glyph glyph-name="dotaccent" unicode="&#x2d9;" horiz-adv-x="268" 
d="M139 1217h2q29 0 49.5 -21.5t20.5 -50.5q0 -32 -21.5 -55t-54.5 -23t-55.5 21.5t-22.5 52.5q0 30 23 53t59 23z" />
    <glyph glyph-name="ring" unicode="&#x2da;" horiz-adv-x="364" 
d="M186 1266h2q58 0 93.5 -28.5t35.5 -74.5q0 -50 -36.5 -80t-96.5 -30q-61 0 -99 26.5t-38 77.5q0 46 38 77.5t101 31.5zM186 1231h-2q-28 0 -47.5 -21.5t-19.5 -50.5q0 -33 19 -51t48 -18q28 0 46 20.5t18 52.5q0 30 -17.5 49t-44.5 19z" />
    <glyph glyph-name="ogonek" unicode="&#x2db;" horiz-adv-x="305" 
d="M201 0h43q-45 -40 -73 -94t-28 -101q0 -37 24.5 -49.5t61.5 0.5q4 0 4 -4q0 -20 -8 -28q-28 -17 -67 -17q-45 0 -74 22t-29 64q0 58 46 115t100 92z" />
    <glyph glyph-name="tilde" unicode="&#x2dc;" horiz-adv-x="464" 
d="M309 1075h-2q-30 0 -80 35q-42 27 -73 27q-47 0 -62 -64q-3 -10 -29 -10q-2 0 -2 4q0 60 29 110t72 50q37 0 88 -37q47 -33 74 -33q22 0 35 20t16 48q0 14 24 14q4 0 4 -4q0 -58 -23.5 -109t-70.5 -51z" />
    <glyph glyph-name="hungarumlaut" unicode="&#x2dd;" horiz-adv-x="516" 
d="M82 1042h-2q-5 0 -13 9t-4 18q48 104 80 197q8 19 45 22q20 2 60 2q13 0 4 -18q-18 -32 -69 -102.5t-95 -122.5q0 -5 -6 -5zM246 1040h-2q-2 0 -6.5 5.5t-7 13.5t2.5 16q76 118 109 191q14 24 41 24q28 0 68 -10q9 -3 4 -14q-20 -33 -83.5 -102.5t-119.5 -116.5
q-2 -2 -3 -3.5t-1.5 -2.5t-1.5 -1z" />
    <glyph glyph-name="uni03A9" unicode="&#x3a9;" horiz-adv-x="1343" 
d="M102 606v2q0 211 78 364t213 229.5t312 76.5q127 0 231 -46.5t171 -127t103.5 -187t36.5 -227.5q0 -206 -84 -362t-217 -252q-14 -10 -8.5 -20.5t20.5 -10.5q28 0 53 2t39 4.5t43 9t48 9.5q38 9 55 32q19 23 36 50t35.5 62t30.5 54q6 6 11 2q7 0 16 -7t8 -13l-41 -248
q-7 -10 -20 -10q-2 0 -80 4q-74 4 -283 4q-33 0 -75.5 -1t-59.5 -1q-20 0 -20 14q0 6 14.5 17.5t15.5 13.5q78 67 115 223t37 416q0 145 -30.5 270t-91 205t-138.5 80q-129 0 -198.5 -175t-69.5 -480q0 -164 55.5 -317.5t126.5 -221.5q1 -2 16 -13.5t15 -17.5t-8 -10t-17 -4
q-35 0 -92.5 1t-81.5 1q-160 0 -270 -4q-23 -1 -44 -2t-31 -1.5t-14 -0.5q-13 0 -20 10l-39 248q-1 6 7.5 13t15.5 7q8 0 10 -4q4 -7 44 -72.5t64 -95.5q5 -9 32 -20t46 -15q88 -18 156 -18q14 0 16.5 10t-10.5 19q-50 35 -95.5 82.5t-90 113t-71 153.5t-26.5 183z" />
    <glyph glyph-name="uni03BC" unicode="&#x3bc;" horiz-adv-x="1204" 
d="M37 891l362 55q17 3 17 -18q-1 -18 -4.5 -105.5t-6 -170.5t-2.5 -126q0 -212 32.5 -306.5t107.5 -94.5q67 0 120.5 73.5t86.5 200.5q18 67 33 175t18 198q0 32 4 78q3 84 145 90l88 2q14 0 19.5 -6.5t5.5 -22.5q0 -42 -2 -227.5t-2 -226.5q0 -167 8 -379q3 -28 25 -33
l75 -20q5 -1 9 -9t4 -14t-6 -6q-49 2 -195 2q-135 0 -176 -2q-12 0 -12 20q0 4 -1.5 116t-1.5 159q0 6 1.5 26.5t1.5 34.5h-11q-14 -45 -18 -57q-43 -130 -120 -215.5t-173 -85.5q-73 0 -125 49q-4 -49 -10 -120t-13.5 -151.5t-9.5 -107.5q-6 -57 -176 -57q-8 0 -8 10
q-2 241 4 703q3 311 23 501q3 35 -23 35h-86q-6 0 -11 9.5t-5 17.5q0 6 8 6z" />
    <glyph glyph-name="pi" unicode="&#x3c0;" horiz-adv-x="1150" 
d="M401 911h2q104 0 348 -4t287 -4q33 0 41 12l29 43q7 11 22 11q5 -2 10.5 -6t4.5 -7q0 -1 -8.5 -35.5t-14.5 -54.5q-15 -60 -22 -82q-6 -20 -35 -20q-3 0 -18 1l-37.5 2.5t-38.5 2.5q-6 -153 -6 -274q0 -78 -2 -237.5t-2 -180.5q0 -9 0.5 -13t5.5 -8.5t14 -5.5
q17 -1 51 -5t49 -5q7 -1 13 -6t6 -8q0 -11 -17 -15q-13 -2 -54.5 -6.5t-65.5 -7.5q-179 -14 -215 -14q-8 0 -16 8t-9 18q-2 4 -6 83t-9.5 194.5t-9.5 177.5q-17 215 -20 313q-101 4 -285 15q-9 -275 -14 -365q-11 -256 -41 -401q-5 -26 -15.5 -37t-41.5 -8l-232 16
q-32 3 -41.5 7t-9.5 13q0 12 70 25q39 6 65 14q23 7 62 139t59 236q33 187 47 361q-82 3 -142 -8t-118 -44q-3 -3 -10.5 4.5t-7.5 12.5q0 4 6 10q93 85 167 114t205 29z" />
    <glyph glyph-name="endash" unicode="&#x2013;" horiz-adv-x="897" 
d="M836 631l-2 -2q0 -20 -6 -40t-13 -20q-67 -2 -352.5 -13t-392.5 -13q-9 0 -9 10q0 31 8 60.5t17 29.5q29 0 302 -3.5t441 -2.5q7 0 7 -6z" />
    <glyph glyph-name="emdash" unicode="&#x2014;" horiz-adv-x="1792" 
d="M1731 631v-2q0 -21 -6.5 -40.5t-12.5 -19.5q-385 -2 -755.5 -8.5t-598.5 -12t-288 -5.5q-9 0 -9 18q0 27 8 54.5t17 27.5q34 0 272.5 -1.5t616 -3t749.5 -1.5q7 0 7 -6z" />
    <glyph glyph-name="quoteleft" unicode="&#x2018;" horiz-adv-x="243" 
d="M29 985v2q0 68 52 196.5t112 194.5q4 4 6 4q3 0 10 -9t6 -13q-39 -122 -45 -316q0 -35 -45 -47q-62 -20 -90 -20q-6 0 -6 8z" />
    <glyph glyph-name="quoteright" unicode="&#x2019;" horiz-adv-x="243" 
d="M217 1374v-2q0 -70 -52 -198t-112 -193q-1 -3 -4 -3.5t-4 1.5q-4 0 -10.5 7.5t-5.5 12.5q41 122 47 316q0 33 49 47q67 20 84 20q8 0 8 -8z" />
    <glyph glyph-name="quotesinglbase" unicode="&#x201a;" horiz-adv-x="243" 
d="M213 158v-2q0 -70 -52 -199t-112 -195q-2 -2 -8 -2q-4 2 -9.5 9.5t-4.5 11.5q39 126 45 317q0 33 49 47q71 21 84 21q8 0 8 -8z" />
    <glyph glyph-name="quotedblleft" unicode="&#x201c;" horiz-adv-x="462" 
d="M29 985v2q0 71 49.5 199t109.5 192q4 4 7 4t10 -8t6 -12q-39 -126 -45 -318q0 -33 -43 -45q-68 -22 -88 -22q-6 0 -6 8zM252 985v2q0 70 50 198.5t110 194.5q1 0 3 1t3 1q3 0 10 -8t6 -12q-39 -126 -45 -318q0 -33 -45 -45q-68 -22 -86 -22q-6 0 -6 8z" />
    <glyph glyph-name="quotedblright" unicode="&#x201d;" horiz-adv-x="462" 
d="M213 1374v-2q0 -71 -50 -199t-110 -192q-4 -4 -6 -4q-4 0 -11.5 8.5t-6.5 13.5q41 122 47 316q0 35 49 47q67 20 82 20q6 0 6 -8zM436 1374v-2q0 -71 -50 -199t-110 -192q-4 -4 -6 -4q-4 0 -10.5 8.5t-5.5 13.5q39 123 45 316q0 33 49 47q67 20 82 20q6 0 6 -8z" />
    <glyph glyph-name="quotedblbase" unicode="&#x201e;" horiz-adv-x="462" 
d="M209 158v-2q0 -71 -50 -199.5t-110 -192.5q-2 -4 -6 -4q-3 0 -10 8.5t-6 12.5q39 126 45 317q0 33 49 47q71 21 82 21q6 0 6 -8zM432 158v-2q0 -71 -50 -199.5t-110 -192.5q-2 -4 -8 -4q-2 0 -9.5 8.5t-6.5 12.5q35 111 47 317q0 33 49 47q71 21 82 21q6 0 6 -8z" />
    <glyph glyph-name="dagger" unicode="&#x2020;" horiz-adv-x="890" 
d="M346 774l-285 -10q-8 0 -8 10q0 42 21.5 72t48.5 28q75 0 219 -4q-2 86 -14 336q0 34 60 53t134 19q10 0 10 -12q0 -14 -3 -81t-8 -165.5t-7 -153.5l330 -12q6 0 6 -6q0 -14 -6 -29t-15 -16l-315 -23q-37 -840 -45 -985q-1 -19 -23.5 -33t-50.5 -14q-6 0 -6 10
q-41 947 -43 1016z" />
    <glyph glyph-name="daggerdbl" unicode="&#x2021;" horiz-adv-x="890" 
d="M369 258l-246 -8q-18 0 -31.5 27.5t-13.5 68.5q0 10 12 10l277 -8q-2 46 -6.5 134t-7.5 160.5t-5 129.5l-287 -8q-6 0 -6 10q0 47 16.5 75.5t45.5 27.5l229 -7q-14 329 -14 330q-1 26 32.5 44.5t76 26t83.5 7.5q8 0 8 -12q0 -22 -16 -398l326 -12q6 0 6 -8
q0 -15 -6.5 -29t-14.5 -14l-311 -27q-1 -23 -8.5 -185.5t-11.5 -246.5l315 -10q4 0 4 -8q0 -14 -5 -27.5t-13 -13.5l-303 -23q-4 -79 -8.5 -167t-9.5 -178t-7 -124q0 -19 -22 -33t-50 -14q-6 0 -6 10q-4 75 -22 500z" />
    <glyph glyph-name="bullet" unicode="&#x2022;" horiz-adv-x="528" 
d="M266 731h2q65 0 111.5 -48t46.5 -112q0 -67 -47 -115t-115 -48q-70 0 -116 45.5t-46 113.5q0 65 46.5 114.5t117.5 49.5z" />
    <glyph glyph-name="ellipsis" unicode="&#x2026;" horiz-adv-x="1792" 
d="M301 203h2q45 0 76 -34t31 -79q0 -42 -31 -73t-80 -31q-46 0 -78.5 29.5t-32.5 74.5q0 44 31.5 78.5t81.5 34.5zM897 203h2q46 0 76.5 -33.5t30.5 -79.5q0 -42 -31 -73t-80 -31q-46 0 -77.5 29.5t-31.5 74.5q0 44 30.5 78.5t80.5 34.5zM1495 203h2q45 0 76 -34t31 -79
q0 -42 -31 -73t-80 -31q-46 0 -78.5 29.5t-32.5 74.5q0 44 31.5 78.5t81.5 34.5z" />
    <glyph glyph-name="perthousand" unicode="&#x2030;" horiz-adv-x="2265" 
d="M53 907v2q0 147 102.5 231.5t260.5 84.5q84 0 139 -19q45 -3 147.5 -5t236.5 4t185 24q3 1 7.5 -10t8 -25.5t3.5 -24.5q0 -12 -4 -20q-61 -106 -291.5 -513.5t-370.5 -641.5q-3 -6 -10 -6q-19 0 -29.5 0.5t-18 2t-9.5 3.5t0 6q307 605 569 1147q-56 -2 -175.5 4.5
t-180.5 15.5q108 -81 108 -206q0 -140 -106 -228t-263 -88q-136 0 -222.5 68.5t-86.5 193.5zM379 680h2q72 0 122 72.5t50 199.5q0 103 -40.5 170.5t-104.5 67.5q-80 0 -130.5 -70t-50.5 -202q0 -105 43 -171.5t109 -66.5zM1096 -16h-2q-134 0 -221 69t-87 191
q0 144 103.5 231.5t261.5 87.5q141 0 227 -75t86 -195q0 -143 -104.5 -226t-263.5 -83zM1112 18h2q73 0 122.5 70.5t49.5 198.5q0 104 -39 172.5t-104 68.5q-81 0 -131.5 -71t-50.5 -203q0 -105 43 -170.5t108 -65.5zM1845 -16h-2q-134 0 -221.5 69t-87.5 191
q0 144 103.5 231.5t260.5 87.5q142 0 229 -75.5t87 -194.5q0 -143 -105 -226t-264 -83zM1862 18h2q73 0 122.5 70.5t49.5 198.5q0 104 -40 172.5t-106 68.5q-80 0 -130 -71t-50 -203q0 -105 42.5 -170.5t109.5 -65.5z" />
    <glyph glyph-name="guilsinglleft" unicode="&#x2039;" horiz-adv-x="331" 
d="M35 522v2q0 5 8 13q25 26 112 109.5t113 111.5q5 5 8 2q18 -18 15 -23q-66 -134 -105 -207q57 -106 103 -188q3 -4 -13 -20q-3 -3 -6 0q-55 41 -229 190q-6 3 -6 10z" />
    <glyph glyph-name="guilsinglright" unicode="&#x203a;" horiz-adv-x="331" 
d="M297 555v-2l-8 -12q-28 -29 -115 -111.5t-111 -107.5q-5 -3 -8 0q-17 17 -14 22q11 22 51 101t53 104q-10 18 -47.5 88t-54.5 100q-1 1 3 9.5t9 13.5q3 3 6 0q27 -24 117 -99.5t113 -95.5q6 -3 6 -10z" />
    <glyph glyph-name="fraction" unicode="&#x2044;" horiz-adv-x="200" 
d="M520 1227h2q13 0 6 -17q-46 -82 -287.5 -530.5t-383.5 -685.5q-3 -6 -11 -6q-52 0 -52 9q0 2 1 3q84 158 186 368.5t221.5 463.5t172.5 362q10 21 40.5 28t104.5 5z" />
    <glyph glyph-name="Euro" unicode="&#x20ac;" horiz-adv-x="999" 
d="M635 -16h-2q-103 0 -190.5 26.5t-158 81.5t-115.5 147.5t-56 215.5q-66 -4 -93 -4q-10 0 -10 10q0 17 3 34.5t8.5 29t11.5 10.5h76q5 92 6 98q-20 -2 -58 -2q-10 0 -10 8q0 32 6.5 54t16.5 22q6 0 27 -1t30 -1q51 246 231 383q171 129 385 129q131 0 197 -39
q12 -6 12 -19l17 -274q0 -7 -10 -13t-17 -6q-6 0 -10 7q-13 30 -47 115t-51 122q-11 26 -27 39q-25 25 -66 25q-114 0 -200 -111q-102 -131 -131 -360q290 -4 458 -4q6 0 6 -11q0 -16 -4 -30.5t-10 -14.5q-286 -10 -457 -12q-4 -66 -2 -100q70 1 219 3t220 3q6 0 6 -10
q0 -15 -5.5 -31.5t-11.5 -16.5q-102 -4 -423 -20q19 -197 111 -296t212 -99q42 0 100 12q57 14 144 55q3 1 5.5 -1t4.5 -7.5t2 -15.5q0 -9 -8 -17q-113 -69 -191 -92q-73 -22 -151 -22z" />
    <glyph glyph-name="afii61289" unicode="&#x2113;" horiz-adv-x="784" 
d="M508 1368h2q99 0 162 -68.5t63 -181.5q0 -48 -11.5 -95t-28.5 -86t-47.5 -82.5t-55.5 -74.5t-67 -72.5t-69 -65.5t-73 -64v-138q0 -358 176 -358q95 0 221 108q14 9 29 -8q12 -12 -2 -24q-88 -86 -165 -130t-179 -44q-94 0 -158 25.5t-98 74.5t-48 107t-14 137v116
q-14 -9 -48.5 -31t-55.5 -36q-3 -4 -9 -2t-9 10q-1 2 -2 5.5t-1.5 5t-1 4t-0.5 3.5v3t0.5 3t1.5 2.5t3 3t4 3.5q22 19 64 50.5t54 41.5v287q0 75 13.5 153t43 153.5t71 134t102.5 94.5t133 36zM502 1327h-2q-18 0 -33.5 -11t-31.5 -41t-27 -78t-18 -127.5t-7 -182.5v-232
q101 97 159 205.5t58 245.5q0 98 -29 159.5t-69 61.5z" />
    <glyph glyph-name="trademark" unicode="&#x2122;" horiz-adv-x="671" 
d="M150 1262h2q41 0 79.5 1t40.5 1q4 0 4 -4l3 -70q0 -6 -15 -6q-2 0 -2 4l-18 39l-8 8q-21 6 -52 6q0 -9 -1 -54.5t-1 -58.5v-114q0 -6 2 -6l23 -2q4 0 4 -15q0 -4 -2 -4h-121q-4 0 -4 4q0 15 6 15l21 2q2 1 2 6v116q0 9 -2 56t-2 55q-18 0 -46 -4q-8 -3 -10 -6l-18 -43
q-2 -1 -2.5 -2.5t-1.5 -1.5q-3 0 -10 2.5t-7 3.5q4 46 4 70q0 4 7 4l39 -1q39 -1 86 -1zM674 987h-113q-2 0 -2 4q0 15 4 15l19 4q4 1 4 6q-9 110 -11 155q0 19 -2 23h-2q-1 -3 -2 -9t-2 -9q-10 -23 -36.5 -89t-36.5 -88q-5 -8 -17 -8h-22q-3 0 -4 2q-32 55 -80 174
q-1 3 -3 9.5t-3 9.5h-3v-17q-5 -108 -10 -153q0 -8 4 -8l27 -2q2 0 2 -15q0 -4 -2 -4h-86q-4 0 -4 4q0 15 4 15l22 2q5 2 5 6q0 9 2 55t2 55q0 8 1 57t1 52q0 5 -6 8l-17 2q-6 3 -6 17q0 2 6 2h101q4 0 4 -7q68 -176 71 -186l6 -18h3l6 18q5 19 63 188q3 5 10 5h95q4 0 4 -2
q0 -17 -4 -17l-17 -2q-4 -2 -4 -8v-107q0 -92 2 -108q0 -8 4 -8l21 -4q2 -2 2 -15v-4z" />
    <glyph glyph-name="Omega" unicode="&#x2126;" horiz-adv-x="1343" 
d="M102 606v2q0 211 78 364t213 229.5t312 76.5q127 0 231 -46.5t171 -127t103.5 -187t36.5 -227.5q0 -206 -84 -362t-217 -252q-14 -10 -8.5 -20.5t20.5 -10.5q28 0 53 2t39 4.5t43 9t48 9.5q38 9 55 32q19 23 36 50t35.5 62t30.5 54q6 6 11 2q7 0 16 -7t8 -13l-41 -248
q-7 -10 -20 -10q-2 0 -80 4q-74 4 -283 4q-33 0 -75.5 -1t-59.5 -1q-20 0 -20 14q0 6 14.5 17.5t15.5 13.5q78 67 115 223t37 416q0 145 -30.5 270t-91 205t-138.5 80q-129 0 -198.5 -175t-69.5 -480q0 -164 55.5 -317.5t126.5 -221.5q1 -2 16 -13.5t15 -17.5t-8 -10t-17 -4
q-35 0 -92.5 1t-81.5 1q-160 0 -270 -4q-23 -1 -44 -2t-31 -1.5t-14 -0.5q-13 0 -20 10l-39 248q-1 6 7.5 13t15.5 7q8 0 10 -4q4 -7 44 -72.5t64 -95.5q5 -9 32 -20t46 -15q88 -18 156 -18q14 0 16.5 10t-10.5 19q-50 35 -95.5 82.5t-90 113t-71 153.5t-26.5 183z" />
    <glyph glyph-name="estimated" unicode="&#x212e;" horiz-adv-x="1579" 
d="M1481 584h-1116q-11 0 -11 -9v-337q0 -24 15 -39q83 -86 192 -134.5t230 -48.5q130 0 245 55t199 152h100q-94 -111 -238.5 -177t-308.5 -66q-186 0 -344 83t-250 226t-92 311t92 310.5t251 225.5t346 83t346 -83t251.5 -225.5t92.5 -310.5v-16zM1227 627v340
q0 22 -17 39q-181 176 -417 176q-120 0 -229 -48t-193 -133q-17 -17 -17 -43v-331q0 -3 3.5 -7t7.5 -4h854q8 0 8 11z" />
    <glyph glyph-name="partialdiff" unicode="&#x2202;" horiz-adv-x="1050" 
d="M47 340v2q0 98 36.5 175.5t100 125.5t143.5 73t171 25q79 0 143.5 -34.5t93.5 -96.5q6 53 6 185q0 71 -18 155.5t-51 151.5q-96 188 -266 188q-69 0 -127 -18.5t-132 -57.5q-3 -1 -9 6.5t-9 16.5q-3 7 4 14q82 48 142.5 71.5t130.5 23.5q288 0 442 -193
q143 -178 143 -463q0 -121 -37 -258t-110 -242q-144 -206 -402 -206q-111 0 -198.5 38t-142 120t-54.5 198zM326 340v-2q0 -166 38 -239.5t97 -73.5q108 0 186 233q39 115 70 291q-17 51 -66 95t-106 44t-100.5 -28.5t-68.5 -78.5t-37.5 -110.5t-12.5 -130.5z" />
    <glyph glyph-name="Delta" unicode="&#x2206;" horiz-adv-x="1165" 
d="M559 1266h2q78 0 184 -4q16 -3 19 -9q38 -127 179.5 -616.5t182.5 -628.5q3 -5 -1.5 -10.5t-14.5 -5.5q-56 0 -330 4t-305 4q-283 0 -424 -6q-11 0 -18 13.5t-2 21.5q67 174 213 599.5t200 569.5q13 41 36.5 54.5t78.5 13.5zM793 90h2q33 0 24 27q-43 126 -153.5 446
t-167.5 492q-1 2 -8 20.5t-13 30.5h-10q-3 -11 -9 -32.5t-7 -26.5q-242 -893 -254 -938q-3 -11 4 -17t20 -6q76 -2 256 -2q251 4 316 6z" />
    <glyph glyph-name="product" unicode="&#x220f;" horiz-adv-x="1337" 
d="M866 506v2q0 34 -5 335.5t-5 309.5q0 33 -25 39q-76 10 -151 10l-162 -4q-10 0 -20.5 -10t-10.5 -21q-24 -548 -24 -630q0 -8 -5 -304t-3 -346q0 -13 4 -16.5t14 -5.5l94 -23q11 -4 11 -16t-5 -12q-90 4 -249 4q-194 0 -248 -4q-6 0 -6 14q0 13 10 16l88 19q11 3 15.5 9
t4.5 22q0 33 -1 304.5t-1 311.5q0 46 -7 345t-7 304q0 30 -7 39.5t-34 13.5l-59 15q-13 4 -13 18q0 17 13 17q57 0 318 -1t310 -1q59 0 290 1t276 1q17 0 14 -17q0 -17 -27 -22l-49 -11q-19 -3 -23.5 -10.5t-6.5 -34.5q-12 -118 -29 -671q-12 -528 -12 -588q0 -23 3 -30.5
t13 -10.5l96 -23q3 0 7.5 -5t4.5 -11q0 -14 -8 -14q-36 4 -270 4q-182 0 -240 -4q-6 0 -6 10q0 16 10 18l103 23q17 5 20 26q2 26 2 160t-1 292t-1 163z" />
    <glyph glyph-name="summation" unicode="&#x2211;" horiz-adv-x="1079" 
d="M416 -231h-2q-68 0 -176.5 -1t-139.5 -1q-7 0 -11 0.5t-8 2.5t-6 4t-5 8.5t-5 12t-7 18t-9 23.5q-12 36 -12 53q0 7 4 15q72 79 506 549q-170 215 -459 594q-23 33 -23 59q0 48 58 149q4 11 16 11q78 -4 426 -4q121 0 249.5 1t131.5 1q11 0 14 -15q35 -253 41 -301
q1 -5 -10.5 -12.5t-15.5 -7.5q-8 0 -10 4l-134 256q-14 26 -36 26q-74 0 -328 -36q-7 -1 -24.5 -4.5t-33 -6t-28.5 -4.5l-2 -4q31 -40 61 -84q15 -22 130.5 -187t207.5 -292q-217 -270 -569 -666l2 -6h65q414 14 553 41q35 6 56 39l98 156q3 6 10 6q5 0 16.5 -8t10.5 -13
q-30 -191 -49 -364q-3 -21 -21 -21q-2 0 -17.5 1t-50 2t-88.5 2.5t-153 2.5t-223 1z" />
    <glyph glyph-name="minus" unicode="&#x2212;" 
d="M672 610v-2q0 -10 -4.5 -30.5t-8.5 -20.5q-67 -7 -291.5 -20t-250.5 -13q-14 -1 -24 19.5t-13.5 44t-3.5 45.5q0 8 8 8q22 -1 270.5 -12.5t311.5 -12.5q6 0 6 -6z" />
    <glyph glyph-name="uni2215" unicode="&#x2215;" horiz-adv-x="200" 
d="M520 1227h2q13 0 6 -17q-46 -82 -287.5 -530.5t-383.5 -685.5q-3 -6 -11 -6q-52 0 -52 9q0 2 1 3q84 158 186 368.5t221.5 463.5t172.5 362q10 21 40.5 28t104.5 5z" />
    <glyph glyph-name="uni2219" unicode="&#x2219;" horiz-adv-x="378" 
d="M190 758h3q46 0 76 -33.5t30 -77.5q0 -43 -31 -74.5t-80 -31.5q-46 0 -77 29.5t-31 74.5q0 44 30 78.5t80 34.5z" />
    <glyph glyph-name="radical" unicode="&#x221a;" horiz-adv-x="1024" 
d="M922 1538h2q14 0 36.5 -7t36.5 -18q21 -17 21 -38q0 -14 -12 -72q-27 -143 -69.5 -344t-74 -344.5t-93.5 -421t-87 -391.5q-6 -27 -28 -36t-91 -9l-57 -2q-21 0 -27 14q-139 345 -332 772q-3 10 -13 15.5t-21 2.5l-78 -20q-10 -3 -19.5 0.5t-11.5 9.5q0 8 7 16t16 11
q239 100 311 137q4 1 9 -1.5t8 -5.5l3 -3q30 -108 125.5 -414t116.5 -381q11 -29 16 -55h13q3 16 8 45.5t8 42.5q173 1037 242 1481q1 3 2.5 5.5t2.5 4.5t4 3t4 1.5t5 1t5 0.5h6h6z" />
    <glyph glyph-name="infinity" unicode="&#x221e;" horiz-adv-x="1226" 
d="M63 545q0 119 75.5 187.5t195.5 68.5q84 0 151 -45t136 -131q75 81 105 106q87 70 185 70q110 0 181 -66t71 -184q0 -114 -71 -187t-191 -73q-74 0 -142 40.5t-143 137.5q-73 -87 -140 -132.5t-157 -45.5q-106 0 -181 68t-75 186zM174 541v-2q0 -63 47.5 -108.5
t114.5 -45.5q33 0 63 11.5t60 37.5t49 46.5t51 58.5q-64 84 -93 111q-63 57 -136 57q-71 0 -113.5 -47t-42.5 -119zM1051 543v2q0 69 -41.5 115.5t-112.5 46.5q-16 0 -31 -2.5t-30.5 -10t-27 -13t-26.5 -18.5t-23.5 -19.5t-24 -23.5t-21 -23t-22 -25t-19.5 -23
q76 -94 123.5 -129t109.5 -35q65 0 105.5 50t40.5 108z" />
    <glyph glyph-name="integral" unicode="&#x222b;" horiz-adv-x="641" 
d="M225 84l-39 631q-22 393 152 579q49 50 115.5 83.5t130.5 33.5q67 0 107 -23.5t40 -60.5q0 -74 -98 -74q-30 0 -56 16t-40 36q-27 35 -40 40q-6 3 -12 3q-35 0 -51 -58q-17 -60 -6 -225l35 -549q24 -415 -123 -608q-48 -63 -119 -98t-143 -35q-68 0 -120 21t-52 61
q0 30 25 49.5t71 19.5t104 -49q4 -3 13 -11.5t13.5 -12t11.5 -8.5t13 -7t13 -2q18 0 32.5 20t18.5 56q11 61 4 172z" />
    <glyph glyph-name="approxequal" unicode="&#x2248;" 
d="M256 825h2q61 0 137 -69q69 -58 123 -58q42 0 65 38.5t27 86.5q0 13 35 13q4 0 4 -5q2 -40 -2.5 -78.5t-18.5 -76.5t-44 -61t-72 -23q-69 0 -141 55q-68 53 -123 53q-42 0 -72.5 -33.5t-38.5 -76.5q-3 -15 -37 -15q-4 0 -4 9q-3 87 40.5 164t119.5 77zM256 553h2
q62 0 137 -68q67 -59 123 -59q41 0 64.5 39t27.5 86q0 14 35 14q4 0 4 -4q2 -38 -3 -77t-18.5 -78t-43.5 -63t-72 -24q-65 0 -141 58q-68 53 -123 53q-42 0 -72.5 -34t-38.5 -77q-2 -14 -37 -14q-4 0 -4 8q-2 57 15 110.5t55 91.5t90 38z" />
    <glyph glyph-name="notequal" unicode="&#x2260;" 
d="M76 723v2q0 8 8 8q26 -1 301 -14q48 108 70 166q4 12 53 2q22 -3 43.5 -17.5t17.5 -23.5q-6 -12 -31 -58.5t-40 -74.5q125 -4 168 -8q6 0 6 -7q0 -13 -4.5 -30t-8.5 -17q-5 0 -77 -5t-123 -7q-22 -42 -78 -143q49 -3 149.5 -8t135.5 -7q6 0 6 -6q0 -16 -5.5 -31.5
t-13.5 -15.5q-115 -9 -321 -22q-8 -14 -47.5 -86t-57.5 -103q-3 -6 -34 0q-18 3 -18 10l1 2q52 122 74 170q-28 -2 -63.5 -4t-54 -3t-23.5 -1q-29 0 -29 109q0 10 8 10q48 -3 205 -10q2 6 23 55t32 76q-43 -3 -105.5 -7.5t-95.5 -7t-41 -2.5q-15 0 -22.5 35t-7.5 74z" />
    <glyph glyph-name="lessequal" unicode="&#x2264;" 
d="M143 627v2q0 9 9 18q45 42 194.5 174t179.5 160q6 3 9 0q22 -25 12 -37q-200 -260 -232 -305q130 -162 242 -291q9 -9 -8 -37q-3 -3 -8 0q-29 23 -188 143.5t-203 155.5q-7 7 -7 17zM670 225v-2q0 -39 -19 -39q-69 -6 -290.5 -19t-249.5 -13q-29 0 -29 100q0 10 8 10
q24 -1 271.5 -13.5t302.5 -15.5q6 0 6 -8z" />
    <glyph glyph-name="greaterequal" unicode="&#x2265;" 
d="M606 666v-2q0 -11 -8 -19q-47 -45 -205 -183t-172 -151q-5 -3 -8 0q-22 25 -10 37q96 119 231 307q-103 129 -239 291q-10 13 10 35q4 4 8 0q39 -32 195 -151t192 -148q6 -6 6 -16zM670 225v-2q0 -39 -19 -39q-69 -6 -290.5 -19t-249.5 -13q-29 0 -29 100q0 10 8 10
q24 -1 271.5 -13.5t302.5 -15.5q6 0 6 -8z" />
    <glyph glyph-name="lozenge" unicode="&#x25ca;" horiz-adv-x="1019" 
d="M961 602l-381 -651h-142l-379 651l387 655h136zM811 600l-293 524h-12l-299 -518l299 -526h12z" />
    </font>
</defs>
</svg>
