<?xml version="1.0" standalone="no"?>
<!DOCTYPE svg PUBLIC "-//W3C//DTD SVG 1.1//EN" "http://www.w3.org/Graphics/SVG/1.1/DTD/svg11.dtd" >
<svg xmlns="http://www.w3.org/2000/svg" xmlns:xlink="http://www.w3.org/1999/xlink" version="1.1">
<metadata>
Created by FontForge 20170731 at Fri Oct 20 00:55:19 2023
 By Aleksey,,,
Copyright (c) 1994, 2001 Adobe Systems Incorporated.  All Rights Reserved.
</metadata>
<defs>
<font id="NuevaStd-BoldCond" horiz-adv-x="598" >
  <font-face 
    font-family="Nueva Std Cond"
    font-weight="700"
    font-stretch="condensed"
    units-per-em="2048"
    panose-1="0 0 8 6 0 0 0 0 0 0"
    ascent="1393"
    descent="-655"
    x-height="932"
    cap-height="1262"
    bbox="-227 -512 1751 1542"
    underline-thickness="61"
    underline-position="-265"
    unicode-range="U+0020-FB02"
  />
<missing-glyph horiz-adv-x="1024" 
d="M0 0v1434h1024v-1434h-1024zM512 809l348 522h-696zM573 717l349 -522v1044zM164 102h696l-348 523zM102 1239v-1044l349 522z" />
    <glyph glyph-name="fi" unicode="fi" horiz-adv-x="1026" 
d="M659 868l-270 -16q-10 -287 -10 -367q0 -35 -3 -219t-3 -209q0 -11 5 -14.5t17 -5.5l101 -17q10 0 10 -20q0 -4 -6 -4q-180 4 -230 4q-48 0 -196 -4q-4 0 -4 4t2.5 12t5.5 8l78 15q16 3 16 22q0 48 -8.5 225.5t-9.5 194.5q-1 27 -4 119t-5.5 165.5t-1.5 88.5l-125 -4
q-6 0 -6 6q0 17 4 33q7 28 33 28l90 2q13 224 137.5 345.5t335.5 121.5q63 0 121 -14q15 -4 15 -16l10 -230q0 -6 -8.5 -11t-16.5 -5q-1 0 -6 8q-14 28 -44 88.5t-48 93.5q-6 10 -25 29q-18 14 -43 14q-86 0 -132 -113.5t-46 -310.5l510 -2q12 0 15.5 -3.5t3.5 -12.5
q0 -14 -3.5 -93.5t-7.5 -184t-6 -160.5q-8 -320 -8 -396q0 -10 4.5 -14.5t15.5 -7.5l70 -21q8 -4 8 -20q0 -4 -4 -4q-82 4 -199 4q-130 0 -192 -4q-6 0 -6 4q0 16 8 20l74 23q20 7 20 20q0 65 -6 383q-6 283 -10 400q0 22 -17 22z" />
    <glyph glyph-name="fl" unicode="fl" horiz-adv-x="1021" 
d="M143 850l-125 -4q-6 0 -6 6q0 13 4 33q12 28 33 28l96 2q2 92 35.5 176t94 149t154.5 103.5t208 38.5q136 0 256 -24q14 -4 14 -25q-13 -238 -20 -628q-10 -545 -10 -639q0 -20 18 -25l70 -21q10 -3 10 -20q0 -4 -4 -4q-140 4 -201 4q-98 0 -188 -4q-4 0 -4 4q0 15 8 18
l71 21q19 6 19 20q1 29 -2.5 377t-5.5 438l-279 -22q-8 -230 -8 -367q0 -35 -1 -219t-1 -209q0 -11 5 -14.5t17 -5.5l101 -17q10 0 10 -20q0 -4 -6 -4q-180 4 -230 4q-48 0 -196 -4q-4 0 -4 4t2.5 12t5.5 8l78 15q16 3 16 22q0 46 -10.5 214.5t-11.5 205.5q-16 320 -13 373z
M389 915l279 -2q-3 226 -11 383q0 17 -6 23q-17 20 -51 20q-57 0 -99 -34t-66 -93.5t-35.5 -134t-10.5 -162.5z" />
    <glyph glyph-name=".notdef" horiz-adv-x="1024" 
d="M0 0v1434h1024v-1434h-1024zM512 809l348 522h-696zM573 717l349 -522v1044zM164 102h696l-348 523zM102 1239v-1044l349 522z" />
    <glyph glyph-name=".null" horiz-adv-x="0" 
 />
    <glyph glyph-name="nonmarkingreturn" horiz-adv-x="682" 
 />
    <glyph glyph-name="space" unicode=" " horiz-adv-x="290" 
 />
    <glyph glyph-name="exclam" unicode="!" horiz-adv-x="362" 
d="M160 307h-2q-4 0 -4 4q-70 710 -74 834q-2 21 0 40.5t7.5 34.5t23.5 26t47 16q107 20 121 20q10 0 10 -10q-8 -121 -46 -474.5t-50 -475.5q0 -4 -13.5 -9.5t-19.5 -5.5zM176 160h2q35 0 58.5 -25.5t23.5 -68.5q0 -32 -24 -56t-60 -24t-61 24t-25 58q0 39 23.5 65.5
t62.5 26.5z" />
    <glyph glyph-name="quotedbl" unicode="&#x22;" horiz-adv-x="350" 
d="M92 1044h-2q-4 0 -15.5 2.5t-11.5 6.5q-29 275 -30 299q0 11 9.5 19.5t27.5 8.5q12 0 35 1t30 1q6 0 6 -6q-2 -10 -9 -65t-17.5 -132t-18.5 -132q0 -3 -4 -3zM268 1044h-2q-4 0 -15 2.5t-11 6.5q-31 295 -31 299q0 11 9 19.5t26 8.5q14 0 37 1t30 1q6 0 6 -6
q-24 -160 -45 -329q0 -3 -4 -3z" />
    <glyph glyph-name="numbersign" unicode="#" horiz-adv-x="667" 
d="M57 711l117 -2q8 63 23 149q-19 0 -63 -2t-58 -2q-6 0 -6 6q0 22 7 52t23 30q6 0 46 -2t63 -2q8 56 25 158t20 121q0 6 10 6q34 0 58 -11.5t20 -33.5q-46 -218 -49 -242q12 0 54 -1t69 -1q5 34 20 134.5t23 148.5q0 6 10 6q22 0 51 -15t25 -34q-5 -23 -22.5 -109
t-26.5 -133q29 -2 116 -2q4 0 4 -4q0 -18 -4.5 -36t-11.5 -18q-58 -4 -119 -4q-30 -135 -35 -163h119q4 0 4 -5q0 -16 -5 -33.5t-15 -17.5q-20 -1 -117 -6q-41 -202 -65 -309q-3 -8 -7 -8q-13 0 -26 7t-12 15q19 128 45 291q-135 -6 -142 -6q-28 -153 -59 -291
q-1 -7 -19.5 -13.5t-31.5 -6.5q-2 0 -2 8q32 206 45 299q-14 0 -48 -2t-40 -2q-8 0 -13.5 24t-5.5 53q0 9 6 9zM406 866l-127 -4q-5 -20 -17.5 -76t-17.5 -77q6 0 32 -1t48 -1.5t53 0.5q4 21 14.5 77t14.5 82z" />
    <glyph glyph-name="dollar" unicode="$" horiz-adv-x="700" 
d="M334 113l-2 -205q0 -4 -4 -4q-6 0 -27.5 2.5t-21.5 5.5l2 197q-23 -5 -62 -5q-82 0 -117 13q-10 3 -12 12l-24 209q0 3 9 8.5t15 5.5q2 0 4 -4q45 -93 82 -153q8 -19 31 -35q27 -15 78 -15q67 0 120.5 39.5t53.5 112.5q0 70 -44.5 118t-142.5 113q-67 43 -107 78.5
t-67.5 87.5t-27.5 115q0 100 76.5 185.5t205.5 109.5l4 203q0 4 21 8t29 4q4 0 4 -4l-4 -205q25 2 47 2q82 0 114 -16q8 -5 8 -13l17 -206q0 -2 -7.5 -7.5t-11.5 -5.5t-6 4q-14 30 -41 83.5t-37 74.5q-10 19 -30 31q-21 12 -60 12q-65 0 -108 -45.5t-43 -108.5
q0 -64 41 -109.5t143 -117.5q193 -135 193 -282q2 -108 -77.5 -189t-213.5 -104z" />
    <glyph glyph-name="percent" unicode="%" horiz-adv-x="1218" 
d="M53 905v2q0 148 81.5 233t201.5 85q22 0 57 -6.5t51 -14.5q47 -3 127.5 -4.5t185.5 5t144 24.5q2 1 4.5 -3t5.5 -10t5.5 -13t4 -14.5t1.5 -12.5q0 -10 -9 -23q-78 -163 -169.5 -364.5t-201 -447t-155.5 -347.5q-3 -6 -8 -6q-6 0 -12.5 0.5t-12.5 1.5t-9.5 2.5t-2.5 3.5
q78 212 248.5 649t195.5 504q-43 -2 -137 3.5t-157 14.5q90 -76 90 -211q0 -139 -85.5 -225t-201.5 -86q-105 0 -173.5 71t-68.5 189zM307 680h2q53 0 88 71.5t35 200.5q0 103 -28.5 170.5t-73.5 67.5q-56 0 -91.5 -73t-35.5 -210q0 -101 30.5 -164t73.5 -63zM877 -16h-3
q-102 0 -169.5 71t-67.5 189q0 149 80.5 234t200.5 85q109 0 178 -77t69 -199q0 -138 -85.5 -220.5t-202.5 -82.5zM889 18h2q53 0 88 72t35 201q0 102 -29 169.5t-74 67.5q-57 0 -92 -72.5t-35 -209.5q0 -102 30.5 -165t74.5 -63z" />
    <glyph glyph-name="ampersand" unicode="&#x26;" horiz-adv-x="1110" 
d="M766 643l301 23q6 0 6 -7q0 -16 -4 -20l-55 -23q-21 -8 -27 -55q-12 -78 -46.5 -163t-74.5 -142q93 -133 170 -268q3 -3 1 -7t-7 -4q-85 0 -102 15q-75 75 -142 151q-70 -80 -154 -119.5t-204 -39.5q-104 0 -186.5 29.5t-135.5 96t-53 162.5q0 118 68.5 203.5
t157.5 126.5q28 14 49 23v4q-15 15 -27 24q-69 69 -108 138t-39 159q0 122 98 208.5t237 86.5q128 0 209.5 -70t81.5 -182q0 -86 -58 -159.5t-165 -124.5q-26 -13 -31 -15v-8q72 -80 160.5 -190t144.5 -191q18 53 26.5 135.5t-1.5 128.5q-1 4 -3 11q-10 28 -15 30l-68 6
q-8 0 -8 21q0 6 4 6zM485 1210h-2q-112 0 -112 -211q0 -132 121 -278q41 36 64.5 107.5t23.5 150.5q0 108 -26.5 169.5t-68.5 61.5zM287 334v-2q0 -119 68 -194t173 -75q134 0 222 111q-102 121 -392 418q-71 -92 -71 -258z" />
    <glyph glyph-name="quotesingle" unicode="'" horiz-adv-x="176" 
d="M94 1044h-2q-5 0 -17 2.5t-12 6.5q-29 275 -30 299q0 11 9.5 19.5t27.5 8.5q12 0 35.5 1t31.5 1q6 0 6 -6q-24 -160 -45 -329q0 -3 -4 -3z" />
    <glyph glyph-name="parenleft" unicode="(" horiz-adv-x="440" 
d="M68 606v2q0 304 108 539.5t285 351.5q4 3 13.5 -2t12.5 -10q3 -3 -2 -8q-114 -103 -183 -346.5t-69 -532.5q0 -297 46 -503.5t159 -356.5q3 -3 0 -6q-5 -5 -13 -9.5t-9 -3.5q-68 54 -127.5 134.5t-110.5 189.5t-80.5 254t-29.5 307z" />
    <glyph glyph-name="parenright" unicode=")" horiz-adv-x="440" 
d="M377 627v-2q0 -159 -34.5 -307.5t-92 -261.5t-122.5 -197t-134 -138q-1 -1 -9.5 3.5t-13.5 9.5q-3 3 0 6q238 308 238 868q0 305 -54.5 538t-164.5 333q-5 5 -2 8q3 5 12.5 10t13.5 2q175 -114 269 -335.5t94 -536.5z" />
    <glyph glyph-name="asterisk" unicode="*" horiz-adv-x="417" 
d="M209 979h-2q-17 0 -17 4q-1 19 -5 74.5t-7 95.5q-86 -44 -112 -55q-3 -1 -7.5 3.5t-7.5 12.5q-11 17 -2 23q15 12 43.5 34.5t46.5 36.5q-30 23 -94 64q-8 4 4 26q10 27 23 21q13 -7 45 -23.5t55 -29.5q0 43 4 157q0 7 31 7q24 0 24 -7q0 -4 3 -61t4 -98q23 12 58 29
t52 26q3 2 10.5 -4.5t10.5 -16.5q11 -22 4 -26q-63 -41 -105 -66q21 -15 99 -73q2 -1 1.5 -7t-3.5 -12q-15 -18 -17 -16q-42 21 -106 55q-9 -98 -19 -170q0 -4 -14 -4z" />
    <glyph glyph-name="plus" unicode="+" 
d="M61 629v2q0 6 7 6q21 -1 84 -5t100 -5q-15 257 -16 282q0 9 12 9q33 0 66.5 -8t33.5 -25q-1 -32 -5.5 -122.5t-6.5 -137.5q38 -3 105.5 -7t90.5 -6q5 0 5 -6q0 -43 -11 -43q-12 -1 -190 -16q-7 -136 -17 -328q0 -8 -6 -8q-13 0 -28 6t-15 12q0 8 -7 120.5t-11 193.5
q-39 -1 -95.5 -4.5t-64.5 -3.5q-16 0 -23.5 32.5t-7.5 61.5z" />
    <glyph glyph-name="comma" unicode="," horiz-adv-x="305" 
d="M225 145v-2q0 -51 -47.5 -164.5t-101.5 -181.5q-3 -6 -6 -6q-4 0 -15 9.5t-10 13.5q11 39 19.5 86.5t11.5 75t6 70.5l4 44q0 10 8 20.5t25 14.5q13 4 38.5 11.5t42 12.5t19.5 5q6 0 6 -9z" />
    <glyph glyph-name="hyphen" unicode="-" horiz-adv-x="485" 
d="M424 631v-2q0 -11 -3 -25t-7 -14q-295 -27 -346 -31q-7 0 -7 8q0 17 5 46.5t10 29.5q73 -2 196 -4t146 -2q6 0 6 -6z" />
    <glyph glyph-name="period" unicode="." horiz-adv-x="305" 
d="M154 172h2q35 0 60.5 -27.5t25.5 -72.5q0 -34 -26 -60t-64 -26q-39 0 -64 25.5t-25 62.5q0 41 24.5 69.5t66.5 28.5z" />
    <glyph glyph-name="slash" unicode="/" horiz-adv-x="524" 
d="M12 -23h-2q-2 0 -5.5 3t-2.5 6q167 524 397 1290q4 12 11 12q39 0 71 -25.5t23 -50.5q-99 -289 -449 -1222q-5 -13 -43 -13z" />
    <glyph glyph-name="zero" unicode="0" horiz-adv-x="894" 
d="M420 -16h-2q-155 0 -249.5 149t-94.5 408q0 318 111.5 501t295.5 183q70 0 127.5 -30t97 -81t66 -120.5t39 -146.5t12.5 -161q0 -336 -101.5 -519t-301.5 -183zM313 541v-2q0 -232 38 -375.5t104 -143.5q42 0 70 60.5t43.5 207t15.5 384.5q0 241 -36 377.5t-97 136.5
q-138 0 -138 -645z" />
    <glyph glyph-name="one" unicode="1" horiz-adv-x="548" 
d="M133 1063l-100 -16q-5 -1 -12 6t-11 14q-3 6 4 10l361 148q4 2 10 2q14 0 14 -15q0 -2 -4.5 -140.5t-9.5 -303t-6 -223.5q-1 -91 -3 -208.5t-3.5 -194.5t-1.5 -81q0 -5 3 -8.5t9 -6t11 -4t12.5 -3t9.5 -2.5l61 -14q10 -3 10 -23q0 -4 -6 -4q-82 4 -198 4q-142 0 -224 -4
q-4 0 -4 4q0 5 3.5 13.5t7.5 9.5l79 16q31 5 31 16q1 29 -1.5 218t-4.5 251q-1 19 -2.5 130.5t-3.5 220.5t-6 163q-2 11 -8.5 18.5t-16.5 6.5z" />
    <glyph glyph-name="two" unicode="2" horiz-adv-x="741" 
d="M190 57l3 -4q13 0 33.5 1t23.5 1q32 0 139.5 12t163.5 25q27 5 45 35l72 121q3 6 8 6q6 0 13 -8t5 -13l-43 -219q-3 -18 -20 -18q-8 0 -51 1t-116.5 2t-156.5 1q-95 0 -177.5 -2t-88.5 -2q-33 0 -41 24q-12 24 -12 35q0 7 4 11q412 418 412 794q0 132 -49 200t-126 68
q-107 0 -182 -114q-2 -4 -6 -4q-7 0 -14.5 19.5t-1.5 29.5q49 76 132 120t193 44q140 0 226 -95t86 -247q0 -84 -28.5 -178t-71 -174.5t-100 -162.5t-106 -140t-98.5 -109q-31 -31 -70 -60z" />
    <glyph glyph-name="three" unicode="3" horiz-adv-x="747" 
d="M346 655v-8q15 0 57 -10q131 -26 199 -109.5t68 -183.5q0 -172 -126 -266t-323 -94q-65 0 -127 19t-94 46q-8 7 -4 25t10 18l8 -4q61 -43 164 -43q109 0 178.5 74t69.5 203q0 48 -16 95.5t-49.5 91.5t-94.5 73t-141 32q-8 0 -11.5 5t-4.5 22q-3 8 8 8q272 29 272 293
q0 88 -44.5 143.5t-117.5 55.5q-53 0 -101.5 -29t-80.5 -76q-2 -4 -6 -4q-7 0 -14.5 17.5t-1.5 27.5q44 69 122.5 108.5t169.5 39.5q146 0 228 -76.5t82 -200.5q0 -103 -68 -176t-166 -100q-2 -1 -19.5 -8t-25.5 -9z" />
    <glyph glyph-name="four" unicode="4" horiz-adv-x="874" 
d="M858 348v-2q0 -9 -5.5 -19t-10.5 -10q-28 -2 -82.5 -4.5t-63.5 -3.5q-1 -30 -2.5 -81t-2.5 -91.5t-1 -75.5q0 -19 19 -24l51 -14q10 -3 10 -23q0 -4 -6 -4q-70 4 -160 4q-72 0 -194 -4q-7 0 -7 6q0 18 13 21l69 14q21 3 21 20q-1 29 -3 121t-3 121q-48 0 -222 -1t-194 -1
q-46 0 -66 39q-16 37 -16 43q0 8 4 12q297 503 449 770q17 29 39 40t61 11q61 0 147 -12q11 0 11 -10q0 -53 -8.5 -430.5t-8.5 -390.5q75 -8 158 -15q4 0 4 -6zM190 428l3 -10q50 -10 59 -12q195 -25 248 -25q-8 304 -8 534q0 94 6 211h-9q-44 -98 -47 -106
q-45 -115 -121.5 -294.5t-91.5 -215.5q-5 -12 -19 -40.5t-20 -41.5z" />
    <glyph glyph-name="five" unicode="5" horiz-adv-x="774" 
d="M244 -16h-2q-62 0 -116.5 15.5t-84.5 45.5q-6 7 -5.5 15.5t4 16t5.5 7.5q4 0 6 -2q67 -39 166 -39q115 0 190.5 71t75.5 201q0 153 -108.5 233.5t-280.5 72.5q-8 0 -10 4.5t-2 17.5q6 72 19.5 203.5t24 233t11.5 114.5q0 12 17 12t49 -1.5t82 -4t92 -4.5q230 -8 299 -8
q4 0 4 -4q0 -30 -12 -33q-348 -57 -426 -88q-24 -10 -29 -29q-21 -56 -68 -254q277 15 418.5 -93t141.5 -312q0 -177 -132.5 -284t-328.5 -107z" />
    <glyph glyph-name="six" unicode="6" horiz-adv-x="888" 
d="M299 569l8 -4q10 39 25 74q67 147 211 147q90 0 153.5 -51t93 -134t29.5 -189q0 -183 -104.5 -305.5t-274.5 -122.5q-166 0 -267 119t-101 354q0 318 190 561q76 95 176.5 155t198.5 78q9 1 19 -4.5t10 -9.5q0 -1 -1 -2.5t-3 -2.5t-4 -2.5t-3 -2.5q-134 -68 -229 -234
q-87 -151 -117 -342q-9 -62 -10 -82zM455 18h2q42 0 69 26t40 79t17.5 112t4.5 148q0 136 -34.5 223.5t-92.5 87.5q-55 0 -95.5 -75.5t-52.5 -192.5q-4 -24 -4 -45q0 -168 43.5 -265.5t102.5 -97.5z" />
    <glyph glyph-name="seven" unicode="7" horiz-adv-x="739" 
d="M469 1110v8q-27 3 -63 12q-153 35 -224 35q-28 0 -41 -30l-96 -195q-3 -6 -6 -6q-7 0 -16 6t-9 12l25 244q3 16 16 16q4 0 105 -2t180 -2q80 0 205 2t141 2q10 0 14 -6q29 -52 29 -76q0 -20 -10 -43q-14 -34 -190 -461.5t-261 -613.5q-14 -28 -45 -28q-29 0 -44.5 2.5
t-19 6.5t-1.5 11q32 113 91 327t107.5 387.5t89.5 315.5q3 13 12 40.5t11 35.5z" />
    <glyph glyph-name="eight" unicode="8" horiz-adv-x="886" 
d="M559 645v-8q5 -2 13 -3.5t16.5 -2.5t11.5 -2q111 -34 171 -113t60 -192q0 -146 -111 -243t-300 -97q-165 0 -270 80.5t-105 226.5q0 103 53.5 185t153.5 124q11 5 32 11t25 7v7q-9 3 -24.5 10t-18.5 8q-71 28 -123.5 97.5t-52.5 164.5q0 133 109.5 226.5t263.5 93.5
q133 0 226 -81t93 -206q0 -100 -53 -177t-139 -108q-17 -6 -31 -8zM446 651h3q34 0 59 27.5t37.5 72t18 89.5t5.5 92q0 121 -32.5 188.5t-94.5 67.5q-61 0 -99 -73t-38 -189q0 -120 38 -197.5t103 -77.5zM444 20h2q69 0 111.5 75.5t42.5 195.5q0 135 -44.5 224t-121.5 89
q-68 0 -111.5 -87t-43.5 -230q0 -131 44.5 -199t120.5 -68z" />
    <glyph glyph-name="nine" unicode="9" horiz-adv-x="864" 
d="M571 639l-8 4q-12 -45 -24 -74q-61 -135 -205 -135q-119 0 -197 104.5t-78 266.5q0 176 103.5 298t271.5 122q164 0 262.5 -127t98.5 -365q0 -167 -52 -312.5t-137 -240.5q-84 -94 -174.5 -145t-198.5 -66q-10 -1 -20 4.5t-10 10.5t10 10q68 27 132.5 84t109.5 133
q88 153 108 346q1 7 3.5 35.5t4.5 46.5zM418 1190h-2q-129 0 -129 -354q0 -148 31 -233t96 -85q51 0 90 66t51 178q2 12 2 55q0 160 -38 266.5t-101 106.5z" />
    <glyph glyph-name="colon" unicode=":" horiz-adv-x="305" 
d="M152 725h2q37 0 62.5 -27t25.5 -73q0 -34 -26 -60t-64 -26q-39 0 -64 25.5t-25 62.5q0 40 24 69t65 29zM152 172h2q36 0 62 -28t26 -72q0 -34 -26 -60t-64 -26q-39 0 -64 25.5t-25 62.5q0 40 24 69t65 29z" />
    <glyph glyph-name="semicolon" unicode=";" horiz-adv-x="305" 
d="M152 725h2q35 0 60.5 -27.5t25.5 -72.5q0 -33 -25.5 -59.5t-62.5 -26.5q-39 0 -65 25.5t-26 62.5q0 40 25 69t66 29zM221 145v-2q0 -50 -48 -164.5t-101 -183.5q-4 -4 -6 -4q-4 0 -14 10t-9 15q11 38 19 84.5t10.5 75.5t6 70.5t3.5 43.5q0 10 8.5 21t26.5 16
q15 4 38.5 11t39 11.5t20.5 4.5q6 0 6 -9z" />
    <glyph glyph-name="less" unicode="&#x3c;" 
d="M109 512v2q0 9 6 18q94 105 301 318q3 3 6 0q20 -23 12 -37q-9 -14 -57 -84.5t-82.5 -123.5t-50.5 -83q110 -158 209 -282q7 -7 -13 -31q-3 -5 -6 -2q-14 13 -146.5 132.5t-172.5 158.5q-6 6 -6 14z" />
    <glyph glyph-name="equal" unicode="=" 
d="M528 682v-2q0 -39 -10 -39q-54 -5 -227 -17t-191 -12q-30 0 -30 90q0 11 6 11q33 -1 448 -25q4 0 4 -6zM528 487v-2q0 -10 -3 -24.5t-7 -14.5q-53 -5 -226.5 -16.5t-191.5 -11.5q-30 0 -30 92q0 8 6 8q22 -2 117 -7t200.5 -10.5t130.5 -6.5q4 0 4 -7z" />
    <glyph glyph-name="greater" unicode="&#x3e;" 
d="M483 549v-2q0 -11 -8 -19q-88 -96 -301 -315q-3 -3 -6 0q-7 8 -10.5 19t0.5 16q124 179 188 291q-26 38 -103.5 145t-97.5 137q-6 12 15 33q3 3 6 0q34 -35 166 -156t145 -133q6 -6 6 -16z" />
    <glyph glyph-name="question" unicode="?" horiz-adv-x="681" 
d="M629 983v-2q0 -73 -27.5 -140t-75 -120.5t-101 -95t-116.5 -76.5q-14 -8 -14 -43q0 -79 16 -201q1 -5 -7.5 -12.5t-12.5 -7.5q-2 0 -6 4q-22 38 -47 102t-31 101q-8 41 14 63q94 91 135 188t41 213q0 93 -48.5 158.5t-123.5 65.5q-97 0 -170 -103q-4 -4 -6 -4
q-4 0 -11 11t-5 16q33 72 111.5 125t185.5 53q73 0 131.5 -25t94.5 -66.5t54.5 -93.5t18.5 -110zM303 160h2q35 0 58.5 -26t23.5 -68q0 -32 -24 -57t-60 -25t-61 25t-25 59q0 38 23.5 65t62.5 27z" />
    <glyph glyph-name="at" unicode="@" horiz-adv-x="997" 
d="M645 862l19 56q2 2 4 2q25 0 47.5 -9t21.5 -28q0 -8 -7.5 -111t-8.5 -147q-6 -147 -6 -164q0 -53 22 -53q42 0 77.5 92t35.5 233q0 67 -9 131.5t-30 128t-53 111t-83 77t-114 29.5q-120 0 -210.5 -94.5t-135.5 -251t-45 -350.5q0 -99 18.5 -179.5t47.5 -131t67 -84.5
t75.5 -48t74.5 -14q63 0 113.5 22t76.5 50q6 6 9 -9l1 -14q0 -10 -8 -22q-74 -88 -219 -88q-69 0 -128.5 26.5t-110 82.5t-80 158t-29.5 239q0 167 42.5 312t113.5 243.5t163 154.5t191 56q162 0 251 -139t89 -381q0 -180 -74 -298t-188 -118q-60 0 -60 61q0 1 12 154
q0 5 11 55l-4 4q-5 -13 -9 -28q-67 -244 -206 -244q-131 0 -131 203q0 84 29 172t87 151.5t127 63.5q45 0 65.5 -9t45.5 -36q1 -2 6 -8.5t6 -8.5zM532 885h-2q-34 0 -62.5 -53.5t-43 -128.5t-14.5 -148q0 -74 13 -108.5t46 -34.5q27 0 53.5 35t46 88t32.5 103t20 93
q2 8 2 31q0 25 -2 29q-21 57 -39 75q-21 19 -50 19z" />
    <glyph glyph-name="A" unicode="A" horiz-adv-x="890" 
d="M416 1266h2q77 0 155 -4q12 -3 15 -9q26 -148 107.5 -551t131.5 -636q2 -6 7.5 -15t9.5 -10l51 -18q12 -3 12 -23q0 -4 -6 -4q-122 4 -178 4q-67 0 -211 -4q-4 0 -4 4q0 20 8 23l78 18q19 3 12 31q-88 326 -98 364q-49 0 -152.5 -5t-138.5 -9q-11 0 -14 -16
q-5 -35 -23 -158t-22 -164q-3 -24 1.5 -33t16.5 -12l62 -16q12 -3 12 -23q0 -4 -6 -4q-106 4 -148 4q-51 0 -137 -4q-4 0 -4 4q0 20 8 23l35 12q16 5 23 11.5t12 29.5q39 142 149.5 583.5t136.5 538.5q17 68 97 68zM354 1096h-6q-9 -29 -12 -52q-56 -263 -115 -538
q0 -10 8 -14q42 -5 139 -12t132 -7q-5 23 -31 131t-53.5 226.5t-46.5 211.5q-10 39 -15 54z" />
    <glyph glyph-name="B" unicode="B" horiz-adv-x="968" 
d="M594 686v-8q28 -4 29 -4q115 -17 196.5 -109.5t81.5 -208.5q0 -94 -41 -164.5t-115.5 -112t-171 -61.5t-215.5 -20q-12 0 -55 1t-57 1q-22 0 -79 -2t-93 -2q-6 0 -6 4q0 20 10 23l63 18q21 6 21 33v577q0 449 -2 529q0 18 -6 25t-23 7l-63 7q-15 0 -15 24q0 4 8 4
q182 25 375 25q202 0 306 -73t104 -212q0 -97 -68 -177.5t-153 -111.5q-3 -1 -31 -12zM442 1235h-2q-30 0 -30 -23q-8 -115 -17 -301.5t-8 -226.5q6 -6 37 -6q69 0 129.5 80t60.5 196q0 76 -17 133.5t-43.5 88t-54.5 45t-55 14.5zM655 338v2q0 129 -79 215t-160 86
q-25 0 -33 -4q-3 -71 -7.5 -299.5t-4.5 -282.5q0 -18 37 -18q27 0 56 7.5t64 28t62.5 52.5t46 87.5t18.5 125.5z" />
    <glyph glyph-name="C" unicode="C" horiz-adv-x="827" 
d="M74 539v2q0 219 64 375.5t173 248.5q129 113 299 113q90 0 140 -23q9 -2 12 -18l29 -260q1 -6 -10.5 -12.5t-18.5 -6.5q-1 0 -6 5q-18 38 -53 114.5t-52 114.5q-7 20 -20 33q-14 14 -39 14q-69 0 -135 -98q-125 -191 -125 -570q0 -112 17 -201.5t43.5 -144.5t61 -91.5
t66.5 -51t64 -14.5q62 0 108 12q53 14 105 43q2 1 4.5 -2.5t4 -9.5t1.5 -13q0 -6 -6 -12q-59 -40 -148 -80q-55 -22 -149 -22q-88 0 -163.5 32t-136 96.5t-95.5 174t-35 252.5z" />
    <glyph glyph-name="D" unicode="D" horiz-adv-x="1028" 
d="M123 1214l-70 11q-10 0 -10 20q0 6 4 6q185 27 391 27q240 0 379 -148t139 -430q0 -198 -60 -355t-183.5 -253t-294.5 -96q-21 0 -86.5 2t-89.5 2q-94 0 -168 -4q-6 0 -6 4q0 19 8 23l63 18q19 5 21 33q1 40 -1.5 309t-2.5 285q0 206 -9 512q0 18 -4.5 24.5t-19.5 9.5z
M414 33h2q40 0 78 17.5t77.5 63.5t69 117t48 188t18.5 267q0 127 -23.5 234.5t-60.5 176t-81.5 106.5t-88.5 38q-20 0 -27.5 -8.5t-9.5 -32.5q-5 -88 -19 -596t-14 -547q0 -16 6 -20t25 -4z" />
    <glyph glyph-name="E" unicode="E" horiz-adv-x="862" 
d="M825 231l-45 -229q-3 -10 -16 -10q-3 0 -16.5 0.5t-43 1.5t-63.5 2q-152 4 -356 4q-91 0 -213 -4q-6 0 -6 4q0 20 10 23l65 18q23 7 23 33q1 44 0.5 284t-2.5 301q-1 24 -2 145.5t-3 232.5t-5 145q-3 32 -23 37l-59 14q-9 0 -9 22q0 7 5 7h190q213 0 377 4q36 0 66.5 0.5
t47 1t17.5 0.5q12 0 12 -19l6 -227q0 -4 -8.5 -10t-13.5 -6q-4 0 -6 4q-21 53 -76 174q-8 17 -37 24q-26 5 -105.5 12.5t-99.5 6.5q-18 -2 -18 -19q-7 -96 -13 -282t-6 -240q216 -12 318 -12q4 0 4 -4q0 -10 -5.5 -21.5t-8.5 -11.5q-21 -2 -285 -21q-25 -3 -25 -16
q-10 -295 -10 -528q0 -31 19 -31q143 0 253 22q29 6 46 33q35 49 96 152q2 4 6 4q5 0 12 -7.5t6 -13.5z" />
    <glyph glyph-name="F" unicode="F" horiz-adv-x="829" 
d="M770 1255l8 -239q0 -4 -8 -9.5t-12 -5.5q-3 0 -6 3q-71 154 -82 176q-8 25 -41 28q-21 5 -99.5 12t-101.5 7q-14 0 -14 -17q-1 -38 -6 -180t-8 -245.5t-3 -120.5q35 -1 167.5 -8t166.5 -7q4 0 4 -4q0 -31 -12 -31q-23 -3 -301 -22q-27 -3 -27 -17q0 -16 -3.5 -243.5
t-2.5 -261.5q0 -16 5 -20.5t18 -8.5l90 -21q10 -3 10 -18q0 -6 -4 -6q-90 4 -223 4q-99 0 -201 -4q-4 0 -4 6q0 18 10 21l57 18q12 3 16 8t5 21q4 73 -8 553q0 60 -5 281t-8 286q0 26 -18 29l-66 16q-8 3 -8 25q0 4 6 4q92 -2 199 -2t223 2.5t191 5t82 2.5q14 0 14 -17z" />
    <glyph glyph-name="G" unicode="G" horiz-adv-x="950" 
d="M510 553h395q4 0 4 -4q0 -20 -6 -23l-45 -12q-14 -5 -14 -22q-18 -253 -21 -455q0 -14 -8 -19q-75 -34 -254 -34q-100 0 -185.5 33.5t-153 101t-106 180t-38.5 258.5q0 205 64.5 357.5t172.5 242.5q66 59 152 90t168 31q107 0 160 -27q12 -6 12 -24l14 -246
q0 -7 -9 -11.5t-15 -4.5q-4 0 -6 6q-36 85 -99 219q-11 21 -20 33q-14 18 -49 18q-45 0 -85.5 -27.5t-70.5 -70.5q-137 -204 -137 -565q0 -134 24 -245t62 -177.5t80 -102t82 -35.5q20 0 30 7q13 7 13 20q0 43 -5 217t-10 236q0 12 -18 16l-70 10q-12 3 -12 25q0 4 4 4z" />
    <glyph glyph-name="H" unicode="H" horiz-adv-x="1099" 
d="M68 1262h417q4 0 4 -5q0 -23 -8 -26l-45 -12q-24 -6 -24 -23q-5 -92 -11 -270.5t-6 -218.5q0 -24 21 -27q105 -10 291 -10q2 57 0.5 156.5t-3.5 225t-2 128.5q0 19 -4.5 27.5t-17.5 11.5l-51 12q-11 4 -11 26q0 5 5 5h415q4 0 4 -5q0 -23 -8 -26l-47 -12q-17 -3 -20 -29
q-5 -63 -15.5 -263.5t-11.5 -289.5q-1 -40 -4 -177t-5.5 -252.5t-2.5 -129.5q0 -27 14 -33l72 -25q6 -3 6 -20q0 -4 -4 -4l-64 2q-64 2 -116 2q-149 0 -207 -4q-6 0 -6 4q0 17 10 20l59 25q17 6 17 25q3 47 1.5 283t-3.5 280q-105 -4 -291 -21q-25 -3 -25 -22
q-3 -63 -5.5 -274.5t-0.5 -252.5q0 -18 21 -24l53 -19q12 -3 12 -18q0 -6 -4 -6q-62 4 -193 4q-118 0 -192 -4q-4 0 -4 6q0 15 6 18l63 23q11 3 14 8.5t3 22.5q0 33 -2 266.5t-2 273.5q0 57 -4 293.5t-6 274.5q0 32 -21 35l-59 14q-9 3 -9 26q0 5 7 5z" />
    <glyph glyph-name="I" unicode="I" horiz-adv-x="552" 
d="M61 1262h433q4 0 4 -5q0 -23 -11 -26l-53 -12q-22 -3 -22 -29q-7 -87 -12 -298t-5 -304q-1 -39 -5.5 -268t-4.5 -257q0 -15 23 -22l57 -18q8 -3 8 -21q0 -6 -4 -6q-9 0 -74 2t-114 2q-123 0 -205 -4q-4 0 -4 4q0 20 8 23l70 20q10 3 13 7.5t3 15.5q3 124 -8 563
q-7 499 -11 547q-2 20 -7 30t-21 13l-51 12q-11 4 -11 24q0 7 4 7z" />
    <glyph glyph-name="J" unicode="J" horiz-adv-x="727" 
d="M238 1262h450q4 0 4 -5q0 -21 -8 -24l-45 -16q-23 -6 -23 -27q-3 -61 -3.5 -170.5t0.5 -243t1 -139.5q0 -16 -0.5 -63.5t-1.5 -76t-3.5 -71t-8 -80t-14.5 -70.5q-38 -147 -154 -232t-280 -85q-66 0 -105 10q-9 3 -12 15l-37 243q0 5 9.5 12t15.5 7q4 0 6 -4
q85 -162 106 -191q18 -21 29 -28q28 -17 61 -17q68 0 108 65t50 214q5 74 -6 377q-3 100 -13.5 287t-15.5 231q-2 19 -7.5 27.5t-21.5 11.5l-75 12q-11 4 -11 24q0 7 5 7z" />
    <glyph glyph-name="K" unicode="K" horiz-adv-x="999" 
d="M63 1262h414q4 0 4 -7q0 -21 -10 -24l-41 -12q-22 -8 -22 -23q-2 -47 -7.5 -162t-9 -200t-4.5 -113q0 -13 -1 -38t-1 -36h8q34 49 49 72q201 311 279 459q16 35 -8 41l-58 12q-10 3 -10 22q0 9 4 9h320q6 0 6 -7q0 -19 -10 -22l-31 -12q-36 -9 -62 -35
q-91 -101 -305 -377q-32 -48 -35 -53v-8q11 -12 25 -30.5t16 -21.5q59 -79 126.5 -184t115.5 -185.5t121 -205.5q17 -29 25 -43q16 -29 30 -35l47 -18q13 -5 13 -23q0 -6 -7 -6q-86 4 -172 4q-133 0 -190 -4q-8 0 -8 6q0 18 10 21l57 16q27 8 9 31q-124 170 -306 401
q-8 9 -27 34t-30 38h-6v-105q-4 -188 -4 -375q0 -19 14 -22l66 -18q10 -5 10 -21q0 -6 -8 -6q-58 4 -199 4q-108 0 -182 -4q-4 0 -4 6q0 18 10 21l63 20q9 3 12 8.5t3 22.5q1 47 -0.5 284.5t-3.5 303.5q0 55 -4.5 269.5t-6.5 248.5q-2 18 -7.5 26.5t-22.5 12.5l-49 12
q-11 5 -11 22q0 9 6 9z" />
    <glyph glyph-name="L" unicode="L" horiz-adv-x="841" 
d="M72 1262h448q4 0 4 -5q0 -24 -8 -24l-65 -14q-17 -3 -22 -10t-7 -25q-3 -55 -12.5 -304.5t-10.5 -275.5q-2 -42 -6 -275t-4 -276q0 -16 27 -16q30 0 107.5 8.5t113.5 17.5q37 12 53 39l115 179q2 2 6 2t12 -8t8 -11l-51 -256q-4 -12 -20 -12q-2 0 -30.5 0.5t-75.5 1
t-103.5 1t-127.5 1t-136 0.5q-117 0 -209 -4q-4 0 -4 4q0 20 10 23l59 14q21 6 21 35q0 32 -2 268t-2 276q0 451 -6 562q0 19 -5.5 28t-21.5 13l-51 14q-8 3 -8 24q0 5 4 5z" />
    <glyph glyph-name="M" unicode="M" horiz-adv-x="1366" 
d="M971 1262h317q6 0 6 -7q0 -21 -10 -24l-47 -12q-25 -7 -29 -50q-1 -57 -0.5 -149.5t1.5 -227t1 -159.5q0 -448 2 -559q0 -30 19 -35l51 -19q6 -3 6 -22q0 -2 -4 -2q-54 4 -168 4q-130 0 -192 -4q-6 0 -6 6q0 18 10 21l67 16q19 5 19 33q-3 107 -21.5 427.5t-21.5 399.5
q0 8 -0.5 22.5t-0.5 25.5t1 20h-17q-18 -60 -20 -66q-215 -701 -272 -852q-7 -20 -17 -25.5t-39 -7.5q-16 -2 -45 -2q-8 0 -12 11q-210 586 -277 819l-9 27t-9 32h-10q0 -23 -6 -59q-5 -58 -21 -239.5t-29.5 -336t-17.5 -200.5q0 -30 18 -33l66 -12q3 0 5.5 -8t2.5 -13
q0 -6 -6 -6q-70 4 -115 4q-48 0 -102 -4q-4 0 -4 4q0 23 10 23l47 10q11 2 15 7.5t4 22.5q8 410 16 568q3 57 9.5 283t6.5 272q0 21 -28 28l-49 17q-11 3 -11 24q0 7 6 7h328q10 0 14 -13q161 -565 250 -897q3 -9 11 -34.5t14 -43.5h12q7 20 15 49t10 35q31 99 126 452.5
t120 440.5q4 11 10 11z" />
    <glyph glyph-name="N" unicode="N" horiz-adv-x="948" 
d="M23 1262h307q9 0 16 -11q23 -49 94.5 -217.5t164.5 -389.5t114 -269q20 -42 33 -82l8 12v94q0 25 -2.5 177t-4.5 231.5t-6 193t-10 177.5q-1 18 -6.5 25.5t-19.5 10.5l-84 19q-11 3 -11 20q0 9 5 9h303q4 0 4 -7q0 -19 -8 -22l-56 -19q-19 -6 -22 -38q-1 -16 -6 -123
t-10 -226.5t-7 -181.5q-1 -43 -5 -314.5t-5 -314.5q0 -9 -10 -14q-36 -12 -72 -12q-31 0 -47 26q-131 236 -418 818q-4 8 -14.5 30.5t-14.5 30.5l-12 -2q-2 -27 -2 -68q-16 -648 -16 -749q0 -28 20 -31l90 -22q9 -5 9 -23q0 -4 -5 -4q-62 4 -137 4q-65 0 -127 -4q-4 0 -4 4
q0 20 10 23l66 18q18 6 18 33q1 37 -3.5 267t-4.5 271q0 54 -7.5 277t-10.5 287q0 32 -29 41l-59 16q-13 3 -13 22q0 7 7 7z" />
    <glyph glyph-name="O" unicode="O" horiz-adv-x="995" 
d="M467 -16h-2q-187 0 -289 149.5t-102 417.5q0 333 120.5 530t335.5 197q188 0 291 -157t103 -423q0 -349 -118 -531.5t-339 -182.5zM504 20h2q91 0 129.5 170t38.5 502q0 149 -17 269.5t-57.5 201t-99.5 80.5q-91 0 -136 -179.5t-45 -498.5q0 -151 20.5 -272.5t63.5 -197
t101 -75.5z" />
    <glyph glyph-name="P" unicode="P" horiz-adv-x="909" 
d="M127 1210l-61 11q-15 4 -15 24q0 4 6 4q253 19 404 19q208 0 308.5 -91.5t100.5 -252.5q0 -51 -15.5 -105t-51 -109t-86 -98.5t-127.5 -70.5t-168 -27q-27 0 -37 2q-8 -400 -8 -438q0 -28 24 -31l97 -24q10 -3 10 -23q0 -4 -4 -4q-98 4 -217 4q-125 0 -203 -4q-4 0 -4 4
q0 20 8 23l62 18q11 3 14.5 9.5t3.5 23.5q1 65 0.5 276t-2.5 295q-8 336 -8 531q0 17 -7 25t-24 9zM420 551h2q30 0 63.5 20.5t64.5 60.5t51 110t20 157q0 133 -53 234.5t-122 101.5q-38 0 -38 -39q-21 -504 -21 -612q-3 -33 33 -33z" />
    <glyph glyph-name="Q" unicode="Q" horiz-adv-x="995" 
d="M924 696v-2q0 -509 -254 -659q112 -80 272 -139q2 0 2 -5q-2 -7 -11 -16t-15 -8q-154 24 -383 104q-6 1 -18.5 5t-24 6t-23.5 2q-179 0 -287 156.5t-108 424.5q0 327 120.5 520t337.5 193q99 0 175.5 -45t123 -125.5t70 -184.5t23.5 -227zM676 676v2q0 257 -45.5 411
t-126.5 154q-89 0 -137 -174t-48 -471q0 -255 50 -415t133 -160q174 0 174 653z" />
    <glyph glyph-name="R" unicode="R" horiz-adv-x="960" 
d="M864 942v-2q0 -98 -55.5 -177.5t-142.5 -131.5q44 -78 115 -243t124 -312q9 -23 29 -33l53 -18q12 -5 12 -25q0 -4 -4 -4q-70 4 -170 4q-70 0 -188 -4q-6 0 -6 6q0 18 8 21l59 16q26 7 13 31q-158 315 -262 462q-7 11 -15 11h-47q-10 -260 -10 -465q0 -16 4.5 -23
t15.5 -10l68 -22q8 -3 8 -23q0 -7 -6 -4q-78 4 -191 4q-42 0 -106 -2t-80 -2q-6 0 -6 6q0 18 10 21l56 18q18 5 18 27q0 41 -3 282t-3 295q0 86 -2.5 293t-5.5 236q-3 33 -23 36l-57 11q-13 3 -13 24q0 4 7 4q209 19 389 19q407 0 407 -326zM418 578h2q28 0 60.5 19t64.5 57
t52.5 106.5t20.5 154.5q0 132 -52 227t-122 95q-36 0 -36 -23q-6 -113 -14.5 -347.5t-8.5 -264.5q-1 -17 4.5 -20.5t28.5 -3.5z" />
    <glyph glyph-name="S" unicode="S" horiz-adv-x="798" 
d="M727 362v-2q0 -77 -30 -144.5t-87.5 -119.5t-148.5 -82t-205 -30q-101 0 -145 16q-13 4 -15 16l-30 252q-1 6 8.5 12.5t17.5 6.5q4 0 6 -2q62 -132 105 -201q12 -23 33 -35q27 -16 100 -16q32 0 67.5 12t67.5 34.5t53 61.5t21 86q0 95 -58 164.5t-188 159.5
q-217 153 -217 342q0 70 33.5 139.5t90.5 123.5t140.5 88t177.5 34q102 0 146 -23q8 -5 10 -18l18 -248q0 -3 -8 -9.5t-14 -6.5q-4 0 -6 4q-50 111 -99 205q-8 14 -28 28q-36 19 -76 19q-82 0 -132 -61t-50 -144q0 -82 42.5 -140.5t157.5 -152.5q75 -63 123 -113t83.5 -118
t35.5 -138z" />
    <glyph glyph-name="T" unicode="T" horiz-adv-x="876" 
d="M864 1260l8 -269q0 -4 -8.5 -9t-13.5 -5q-4 0 -6 4l-86 205q-10 26 -33 31q-16 4 -70.5 9t-76.5 5q-12 -194 -17 -594q-10 -530 -10 -567q0 -14 4.5 -20t15.5 -9l74 -18q8 0 8 -21q0 -6 -4 -6q-86 4 -219 4q-122 0 -192 -4q-5 0 -5 4q0 20 9 23l73 22q11 2 14 7t3 22
q4 124 -8 590q0 20 -3 147.5t-5.5 246t-4.5 173.5q-71 0 -137 -12q-27 -6 -35 -25l-96 -209q-2 -4 -6 -4q-6 0 -13.5 3t-7.5 7l15 271q0 14 14 14q8 0 55.5 -3t139 -6t204.5 -3q97 0 190.5 3t150 6t63.5 3q10 0 13 -3.5t3 -12.5z" />
    <glyph glyph-name="U" unicode="U" horiz-adv-x="1019" 
d="M63 1262h390q6 0 6 -7q0 -21 -10 -24l-50 -14q-26 -6 -28 -29q-17 -223 -17 -643q0 -128 8 -219.5t28 -162t55 -105.5t87 -35q87 0 125 113t39 399q0 473 -18 649q-3 27 -25 33l-49 14q-10 3 -10 24q0 7 6 7h361q6 0 6 -7q0 -21 -13 -24l-34 -12q-22 -8 -19 -31
q29 -416 29 -643q-1 -137 -36.5 -245.5t-97 -176.5t-141 -103.5t-170.5 -35.5q-66 0 -119 12.5t-106 49t-88.5 96t-57.5 159.5t-22 234q0 120 9 251t22 256t14 142q3 30 -14 33l-53 14q-11 3 -11 24q0 7 4 7z" />
    <glyph glyph-name="V" unicode="V" horiz-adv-x="903" 
d="M520 72h15q3 28 8 43q3 15 19.5 105.5t22.5 124.5t21.5 124t23.5 140.5t21 136t20.5 148.5t16 140t14.5 146q2 15 -0.5 22t-13.5 10l-74 17q-10 3 -10 26q0 7 4 7h330q6 0 6 -7q0 -23 -8 -26l-31 -8q-26 -10 -31 -31q-10 -37 -48.5 -187.5t-71.5 -276.5t-72.5 -276
t-69 -258t-43.5 -149q-6 -17 -10.5 -24t-25 -12.5t-46.5 -6.5t-90 -2h-55q-12 0 -16 12q-87 321 -252 1188q-3 18 -19 21l-43 12q-10 3 -10 24q0 7 4 7h418q4 0 4 -5q0 -23 -10 -26l-49 -12q-24 -3 -21 -27q11 -117 67.5 -482t96.5 -593q4 -34 8 -45z" />
    <glyph glyph-name="W" unicode="W" horiz-adv-x="1429" 
d="M471 72h10q2 10 6.5 28.5t6.5 28.5q109 545 186 1008q9 51 26 62.5t91 17.5q40 4 61 4q13 0 16 -15q16 -87 49.5 -285.5t75.5 -459t56 -344.5q5 -37 8 -45h10q4 10 8 43q91 508 146 1063q2 20 -0.5 26.5t-14.5 9.5l-79 17q-9 3 -9 26q0 5 4 5h328q4 0 4 -5q0 -21 -8 -24
l-39 -16q-17 -5 -24 -29q-19 -76 -81 -340.5t-116 -490.5t-74 -296q-10 -42 -32.5 -51t-120.5 -12h-70q-17 0 -21 14q-11 52 -46.5 208.5t-56.5 255.5t-38 192q-1 5 -6.5 41.5t-7.5 58.5h-10q-7 -37 -35 -141q-1 -3 -38.5 -153.5t-66 -257t-47.5 -165.5q-7 -19 -12.5 -27.5
t-26.5 -14.5t-47 -7.5t-88 -3.5h-57q-14 0 -19 18q-50 240 -196 1180q-3 21 -17 23l-45 12q-8 3 -8 24q0 7 6 7h434q5 0 5 -7q0 -20 -11 -24l-67 -12q-11 -2 -16.5 -10.5t-4.5 -20.5q18 -278 109 -1041q3 -27 10 -75z" />
    <glyph glyph-name="X" unicode="X" horiz-adv-x="907" 
d="M-29 1262h475q5 0 5 -5q0 -6 -3.5 -15.5t-7.5 -10.5l-57 -12q-21 -6 -16 -25q93 -241 131 -334q3 -6 9.5 -26.5t10.5 -30.5h6q5 11 14.5 31t10.5 24q99 215 139 334q9 22 -14 25l-56 14q-6 3 -6 26q0 5 6 5h293q4 0 4 -5q0 -23 -10 -26l-22 -6q-34 -10 -52 -43
q-26 -36 -117.5 -183t-133.5 -206q-4 -9 -33 -56v-6q7 -15 18.5 -35.5t12.5 -23.5q33 -64 73.5 -150.5t63 -138.5t72.5 -167.5t61 -139.5q11 -21 26 -29l60 -24q8 -4 8 -23q0 -4 -6 -4q-54 4 -170 4q-91 0 -201 -4q-6 0 -6 4q0 20 8 23l66 18q23 3 12 27q-140 269 -221 419
q-4 7 -13 25t-14 27h-6q-1 -2 -26 -64q-31 -73 -87.5 -204t-82.5 -193q-7 -22 -3.5 -29t17.5 -10l57 -14q10 -3 10 -23q0 -6 -6 -6q-110 4 -174 4q-75 0 -145 -4q-4 0 -4 8q0 17 8 21l49 18q19 5 47 43q69 94 277 459q2 4 12.5 24t17.5 31v6q-20 40 -24 47q-67 118 -287 543
q-12 19 -31 25l-41 10q-8 4 -8 26q0 5 4 5z" />
    <glyph glyph-name="Y" unicode="Y" horiz-adv-x="890" 
d="M623 1262h301q6 0 6 -7q0 -19 -8 -22l-31 -12q-16 -4 -23 -11.5t-14 -23.5q-76 -165 -157.5 -357t-118.5 -292q-17 -41 -17 -86q-2 -78 -2 -388q0 -18 19 -24l59 -16q12 -3 12 -21q0 -6 -8 -6q-114 4 -188 4q-123 0 -201 -4q-6 0 -6 6q0 16 10 18l68 23q10 1 13 7t3 24
q0 149 -12 383q0 17 -11 55q-17 47 -55.5 151t-63 170t-65 168t-80.5 197q-8 18 -26 21l-39 12q-11 3 -11 24q0 7 7 7h442q6 0 6 -7q0 -20 -12 -24l-53 -12q-29 -8 -25 -25q25 -87 82 -279.5t80 -269.5q2 -6 5.5 -21t8 -34.5t6.5 -28.5h8q19 60 21 66q64 200 152 561
q3 14 0 19.5t-15 6.5l-61 17q-13 3 -13 26q0 5 7 5z" />
    <glyph glyph-name="Z" unicode="Z" horiz-adv-x="870" 
d="M559 1169l-8 7q-7 5 -68 12q-143 33 -231 33q-20 0 -31 -25l-115 -219q-2 -4 -8 -4t-16.5 6.5t-9.5 11.5l39 258q3 17 16 17q5 0 108 -2t193 -2t212 1t130 1q13 0 16 -9q35 -66 35 -108q0 -28 -20 -64q-40 -71 -159.5 -287.5t-217.5 -389.5t-158 -267q-7 -10 -24.5 -39
t-24.5 -39v-6h57q61 0 198 13.5t194 29.5q24 7 35 14t18 23l88 158q2 4 6 4t15 -6.5t10 -11.5l-39 -269q-3 -18 -23 -18q-3 0 -14.5 0.5t-37 1.5t-54.5 2q-136 4 -334 4q-57 0 -132 -1t-98 -1q-22 0 -36.5 9.5t-30.5 41.5q-16 43 -16 51q0 7 4 15q301 583 491 970
q12 26 41 84z" />
    <glyph glyph-name="bracketleft" unicode="[" horiz-adv-x="440" 
d="M463 -283l-338 -2q-7 -1 -9.5 3t-2.5 18q0 226 -11 958q-4 201 -4 746q0 14 3.5 17.5t13.5 2.5l352 -4q8 0 8 -6q0 -8 -6.5 -17.5t-9.5 -9.5l-166 -12q-29 -3 -29 -49q0 -1 -6 -305t-6 -369q0 -368 -8 -876q4 -50 30 -52l181 -12q4 0 9 -8t5 -16q0 -7 -6 -7z" />
    <glyph glyph-name="backslash" unicode="\" horiz-adv-x="532" 
d="M113 1278h2q3 0 6 -6q37 -131 93 -315t95.5 -310.5t113 -358.5t95.5 -302q-1 -2 -2 -5t-2 -3.5t-6 -0.5q-40 0 -45 13q-295 777 -447 1198q-9 25 26.5 57.5t70.5 32.5z" />
    <glyph glyph-name="bracketright" unicode="]" horiz-adv-x="440" 
d="M313 -285l-340 2q-6 0 -6 7t5 15.5t10 8.5l180 12q27 2 31 52q-7 667 -7 890q0 61 -4 354.5t-4 305.5q0 47 -28 49l-168 12q-4 0 -10.5 8.5t-6.5 16.5q0 6 8 6l355 6q10 1 13 -2.5t3 -17.5q0 -306 -8 -760q0 -52 -2.5 -283.5t-5 -443t-2.5 -217.5q0 -14 -3 -18t-10 -3z
" />
    <glyph glyph-name="asciicircum" unicode="^" 
d="M299 887h2q8 0 14 -15q16 -35 53.5 -115.5t90 -192.5t76.5 -163q4 -11 -15 -24q-7 -5 -14 4q-18 25 -93 134.5t-118 168.5q-143 -216 -205 -305q-2 -7 -12 -2q-21 11 -15 26q151 314 220 471q7 13 16 13z" />
    <glyph glyph-name="underscore" unicode="_" horiz-adv-x="1024" 
d="M0 -174h1024v-62h-1024v62z" />
    <glyph glyph-name="grave" unicode="`" horiz-adv-x="311" 
d="M135 1290h2q22 0 29 -22q56 -149 84 -207q3 -4 -5.5 -13.5t-13.5 -9.5q-2 0 -6 4q-46 50 -99.5 123t-66.5 105q-3 9 2 12q24 8 74 8z" />
    <glyph glyph-name="a" unicode="a" horiz-adv-x="829" 
d="M487 555l9 2q0 46 -9 111q-7 74 -39 127t-90 53q-99 0 -217 -133q-4 -4 -6 -4q-6 0 -13.5 10.5t-2.5 17.5q153 209 375 209q229 0 229 -389q0 -55 -6 -244q-1 -36 -4 -95t-4.5 -96.5t-1.5 -55.5q0 -10 3.5 -14.5t14.5 -8.5l53 -20q13 -5 13 -23q0 -4 -7 -4q-25 2 -143 2
q-29 0 -69 -1t-48 -1t-8 12q-4 40 -4 144q0 6 1 27t1 24l-4 2q-1 -2 -8.5 -18.5t-12.5 -24.5q-82 -180 -227 -180q-90 0 -151.5 75.5t-61.5 210.5q0 67 16.5 130.5t48.5 117t85 86.5t118 33q91 0 144 -53q14 -14 26 -29zM365 94h2q39 0 78 57t57 146q8 40 8 59q0 10 -6 58
q-6 35 -19 69.5t-41.5 65.5t-64.5 31q-53 0 -76.5 -79t-23.5 -200q0 -96 23 -151.5t63 -55.5z" />
    <glyph glyph-name="b" unicode="b" horiz-adv-x="890" 
d="M311 604l11 -2q8 37 16 55q20 53 46 100.5t60.5 92.5t78 71.5t89.5 26.5q76 0 126 -54.5t70.5 -139t20.5 -197.5q0 -256 -107 -414.5t-276 -158.5q-121 0 -202 108q-9 16 -23 0l-82 -100q-2 -2 -6 -2q-7 0 -19 5.5t-12 8.5q1 23 0 165.5t-2.5 318.5t-1.5 243
q0 470 -6 551q-3 35 -18 35l-78 4q-6 0 -10 7.5t-4 14.5t6 7l336 32q10 1 13 -3t3 -17q0 -28 -25 -703q-1 -10 -2 -28t-2 -27zM440 16h2q154 0 154 461q0 124 -25 220t-69 96q-59 0 -116.5 -121.5t-82.5 -292.5q-4 -32 -4 -51q0 -11 1 -30t1 -24q7 -129 48 -193.5t91 -64.5z
" />
    <glyph glyph-name="c" unicode="c" horiz-adv-x="729" 
d="M63 385v2q0 129 38 235.5t100 180.5q125 145 323 145q77 0 121 -20q8 -3 8 -19l15 -196q0 -6 -10 -12.5t-15 -6.5q-6 0 -6 4q-15 27 -43.5 82.5t-42.5 79.5q-9 19 -27 33q-17 14 -39 14q-78 0 -135 -196q-35 -133 -35 -295q0 -181 56.5 -270t144.5 -89q40 0 64 6
q48 11 102 37q2 1 4 -1.5t3 -7t1 -9.5q0 -11 -6 -14q-87 -51 -156 -74q-30 -10 -104 -10q-77 0 -140 21t-114 66t-79 125t-28 189z" />
    <glyph glyph-name="d" unicode="d" horiz-adv-x="897" 
d="M420 1341l371 41q11 1 14.5 -4.5t3.5 -15.5q0 -2 -6.5 -179t-13 -379.5t-7.5 -260.5q-10 -330 -10 -477q0 -18 23 -25l63 -21q10 -2 10 -18q0 -4 -4 -4q-43 2 -141 2q-102 0 -135 -2q-10 0 -10 22v218q0 17 1 34t1 31l-11 2q-13 -41 -22 -61q-17 -45 -38.5 -85.5
t-53 -82.5t-74 -67t-90.5 -25q-100 0 -164 99.5t-64 281.5q0 262 101.5 422.5t271.5 160.5q69 0 115 -37q15 -12 20 -22l9 4q-7 62 -9 90q0 10 -3 116.5t-7 180.5q0 25 -18 25l-115 8q-4 0 -8 8t-4 16q0 4 4 4zM395 127h2q61 0 109 108.5t72 286.5q6 54 6 58q0 57 -2 88
q-6 61 -19 111.5t-42.5 89t-69.5 38.5q-74 0 -115 -116t-41 -345q0 -128 24.5 -223.5t75.5 -95.5z" />
    <glyph glyph-name="e" unicode="e" horiz-adv-x="788" 
d="M737 551v-2q0 -56 -41 -66q-36 -13 -171.5 -14.5t-215.5 6.5q0 -124 8 -168q43 -244 191 -244q47 0 100 17q28 10 113 51q2 1 4.5 -3t4 -9.5t1.5 -9.5q0 -7 -4 -11q-38 -25 -101 -57.5t-106 -44.5q-44 -12 -127 -12q-155 0 -242.5 104t-87.5 313q0 95 24.5 189.5
t71 175.5t124 131.5t172.5 50.5q87 0 153 -61.5t97.5 -150.5t31.5 -185zM428 909h-2q-49 0 -82.5 -105.5t-34.5 -293.5q103 -9 166 12q37 15 37 84q0 303 -84 303z" />
    <glyph glyph-name="f" unicode="f" horiz-adv-x="606" 
d="M393 915l252 -4q4 0 4 -4q0 -27 -10 -30l-246 -25q-10 -292 -14 -367q-6 -198 -6 -428q0 -11 5 -14.5t17 -5.5l101 -17q10 0 10 -20q0 -4 -6 -4q-180 4 -230 4q-48 0 -196 -4q-4 0 -4 4t2.5 12t5.5 8l78 15q16 3 16 22q0 38 -7 201.5t-7 218.5q0 37 -4.5 195.5
t-3.5 177.5l-125 -4q-9 0 -9 8q0 5 7 33q11 26 30 26l99 2q4 74 22 141.5t52.5 127t82 103.5t113.5 69.5t143 25.5q61 0 103 -16q10 -3 10 -12l10 -209q0 -6 -9 -12.5t-17 -6.5q-1 0 -7 9q-16 29 -44 86t-33 67q-12 24 -25 37q-14 14 -41 14q-23 0 -41.5 -15t-31 -45.5
t-21 -66.5t-13.5 -87.5t-7.5 -99t-4.5 -110.5z" />
    <glyph glyph-name="g" unicode="g" horiz-adv-x="868" 
d="M78 594v2q0 152 96 252t272 100q62 0 162 -14q20 -2 64 -2h192q6 0 6 -4q0 -20 -8 -23l-164 -37q38 -39 57 -96.5t19 -107.5q0 -269 -293 -347q-21 -5 -90 -32q-50 -22 -69 -35t-19 -31q0 -22 48.5 -36t189.5 -40q179 -34 257.5 -78.5t78.5 -136.5q0 -131 -141 -226
t-363 -95q-163 0 -266 53.5t-103 146.5q0 35 5.5 53t38.5 47.5t87 61.5t168 94q-93 23 -162 56q-37 18 -37 84q0 17 21 24q194 69 221 80q-113 14 -190.5 96t-77.5 191zM424 340h2q61 0 86 64.5t25 226.5q0 124 -28 203t-85 79q-34 0 -57 -23t-35 -67t-16.5 -94.5
t-4.5 -118.5q0 -118 31.5 -194t81.5 -76zM434 -356h2q91 0 149 54t58 140q0 43 -20.5 76t-61.5 57t-84.5 39.5t-107.5 32.5q-19 4 -35 -6q-48 -39 -72 -87t-24 -118q0 -92 55.5 -140t140.5 -48z" />
    <glyph glyph-name="h" unicode="h" horiz-adv-x="954" 
d="M-6 1348l348 34q11 1 14.5 -4.5t3.5 -15.5q0 -5 -6 -171t-13.5 -357.5t-10.5 -251.5q0 -4 -1 -23.5t-1 -30.5h8q3 14 8 31t6 23q16 54 41.5 112t62.5 117.5t86.5 98t100.5 38.5q100 0 152.5 -101.5t52.5 -293.5q0 -219 -25 -463q-2 -26 0.5 -35t14.5 -12l65 -23
q8 -3 8 -18q0 -6 -4 -6q-82 4 -176 4q-86 0 -184 -4q-4 0 -4 4q0 17 8 20l59 19q18 4 21 35q8 73 8 301q0 52 -1 93t-4.5 89t-10.5 83.5t-18 65.5t-27.5 46t-38.5 16q-62 0 -118 -118t-81 -292q-8 -52 -14 -144.5t-5 -147.5q0 -22 23 -25l64 -21q8 -4 8 -18q0 -6 -4 -6
q-90 4 -195 4q-128 0 -178 -4q-4 0 -4 6q0 15 6 18l70 23q16 5 16 25q1 29 -6 606q-1 54 -4 304.5t-4 301.5q0 29 -17 31l-96 10q-10 0 -10 20q0 7 6 7z" />
    <glyph glyph-name="i" unicode="i" horiz-adv-x="475" 
d="M227 1272h2q51 0 81 -29.5t30 -75.5q0 -48 -33 -79t-80 -31t-84 28t-37 76q0 47 33.5 79t87.5 32zM18 885l334 63q11 1 15 -5t4 -15q0 -10 -4 -98t-8.5 -201t-6.5 -170q-8 -320 -8 -396q0 -16 21 -22l69 -21q8 -4 8 -20q0 -4 -4 -4q-82 4 -198 4q-133 0 -195 -4
q-6 0 -6 4q0 17 10 20l74 25q8 3 11 4t6 4.5t3 9.5q0 65 -6 383q-4 191 -10 381q0 23 -18 23l-80 4q-5 0 -10 8t-5 17q0 6 4 6z" />
    <glyph glyph-name="j" unicode="j" horiz-adv-x="460" 
d="M213 1270h2q46 0 76.5 -31.5t30.5 -77.5q0 -44 -33.5 -76t-83.5 -32q-46 0 -81.5 33.5t-35.5 72.5q0 45 34.5 78t90.5 33zM-12 883l356 63q11 1 14.5 -2.5t3.5 -11.5q0 -21 -10 -481q-7 -275 -28 -392q-19 -103 -48 -181t-75.5 -141.5t-116 -96.5t-160.5 -33
q-65 0 -108 14q-8 3 -11 14l-32 205q0 4 7.5 11.5t12.5 7.5q4 0 6 -4q12 -17 103 -154q30 -30 37 -35q26 -16 49 -16q128 0 143 346q6 102 6 321q0 363 -16 494q-4 26 -23 29l-98 10q-7 1 -11.5 10t-4.5 17q0 6 4 6z" />
    <glyph glyph-name="k" unicode="k" horiz-adv-x="876" 
d="M551 932h305q6 0 6 -6q0 -20 -10 -23l-23 -6q-30 -8 -49 -27q-38 -33 -83.5 -74t-99.5 -90t-79 -71q-4 -4 -10 -11.5t-10 -11.5v-6q20 -23 41 -55q111 -172 292 -475q21 -25 33 -31l64 -25q8 -3 8 -20q0 -4 -4 -4q-78 4 -166 4q-119 0 -193 -4q-4 0 -4 4q0 15 9 18l53 21
q20 9 6 31q-99 126 -260 309q-22 25 -37 45h-4q0 -18 -1 -47.5t-1 -36.5q-7 -262 -4 -281q1 -10 5 -13.5t15 -6.5l62 -19q10 -2 10 -20q0 -4 -6 -4q-110 4 -193 4q-102 0 -188 -4q-4 0 -4 4q0 17 8 20l67 19q21 7 21 20q1 27 0 156t-2.5 273t-1.5 180q0 302 -10 620
q0 20 -21 23l-86 12q-3 0 -6.5 7t-3.5 13q0 7 4 7l344 32q11 1 14.5 -4t3.5 -14q-23 -687 -26 -803q0 -14 -1 -40.5t-1 -35.5h6q39 53 49 64q9 11 62.5 76.5t98 121.5t79.5 105q8 10 4.5 21t-15.5 14l-55 14q-16 3 -16 27q0 4 4 4z" />
    <glyph glyph-name="l" unicode="l" horiz-adv-x="479" 
d="M0 1346l348 36q11 1 15 -4t4 -18q0 -11 -4.5 -128t-9.5 -274.5t-7 -252.5q-1 -35 -4 -199.5t-5.5 -296.5t-2.5 -143q0 -19 20 -25l70 -21q10 -3 10 -20q0 -4 -4 -4q-144 4 -203 4q-94 0 -188 -4q-4 0 -4 4q0 15 8 18l72 21q20 7 20 20q1 19 -0.5 156t-3.5 284.5t-2 172.5
q0 60 -5 285.5t-9 322.5q0 28 -19 31l-88 8q-6 0 -10 6t-4 14q0 7 6 7z" />
    <glyph glyph-name="m" unicode="m" horiz-adv-x="1464" 
d="M1356 43l61 -25q6 -3 6 -18q0 -4 -4 -4q-106 4 -170 4q-68 0 -186 -4q-4 0 -4 4q0 15 6 18l59 25q15 6 17 25q6 83 6 303q0 399 -105 399q-69 0 -118.5 -107.5t-67.5 -271.5q-14 -116 -14 -319q0 -23 22 -31l66 -23q8 -3 8 -18q0 -4 -4 -4q-114 4 -184 4q-89 0 -187 -4
q-4 0 -4 4q0 15 8 18l56 23q12 4 15 9t5 18q2 45 2 305q0 50 -1.5 90t-5 88.5t-11 85t-19 68t-29.5 48.5t-42 17q-60 0 -109 -107.5t-70 -269.5q-21 -213 -18 -327q0 -20 16 -25l60 -23q10 -5 10 -16q0 -6 -6 -6q-152 4 -184 4q-63 0 -173 -4q-6 0 -6 4q0 15 9 18l59 21
q16 5 16 22q0 18 -8 410q0 14 -2.5 99.5t-5 158.5t-4.5 98q-4 29 -19 29h-67q-12 0 -12 25q0 4 6 6l315 59q10 1 13 -3t3 -13q0 -158 -12 -322q-2 -12 -2 -53l8 -2q2 8 5 19t7 23.5t5 16.5q109 336 293 336q86 0 133 -82.5t53 -230.5v-51l8 -4q2 11 8 32l6 21
q18 59 42 110.5t58.5 100t82 76.5t102.5 28q93 0 146 -100t53 -283q0 -113 -10.5 -299.5t-10.5 -189.5q0 -16 4 -22t17 -11z" />
    <glyph glyph-name="n" unicode="n" horiz-adv-x="968" 
d="M858 45l68 -25q8 -4 8 -20q0 -4 -4 -4q-126 4 -187 4q-82 0 -188 -4q-4 0 -4 4q0 17 8 20l64 21q19 7 22 31q10 145 10 299q0 50 -1 85.5t-4 87t-10 86.5t-18 69t-29.5 51.5t-43.5 17.5q-58 0 -110 -105.5t-81 -267.5q-7 -53 -15 -159t-7 -168q0 -20 18 -27l64 -21
q8 -3 8 -20q0 -4 -4 -4q-126 4 -191 4q-70 0 -192 -4q-4 0 -4 4q0 20 10 23l74 18q20 7 20 22q0 26 -2 182.5t-2 198.5q0 21 -10 381q0 24 -19 27l-69 6q-4 0 -8 9.5t-4 17.5q0 4 6 6l317 57q7 1 10.5 -3.5t3.5 -12.5q0 -82 -10 -322q0 -17 -4 -63h8q9 36 17 57
q26 85 64.5 159.5t96 129.5t117.5 55q209 0 209 -395q0 -96 -7 -247t-13 -220q-1 -20 2.5 -28t15.5 -13z" />
    <glyph glyph-name="o" unicode="o" horiz-adv-x="882" 
d="M391 -16h-2q-149 0 -237.5 122t-88.5 308q0 106 25 200t73.5 170t129 120t182.5 44q164 0 256 -119t92 -305q0 -82 -14 -157t-47 -146t-81.5 -123t-122.5 -83t-165 -31zM449 23h2q18 0 33.5 6.5t27 20.5t20.5 29.5t15.5 41.5t11.5 47.5t8 56.5t4.5 59.5t2.5 66t1 66v68.5
q0 187 -32.5 305.5t-96.5 118.5q-35 0 -60 -26t-39.5 -67t-23.5 -104.5t-11.5 -125t-2.5 -142.5q0 -170 37.5 -295.5t102.5 -125.5z" />
    <glyph glyph-name="p" unicode="p" horiz-adv-x="899" 
d="M334 33l-6 -2q0 -13 -1 -52.5t-1 -50.5q-4 -168 -4 -239q0 -17 22 -23l94 -24q8 -3 8 -17q0 -6 -4 -6q-82 4 -213 4q-116 0 -186 -4q-4 0 -4 6q0 17 10 19l55 16q19 8 19 23q5 107 -6 583q-5 444 -13 561q0 2 -0.5 5.5t-0.5 5t-0.5 3.5t-1 3.5t-1.5 2.5t-2.5 2t-3.5 1
l-71 6q-15 3 -15 25q0 6 6 8l320 59q7 1 9.5 -3t2.5 -13q0 -60 -10 -275q0 -13 -1 -31t-1 -24l8 -2q9 39 14 55q39 119 110 206t159 87q76 0 125 -56t68.5 -140.5t19.5 -196.5q0 -254 -104.5 -412.5t-270.5 -158.5q-55 0 -101 24q-2 3 -12 11.5t-16 13.5zM461 20h2
q73 0 107 115t34 348q0 52 -5 103.5t-16 99.5t-31.5 77.5t-47.5 29.5q-53 0 -102.5 -125t-75.5 -301q-4 -24 -4 -50v-45q7 -130 45 -191t94 -61z" />
    <glyph glyph-name="q" unicode="q" horiz-adv-x="897" 
d="M657 850l93 92q4 4 8 4q10 0 21.5 -10t11.5 -18q0 -45 -5 -308.5t-6 -312.5q0 -77 -2.5 -225.5t-4.5 -262t-1 -131.5q0 -15 19 -18l61 -16q8 -4 8 -19q0 -6 -4 -6q-28 4 -194 4q-36 -1 -108.5 -2t-100.5 -2q-4 0 -4 4q0 17 10 19l92 20q22 6 22 27q0 5 -1 101t-2 208.5
t-1 157.5q0 102 4 139l-8 2q-4 -11 -10.5 -32t-9.5 -29q-41 -109 -106.5 -180.5t-147.5 -71.5q-75 0 -128 55t-76.5 139.5t-23.5 188.5q0 173 45 304t132 204t204 73q110 0 174 -61q14 -11 31 -37h8zM451 913h-2q-68 0 -110 -121.5t-42 -347.5q0 -144 31.5 -227.5
t77.5 -83.5q55 0 100.5 106.5t71.5 280.5q4 28 4 55q0 9 -1 35t-1 33q-7 134 -41.5 202t-87.5 68z" />
    <glyph glyph-name="r" unicode="r" horiz-adv-x="708" 
d="M346 539h8q1 8 4.5 27t3.5 20q11 58 32.5 117.5t52.5 116t75.5 92.5t93.5 36q36 0 54 -12q6 -3 6 -14l10 -263q0 -6 -7.5 -12t-12.5 -6q-3 0 -7 4q-41 88 -65 133q-16 29 -39 29q-37 0 -71 -42.5t-59 -112.5t-43 -148t-30 -162q-16 -109 -16 -276q0 -20 24 -23l117 -23
q3 0 6.5 -6.5t3.5 -11.5q0 -6 -4 -6q-70 4 -239 4q-44 0 -90 -1t-75.5 -2t-33.5 -1t-4 4q0 17 10 20l68 23q20 3 20 20q0 209 -4 377q-6 314 -10 373q0 27 -16 29l-74 6q-7 0 -11 7.5t-4 14.5q0 5 7 7l317 67q21 5 21 -14q0 -15 -6.5 -153.5t-10.5 -194.5q0 -4 -1 -20
t-1 -23z" />
    <glyph glyph-name="s" unicode="s" horiz-adv-x="669" 
d="M72 647v2q0 53 25.5 105.5t70.5 96t114 70.5t148 27q87 0 131 -14q8 -5 8 -14l19 -189q0 -7 -10 -14.5t-17 -7.5q-4 0 -6 4q-55 100 -84 143q-10 16 -25 29q-21 18 -65 18q-55 0 -87 -38.5t-32 -92.5q0 -63 33 -106t119 -99q95 -61 144.5 -128.5t49.5 -153.5
q0 -131 -108.5 -216t-278.5 -85q-84 0 -131 16q-12 4 -14 18l-17 191q0 7 10.5 13.5t16.5 6.5q4 0 6 -4q7 -12 37.5 -66t48.5 -81q9 -14 37 -33q29 -18 61 -18q64 0 111 36.5t47 102.5q0 60 -38.5 108t-133.5 105q-100 59 -145 123.5t-45 144.5z" />
    <glyph glyph-name="t" unicode="t" horiz-adv-x="628" 
d="M612 874l-239 -20q-13 -226 -13 -467q0 -85 8.5 -148t22 -99t34 -57t39.5 -27.5t44 -6.5q33 0 47 2q21 3 80 25q4 1 6 -5t2 -14q0 -12 -8 -16q-1 -1 -18 -9.5t-28.5 -13.5t-30 -12.5t-37 -12.5t-36.5 -7q-14 -2 -84 -2q-66 0 -113.5 17t-85.5 57t-57 114t-20 182
q0 196 29 496l-131 -2q-9 0 -9 10q0 15 6 33q14 27 33 27l109 -3q11 99 28 177q7 41 74 71q119 45 125 45q7 0 4 -16q-17 -161 -20 -277l248 -6q4 0 4 -4q0 -9 -5 -20t-8 -11z" />
    <glyph glyph-name="u" unicode="u" horiz-adv-x="942" 
d="M596 864l-57 6q-4 0 -7.5 7.5t-3.5 11.5q0 8 7 10l268 49q9 1 12.5 -3.5t3.5 -14.5q0 -11 1 -207.5t1 -245.5q0 -279 8 -405q0 -24 17 -29l55 -20q12 -3 12 -21q0 -4 -8 -4q-43 2 -151 2q-95 0 -136 -2q-14 0 -14 25q0 1 -1 31t-2 66.5t-1.5 78.5t0.5 67v56h-8
q-14 -41 -17 -52q-91 -286 -264 -286q-102 0 -158.5 106.5t-56.5 300.5q0 191 27 445q1 17 -3 22.5t-16 5.5h-61q-5 0 -9.5 9t-4.5 16q0 5 6 8l276 51q9 1 13 -4t2 -16q-2 -28 -5.5 -188.5t-3.5 -211.5q0 -215 21 -310t74 -95q51 0 93.5 75.5t68 192.5t34.5 258
q10 175 10 189q0 26 -22 26z" />
    <glyph glyph-name="v" unicode="v" horiz-adv-x="813" 
d="M510 932h293q4 0 4 -6q0 -16 -10 -21l-33 -14l-6 -3l-6 -3t-5.5 -3t-5 -4.5t-3.5 -6t-3 -7.5q-174 -610 -258 -821q-7 -20 -17.5 -27.5t-31 -11t-76.5 -6.5h-59q-15 0 -21 12q-33 106 -102.5 368.5t-122.5 483.5q-4 22 -18 27l-47 16q-9 3 -9 23q0 4 7 4h411q6 0 6 -4
q0 -20 -8 -23l-51 -18q-19 -5 -16 -27q17 -185 116 -698q2 -8 6 -27t5 -24h8q2 8 5.5 21t6 22.5t4.5 17.5q36 156 69 350.5t46 339.5q0 22 -21 27l-53 16q-8 3 -8 23q0 4 4 4z" />
    <glyph glyph-name="w" unicode="w" horiz-adv-x="1259" 
d="M432 111h10l9 33t8 30q27 107 139 649q8 38 25 49.5t73 12.5q20 2 62 2q9 0 12 -15q7 -33 150 -710q1 -6 5 -23.5t5 -27.5h10q12 45 14 63q54 320 95 688q0 24 -19 27l-65 18q-7 2 -7 21q0 4 5 4h294q5 0 5 -4q0 -5 -3.5 -13.5t-7.5 -9.5l-28 -10q-28 -8 -31 -29
q-32 -133 -113 -428.5t-118 -402.5q-8 -21 -29 -27.5t-96 -9.5h-62q-13 0 -16 12q-56 178 -127 449q-15 58 -15 61h-8q-10 -45 -16 -63q-101 -332 -133 -424q-8 -21 -27.5 -27.5t-91.5 -7.5h-70q-9 0 -12 10q-14 55 -38 166t-43 207.5t-51 257t-46 229.5q-4 21 -23 27
l-43 10q-8 2 -8 23q0 4 6 4h414q6 0 6 -4q0 -20 -8 -23l-57 -14q-19 -5 -19 -27q4 -86 29.5 -315t46.5 -387q1 -4 4 -22.5t4 -28.5z" />
    <glyph glyph-name="x" unicode="x" horiz-adv-x="800" 
d="M-12 932h420q6 0 6 -4q0 -20 -6 -23l-46 -14q-20 -6 -10 -23q60 -146 92 -211q3 -10 12 -28.5t11 -28.5h8q3 7 6 14.5t7.5 17t7.5 15.5q55 117 88 215q11 24 -17 31l-55 12q-6 3 -6 23q0 4 4 4h274q4 0 4 -4q0 -20 -8 -23l-28 -10q-27 -8 -39 -27q-55 -73 -195 -288
q-9 -15 -16 -29v-4q3 -5 13.5 -27t16.5 -31q22 -40 50 -96t45.5 -92.5t54.5 -115t49 -103.5q16 -35 35 -43l41 -19q8 -4 8 -20q0 -4 -4 -4q-54 4 -160 4q-102 0 -192 -4q-4 0 -4 4q0 18 10 20l63 19q21 6 9 33q-58 114 -148 264l-13 20q-12 21 -20 33h-6q-17 -38 -24 -53
q-57 -115 -115 -256q-7 -20 -4.5 -28t14.5 -13l55 -19q9 -4 9 -18q0 -6 -2 -6q-62 4 -160 4q-39 0 -89.5 -2t-53.5 -2q-5 0 -5 4q0 14 11 20l41 17q25 8 45 37l65 91t93 131.5t57 86.5q3 5 14 24t18 29v4q-2 5 -14 29q-23 36 -111 180.5t-135 216.5q-14 23 -24 27l-43 12
q-8 2 -8 23q0 4 4 4z" />
    <glyph glyph-name="y" unicode="y" horiz-adv-x="823" 
d="M524 932h299q6 0 6 -4q0 -20 -10 -25l-26 -10q-27 -12 -31 -29q-41 -146 -134.5 -418.5t-158.5 -418.5q-20 -46 -39.5 -87.5t-58.5 -107t-77.5 -111t-91.5 -80t-106 -34.5q-46 0 -51 18l-51 203q-1 4 6 14.5t12 10.5q3 0 6 -3l52 -69q23 -30 37 -39.5t30 -9.5
q45 0 112 54.5t101 141.5q7 18 -2 41q-140 372 -291 893q-8 24 -20 27l-45 14q-10 3 -10 23q0 6 6 6h420q6 0 6 -6q0 -20 -13 -23l-51 -14q-19 -3 -16 -29q52 -289 127 -618q2 -8 10 -56h8q13 43 19 68q93 392 104 608q3 24 -20 27l-52 14q-12 3 -12 23q0 6 6 6z" />
    <glyph glyph-name="z" unicode="z" horiz-adv-x="768" 
d="M205 53l2 -4q10 0 32.5 1t34.5 1q201 8 312 39q20 3 41 35l65 119q2 4 6 4q5 0 12.5 -5.5t6.5 -9.5l-25 -219q-2 -11 -6 -14.5t-16 -3.5q-17 0 -58.5 0.5t-125.5 1.5t-177 2q-39 0 -104 -1t-117 -1q-19 0 -29.5 9.5t-23.5 35.5q-12 24 -12 41q0 4 4 12q74 127 215.5 375
t173.5 303q12 28 47 78v6q-20 7 -47 10q-166 27 -191 27q-22 0 -39 -33l-90 -157q-2 -5 -6 -5t-13.5 7t-8.5 12l26 199q3 18 17 18q4 0 78 -2t147 -2q83 0 202 1t126 1q11 0 14 -10q35 -58 35 -95q0 -20 -21 -55q-77 -132 -202.5 -319.5t-223.5 -323.5q-28 -40 -61 -78z" />
    <glyph glyph-name="braceleft" unicode="{" horiz-adv-x="440" 
d="M115 623v-11q86 -16 119.5 -60t31.5 -114q-2 -64 -10.5 -141.5t-14.5 -126t-5.5 -104t12.5 -99.5q22 -76 64.5 -118t125.5 -72q6 -3 6 -4q0 -7 -6 -16.5t-12 -8.5q-112 25 -191 71.5t-108 106.5q-18 37 -22.5 85.5t-2 89.5t13 142.5t15.5 176.5q11 172 -131 172
q-3 0 -6.5 12.5t-3.5 20.5t6 8q40 0 67.5 15t40 39.5t17 47.5t2.5 47q-5 86 -16 179t-17 140.5t-4.5 97.5t16.5 87q29 75 110 119t216 63q3 0 10.5 -9t7.5 -15q0 -2 -4 -4q-70 -18 -106.5 -63t-59.5 -128q-16 -57 -17 -126t6 -169t7 -161q0 -151 -157 -170z" />
    <glyph glyph-name="bar" unicode="|" horiz-adv-x="364" 
d="M135 1536h94v-2048h-94v2048z" />
    <glyph glyph-name="braceright" unicode="}" horiz-adv-x="440" 
d="M322 612v11q-156 19 -156 172q0 60 7 160t6 169t-17 125q-23 84 -59.5 128.5t-106.5 62.5q-4 2 -4 4q0 4 7.5 14t10.5 10q271 -36 326 -180q14 -37 15.5 -87t-4.5 -98.5t-16.5 -142t-15.5 -180.5q-2 -23 2 -46t16.5 -47t40 -39t68.5 -15q7 0 7 -8t-4 -20.5t-7 -12.5
q-142 0 -131 -174q5 -67 15 -174t11.5 -144t-3.5 -87t-23 -87q-29 -60 -108 -106.5t-191 -71.5q-4 -1 -10 8.5t-8 16.5q0 1 6 4q82 28 125 71t65 119q12 44 13 100t-4.5 104t-14 126.5t-10.5 142.5q-2 68 32 112t120 60z" />
    <glyph glyph-name="asciitilde" unicode="~" 
d="M213 721h2q26 0 47 -13.5t55 -45.5q32 -33 52 -46.5t45 -13.5q29 0 47.5 37t21.5 90q0 4 11 7t20 3q2 0 2 -2q2 -53 -5.5 -101.5t-34 -87t-68.5 -38.5q-30 0 -54.5 12.5t-60.5 42.5q-31 28 -50 38.5t-40 10.5q-32 0 -56.5 -31.5t-29.5 -76.5q-2 -12 -31 -12q-4 0 -4 6
q0 88 34 154.5t97 66.5z" />
    <glyph glyph-name="uni00A0" unicode="&#xa0;" horiz-adv-x="290" 
 />
    <glyph glyph-name="exclamdown" unicode="&#xa1;" horiz-adv-x="362" 
d="M188 772h-2q-35 0 -58.5 26t-23.5 68q0 32 24 57t60 25q37 0 61.5 -24.5t24.5 -59.5q0 -38 -23.5 -65t-62.5 -27zM205 625h2q4 0 4 -4q70 -704 74 -832q2 -22 0.5 -41t-7.5 -34t-23 -26t-46 -16q-95 -22 -127 -22q-8 0 -8 10q7 113 45.5 453.5t52.5 496.5q0 4 13.5 9.5
t19.5 5.5z" />
    <glyph glyph-name="cent" unicode="&#xa2;" horiz-adv-x="673" 
d="M408 180l-9 -207q0 -4 -4 -4q-15 0 -32 4.5t-17 8.5l6 198q-123 10 -202.5 86t-79.5 230q0 102 34.5 189.5t88.5 148.5q83 86 194 110l8 201q1 4 17.5 8t31.5 4q7 0 7 -4l-11 -205q84 8 140 -16q10 -3 10 -17l10 -157q0 -4 -7.5 -8.5t-10.5 -4.5q-6 0 -9 3
q-5 11 -16 35.5t-21.5 46t-23.5 42.5q-4 7 -10 17t-8 12q-12 12 -37 12q-46 0 -81 -41t-52 -90q-35 -107 -35 -262q0 -142 50 -210t130 -68q29 0 53 4q54 11 86 28q6 3 8 -4q2 -6 1.5 -14.5t-3.5 -9.5q-72 -42 -131 -58q-40 -8 -75 -8z" />
    <glyph glyph-name="sterling" unicode="&#xa3;" horiz-adv-x="815" 
d="M692 608l-284 -20q-3 -18 -11 -83.5t-17 -110.5t-24 -89q-46 -143 -157 -233q-11 -10 -8.5 -15.5t14.5 -5.5q61 0 203.5 8t187.5 17q26 6 43 33q35 56 94 141q2 4 6 4t12 -6.5t7 -11.5l-37 -228q-3 -10 -16 -10q-1 0 -73 0.5t-187 1t-220 0.5q-84 0 -202 -4q-7 0 -7 4
q0 24 11 27l63 18q36 12 49 33q34 36 51 164q16 104 9 344l-133 -4q-9 0 -9 6q0 14 13.5 37.5t23.5 23.5l107 2q-2 168 43 297t137 203t219 74q74 0 115 -17q10 -3 10 -14l6 -211q0 -6 -8 -11t-16 -5q-4 0 -7 8q-51 130 -71 178q-8 17 -15 21q-15 12 -41 12
q-85 0 -123 -138.5t-40 -400.5l290 -4q5 0 5 -4q0 -8 -4.5 -19t-8.5 -12z" />
    <glyph glyph-name="currency" unicode="&#xa4;" horiz-adv-x="796" 
d="M723 651v-2q0 -103 -27 -195.5t-84 -150.5q21 -40 54 -99.5t34 -60.5q1 -3 -3.5 -7t-14 -7.5t-20.5 -3.5q-14 0 -19 10q-29 37 -84 119q-76 -64 -203 -64q-94 0 -141 50q-53 -85 -86 -127q-7 -11 -23 -11q-15 0 -27 7.5t-9 13.5q46 76 90 162q-84 100 -84 272
q0 90 22.5 175t63.5 140q-68 92 -82 121q-7 14 13.5 43t29.5 29q3 0 6 -6q34 -53 80 -131q33 38 91.5 61t127.5 23q113 0 180 -64q12 20 25.5 45t22 40t12.5 20q14 14 22 14q10 0 25 -4t25.5 -10t7.5 -11q-8 -16 -22.5 -41t-34 -59t-29.5 -51q61 -91 61 -240zM406 225h2
q25 0 44 14.5t30.5 45t18.5 62.5t10 83.5t4 89.5t1 98q0 156 -29 258.5t-84 102.5q-37 0 -61.5 -31.5t-36 -91t-16 -123t-4.5 -149.5q0 -146 32 -252.5t89 -106.5z" />
    <glyph glyph-name="yen" unicode="&#xa5;" horiz-adv-x="878" 
d="M721 358l-193 -8q-1 -52 -2.5 -120t-2.5 -112.5t-1 -54.5q0 -18 19 -24l59 -16q10 -3 10 -21q0 -6 -8 -6q-102 4 -178 4q-88 0 -162 -4q-4 0 -4 6q0 15 8 18l66 23q10 3 13 9t3 22q0 58 -4 276l-168 -8q-21 -1 -27 7.5t-6 39.5q0 10 4 10l197 -2q0 1 -1 22.5t-1 33.5
q0 17 -6 26l-186 -8q-5 0 -5 10q0 31 7 41t22 10l156 -2q-38 84 -79 181t-101.5 244t-77.5 188q-6 15 -27 22l-39 13q-10 2 -10 24q0 6 6 6h397q7 0 7 -6q0 -20 -13 -24l-51 -13q-10 -3 -14.5 -4.5t-9 -7t-1.5 -12.5q10 -33 66.5 -216t95.5 -298q2 -7 9 -38t10 -42h8
q3 10 9 29.5t9 29.5q117 379 158 529q3 13 -0.5 19t-15.5 9l-62 15q-10 2 -10 26q0 4 4 4h281q6 0 6 -6q0 -19 -8 -22l-31 -13q-27 -9 -39 -34q-260 -598 -262 -603l190 -2q2 0 2 -6q0 -35 -20 -35q-14 -1 -182 -6q-5 -15 -5 -24v-58l201 -2q4 0 4 -6q0 -33 -14 -33z" />
    <glyph glyph-name="brokenbar" unicode="&#xa6;" horiz-adv-x="364" 
d="M135 1382h94v-716h-94v716zM135 358h94v-716h-94v716z" />
    <glyph glyph-name="section" unicode="&#xa7;" horiz-adv-x="753" 
d="M639 1243l18 -213q0 -2 -8 -7t-12 -5t-6 2l-36.5 73t-49.5 97q-8 16 -29 31q-25 14 -76 14q-72 0 -126 -53.5t-54 -122.5q0 -84 53 -139.5t160 -116.5q105 -57 165 -136.5t60 -170.5q0 -161 -120 -246q69 -82 69 -178q0 -141 -115.5 -227.5t-310.5 -86.5q-81 0 -131 15
q-10 5 -12 14l-27 217q0 3 9 8.5t14 5.5q4 0 6 -2q17 -32 46 -88.5t40 -77.5q14 -25 39 -34q29 -19 86 -19q74 0 136 43.5t62 122.5q0 39 -14 74t-31.5 59.5t-53.5 53t-59 43.5t-69 43q-42 26 -67 43.5t-55.5 45.5t-46.5 56.5t-27 69t-11 90.5q0 72 36.5 137.5t86.5 105.5
q-31 30 -51.5 76.5t-20.5 100.5t28.5 110t78 102t124.5 75.5t161 29.5q90 0 131 -18q10 -5 10 -17zM569 397v2q0 28 -7.5 53.5t-16.5 45t-31 42t-36.5 36t-47.5 35.5t-50 32.5t-58 34.5q-70 40 -109 72q-16 -16 -28.5 -48.5t-12.5 -68.5q0 -88 52.5 -143t187.5 -128
q84 -43 129 -88q28 47 28 123z" />
    <glyph glyph-name="dieresis" unicode="&#xa8;" horiz-adv-x="483" 
d="M125 1192h2q55 0 55 -64q0 -30 -15.5 -47.5t-45.5 -17.5q-29 0 -44.5 16.5t-15.5 44.5q0 32 16.5 50t47.5 18zM360 1192h2q58 0 58 -64q0 -30 -16 -47.5t-46 -17.5q-28 0 -43.5 16.5t-15.5 44.5q0 32 16.5 50t44.5 18z" />
    <glyph glyph-name="copyright" unicode="&#xa9;" horiz-adv-x="989" 
d="M461 82h-2q-59 0 -116.5 17.5t-110.5 55t-93 91t-64 132.5t-24 173q0 278 137.5 453.5t348.5 175.5q123 0 215 -68t138 -178t46 -244q0 -103 -18 -193.5t-56.5 -166.5t-94 -131t-134 -86t-172.5 -31zM463 125h2q83 0 152 29t117 79.5t82 120t50 149.5t17 169
q0 84 -21.5 164t-63 149.5t-112 111.5t-160.5 42q-123 0 -219 -78t-147 -209.5t-51 -292.5q0 -93 22.5 -168.5t58.5 -124t83 -81t94.5 -46.5t95.5 -14zM655 940l17 -133q0 -4 -9 -9t-14 -5q-3 0 -6 6l-51 108q-8 12 -8 17q-10 10 -29 10q-36 0 -68 -51q-59 -91 -59 -281
q0 -133 42 -192.5t95 -59.5q22 0 58 6q17 4 59 21q4 0 4 -21q0 -8 -2 -10q-21 -14 -82 -35q-35 -10 -88 -10q-109 0 -176.5 70t-67.5 213q0 215 133 321q71 56 158 56q49 0 86 -11q8 -4 8 -10z" />
    <glyph glyph-name="ordfeminine" unicode="&#xaa;" horiz-adv-x="536" 
d="M334 772l-4 2q-6 -22 -8 -26q-24 -43 -63.5 -71t-88.5 -28q-59 0 -99 46t-40 128q0 86 46 152.5t130 66.5q54 0 90 -28q3 -3 9.5 -9t10.5 -10h5q0 26 -5 66q-7 43 -27.5 70.5t-56.5 27.5q-60 0 -133 -76q-2 -2 -6 -2q-5 0 -12.5 10t-3.5 15q98 123 241 123
q150 0 150 -234q0 -69 -4 -147q-1 -27 -3.5 -77t-2.5 -64q0 -10 12 -15l33 -12q8 -2 8 -18q0 -5 -4 -5q-16 2 -92 2q-19 0 -45 -1t-31 -1q-6 0 -6 9v77v29zM236 723h2q27 0 52.5 32.5t35.5 82.5q4 24 4 34q0 17 -4 37q-8 34 -27 61t-49 27q-70 0 -70 -155q0 -58 15 -88.5
t41 -30.5z" />
    <glyph glyph-name="guillemotleft" unicode="&#xab;" horiz-adv-x="466" 
d="M23 524v2q0 4 6 13q27 31 99.5 110t90.5 99q5 5 8 2q17 -17 15 -21q-17 -36 -92 -197q10 -26 90 -182q2 -2 -13 -18q-3 -3 -6 0q-90 81 -194 182q-4 4 -4 10zM229 524v2q0 2 7 13q27 33 101 113.5t87 95.5q5 5 8 2q16 -16 14 -21q-68 -144 -92 -197q19 -43 90 -182
q3 -3 -12 -18q-3 -3 -6 0q-11 11 -85.5 80.5t-107.5 101.5q-4 4 -4 10z" />
    <glyph glyph-name="logicalnot" unicode="&#xac;" 
d="M70 643v2q0 10 6 10q15 -1 210.5 -11t237.5 -11q3 0 6 -6q-10 -117 -18 -273q0 -8 -6 -8t-22.5 7t-16.5 12q-15 191 -16 196q-52 -1 -136.5 -3t-145 -3.5t-67.5 -1.5q-32 0 -32 90z" />
    <glyph glyph-name="uni00AD" unicode="&#xad;" horiz-adv-x="485" 
d="M424 631v-2q0 -11 -3 -25t-7 -14q-295 -27 -346 -31q-7 0 -7 8q0 17 5 46.5t10 29.5q73 -2 196 -4t146 -2q6 0 6 -6z" />
    <glyph glyph-name="registered" unicode="&#xae;" horiz-adv-x="444" 
d="M231 1309h2q89 0 144 -59.5t55 -149.5q0 -97 -60.5 -156t-156.5 -59q-82 0 -141.5 52.5t-59.5 143.5q0 102 62.5 165t154.5 63zM225 1284h-2q-76 0 -125 -54t-49 -147q0 -86 50.5 -129t119.5 -43q79 0 128.5 50t49.5 137q0 83 -45 134.5t-127 51.5zM217 1229h2
q47 0 75 -17.5t28 -46.5q0 -39 -46 -65q35 -50 52 -90q1 -2 8 -9l8 -4q4 -4 4 -14q0 -2 -2 -2h-41h-45q-4 0 -4 2q0 3 2.5 8.5t3.5 5.5l8 4q5 2 2 5q-21 35 -55 69q0 2 -4 2h-6q-4 -28 -4 -71q0 -5 4 -5l14 -4q4 0 4 -14q0 -2 -2 -2h-47h-47q-4 0 -4 2q0 10 4 14l10 4
q6 6 6 7q0 6 -1 47t-1 51q0 9 -2 49.5t-2 42.5t-6 8l-12 2q-4 0 -4 13q0 4 2 4q46 4 98 4zM211 1098h2q12 0 25.5 16.5t13.5 46.5q0 22 -11 34.5t-24 12.5q-10 0 -10 -6q0 -13 -1 -56.5t-1 -45.5t6 -2z" />
    <glyph glyph-name="macron" unicode="&#xaf;" horiz-adv-x="401" 
d="M342 1147v-2q0 -8 -3.5 -20.5t-6.5 -12.5q-9 -1 -266 -22q-5 0 -5 6q0 78 19 78q37 -2 137.5 -10.5t122.5 -10.5q2 0 2 -6z" />
    <glyph glyph-name="degree" unicode="&#xb0;" horiz-adv-x="366" 
d="M184 1292h2q69 0 104.5 -35.5t35.5 -97.5q0 -65 -37.5 -106t-106.5 -41q-68 0 -104.5 36t-36.5 103q0 61 37 101t106 40zM256 1155v2q0 46 -19 72t-53 26q-32 0 -51.5 -29.5t-19.5 -74.5q0 -49 19.5 -75.5t53.5 -26.5q32 0 51 29t19 77z" />
    <glyph glyph-name="plusminus" unicode="&#xb1;" 
d="M61 623v2q0 8 7 8q21 -1 84 -5t100 -5q-2 39 -6 101.5t-6.5 106t-3.5 68.5q0 8 6 8q17 0 62.5 -7t45.5 -15q-1 -40 -5.5 -129.5t-6.5 -134.5q166 -8 197 -11q4 0 4 -8q0 -13 -3.5 -26t-7.5 -13q-8 -1 -78 -8.5t-112 -11.5q-17 -250 -19 -285q0 -8 -14 -8q-6 0 -19.5 6.5
t-13.5 11.5q-1 25 -20 273q-40 -1 -96.5 -5t-63.5 -4q-16 0 -23.5 33.5t-7.5 57.5zM528 164v-2q0 -10 -3 -24.5t-7 -14.5q-53 -5 -226 -16t-192 -11q-16 0 -23 31t-7 53q0 8 6 8q424 -17 448 -18q4 0 4 -6z" />
    <glyph glyph-name="twosuperior" unicode="&#xb2;" horiz-adv-x="514" 
d="M164 532l2 -2h33q19 0 82 5t92 12q19 6 30 24l54 74q4 4 6 4q3 0 10 -5.5t6 -8.5l-26 -135q-4 -13 -15 -13q-5 0 -32.5 1.5t-76 2.5t-102.5 1q-58 0 -96 -1t-54.5 -1.5t-23.5 -0.5q-19 0 -26 21l-7 12q0 7 3 10q268 252 268 476q0 77 -32 114t-83 37q-65 0 -110 -61
q-2 -4 -9 -4q-4 0 -9 12.5t-1 19.5q30 43 84.5 71t126.5 28q90 0 144.5 -57.5t54.5 -147.5q0 -118 -77 -240t-173 -213q-7 -7 -43 -35z" />
    <glyph glyph-name="threesuperior" unicode="&#xb3;" horiz-adv-x="520" 
d="M254 883v-4q3 -1 8.5 -2.5t14 -3t14.5 -3.5q86 -16 130 -66t44 -110q0 -104 -82 -159.5t-213 -55.5q-95 0 -141 39q-4 4 -5 12.5t0 15.5t3 7l8 -4q42 -27 108 -27q72 0 117 41.5t45 118.5q0 65 -47.5 118t-146.5 56q-11 0 -11 23q0 4 6 4q96 10 135.5 55.5t39.5 118.5
q0 49 -27.5 80.5t-75.5 31.5q-33 0 -64 -18t-46 -41q-2 -2 -7 -2q-6 0 -11 11.5t-1 17.5q25 37 72 62.5t112 25.5q94 0 148.5 -47.5t54.5 -118.5q0 -61 -44.5 -106.5t-108.5 -61.5q-5 -1 -14.5 -4t-14.5 -4z" />
    <glyph glyph-name="acute" unicode="&#xb4;" horiz-adv-x="309" 
d="M80 1038h-2q-2 0 -7.5 2.5t-10.5 9t-1 13.5q20 43 82 207q8 20 31 20q46 0 74 -8q7 -2 2 -12q-20 -48 -164 -230q-2 -2 -4 -2z" />
    <glyph glyph-name="mu" unicode="&#xb5;" horiz-adv-x="935" 
d="M31 897l276 51q9 1 13 -4t2 -16q-2 -28 -5.5 -188.5t-3.5 -211.5q0 -219 21 -312t78 -93t99 73.5t67 198.5q41 224 47 402q1 12 2 35t2 34q3 35 36 56.5t97 21.5h43q17 0 23 -4.5t6 -19.5q0 -16 -3.5 -205.5t-3.5 -237.5q0 -100 1 -243.5t1 -161.5q0 -24 17 -29l55 -20
q12 -3 12 -21q0 -4 -8 -4q-39 2 -145 2q-94 0 -135 -2q-15 0 -15 25q0 1 -1.5 47.5t-3 105.5t-1.5 90v56h-8q-15 -50 -16 -52q-88 -272 -230 -272q-52 0 -88 47q-16 -270 -26 -395q-1 -18 -42.5 -28.5t-84.5 -10.5q-11 0 -11 8q-2 174 -1.5 291t2 273.5t1.5 203.5
q0 226 19 449q3 16 -1.5 22t-17.5 6h-61q-5 0 -9.5 9t-4.5 16q0 5 6 8z" />
    <glyph glyph-name="paragraph" unicode="&#xb6;" horiz-adv-x="911" 
d="M872 1221l-73 -2q-16 -128 -62 -1436q0 -8 -19 -21.5t-24 -13.5q-4 0 -4 10q-2 139 -8 493.5t-10.5 633t-5.5 340.5h-48q-18 0 -18 -33q-31 -1204 -39 -1417q0 -4 -19.5 -15.5t-23.5 -11.5q-6 0 -6 10q-2 147 -6 314.5t-7 270.5t-3 110q-187 -14 -313 83t-126 265
q0 216 152 342.5t403 126.5q73 0 156.5 -7.5t116.5 -15.5q2 0 2 -6q0 -20 -15 -20zM473 485h2q12 0 16.5 6t4.5 21q0 9 -6 169.5t-12 335.5t-7 197q-92 -4 -144.5 -107t-52.5 -278q0 -162 61.5 -253t137.5 -91z" />
    <glyph glyph-name="periodcentered" unicode="&#xb7;" horiz-adv-x="305" 
d="M154 741h2q35 0 60.5 -27.5t25.5 -72.5q0 -34 -26 -60t-64 -26q-39 0 -64 25.5t-25 62.5q0 40 25 69t66 29z" />
    <glyph glyph-name="cedilla" unicode="&#xb8;" horiz-adv-x="292" 
d="M233 0l-79 -98q-6 -6 4 -6q29 0 50 -18.5t21 -51.5q0 -55 -48.5 -92.5t-102.5 -44.5q-6 0 -12.5 5t-6.5 13q0 6 4 6q78 33 78 92q0 24 -14 40t-41 16q-3 0 -5 4.5t1 7.5l100 127h51z" />
    <glyph glyph-name="onesuperior" unicode="&#xb9;" horiz-adv-x="380" 
d="M25 1139l235 88q7 3 13 0t6 -8q0 -2 -3.5 -84.5t-7 -182t-4.5 -135.5q-1 -54 -2.5 -121.5t-2.5 -110t-1 -46.5q0 -9 18 -13l52 -10q8 -4 8 -22q0 -5 -4 -5q-12 0 -57.5 1.5t-73.5 1.5q-36 0 -87 -1.5t-59 -1.5q-4 0 -4 5q0 18 8 22l56 8q5 2 10.5 8.5t5.5 10.5
q0 13 -2 129t-2 133q0 2 -3 131t-7 172q0 16 -15 16l-65 -12q-7 0 -14 21q0 4 2 6z" />
    <glyph glyph-name="ordmasculine" unicode="&#xba;" horiz-adv-x="565" 
d="M258 649h-2q-99 0 -157 73.5t-58 184.5q0 135 69 228.5t199 93.5q106 0 166 -72t60 -184q0 -48 -9.5 -93.5t-30.5 -88t-52.5 -73.5t-79 -50t-105.5 -19zM293 688h2q18 0 31.5 9t21.5 29t13.5 41t8 55t3 61.5t0.5 68.5q0 240 -82 240q-88 0 -88 -264q0 -101 24 -170.5
t66 -69.5z" />
    <glyph glyph-name="guillemotright" unicode="&#xbb;" horiz-adv-x="466" 
d="M240 555v-2q0 -1 -1.5 -2.5t-3.5 -4.5t-4 -5q-26 -31 -99 -108.5t-91 -98.5q-5 -5 -8 -2q-17 17 -15 20q43 85 93 197q-14 36 -91 180q-3 3 13 19q3 3 6 0q7 -7 80.5 -79t113.5 -104q7 -7 7 -10zM444 555v-2l-8 -12q-23 -27 -95.5 -105t-92.5 -102q-5 -5 -8 -2
q-17 17 -15 20q68 144 92 197q-29 66 -90 180q-1 1 3.5 8.5t9.5 10.5q2 2 6 0l49.5 -49.5t76 -74t66.5 -59.5q6 -6 6 -10z" />
    <glyph glyph-name="onequarter" unicode="&#xbc;" horiz-adv-x="1091" 
d="M854 727h2q46 0 92 -6q8 0 8 -10q0 -30 -5 -251t-5 -231q52 -6 101 -6q4 0 4 -4q0 -26 -11 -26q-68 -4 -94 -7q-4 -102 -4 -139q0 -12 12 -14l33 -8q8 -4 8 -21q0 -6 -4 -6q-23 2 -106 2q-90 0 -129 -2q-4 0 -4 4q0 19 8 23l47 8q14 0 14 12q0 69 -4 135h-274
q-26 0 -37 25q-10 20 -10 26q0 7 2 11l90 140t113.5 178.5t84.5 137.5q12 19 27 24t41 5zM784 1229h2q4 0 5.5 -2.5t-0.5 -7.5q-270 -609 -549 -1225q-3 -6 -9 -6t-12.5 0.5t-12 1.5t-9 2.5t-2.5 3.5q86 213 270.5 691t198.5 515q6 18 33.5 23.5t84.5 3.5zM614 264l2 -6
q28 -4 41 -4q83 -13 160 -16q0 22 -2 159.5t-2 145.5q0 33 4 127h-6q-17 -44 -27 -64q-91 -201 -141 -293q-4 -7 -14.5 -24.5t-14.5 -24.5zM23 1139l235 88q7 3 12.5 0t5.5 -8q0 -2 -3 -84.5t-6.5 -182t-4.5 -135.5q-1 -55 -2.5 -123t-2.5 -110t-1 -43q0 -11 18 -15l52 -10
q8 0 8 -22q0 -5 -4 -5q-12 0 -57.5 1.5t-73.5 1.5q-36 0 -86.5 -1.5t-59.5 -1.5q-4 0 -4 5q0 22 8 22l56 8q16 5 16 15q0 15 -2 132t-2 134q0 159 -8 303q0 16 -17 16l-65 -12q-8 0 -15 21q0 3 3 6z" />
    <glyph glyph-name="onehalf" unicode="&#xbd;" horiz-adv-x="1101" 
d="M778 1229h2q3 0 4.5 -5.5t-0.5 -9.5q-286 -646 -546 -1220q-3 -6 -9 -6q-7 0 -13.5 0.5t-12 1.5t-8.5 2.5t-2 3.5q88 213 275 701t194 505q6 18 33.5 23.5t82.5 3.5zM23 1139l235 88q7 3 12.5 0t5.5 -8q0 -2 -3 -84.5t-6.5 -182t-4.5 -135.5q-1 -55 -2.5 -122t-2.5 -109
t-1 -45q0 -11 18 -15l52 -10q8 0 8 -22q0 -5 -4 -5q-12 0 -57.5 1.5t-73.5 1.5q-36 0 -86.5 -1.5t-59.5 -1.5q-4 0 -4 5q0 22 8 22l56 8q16 5 16 15q0 15 -2 132t-2 134q0 159 -8 303q0 16 -17 16l-65 -12q-8 0 -15 21q0 3 3 6zM735 41l2 -2h33q3 0 40.5 2.5t75.5 6.5t58 9
q19 3 31 23l53 76q2 2 6 2t11.5 -6t7.5 -9l-29 -135q-4 -12 -14 -12q-5 0 -32.5 1t-76 2t-102.5 1q-58 0 -96 -0.5t-54.5 -1t-23.5 -0.5q-20 0 -27 20l-6 15q0 6 2 8q268 252 268 477q0 76 -31.5 113t-82.5 37q-65 0 -111 -62q-2 -4 -8 -4q-4 0 -9.5 14t-1.5 21
q70 96 209 96q91 0 146 -56.5t55 -146.5q0 -63 -24 -131.5t-64 -128.5t-80 -107t-82 -87q-7 -7 -43 -35z" />
    <glyph glyph-name="threequarters" unicode="&#xbe;" horiz-adv-x="1198" 
d="M983 727h2q28 0 86 -4q12 -3 12 -10q0 -31 -5 -254t-5 -230q49 -6 98 -6q5 0 5 -6q0 -24 -11 -24q-74 -5 -92 -7q-4 -102 -4 -139q0 -12 12 -14l33 -8q6 -3 6 -21q0 -6 -4 -6q-23 2 -104 2q-90 0 -129 -2q-4 0 -4 4q0 19 8 23l45 8q14 0 14 12q0 18 -1 68.5t-1 66.5h-276
q-22 0 -35 23q-12 20 -12 28q0 3 4 11q215 336 288 456q17 29 70 29zM907 1229h2q6 0 9 -3t0 -7q-270 -609 -549 -1225q-3 -6 -9 -6t-12.5 0.5t-12 1.5t-9 2.5t-2.5 3.5q90 213 278.5 707t190.5 499q7 18 33.5 23.5t80.5 3.5zM741 264l2 -6q28 -4 39 -4q137 -15 162 -16
q-6 111 -6 305q0 33 4 127h-6q-8 -17 -16 -39t-11 -27q-114 -239 -141 -291q-4 -7 -13.5 -24.5t-13.5 -24.5zM254 883v-4q3 -1 8.5 -2.5t14 -3t14.5 -3.5q86 -16 130 -66t44 -110q0 -104 -82 -159.5t-213 -55.5q-95 0 -141 39q-4 4 -5 12.5t0 15.5t3 7l8 -4q42 -27 110 -27
q70 0 115 41.5t45 118.5q0 65 -47.5 118t-146.5 56q-11 0 -11 23q0 4 6 4q96 10 135.5 55.5t39.5 118.5q0 48 -27.5 80t-73.5 32q-34 0 -65.5 -18t-46.5 -41q-2 -2 -7 -2q-6 0 -11 11.5t-1 17.5q25 37 72 62.5t112 25.5q94 0 148.5 -47.5t54.5 -118.5q0 -61 -44.5 -106.5
t-108.5 -61.5q-5 -1 -14.5 -4t-14.5 -4z" />
    <glyph glyph-name="questiondown" unicode="&#xbf;" horiz-adv-x="681" 
d="M86 -49v2q0 73 27 140t74.5 120.5t100.5 94.5t115 75q15 9 15 45q2 59 -17 199q-1 5 8 12.5t13 7.5q2 0 6 -4q22 -34 47.5 -97.5t32.5 -103.5q8 -41 -14 -63q-95 -91 -136 -189t-41 -215q0 -91 48.5 -157t121.5 -66q98 0 172 105q4 4 7 4q4 0 11 -11t5 -16
q-33 -72 -112 -125t-185 -53q-145 0 -222 86.5t-77 208.5zM410 772h-2q-35 0 -58.5 26t-23.5 68q0 33 24.5 57.5t61.5 24.5q36 0 60 -24t24 -58q0 -40 -23 -67t-63 -27z" />
    <glyph glyph-name="Agrave" unicode="&#xc0;" horiz-adv-x="890" 
d="M416 1266h2q77 0 155 -4q12 -3 15 -9q26 -148 107.5 -551t131.5 -636q2 -6 7.5 -15t9.5 -10l51 -18q12 -3 12 -23q0 -4 -6 -4q-122 4 -178 4q-67 0 -211 -4q-4 0 -4 4q0 20 8 23l78 18q19 3 12 31q-88 326 -98 364q-49 0 -152.5 -5t-138.5 -9q-11 0 -14 -16
q-5 -35 -23 -158t-22 -164q-3 -24 1.5 -33t16.5 -12l62 -16q12 -3 12 -23q0 -4 -6 -4q-106 4 -148 4q-51 0 -137 -4q-4 0 -4 4q0 20 8 23l35 12q16 5 23 11.5t12 29.5q39 142 149.5 583.5t136.5 538.5q17 68 97 68zM354 1096h-6q-9 -29 -12 -52q-56 -263 -115 -538
q0 -10 8 -14q42 -5 139 -12t132 -7q-5 23 -31 131t-53.5 226.5t-46.5 211.5q-10 39 -15 54zM489 1321h-2q-2 2 -4 2q-61 35 -129.5 86.5t-87.5 79.5q-7 11 2 14q30 6 82 6q22 0 31 -12q69 -102 123 -156q3 -3 -4.5 -11.5t-10.5 -8.5z" />
    <glyph glyph-name="Aacute" unicode="&#xc1;" horiz-adv-x="890" 
d="M416 1266h2q77 0 155 -4q12 -3 15 -9q26 -148 107.5 -551t131.5 -636q2 -6 7.5 -15t9.5 -10l51 -18q12 -3 12 -23q0 -4 -6 -4q-122 4 -178 4q-67 0 -211 -4q-4 0 -4 4q0 20 8 23l78 18q19 3 12 31q-88 326 -98 364q-49 0 -152.5 -5t-138.5 -9q-11 0 -14 -16
q-5 -35 -23 -158t-22 -164q-3 -24 1.5 -33t16.5 -12l62 -16q12 -3 12 -23q0 -4 -6 -4q-106 4 -148 4q-51 0 -137 -4q-4 0 -4 4q0 20 8 23l35 12q16 5 23 11.5t12 29.5q39 142 149.5 583.5t136.5 538.5q17 68 97 68zM354 1096h-6q-9 -29 -12 -52q-56 -263 -115 -538
q0 -10 8 -14q42 -5 139 -12t132 -7q-5 23 -31 131t-53.5 226.5t-46.5 211.5q-10 39 -15 54zM406 1323h-3l-10 18q56 54 123 156q9 12 33 12q52 0 82 -6q9 -3 2 -14q-18 -28 -86.5 -77.5t-132.5 -86.5q-4 -2 -8 -2z" />
    <glyph glyph-name="Acircumflex" unicode="&#xc2;" horiz-adv-x="890" 
d="M416 1266h2q77 0 155 -4q12 -3 15 -9q26 -148 107.5 -551t131.5 -636q2 -6 7.5 -15t9.5 -10l51 -18q12 -3 12 -23q0 -4 -6 -4q-122 4 -178 4q-67 0 -211 -4q-4 0 -4 4q0 20 8 23l78 18q19 3 12 31q-88 326 -98 364q-49 0 -152.5 -5t-138.5 -9q-11 0 -14 -16
q-5 -35 -23 -158t-22 -164q-3 -24 1.5 -33t16.5 -12l62 -16q12 -3 12 -23q0 -4 -6 -4q-106 4 -148 4q-51 0 -137 -4q-4 0 -4 4q0 20 8 23l35 12q16 5 23 11.5t12 29.5q39 142 149.5 583.5t136.5 538.5q17 68 97 68zM354 1096h-6q-9 -29 -12 -52q-56 -263 -115 -538
q0 -10 8 -14q42 -5 139 -12t132 -7q-5 23 -31 131t-53.5 226.5t-46.5 211.5q-10 39 -15 54zM446 1511h3q5 0 12 -10q74 -89 139 -164q6 -8 -6 -20q-4 -8 -12 0q-21 13 -63 40t-70 44q-10 -6 -53.5 -33.5t-82.5 -50.5q-7 -3 -12 4q-9 9 -4 16q104 124 133 162q12 12 16 12z
" />
    <glyph glyph-name="Atilde" unicode="&#xc3;" horiz-adv-x="890" 
d="M416 1266h2q77 0 155 -4q12 -3 15 -9q26 -148 107.5 -551t131.5 -636q2 -6 7.5 -15t9.5 -10l51 -18q12 -3 12 -23q0 -4 -6 -4q-122 4 -178 4q-67 0 -211 -4q-4 0 -4 4q0 20 8 23l78 18q19 3 12 31q-88 326 -98 364q-49 0 -152.5 -5t-138.5 -9q-11 0 -14 -16
q-5 -35 -23 -158t-22 -164q-3 -24 1.5 -33t16.5 -12l62 -16q12 -3 12 -23q0 -4 -6 -4q-106 4 -148 4q-51 0 -137 -4q-4 0 -4 4q0 20 8 23l35 12q16 5 23 11.5t12 29.5q39 142 149.5 583.5t136.5 538.5q17 68 97 68zM354 1096h-6q-9 -29 -12 -52q-56 -263 -115 -538
q0 -10 8 -14q42 -5 139 -12t132 -7q-5 23 -31 131t-53.5 226.5t-46.5 211.5q-10 39 -15 54zM514 1348h-2q-35 0 -72 28q-27 23 -57 23q-23 0 -37.5 -14.5t-23.5 -47.5q-3 -8 -25 -8q-2 0 -2 6q0 59 24 105.5t68 46.5q36 0 78 -33q32 -24 57 -24q23 0 34.5 15t18.5 46
q3 12 21 12q4 0 4 -4q0 -27 -3.5 -51t-12 -48t-26.5 -38t-44 -14z" />
    <glyph glyph-name="Adieresis" unicode="&#xc4;" horiz-adv-x="890" 
d="M416 1266h2q77 0 155 -4q12 -3 15 -9q26 -148 107.5 -551t131.5 -636q2 -6 7.5 -15t9.5 -10l51 -18q12 -3 12 -23q0 -4 -6 -4q-122 4 -178 4q-67 0 -211 -4q-4 0 -4 4q0 20 8 23l78 18q19 3 12 31q-88 326 -98 364q-49 0 -152.5 -5t-138.5 -9q-11 0 -14 -16
q-5 -35 -23 -158t-22 -164q-3 -24 1.5 -33t16.5 -12l62 -16q12 -3 12 -23q0 -4 -6 -4q-106 4 -148 4q-51 0 -137 -4q-4 0 -4 4q0 20 8 23l35 12q16 5 23 11.5t12 29.5q39 142 149.5 583.5t136.5 538.5q17 68 97 68zM354 1096h-6q-9 -29 -12 -52q-56 -263 -115 -538
q0 -10 8 -14q42 -5 139 -12t132 -7q-5 23 -31 131t-53.5 226.5t-46.5 211.5q-10 39 -15 54zM317 1473h2q29 0 45.5 -17.5t16.5 -46.5q0 -30 -17.5 -49t-48.5 -19q-29 0 -47 18t-18 46q0 30 18 49t49 19zM586 1473h2q28 0 44.5 -17.5t16.5 -46.5q0 -30 -18 -49t-49 -19
q-29 0 -46.5 18.5t-17.5 45.5q0 30 18 49t50 19z" />
    <glyph glyph-name="Aring" unicode="&#xc5;" horiz-adv-x="890" 
d="M416 1266h2q77 0 155 -4q12 -3 15 -9q26 -148 107.5 -551t131.5 -636q2 -6 7.5 -15t9.5 -10l51 -18q12 -3 12 -23q0 -4 -6 -4q-122 4 -178 4q-67 0 -211 -4q-4 0 -4 4q0 20 8 23l78 18q19 3 12 31q-88 326 -98 364q-49 0 -152.5 -5t-138.5 -9q-11 0 -14 -16
q-5 -35 -23 -158t-22 -164q-3 -24 1.5 -33t16.5 -12l62 -16q12 -3 12 -23q0 -4 -6 -4q-106 4 -148 4q-51 0 -137 -4q-4 0 -4 4q0 20 8 23l35 12q16 5 23 11.5t12 29.5q39 142 149.5 583.5t136.5 538.5q17 68 97 68zM354 1096h-6q-9 -29 -12 -52q-56 -263 -115 -538
q0 -10 8 -14q42 -5 139 -12t132 -7q-5 23 -31 131t-53.5 226.5t-46.5 211.5q-10 39 -15 54zM449 1542h2q59 0 91.5 -28.5t32.5 -79.5q0 -43 -36.5 -76t-92.5 -33q-58 0 -92.5 29.5t-34.5 75.5q0 47 37 79.5t93 32.5zM449 1509h-3q-25 0 -42 -22t-17 -57q0 -32 16 -52t43 -20
q29 0 45.5 22.5t16.5 53.5q0 75 -59 75z" />
    <glyph glyph-name="AE" unicode="&#xc6;" horiz-adv-x="1259" 
d="M1178 1249l6 -227q0 -4 -9 -10t-14 -6q-4 0 -6 4q-37 94 -76 174q-8 17 -37 24q-26 5 -104 12.5t-98 6.5q-19 -2 -19 -19q-14 -250 -14 -585q104 -5 311 -13q4 0 4 -4q0 -10 -5.5 -21.5t-8.5 -11.5q-29 -2 -129.5 -7.5t-147.5 -10.5q-26 -3 -26 -16q-8 -228 -8 -467
q0 -31 20 -31q134 0 244 22q30 5 47 33q33 50 94 152q2 4 6 4q5 0 12.5 -7.5t6.5 -13.5l-45 -229q-3 -10 -17 -10q-3 0 -16 0.5t-41 1.5t-61 2q-148 4 -353 4q-89 0 -211 -4q-6 0 -6 4q0 20 10 23l66 18q22 6 22 33q4 74 -6 487q-175 0 -247 -10q-13 0 -19 -16
q-93 -253 -156 -451q-11 -36 19 -45l70 -16q12 -3 12 -23q0 -4 -6 -4q-106 4 -164 4q-64 0 -150 -4q-4 0 -4 4q0 20 8 23l35 12q24 9 39 37q57 109 153 325.5t215 494t152 351.5q8 19 25 19h123q208 0 364 4q35 0 64.5 0.5t45.5 1t17 0.5q13 0 13 -19zM547 1151h-10
q-23 -55 -29 -78q-22 -65 -81.5 -218.5t-82.5 -219.5q-4 -12 6 -14q100 -17 215 -17q0 25 -12 469q0 25 -6 78z" />
    <glyph glyph-name="Ccedilla" unicode="&#xc7;" horiz-adv-x="827" 
d="M506 -16l-70 -82q-6 -6 4 -6q34 2 59 -16.5t25 -49.5q0 -53 -50.5 -91.5t-104.5 -49.5q-5 -2 -12 4.5t-7 13.5q0 6 4 8q39 13 60.5 37.5t21.5 54.5q0 25 -18.5 41.5t-46.5 12.5q-3 0 -5 4.5t1 9.5l90 111q-81 9 -148.5 45t-121 101t-83.5 169t-30 238q0 221 63.5 377.5
t173.5 248.5q129 113 299 113q90 0 140 -23q9 -2 12 -18l29 -260q1 -6 -10.5 -12.5t-18.5 -6.5q-1 0 -6 5q-18 38 -53 114.5t-52 114.5q-7 20 -20 33q-14 14 -39 14q-69 0 -135 -98q-125 -191 -125 -570q0 -112 17 -201.5t43.5 -144.5t61 -91.5t66.5 -51t64 -14.5
q62 0 108 12q53 14 105 43q2 1 4.5 -2.5t4 -9.5t1.5 -13q0 -6 -6 -12q-59 -40 -148 -80q-55 -22 -147 -22z" />
    <glyph glyph-name="Egrave" unicode="&#xc8;" horiz-adv-x="862" 
d="M825 231l-45 -229q-3 -10 -16 -10q-3 0 -16.5 0.5t-43 1.5t-63.5 2q-152 4 -356 4q-91 0 -213 -4q-6 0 -6 4q0 20 10 23l65 18q23 7 23 33q1 44 0.5 284t-2.5 301q-1 24 -2 145.5t-3 232.5t-5 145q-3 32 -23 37l-59 14q-9 0 -9 22q0 7 5 7h190q213 0 377 4q36 0 66.5 0.5
t47 1t17.5 0.5q12 0 12 -19l6 -227q0 -4 -8.5 -10t-13.5 -6q-4 0 -6 4q-21 53 -76 174q-8 17 -37 24q-26 5 -105.5 12.5t-99.5 6.5q-18 -2 -18 -19q-7 -96 -13 -282t-6 -240q216 -12 318 -12q4 0 4 -4q0 -10 -5.5 -21.5t-8.5 -11.5q-21 -2 -285 -21q-25 -3 -25 -16
q-10 -295 -10 -528q0 -31 19 -31q143 0 253 22q29 6 46 33q35 49 96 152q2 4 6 4q5 0 12 -7.5t6 -13.5zM506 1321h-2q-2 2 -4 2q-61 35 -130.5 86t-88.5 80q-7 11 2 14q34 6 84 6q21 0 30 -12q69 -102 123 -156q3 -3 -4 -11.5t-10 -8.5z" />
    <glyph glyph-name="Eacute" unicode="&#xc9;" horiz-adv-x="862" 
d="M825 231l-45 -229q-3 -10 -16 -10q-3 0 -16.5 0.5t-43 1.5t-63.5 2q-152 4 -356 4q-91 0 -213 -4q-6 0 -6 4q0 20 10 23l65 18q23 7 23 33q1 44 0.5 284t-2.5 301q-1 24 -2 145.5t-3 232.5t-5 145q-3 32 -23 37l-59 14q-9 0 -9 22q0 7 5 7h190q213 0 377 4q36 0 66.5 0.5
t47 1t17.5 0.5q12 0 12 -19l6 -227q0 -4 -8.5 -10t-13.5 -6q-4 0 -6 4q-21 53 -76 174q-8 17 -37 24q-26 5 -105.5 12.5t-99.5 6.5q-18 -2 -18 -19q-7 -96 -13 -282t-6 -240q216 -12 318 -12q4 0 4 -4q0 -10 -5.5 -21.5t-8.5 -11.5q-21 -2 -285 -21q-25 -3 -25 -16
q-10 -295 -10 -528q0 -31 19 -31q143 0 253 22q29 6 46 33q35 49 96 152q2 4 6 4q5 0 12 -7.5t6 -13.5zM426 1323h-2l-10 18q56 54 123 156q9 12 32 12q52 0 82 -6q9 -3 2 -14q-18 -28 -86.5 -77.5t-132.5 -86.5q-4 -2 -8 -2z" />
    <glyph glyph-name="Ecircumflex" unicode="&#xca;" horiz-adv-x="862" 
d="M825 231l-45 -229q-3 -10 -16 -10q-3 0 -16.5 0.5t-43 1.5t-63.5 2q-152 4 -356 4q-91 0 -213 -4q-6 0 -6 4q0 20 10 23l65 18q23 7 23 33q1 44 0.5 284t-2.5 301q-1 24 -2 145.5t-3 232.5t-5 145q-3 32 -23 37l-59 14q-9 0 -9 22q0 7 5 7h190q213 0 377 4q36 0 66.5 0.5
t47 1t17.5 0.5q12 0 12 -19l6 -227q0 -4 -8.5 -10t-13.5 -6q-4 0 -6 4q-21 53 -76 174q-8 17 -37 24q-26 5 -105.5 12.5t-99.5 6.5q-18 -2 -18 -19q-7 -96 -13 -282t-6 -240q216 -12 318 -12q4 0 4 -4q0 -10 -5.5 -21.5t-8.5 -11.5q-21 -2 -285 -21q-25 -3 -25 -16
q-10 -295 -10 -528q0 -31 19 -31q143 0 253 22q29 6 46 33q35 49 96 152q2 4 6 4q5 0 12 -7.5t6 -13.5zM461 1532h2q5 0 12 -10q74 -89 139 -164q6 -9 -6 -21q-4 -8 -12 0q-21 13 -63 40t-70 44q-12 -7 -54.5 -34t-80.5 -50q-8 -4 -13 4q-9 9 -4 17q104 124 133 162
q12 12 17 12z" />
    <glyph glyph-name="Edieresis" unicode="&#xcb;" horiz-adv-x="862" 
d="M825 231l-45 -229q-3 -10 -16 -10q-3 0 -16.5 0.5t-43 1.5t-63.5 2q-152 4 -356 4q-91 0 -213 -4q-6 0 -6 4q0 20 10 23l65 18q23 7 23 33q1 44 0.5 284t-2.5 301q-1 24 -2 145.5t-3 232.5t-5 145q-3 32 -23 37l-59 14q-9 0 -9 22q0 7 5 7h190q213 0 377 4q36 0 66.5 0.5
t47 1t17.5 0.5q12 0 12 -19l6 -227q0 -4 -8.5 -10t-13.5 -6q-4 0 -6 4q-21 53 -76 174q-8 17 -37 24q-26 5 -105.5 12.5t-99.5 6.5q-18 -2 -18 -19q-7 -96 -13 -282t-6 -240q216 -12 318 -12q4 0 4 -4q0 -10 -5.5 -21.5t-8.5 -11.5q-21 -2 -285 -21q-25 -3 -25 -16
q-10 -295 -10 -528q0 -31 19 -31q143 0 253 22q29 6 46 33q35 49 96 152q2 4 6 4q5 0 12 -7.5t6 -13.5zM332 1485h2q28 0 44.5 -17.5t16.5 -46.5q0 -31 -17.5 -50t-47.5 -19q-31 0 -49.5 18t-18.5 47q0 30 18.5 49t51.5 19zM600 1485h2q27 0 44.5 -17.5t17.5 -46.5
q0 -31 -18.5 -50t-49.5 -19q-30 0 -48 18.5t-18 46.5q0 30 18.5 49t51.5 19z" />
    <glyph glyph-name="Igrave" unicode="&#xcc;" horiz-adv-x="552" 
d="M61 1262h433q4 0 4 -5q0 -23 -11 -26l-53 -12q-22 -3 -22 -29q-7 -87 -12 -298t-5 -304q-1 -39 -5.5 -268t-4.5 -257q0 -15 23 -22l57 -18q8 -3 8 -21q0 -6 -4 -6q-9 0 -74 2t-114 2q-123 0 -205 -4q-4 0 -4 4q0 20 8 23l70 20q10 3 13 7.5t3 15.5q3 124 -8 563
q-7 499 -11 547q-2 20 -7 30t-21 13l-51 12q-11 4 -11 24q0 7 4 7zM301 1321h-2q-2 2 -4 2q-61 35 -130.5 86t-88.5 80q-7 11 2 14q34 6 84 6q22 0 28 -12q85 -117 123 -156q3 -3 -3 -11.5t-9 -8.5z" />
    <glyph glyph-name="Iacute" unicode="&#xcd;" horiz-adv-x="552" 
d="M61 1262h433q4 0 4 -5q0 -23 -11 -26l-53 -12q-22 -3 -22 -29q-7 -87 -12 -298t-5 -304q-1 -39 -5.5 -268t-4.5 -257q0 -15 23 -22l57 -18q8 -3 8 -21q0 -6 -4 -6q-9 0 -74 2t-114 2q-123 0 -205 -4q-4 0 -4 4q0 20 8 23l70 20q10 3 13 7.5t3 15.5q3 124 -8 563
q-7 499 -11 547q-2 20 -7 30t-21 13l-51 12q-11 4 -11 24q0 7 4 7zM262 1323h-2l-10 18q56 54 123 156q9 12 33 12q51 0 81 -6q9 -3 2 -14q-18 -28 -86.5 -77.5t-132.5 -86.5q-4 -2 -8 -2z" />
    <glyph glyph-name="Icircumflex" unicode="&#xce;" horiz-adv-x="552" 
d="M61 1262h433q4 0 4 -5q0 -23 -11 -26l-53 -12q-22 -3 -22 -29q-7 -87 -12 -298t-5 -304q-1 -39 -5.5 -268t-4.5 -257q0 -15 23 -22l57 -18q8 -3 8 -21q0 -6 -4 -6q-9 0 -74 2t-114 2q-123 0 -205 -4q-4 0 -4 4q0 20 8 23l70 20q10 3 13 7.5t3 15.5q3 124 -8 563
q-7 499 -11 547q-2 20 -7 30t-21 13l-51 12q-11 4 -11 24q0 7 4 7zM287 1532h2q5 0 12 -10q2 -2 137 -164q6 -9 -6 -21q-3 -6 -12 0q-22 13 -63 40.5t-68 43.5q-19 -11 -38 -23t-46 -29t-51 -32q-8 -4 -13 4q-10 10 -6 17q86 103 135 162q12 12 17 12z" />
    <glyph glyph-name="Idieresis" unicode="&#xcf;" horiz-adv-x="552" 
d="M61 1262h433q4 0 4 -5q0 -23 -11 -26l-53 -12q-22 -3 -22 -29q-7 -87 -12 -298t-5 -304q-1 -39 -5.5 -268t-4.5 -257q0 -15 23 -22l57 -18q8 -3 8 -21q0 -6 -4 -6q-9 0 -74 2t-114 2q-123 0 -205 -4q-4 0 -4 4q0 20 8 23l70 20q10 3 13 7.5t3 15.5q3 124 -8 563
q-7 499 -11 547q-2 20 -7 30t-21 13l-51 12q-11 4 -11 24q0 7 4 7zM156 1485h2q29 0 45 -17t16 -47q0 -32 -17 -50.5t-48 -18.5q-29 0 -47.5 18t-18.5 47q0 30 18 49t50 19zM424 1485h2q28 0 44.5 -17.5t16.5 -46.5q0 -31 -17.5 -50t-49.5 -19q-29 0 -46.5 18.5t-17.5 46.5
q0 30 18 49t50 19z" />
    <glyph glyph-name="Eth" unicode="&#xd0;" horiz-adv-x="1054" 
d="M182 596l-123 -4q-10 0 -10 4q0 6 14 39q8 24 29 24h90q0 249 -8 521q0 17 -6 24t-23 10l-63 11q-10 0 -10 20q0 6 4 6q180 27 389 27q240 0 379 -148t139 -430q0 -147 -35 -274t-101 -223.5t-169 -151.5t-232 -55q-22 0 -88 2t-90 2q-94 0 -168 -4q-6 0 -6 4q0 19 8 23
l64 18q10 3 13 9t5 24q4 51 -2 522zM422 657l166 -4q6 0 6 -4q0 -8 -4 -21t-8 -14l-160 -14q-12 -528 -12 -543q0 -16 6.5 -20t23.5 -4q40 0 78 17.5t77.5 63.5t69 117t48 188t18.5 267q0 246 -79.5 400.5t-170.5 154.5q-23 0 -31 -8.5t-10 -32.5q-12 -175 -18 -543z" />
    <glyph glyph-name="Ntilde" unicode="&#xd1;" horiz-adv-x="948" 
d="M23 1262h307q9 0 16 -11q23 -49 94.5 -217.5t164.5 -389.5t114 -269q20 -42 33 -82l8 12v94q0 25 -2.5 177t-4.5 231.5t-6 193t-10 177.5q-1 18 -6.5 25.5t-19.5 10.5l-84 19q-11 3 -11 20q0 9 5 9h303q4 0 4 -7q0 -19 -8 -22l-56 -19q-19 -6 -22 -38q-1 -16 -6 -123
t-10 -226.5t-7 -181.5q-1 -43 -5 -314.5t-5 -314.5q0 -9 -10 -14q-36 -12 -72 -12q-31 0 -47 26q-131 236 -418 818q-4 8 -14.5 30.5t-14.5 30.5l-12 -2q-2 -27 -2 -68q-16 -648 -16 -749q0 -28 20 -31l90 -22q9 -5 9 -23q0 -4 -5 -4q-62 4 -137 4q-65 0 -127 -4q-4 0 -4 4
q0 20 10 23l66 18q18 6 18 33q1 37 -3.5 267t-4.5 271q0 54 -7.5 277t-10.5 287q0 32 -29 41l-59 16q-13 3 -13 22q0 7 7 7zM573 1350h-2q-34 0 -71 28q-32 23 -58 23q-46 0 -63 -62q-3 -8 -25 -8q-2 0 -2 6q2 60 25 105t69 45q34 0 76 -33q32 -24 60 -24q41 0 51 63
q3 12 22 12q4 0 4 -4q0 -37 -6.5 -68t-26.5 -57t-53 -26z" />
    <glyph glyph-name="Ograve" unicode="&#xd2;" horiz-adv-x="995" 
d="M467 -16h-2q-187 0 -289 149.5t-102 417.5q0 333 120.5 530t335.5 197q188 0 291 -157t103 -423q0 -349 -118 -531.5t-339 -182.5zM504 20h2q91 0 129.5 170t38.5 502q0 149 -17 269.5t-57.5 201t-99.5 80.5q-91 0 -136 -179.5t-45 -498.5q0 -151 20.5 -272.5t63.5 -197
t101 -75.5zM545 1341h-2q-2 2 -4 2q-61 35 -129.5 86.5t-87.5 79.5q-8 12 2 15q30 6 82 6q21 0 30 -12q69 -102 123 -156q3 -3 -4 -12t-10 -9z" />
    <glyph glyph-name="Oacute" unicode="&#xd3;" horiz-adv-x="995" 
d="M467 -16h-2q-187 0 -289 149.5t-102 417.5q0 333 120.5 530t335.5 197q188 0 291 -157t103 -423q0 -349 -118 -531.5t-339 -182.5zM504 20h2q91 0 129.5 170t38.5 502q0 149 -17 269.5t-57.5 201t-99.5 80.5q-91 0 -136 -179.5t-45 -498.5q0 -151 20.5 -272.5t63.5 -197
t101 -75.5zM494 1343h-2q-2 1 -4 3.5t-5.5 7.5t-1.5 8q56 54 123 156q9 12 33 12q52 0 82 -6q10 -3 2 -15q-18 -28 -86 -76.5t-133 -86.5q-6 -3 -8 -3z" />
    <glyph glyph-name="Ocircumflex" unicode="&#xd4;" horiz-adv-x="995" 
d="M467 -16h-2q-187 0 -289 149.5t-102 417.5q0 333 120.5 530t335.5 197q188 0 291 -157t103 -423q0 -349 -118 -531.5t-339 -182.5zM504 20h2q91 0 129.5 170t38.5 502q0 149 -17 269.5t-57.5 201t-99.5 80.5q-91 0 -136 -179.5t-45 -498.5q0 -151 20.5 -272.5t63.5 -197
t101 -75.5zM510 1532h2q5 0 12 -10q21 -27 72.5 -87t65.5 -77q6 -8 -7 -21q-3 -6 -12 0q-22 13 -63 40.5t-68 43.5q-19 -11 -38 -23t-46 -29t-51 -32q-7 -3 -12 4q-10 10 -5 17q7 9 134 162q12 12 16 12z" />
    <glyph glyph-name="Otilde" unicode="&#xd5;" horiz-adv-x="995" 
d="M467 -16h-2q-187 0 -289 149.5t-102 417.5q0 333 120.5 530t335.5 197q188 0 291 -157t103 -423q0 -349 -118 -531.5t-339 -182.5zM504 20h2q91 0 129.5 170t38.5 502q0 149 -17 269.5t-57.5 201t-99.5 80.5q-91 0 -136 -179.5t-45 -498.5q0 -151 20.5 -272.5t63.5 -197
t101 -75.5zM567 1360h-2q-32 0 -71 29q-35 22 -60 22q-23 0 -37.5 -14.5t-23.5 -48.5q-3 -9 -25 -9q-2 0 -2 7q0 61 24 106t70 45q34 0 76 -33q32 -24 57 -24q44 0 54 63q3 13 20 13q4 0 4 -7q0 -26 -3.5 -49.5t-12 -47.5t-26 -38t-42.5 -14z" />
    <glyph glyph-name="Odieresis" unicode="&#xd6;" horiz-adv-x="995" 
d="M467 -16h-2q-187 0 -289 149.5t-102 417.5q0 333 120.5 530t335.5 197q188 0 291 -157t103 -423q0 -349 -118 -531.5t-339 -182.5zM504 20h2q91 0 129.5 170t38.5 502q0 149 -17 269.5t-57.5 201t-99.5 80.5q-91 0 -136 -179.5t-45 -498.5q0 -151 20.5 -272.5t63.5 -197
t101 -75.5zM389 1485h2q29 0 45.5 -17.5t16.5 -46.5q0 -31 -17 -50t-49 -19q-29 0 -47 18t-18 47q0 30 18 49t49 19zM657 1485h2q28 0 45 -17.5t17 -46.5q0 -31 -18 -50t-50 -19q-29 0 -46 18.5t-17 46.5q0 30 18 49t49 19z" />
    <glyph glyph-name="multiply" unicode="&#xd7;" 
d="M469 276h-2q-1 0 -8 7q-14 16 -77 96.5t-87 107.5q-100 -115 -170 -206q-7 -7 -12 -7q-6 0 -16.5 15.5t-6.5 23.5q22 37 154 240q-29 37 -97 129.5t-71 95.5q-11 15 20 50.5t43 35.5q5 0 8 -6q1 -1 150 -231q50 74 154 237q3 6 8 6q12 0 42 -36t23 -50
q-21 -27 -81.5 -107t-96.5 -126q31 -46 91 -142t69 -110q3 -6 -11 -14.5t-26 -8.5z" />
    <glyph glyph-name="Oslash" unicode="&#xd8;" horiz-adv-x="995" 
d="M526 1278h2q136 0 230 -84q44 86 69 145q4 11 11 11q11 0 31.5 -33t11.5 -51q-15 -34 -66 -138q109 -156 109 -430q0 -347 -118 -530.5t-339 -183.5q-122 0 -207 61q-53 -87 -88 -145q-6 -13 -41 -13q-11 0 -4 15q23 43 92 178q-145 154 -145 471q0 332 121 529.5
t331 197.5zM504 1243h-2q-91 0 -139 -183.5t-48 -494.5q0 -71 19 -286q115 248 321 706q-41 258 -151 258zM682 692v2q0 38 -8 174q-111 -226 -320 -663q20 -85 59.5 -135t86.5 -50q97 0 139.5 170t42.5 502z" />
    <glyph glyph-name="Ugrave" unicode="&#xd9;" horiz-adv-x="1019" 
d="M63 1262h390q6 0 6 -7q0 -21 -10 -24l-50 -14q-26 -6 -28 -29q-17 -223 -17 -643q0 -128 8 -219.5t28 -162t55 -105.5t87 -35q87 0 125 113t39 399q0 473 -18 649q-3 27 -25 33l-49 14q-10 3 -10 24q0 7 6 7h361q6 0 6 -7q0 -21 -13 -24l-34 -12q-22 -8 -19 -31
q29 -416 29 -643q-1 -137 -36.5 -245.5t-97 -176.5t-141 -103.5t-170.5 -35.5q-66 0 -119 12.5t-106 49t-88.5 96t-57.5 159.5t-22 234q0 120 9 251t22 256t14 142q3 30 -14 33l-53 14q-11 3 -11 24q0 7 4 7zM575 1321h-2q-2 2 -4 2q-61 35 -130.5 86t-88.5 80q-7 11 2 14
q34 6 84 6q22 0 31 -12q69 -102 123 -156q3 -3 -4.5 -11.5t-10.5 -8.5z" />
    <glyph glyph-name="Uacute" unicode="&#xda;" horiz-adv-x="1019" 
d="M63 1262h390q6 0 6 -7q0 -21 -10 -24l-50 -14q-26 -6 -28 -29q-17 -223 -17 -643q0 -128 8 -219.5t28 -162t55 -105.5t87 -35q87 0 125 113t39 399q0 473 -18 649q-3 27 -25 33l-49 14q-10 3 -10 24q0 7 6 7h361q6 0 6 -7q0 -21 -13 -24l-34 -12q-22 -8 -19 -31
q29 -416 29 -643q-1 -137 -36.5 -245.5t-97 -176.5t-141 -103.5t-170.5 -35.5q-66 0 -119 12.5t-106 49t-88.5 96t-57.5 159.5t-22 234q0 120 9 251t22 256t14 142q3 30 -14 33l-53 14q-11 3 -11 24q0 7 4 7zM528 1323h-2l-10 18q15 15 30 32t30 36.5t23.5 31.5t23 32.5
t16.5 23.5q9 12 33 12q53 0 80 -6q12 -4 2 -14q-32 -52 -217 -164q-4 -2 -9 -2z" />
    <glyph glyph-name="Ucircumflex" unicode="&#xdb;" horiz-adv-x="1019" 
d="M63 1262h390q6 0 6 -7q0 -21 -10 -24l-50 -14q-26 -6 -28 -29q-17 -223 -17 -643q0 -128 8 -219.5t28 -162t55 -105.5t87 -35q87 0 125 113t39 399q0 473 -18 649q-3 27 -25 33l-49 14q-10 3 -10 24q0 7 6 7h361q6 0 6 -7q0 -21 -13 -24l-34 -12q-22 -8 -19 -31
q29 -416 29 -643q-1 -137 -36.5 -245.5t-97 -176.5t-141 -103.5t-170.5 -35.5q-66 0 -119 12.5t-106 49t-88.5 96t-57.5 159.5t-22 234q0 120 9 251t22 256t14 142q3 30 -14 33l-53 14q-11 3 -11 24q0 7 4 7zM530 1532h2q6 0 13 -10q74 -89 139 -164q6 -9 -6 -21
q-3 -6 -12 0q-20 12 -63 39.5t-71 44.5q-12 -7 -54.5 -34t-80.5 -50q-7 -3 -12 4q-9 9 -4 17q86 103 135 162q8 12 14 12z" />
    <glyph glyph-name="Udieresis" unicode="&#xdc;" horiz-adv-x="1019" 
d="M63 1262h390q6 0 6 -7q0 -21 -10 -24l-50 -14q-26 -6 -28 -29q-17 -223 -17 -643q0 -128 8 -219.5t28 -162t55 -105.5t87 -35q87 0 125 113t39 399q0 473 -18 649q-3 27 -25 33l-49 14q-10 3 -10 24q0 7 6 7h361q6 0 6 -7q0 -21 -13 -24l-34 -12q-22 -8 -19 -31
q29 -416 29 -643q-1 -137 -36.5 -245.5t-97 -176.5t-141 -103.5t-170.5 -35.5q-66 0 -119 12.5t-106 49t-88.5 96t-57.5 159.5t-22 234q0 120 9 251t22 256t14 142q3 30 -14 33l-53 14q-11 3 -11 24q0 7 4 7zM408 1485h2q28 0 44.5 -17.5t16.5 -46.5q0 -31 -17.5 -50
t-47.5 -19t-48 18t-18 47q0 30 17.5 49t50.5 19zM676 1485h2q27 0 44 -17.5t17 -46.5q0 -31 -18 -50t-49 -19q-30 0 -47 18t-17 47q0 30 17.5 49t50.5 19z" />
    <glyph glyph-name="Yacute" unicode="&#xdd;" horiz-adv-x="890" 
d="M623 1262h301q6 0 6 -7q0 -19 -8 -22l-31 -12q-16 -4 -23 -11.5t-14 -23.5q-76 -165 -157.5 -357t-118.5 -292q-17 -41 -17 -86q-2 -78 -2 -388q0 -18 19 -24l59 -16q12 -3 12 -21q0 -6 -8 -6q-114 4 -188 4q-123 0 -201 -4q-6 0 -6 6q0 16 10 18l68 23q10 1 13 7t3 24
q0 149 -12 383q0 17 -11 55q-17 47 -55.5 151t-63 170t-65 168t-80.5 197q-8 18 -26 21l-39 12q-11 3 -11 24q0 7 7 7h442q6 0 6 -7q0 -20 -12 -24l-53 -12q-29 -8 -25 -25q25 -87 82 -279.5t80 -269.5q2 -6 5.5 -21t8 -34.5t6.5 -28.5h8q19 60 21 66q64 200 152 561
q3 14 0 19.5t-15 6.5l-61 17q-13 3 -13 26q0 5 7 5zM537 1323h-2q-2 1 -4 3.5t-5.5 7t-1.5 7.5q44 42 125 156q6 12 31 12q52 0 82 -6q9 -3 2 -14q-18 -28 -86.5 -77.5t-132.5 -86.5q-4 -2 -8 -2z" />
    <glyph glyph-name="Thorn" unicode="&#xde;" horiz-adv-x="919" 
d="M70 1262h426q4 0 4 -5q0 -6 -3.5 -15.5t-7.5 -10.5l-67 -12q-25 -6 -25 -23q-6 -81 -6 -164q27 6 58 6q208 0 312.5 -92t104.5 -252q0 -51 -15.5 -105t-50.5 -108.5t-85.5 -97t-127 -69.5t-167.5 -27q-31 0 -41 2q-2 -78 -2 -211q0 -28 24 -31l97 -24q10 -3 10 -23
q0 -4 -4 -4q-98 4 -217 4q-125 0 -203 -4q-4 0 -4 4q0 20 8 23l62 18q11 3 14.5 9.5t3.5 23.5q2 66 -8 571q0 295 -8 531q0 38 -21 41l-59 14q-9 3 -9 26q0 5 7 5zM418 322h2q30 0 61.5 20.5t61.5 60.5t49.5 110.5t19.5 158.5q0 131 -54.5 231.5t-123.5 100.5
q-20 0 -31.5 -10.5t-11.5 -28.5q-10 -240 -10 -611q0 -32 37 -32z" />
    <glyph glyph-name="germandbls" unicode="&#xdf;" horiz-adv-x="1077" 
d="M156 846l-107 4q-8 0 -8 6q0 44 25 47l92 6q2 126 55 233.5t150 173.5t217 66q138 0 215 -63.5t77 -155.5q0 -57 -26.5 -105t-57.5 -73t-73 -55t-56 -45q-41 -44 -41 -99q0 -24 8.5 -45t18.5 -35.5t34 -33t39.5 -28t51 -30.5t53.5 -32q191 -114 191 -293
q0 -133 -114 -219t-282 -86q-55 0 -88 8q-12 4 -14 18l-10 152q0 7 8.5 13.5t13.5 6.5t7 -4q30 -59 59 -100q16 -24 29 -37q14 -14 51 -14q56 0 103.5 38t47.5 103q0 64 -30 114t-125 111q-86 57 -131 122.5t-45 154.5q0 41 12.5 79t22.5 55.5t39 54.5t34 44q28 43 47 114
t19 130q0 42 -10 83.5t-37.5 76t-67.5 34.5q-45 0 -76 -33t-47 -97t-23 -133.5t-10 -166.5q-6 -178 -6 -426q0 -35 -3 -219t-3 -209q0 -5 1 -8t3.5 -5t4 -3t7 -3t7.5 -3l32 -15q11 -4 11 -20q0 -4 -7 -4q-35 1 -69.5 2t-54.5 1.5t-37 0.5q-49 0 -197 -4q-4 0 -4 4t2.5 12
t5.5 8l78 15q16 3 16 22q0 48 -8.5 225.5t-9.5 194.5q-3 67 -7 207t-3 162z" />
    <glyph glyph-name="agrave" unicode="&#xe0;" horiz-adv-x="829" 
d="M487 555l9 2q0 46 -9 111q-7 74 -39 127t-90 53q-99 0 -217 -133q-4 -4 -6 -4q-6 0 -13.5 10.5t-2.5 17.5q153 209 375 209q229 0 229 -389q0 -55 -6 -244q-1 -36 -4 -95t-4.5 -96.5t-1.5 -55.5q0 -10 3.5 -14.5t14.5 -8.5l53 -20q13 -5 13 -23q0 -4 -7 -4q-25 2 -143 2
q-29 0 -69 -1t-48 -1t-8 12q-4 40 -4 144q0 6 1 27t1 24l-4 2q-1 -2 -8.5 -18.5t-12.5 -24.5q-82 -180 -227 -180q-90 0 -151.5 75.5t-61.5 210.5q0 67 16.5 130.5t48.5 117t85 86.5t118 33q91 0 144 -53q14 -14 26 -29zM365 94h2q39 0 78 57t57 146q8 40 8 59q0 10 -6 58
q-6 35 -19 69.5t-41.5 65.5t-64.5 31q-53 0 -76.5 -79t-23.5 -200q0 -96 23 -151.5t63 -55.5zM393 1290h2q22 0 29 -22q49 -129 86 -207q3 -4 -6.5 -13.5t-14.5 -9.5q-2 0 -6 4q-46 52 -99.5 124.5t-66.5 103.5q-3 9 5 12q21 8 71 8z" />
    <glyph glyph-name="aacute" unicode="&#xe1;" horiz-adv-x="829" 
d="M487 555l9 2q0 46 -9 111q-7 74 -39 127t-90 53q-99 0 -217 -133q-4 -4 -6 -4q-6 0 -13.5 10.5t-2.5 17.5q153 209 375 209q229 0 229 -389q0 -55 -6 -244q-1 -36 -4 -95t-4.5 -96.5t-1.5 -55.5q0 -10 3.5 -14.5t14.5 -8.5l53 -20q13 -5 13 -23q0 -4 -7 -4q-25 2 -143 2
q-29 0 -69 -1t-48 -1t-8 12q-4 40 -4 144q0 6 1 27t1 24l-4 2q-1 -2 -8.5 -18.5t-12.5 -24.5q-82 -180 -227 -180q-90 0 -151.5 75.5t-61.5 210.5q0 67 16.5 130.5t48.5 117t85 86.5t118 33q91 0 144 -53q14 -14 26 -29zM365 94h2q39 0 78 57t57 146q8 40 8 59q0 10 -6 58
q-6 35 -19 69.5t-41.5 65.5t-64.5 31q-53 0 -76.5 -79t-23.5 -200q0 -96 23 -151.5t63 -55.5zM440 1038h-2q-2 0 -7 2.5t-9.5 9t-1.5 13.5q31 66 84 207q8 20 28 20q44 0 76 -8q7 -2 2 -12q-18 -43 -166 -230q-2 -2 -4 -2z" />
    <glyph glyph-name="acircumflex" unicode="&#xe2;" horiz-adv-x="829" 
d="M487 555l9 2q0 46 -9 111q-7 74 -39 127t-90 53q-99 0 -217 -133q-4 -4 -6 -4q-6 0 -13.5 10.5t-2.5 17.5q153 209 375 209q229 0 229 -389q0 -55 -6 -244q-1 -36 -4 -95t-4.5 -96.5t-1.5 -55.5q0 -10 3.5 -14.5t14.5 -8.5l53 -20q13 -5 13 -23q0 -4 -7 -4q-25 2 -143 2
q-29 0 -69 -1t-48 -1t-8 12q-4 40 -4 144q0 6 1 27t1 24l-4 2q-1 -2 -8.5 -18.5t-12.5 -24.5q-82 -180 -227 -180q-90 0 -151.5 75.5t-61.5 210.5q0 67 16.5 130.5t48.5 117t85 86.5t118 33q91 0 144 -53q14 -14 26 -29zM365 94h2q39 0 78 57t57 146q8 40 8 59q0 10 -6 58
q-6 35 -19 69.5t-41.5 65.5t-64.5 31q-53 0 -76.5 -79t-23.5 -200q0 -96 23 -151.5t63 -55.5zM453 1288h2l8 -12q91 -159 119 -213q1 -4 -9 -19q-6 -6 -12 0q-73 77 -108 115q-73 -78 -103 -112q-8 -4 -12 0q-14 9 -12 16q94 176 114 211q7 14 13 14z" />
    <glyph glyph-name="atilde" unicode="&#xe3;" horiz-adv-x="829" 
d="M487 555l9 2q0 46 -9 111q-7 74 -39 127t-90 53q-99 0 -217 -133q-4 -4 -6 -4q-6 0 -13.5 10.5t-2.5 17.5q153 209 375 209q229 0 229 -389q0 -55 -6 -244q-1 -36 -4 -95t-4.5 -96.5t-1.5 -55.5q0 -10 3.5 -14.5t14.5 -8.5l53 -20q13 -5 13 -23q0 -4 -7 -4q-25 2 -143 2
q-29 0 -69 -1t-48 -1t-8 12q-4 40 -4 144q0 6 1 27t1 24l-4 2q-1 -2 -8.5 -18.5t-12.5 -24.5q-82 -180 -227 -180q-90 0 -151.5 75.5t-61.5 210.5q0 67 16.5 130.5t48.5 117t85 86.5t118 33q91 0 144 -53q14 -14 26 -29zM365 94h2q39 0 78 57t57 146q8 40 8 59q0 10 -6 58
q-6 35 -19 69.5t-41.5 65.5t-64.5 31q-53 0 -76.5 -79t-23.5 -200q0 -96 23 -151.5t63 -55.5zM514 1069h-2q-25 0 -63 33q-23 20 -56 20q-42 0 -55 -55q-2 -10 -23 -10q-4 0 -4 2q2 61 25.5 105t64.5 44q35 0 68 -30q29 -29 55 -29q40 0 47 65q0 11 21 11q4 0 4 -4
q0 -55 -21.5 -103.5t-60.5 -48.5z" />
    <glyph glyph-name="adieresis" unicode="&#xe4;" horiz-adv-x="829" 
d="M487 555l9 2q0 46 -9 111q-7 74 -39 127t-90 53q-99 0 -217 -133q-4 -4 -6 -4q-6 0 -13.5 10.5t-2.5 17.5q153 209 375 209q229 0 229 -389q0 -55 -6 -244q-1 -36 -4 -95t-4.5 -96.5t-1.5 -55.5q0 -10 3.5 -14.5t14.5 -8.5l53 -20q13 -5 13 -23q0 -4 -7 -4q-25 2 -143 2
q-29 0 -69 -1t-48 -1t-8 12q-4 40 -4 144q0 6 1 27t1 24l-4 2q-1 -2 -8.5 -18.5t-12.5 -24.5q-82 -180 -227 -180q-90 0 -151.5 75.5t-61.5 210.5q0 67 16.5 130.5t48.5 117t85 86.5t118 33q91 0 144 -53q14 -14 26 -29zM365 94h2q39 0 78 57t57 146q8 40 8 59q0 10 -6 58
q-6 35 -19 69.5t-41.5 65.5t-64.5 31q-53 0 -76.5 -79t-23.5 -200q0 -96 23 -151.5t63 -55.5zM338 1192h2q27 0 42 -17t15 -47t-16.5 -47.5t-46.5 -17.5q-29 0 -44.5 16.5t-15.5 44.5q0 32 16.5 50t47.5 18zM573 1192h2q58 0 58 -64q0 -30 -16 -47.5t-46 -17.5
q-28 0 -43.5 16.5t-15.5 44.5q0 32 16.5 50t44.5 18z" />
    <glyph glyph-name="aring" unicode="&#xe5;" horiz-adv-x="829" 
d="M487 555l9 2q0 46 -9 111q-7 74 -39 127t-90 53q-99 0 -217 -133q-4 -4 -6 -4q-6 0 -13.5 10.5t-2.5 17.5q153 209 375 209q229 0 229 -389q0 -55 -6 -244q-1 -36 -4 -95t-4.5 -96.5t-1.5 -55.5q0 -10 3.5 -14.5t14.5 -8.5l53 -20q13 -5 13 -23q0 -4 -7 -4q-25 2 -143 2
q-29 0 -69 -1t-48 -1t-8 12q-4 40 -4 144q0 6 1 27t1 24l-4 2q-1 -2 -8.5 -18.5t-12.5 -24.5q-82 -180 -227 -180q-90 0 -151.5 75.5t-61.5 210.5q0 67 16.5 130.5t48.5 117t85 86.5t118 33q91 0 144 -53q14 -14 26 -29zM365 94h2q39 0 78 57t57 146q8 40 8 59q0 10 -6 58
q-6 35 -19 69.5t-41.5 65.5t-64.5 31q-53 0 -76.5 -79t-23.5 -200q0 -96 23 -151.5t63 -55.5zM457 1253h2q54 0 84 -27.5t30 -70.5q0 -46 -31.5 -77t-86.5 -31t-88 27t-33 73q0 44 33 75t90 31zM457 1223h-2q-25 0 -41.5 -22t-16.5 -52q0 -32 16.5 -52t41.5 -20t40 22.5
t15 55.5q0 30 -14.5 49t-38.5 19z" />
    <glyph glyph-name="ae" unicode="&#xe6;" horiz-adv-x="1202" 
d="M637 823h6q3 8 14 23q83 102 211 102q67 0 122.5 -36t89.5 -94t52.5 -127t18.5 -140q0 -58 -41 -68q-36 -13 -171.5 -14.5t-215.5 6.5q-4 -109 8 -168q18 -112 66.5 -178t126.5 -66q58 0 100 17q54 22 104 51q1 1 3.5 -3t5 -9.5t2.5 -9.5q0 -7 -6 -13
q-33 -24 -93.5 -55.5t-103.5 -42.5q-38 -14 -127 -14q-95 0 -162.5 49t-103.5 139q-10 27 -15 49h-6q-3 -7 -10 -22.5t-10 -22.5q-92 -192 -240 -192q-90 0 -151.5 75.5t-61.5 210.5q0 67 16.5 130.5t48.5 117t85 86.5t118 33q87 0 144 -53q2 -2 11 -12.5t13 -16.5l9 2
q0 60 -7 111q-9 74 -42 125t-91 51q-105 0 -211 -129l-8 -4q-5 0 -12.5 12t-3.5 18q78 107 165 157t169 50q119 0 168 -90q4 -7 9 -20t7 -15zM842 909h-2q-49 0 -81.5 -105t-33.5 -294q96 -9 164 12q37 15 37 80v10q1 297 -84 297zM279 301v-2q0 -95 23 -150t63 -55t80 58.5
t57 148.5q8 36 8 57q0 10 -6 58q-6 35 -19.5 69.5t-42 64.5t-63.5 30q-100 0 -100 -279z" />
    <glyph glyph-name="ccedilla" unicode="&#xe7;" horiz-adv-x="729" 
d="M63 385v2q0 129 38 235.5t100 180.5q125 145 323 145q77 0 121 -20q8 -3 8 -19l15 -196q0 -6 -10 -12.5t-15 -6.5q-6 0 -6 4q-15 27 -43.5 82.5t-42.5 79.5q-9 19 -27 33q-17 14 -39 14q-78 0 -135 -196q-35 -133 -35 -295q0 -181 56.5 -270t144.5 -89q40 0 64 6
q48 11 102 37q2 1 4 -1.5t3 -7t1 -9.5q0 -11 -6 -14q-87 -51 -156 -74q-30 -10 -92 -10l-65 -82q-6 -6 4 -6q29 0 49 -18t20 -52q0 -55 -48 -91.5t-103 -45.5q-7 -1 -13 5t-6 15q0 6 5 6q40 13 59.5 38t19.5 52q0 25 -13.5 40.5t-41.5 15.5q-3 0 -5 4.5t1 9.5l90 111
q-70 4 -127 27t-103 68.5t-71 122.5t-25 181z" />
    <glyph glyph-name="egrave" unicode="&#xe8;" horiz-adv-x="788" 
d="M737 551v-2q0 -56 -41 -66q-36 -13 -171.5 -14.5t-215.5 6.5q0 -124 8 -168q43 -244 191 -244q47 0 100 17q28 10 113 51q2 1 4.5 -3t4 -9.5t1.5 -9.5q0 -7 -4 -11q-38 -25 -101 -57.5t-106 -44.5q-44 -12 -127 -12q-155 0 -242.5 104t-87.5 313q0 95 24.5 189.5
t71 175.5t124 131.5t172.5 50.5q87 0 153 -61.5t97.5 -150.5t31.5 -185zM428 909h-2q-49 0 -82.5 -105.5t-34.5 -293.5q103 -9 166 12q37 15 37 84q0 303 -84 303zM354 1290h2q22 0 29 -22q56 -149 84 -207q3 -4 -5 -13.5t-13 -9.5q-3 0 -7 4q-46 49 -98.5 122.5
t-66.5 105.5q-3 9 2 12q24 8 73 8z" />
    <glyph glyph-name="eacute" unicode="&#xe9;" horiz-adv-x="788" 
d="M737 551v-2q0 -56 -41 -66q-36 -13 -171.5 -14.5t-215.5 6.5q0 -124 8 -168q43 -244 191 -244q47 0 100 17q28 10 113 51q2 1 4.5 -3t4 -9.5t1.5 -9.5q0 -7 -4 -11q-38 -25 -101 -57.5t-106 -44.5q-44 -12 -127 -12q-155 0 -242.5 104t-87.5 313q0 95 24.5 189.5
t71 175.5t124 131.5t172.5 50.5q87 0 153 -61.5t97.5 -150.5t31.5 -185zM428 909h-2q-49 0 -82.5 -105.5t-34.5 -293.5q103 -9 166 12q37 15 37 84q0 303 -84 303zM420 1038h-2q-2 0 -7.5 2.5t-10.5 9t-1 13.5q20 43 82 207q8 20 31 20q46 0 74 -8q7 -2 2 -12
q-20 -48 -164 -230q-2 -2 -4 -2z" />
    <glyph glyph-name="ecircumflex" unicode="&#xea;" horiz-adv-x="788" 
d="M737 551v-2q0 -56 -41 -66q-36 -13 -171.5 -14.5t-215.5 6.5q0 -124 8 -168q43 -244 191 -244q47 0 100 17q28 10 113 51q2 1 4.5 -3t4 -9.5t1.5 -9.5q0 -7 -4 -11q-38 -25 -101 -57.5t-106 -44.5q-44 -12 -127 -12q-155 0 -242.5 104t-87.5 313q0 95 24.5 189.5
t71 175.5t124 131.5t172.5 50.5q87 0 153 -61.5t97.5 -150.5t31.5 -185zM428 909h-2q-49 0 -82.5 -105.5t-34.5 -293.5q103 -9 166 12q37 15 37 84q0 303 -84 303zM432 1288h2q2 0 10 -12q91 -159 119 -213q2 -5 -8 -19q-6 -6 -12 0q-74 74 -109 115q-84 -89 -104 -112
q-9 -4 -13 0q-13 8 -10 16q108 203 113 211q7 14 12 14z" />
    <glyph glyph-name="edieresis" unicode="&#xeb;" horiz-adv-x="788" 
d="M737 551v-2q0 -56 -41 -66q-36 -13 -171.5 -14.5t-215.5 6.5q0 -124 8 -168q43 -244 191 -244q47 0 100 17q28 10 113 51q2 1 4.5 -3t4 -9.5t1.5 -9.5q0 -7 -4 -11q-38 -25 -101 -57.5t-106 -44.5q-44 -12 -127 -12q-155 0 -242.5 104t-87.5 313q0 95 24.5 189.5
t71 175.5t124 131.5t172.5 50.5q87 0 153 -61.5t97.5 -150.5t31.5 -185zM428 909h-2q-49 0 -82.5 -105.5t-34.5 -293.5q103 -9 166 12q37 15 37 84q0 303 -84 303zM309 1192h2q25 0 40.5 -17t15.5 -47t-16.5 -47.5t-45.5 -17.5q-59 0 -59 61q0 68 63 68zM545 1192h2
q57 0 57 -64q0 -65 -63 -65q-27 0 -43.5 16.5t-16.5 44.5q0 32 18 50t46 18z" />
    <glyph glyph-name="igrave" unicode="&#xec;" horiz-adv-x="475" 
d="M18 885l334 63q11 1 15 -5t4 -15q0 -10 -4 -98t-8.5 -201t-6.5 -170q-8 -320 -8 -396q0 -16 21 -22l69 -21q8 -4 8 -20q0 -4 -4 -4q-82 4 -198 4q-133 0 -195 -4q-6 0 -6 4q0 17 10 20l74 25q8 3 11 4t6 4.5t3 9.5q0 65 -6 383q-4 191 -10 381q0 23 -18 23l-80 4
q-5 0 -10 8t-5 17q0 6 4 6zM156 1290h2q21 0 28 -22q56 -149 84 -207q3 -4 -5 -13.5t-13 -9.5q-2 0 -6 4q-46 50 -99.5 123t-66.5 105q-3 9 2 12q24 8 74 8z" />
    <glyph glyph-name="iacute" unicode="&#xed;" horiz-adv-x="475" 
d="M18 885l334 63q11 1 15 -5t4 -15q0 -10 -4 -98t-8.5 -201t-6.5 -170q-8 -320 -8 -396q0 -16 21 -22l69 -21q8 -4 8 -20q0 -4 -4 -4q-82 4 -198 4q-133 0 -195 -4q-6 0 -6 4q0 17 10 20l74 25q8 3 11 4t6 4.5t3 9.5q0 65 -6 383q-4 191 -10 381q0 23 -18 23l-80 4
q-5 0 -10 8t-5 17q0 6 4 6zM242 1038h-2q-2 0 -7 2.5t-9.5 9t-0.5 13.5q20 43 82 207q8 20 31 20q42 0 74 -8q7 -2 2 -12q-23 -56 -166 -230q-2 -2 -4 -2z" />
    <glyph glyph-name="icircumflex" unicode="&#xee;" horiz-adv-x="475" 
d="M18 885l334 63q11 1 15 -5t4 -15q0 -10 -4 -98t-8.5 -201t-6.5 -170q-8 -320 -8 -396q0 -16 21 -22l69 -21q8 -4 8 -20q0 -4 -4 -4q-82 4 -198 4q-133 0 -195 -4q-6 0 -6 4q0 17 10 20l74 25q8 3 11 4t6 4.5t3 9.5q0 65 -6 383q-4 191 -10 381q0 23 -18 23l-80 4
q-5 0 -10 8t-5 17q0 6 4 6zM236 1288h2q2 0 10 -12q73 -127 117 -213q1 -4 -9 -19q-6 -6 -12 0q-72 75 -106 115q-62 -62 -105 -112q-8 -4 -12 0q-14 9 -12 16q94 176 114 211q7 14 13 14z" />
    <glyph glyph-name="idieresis" unicode="&#xef;" horiz-adv-x="475" 
d="M18 885l334 63q11 1 15 -5t4 -15q0 -10 -4 -98t-8.5 -201t-6.5 -170q-8 -320 -8 -396q0 -16 21 -22l69 -21q8 -4 8 -20q0 -4 -4 -4q-82 4 -198 4q-133 0 -195 -4q-6 0 -6 4q0 17 10 20l74 25q8 3 11 4t6 4.5t3 9.5q0 65 -6 383q-4 191 -10 381q0 23 -18 23l-80 4
q-5 0 -10 8t-5 17q0 6 4 6zM125 1192h2q25 0 40 -17t15 -47t-16 -47.5t-45 -17.5q-60 0 -60 61q0 68 64 68zM358 1192h2q60 0 60 -64q0 -30 -16.5 -47.5t-47.5 -17.5q-26 0 -42.5 16.5t-16.5 44.5q0 32 17 50t44 18z" />
    <glyph glyph-name="eth" unicode="&#xf0;" horiz-adv-x="886" 
d="M459 1190l-172 -111q-1 -2 -5.5 -1t-5.5 5q-11 32 -8 49t23 29l135 74q-35 47 -85 91t-99 63q-4 0 -4 4q0 3 8 11.5t12 8.5q49 -2 127.5 -37t136.5 -86l166 84q2 2 4 1t2 -5q0 -32 -10 -37l-121 -78q50 -47 92 -108t81.5 -147t62 -203t22.5 -252q0 -83 -14 -161t-47 -152
t-81.5 -128t-122.5 -87t-165 -33q-152 0 -240 116.5t-88 309.5q0 140 48 259t136 191t197 72q57 0 99 -29q20 -20 26 -29l6 3q-11 49 -16 73q-15 63 -45 135.5t-55 104.5zM453 23h2q22 0 40.5 11.5t31.5 35.5t23 51.5t16 68.5t9.5 77t5.5 86t2.5 87t0.5 88q0 199 -27 279
q-14 38 -41.5 62t-62.5 24q-43 0 -72.5 -37t-44.5 -105.5t-21 -145t-6 -175.5q0 -83 8 -154t24.5 -129t45 -91t66.5 -33z" />
    <glyph glyph-name="ntilde" unicode="&#xf1;" horiz-adv-x="968" 
d="M858 45l68 -25q8 -4 8 -20q0 -4 -4 -4q-126 4 -187 4q-82 0 -188 -4q-4 0 -4 4q0 17 8 20l64 21q19 7 22 31q10 145 10 299q0 50 -1 85.5t-4 87t-10 86.5t-18 69t-29.5 51.5t-43.5 17.5q-58 0 -110 -105.5t-81 -267.5q-7 -53 -15 -159t-7 -168q0 -20 18 -27l64 -21
q8 -3 8 -20q0 -4 -4 -4q-126 4 -191 4q-70 0 -192 -4q-4 0 -4 4q0 20 10 23l74 18q20 7 20 22q0 26 -2 182.5t-2 198.5q0 21 -10 381q0 24 -19 27l-69 6q-4 0 -8 9.5t-4 17.5q0 4 6 6l317 57q7 1 10.5 -3.5t3.5 -12.5q0 -82 -10 -322q0 -17 -4 -63h8q9 36 17 57
q26 85 64.5 159.5t96 129.5t117.5 55q209 0 209 -395q0 -96 -7 -247t-13 -220q-1 -20 2.5 -28t15.5 -13zM602 1069h-2q-23 0 -61 33q-27 20 -58 20q-40 0 -53 -55q-2 -10 -25 -10q-2 0 -2 2q0 61 23.5 105t64.5 44q35 0 68 -30q29 -29 55 -29q40 0 47 65q0 11 21 11
q4 0 4 -4q0 -56 -21 -104t-61 -48z" />
    <glyph glyph-name="ograve" unicode="&#xf2;" horiz-adv-x="882" 
d="M391 -16h-2q-149 0 -237.5 122t-88.5 308q0 106 25 200t73.5 170t129 120t182.5 44q164 0 256 -119t92 -305q0 -82 -14 -157t-47 -146t-81.5 -123t-122.5 -83t-165 -31zM449 23h2q18 0 33.5 6.5t27 20.5t20.5 29.5t15.5 41.5t11.5 47.5t8 56.5t4.5 59.5t2.5 66t1 66v68.5
q0 187 -32.5 305.5t-96.5 118.5q-35 0 -60 -26t-39.5 -67t-23.5 -104.5t-11.5 -125t-2.5 -142.5q0 -170 37.5 -295.5t102.5 -125.5zM356 1290h2q22 0 29 -22q56 -149 84 -207q3 -4 -6 -13.5t-14 -9.5q-3 0 -7 4q-45 50 -97.5 123t-65.5 105q-3 9 2 12q24 8 73 8z" />
    <glyph glyph-name="oacute" unicode="&#xf3;" horiz-adv-x="882" 
d="M391 -16h-2q-149 0 -237.5 122t-88.5 308q0 106 25 200t73.5 170t129 120t182.5 44q164 0 256 -119t92 -305q0 -82 -14 -157t-47 -146t-81.5 -123t-122.5 -83t-165 -31zM449 23h2q18 0 33.5 6.5t27 20.5t20.5 29.5t15.5 41.5t11.5 47.5t8 56.5t4.5 59.5t2.5 66t1 66v68.5
q0 187 -32.5 305.5t-96.5 118.5q-35 0 -60 -26t-39.5 -67t-23.5 -104.5t-11.5 -125t-2.5 -142.5q0 -170 37.5 -295.5t102.5 -125.5zM459 1038h-2q-2 0 -7.5 2.5t-10.5 9t-1 13.5q20 43 82 207q8 20 31 20q46 0 74 -8q7 -2 2 -12q-20 -48 -164 -230q-2 -2 -4 -2z" />
    <glyph glyph-name="ocircumflex" unicode="&#xf4;" horiz-adv-x="882" 
d="M391 -16h-2q-149 0 -237.5 122t-88.5 308q0 106 25 200t73.5 170t129 120t182.5 44q164 0 256 -119t92 -305q0 -82 -14 -157t-47 -146t-81.5 -123t-122.5 -83t-165 -31zM449 23h2q18 0 33.5 6.5t27 20.5t20.5 29.5t15.5 41.5t11.5 47.5t8 56.5t4.5 59.5t2.5 66t1 66v68.5
q0 187 -32.5 305.5t-96.5 118.5q-35 0 -60 -26t-39.5 -67t-23.5 -104.5t-11.5 -125t-2.5 -142.5q0 -170 37.5 -295.5t102.5 -125.5zM442 1288h2q1 0 9 -12q82 -143 118 -213q2 -5 -8 -19q-6 -6 -12 0q-91 95 -109 115q-62 -66 -102 -112q-8 -4 -12 0q-15 10 -13 16
q80 149 115 211q7 14 12 14z" />
    <glyph glyph-name="otilde" unicode="&#xf5;" horiz-adv-x="882" 
d="M391 -16h-2q-149 0 -237.5 122t-88.5 308q0 106 25 200t73.5 170t129 120t182.5 44q164 0 256 -119t92 -305q0 -82 -14 -157t-47 -146t-81.5 -123t-122.5 -83t-165 -31zM449 23h2q18 0 33.5 6.5t27 20.5t20.5 29.5t15.5 41.5t11.5 47.5t8 56.5t4.5 59.5t2.5 66t1 66v68.5
q0 187 -32.5 305.5t-96.5 118.5q-35 0 -60 -26t-39.5 -67t-23.5 -104.5t-11.5 -125t-2.5 -142.5q0 -170 37.5 -295.5t102.5 -125.5zM514 1069h-2q-25 0 -63 33q-23 20 -56 20q-42 0 -55 -55q-2 -10 -23 -10q-4 0 -4 2q2 61 25.5 105t64.5 44q35 0 68 -30q29 -29 55 -29
q40 0 47 65q0 11 21 11q4 0 4 -4q0 -56 -21 -104t-61 -48z" />
    <glyph glyph-name="odieresis" unicode="&#xf6;" horiz-adv-x="882" 
d="M391 -16h-2q-149 0 -237.5 122t-88.5 308q0 106 25 200t73.5 170t129 120t182.5 44q164 0 256 -119t92 -305q0 -82 -14 -157t-47 -146t-81.5 -123t-122.5 -83t-165 -31zM449 23h2q18 0 33.5 6.5t27 20.5t20.5 29.5t15.5 41.5t11.5 47.5t8 56.5t4.5 59.5t2.5 66t1 66v68.5
q0 187 -32.5 305.5t-96.5 118.5q-35 0 -60 -26t-39.5 -67t-23.5 -104.5t-11.5 -125t-2.5 -142.5q0 -170 37.5 -295.5t102.5 -125.5zM328 1192h2q27 0 42 -17t15 -47t-16.5 -47.5t-46.5 -17.5q-29 0 -44.5 16.5t-15.5 44.5q0 32 16.5 50t47.5 18zM563 1192h2q58 0 58 -64
q0 -30 -16 -47.5t-46 -17.5q-28 0 -43.5 16.5t-15.5 44.5q0 32 16.5 50t44.5 18z" />
    <glyph glyph-name="divide" unicode="&#xf7;" 
d="M299 868h2q29 0 47.5 -18.5t18.5 -52.5q0 -29 -18.5 -48.5t-49.5 -19.5q-32 0 -50 18t-18 48q0 32 18.5 52.5t49.5 20.5zM528 608v-2q0 -10 -3 -25.5t-7 -15.5q-364 -28 -418 -28q-16 0 -23 34t-7 58q0 8 6 8q33 -1 448 -25q4 0 4 -4zM301 444h2q27 0 45.5 -19t18.5 -52
q0 -28 -18.5 -48t-49.5 -20q-32 0 -50 18.5t-18 49.5q0 30 18.5 50.5t51.5 20.5z" />
    <glyph glyph-name="oslash" unicode="&#xf8;" horiz-adv-x="882" 
d="M473 948h2q86 0 160 -43q56 113 74 148q3 6 6 6q11 0 31.5 -30.5t11.5 -47.5q-38 -61 -66 -113q129 -123 129 -344q0 -82 -14 -157t-47 -146t-81.5 -123t-122.5 -83t-165 -31q-83 0 -155 43q-28 -57 -68 -123q-8 -13 -41 -13q-6 0 -8.5 3.5t0.5 7.5q14 24 41 74.5
t41 74.5q-66 58 -102 154t-36 209q0 106 25 200t73.5 170t129 120t182.5 44zM446 909h-2q-42 0 -72.5 -37.5t-47 -105t-24 -146.5t-7.5 -176q0 -63 12 -227q177 382 258 553q-33 139 -117 139zM592 487v2q0 83 -10 193q-129 -252 -258 -516q15 -67 49 -105t76 -38
q36 0 62.5 27t42 69.5t24.5 106.5t11.5 124t2.5 137z" />
    <glyph glyph-name="ugrave" unicode="&#xf9;" horiz-adv-x="942" 
d="M596 864l-57 6q-4 0 -7.5 7.5t-3.5 11.5q0 8 7 10l268 49q9 1 12.5 -3.5t3.5 -14.5q0 -11 1 -207.5t1 -245.5q0 -279 8 -405q0 -24 17 -29l55 -20q12 -3 12 -21q0 -4 -8 -4q-43 2 -151 2q-95 0 -136 -2q-14 0 -14 25q0 1 -1 31t-2 66.5t-1.5 78.5t0.5 67v56h-8
q-14 -41 -17 -52q-91 -286 -264 -286q-102 0 -158.5 106.5t-56.5 300.5q0 191 27 445q1 17 -3 22.5t-16 5.5h-61q-5 0 -9.5 9t-4.5 16q0 5 6 8l276 51q9 1 13 -4t2 -16q-2 -28 -5.5 -188.5t-3.5 -211.5q0 -215 21 -310t74 -95q51 0 93.5 75.5t68 192.5t34.5 258
q10 175 10 189q0 26 -22 26zM381 1290h2q22 0 29 -22q49 -129 86 -207q3 -4 -6.5 -13.5t-14.5 -9.5q-2 0 -6 4q-46 52 -99.5 124.5t-66.5 103.5q-3 10 4 12q21 8 72 8z" />
    <glyph glyph-name="uacute" unicode="&#xfa;" horiz-adv-x="942" 
d="M596 864l-57 6q-4 0 -7.5 7.5t-3.5 11.5q0 8 7 10l268 49q9 1 12.5 -3.5t3.5 -14.5q0 -11 1 -207.5t1 -245.5q0 -279 8 -405q0 -24 17 -29l55 -20q12 -3 12 -21q0 -4 -8 -4q-43 2 -151 2q-95 0 -136 -2q-14 0 -14 25q0 1 -1 31t-2 66.5t-1.5 78.5t0.5 67v56h-8
q-14 -41 -17 -52q-91 -286 -264 -286q-102 0 -158.5 106.5t-56.5 300.5q0 191 27 445q1 17 -3 22.5t-16 5.5h-61q-5 0 -9.5 9t-4.5 16q0 5 6 8l276 51q9 1 13 -4t2 -16q-2 -28 -5.5 -188.5t-3.5 -211.5q0 -215 21 -310t74 -95q51 0 93.5 75.5t68 192.5t34.5 258
q10 175 10 189q0 26 -22 26zM467 1038h-2q-2 0 -7.5 2.5t-10.5 9t-1 13.5q20 43 82 207q8 20 31 20q46 0 74 -8q7 -2 2 -12q-20 -48 -164 -230q-2 -2 -4 -2z" />
    <glyph glyph-name="ucircumflex" unicode="&#xfb;" horiz-adv-x="942" 
d="M596 864l-57 6q-4 0 -7.5 7.5t-3.5 11.5q0 8 7 10l268 49q9 1 12.5 -3.5t3.5 -14.5q0 -11 1 -207.5t1 -245.5q0 -279 8 -405q0 -24 17 -29l55 -20q12 -3 12 -21q0 -4 -8 -4q-43 2 -151 2q-95 0 -136 -2q-14 0 -14 25q0 1 -1 31t-2 66.5t-1.5 78.5t0.5 67v56h-8
q-14 -41 -17 -52q-91 -286 -264 -286q-102 0 -158.5 106.5t-56.5 300.5q0 191 27 445q1 17 -3 22.5t-16 5.5h-61q-5 0 -9.5 9t-4.5 16q0 5 6 8l276 51q9 1 13 -4t2 -16q-2 -28 -5.5 -188.5t-3.5 -211.5q0 -215 21 -310t74 -95q51 0 93.5 75.5t68 192.5t34.5 258
q10 175 10 189q0 26 -22 26zM469 1288h2q2 0 10 -12q91 -159 119 -213q2 -5 -8 -19q-6 -6 -12 0q-53 53 -109 115q-59 -62 -104 -112q-5 -5 -11 0q-14 9 -12 16q108 203 113 211q7 14 12 14z" />
    <glyph glyph-name="udieresis" unicode="&#xfc;" horiz-adv-x="942" 
d="M596 864l-57 6q-4 0 -7.5 7.5t-3.5 11.5q0 8 7 10l268 49q9 1 12.5 -3.5t3.5 -14.5q0 -11 1 -207.5t1 -245.5q0 -279 8 -405q0 -24 17 -29l55 -20q12 -3 12 -21q0 -4 -8 -4q-43 2 -151 2q-95 0 -136 -2q-14 0 -14 25q0 1 -1 31t-2 66.5t-1.5 78.5t0.5 67v56h-8
q-14 -41 -17 -52q-91 -286 -264 -286q-102 0 -158.5 106.5t-56.5 300.5q0 191 27 445q1 17 -3 22.5t-16 5.5h-61q-5 0 -9.5 9t-4.5 16q0 5 6 8l276 51q9 1 13 -4t2 -16q-2 -28 -5.5 -188.5t-3.5 -211.5q0 -215 21 -310t74 -95q51 0 93.5 75.5t68 192.5t34.5 258
q10 175 10 189q0 26 -22 26zM356 1192h2q25 0 40.5 -17t15.5 -47t-16.5 -47.5t-45.5 -17.5q-61 0 -61 61q0 68 65 68zM590 1192h2q59 0 59 -64q0 -65 -63 -65q-26 0 -43 16.5t-17 44.5q0 31 17.5 49.5t44.5 18.5z" />
    <glyph glyph-name="yacute" unicode="&#xfd;" horiz-adv-x="823" 
d="M524 932h299q6 0 6 -4q0 -20 -10 -25l-26 -10q-27 -12 -31 -29q-41 -146 -134.5 -418.5t-158.5 -418.5q-20 -46 -39.5 -87.5t-58.5 -107t-77.5 -111t-91.5 -80t-106 -34.5q-46 0 -51 18l-51 203q-1 4 6 14.5t12 10.5q3 0 6 -3l52 -69q23 -30 37 -39.5t30 -9.5
q45 0 112 54.5t101 141.5q7 18 -2 41q-140 372 -291 893q-8 24 -20 27l-45 14q-10 3 -10 23q0 6 6 6h420q6 0 6 -6q0 -20 -13 -23l-51 -14q-19 -3 -16 -29q52 -289 127 -618q2 -8 10 -56h8q13 43 19 68q93 392 104 608q3 24 -20 27l-52 14q-12 3 -12 23q0 6 6 6zM485 1038
h-2q-2 0 -7 2.5t-9.5 9t-1.5 13.5q31 66 84 207q8 20 29 20q43 0 75 -8q7 -2 2 -12q-18 -43 -166 -230q-2 -2 -4 -2z" />
    <glyph glyph-name="thorn" unicode="&#xfe;" horiz-adv-x="899" 
d="M334 33l-6 -2q0 -13 -1 -52t-1 -51q0 -49 -2 -143t-2 -96q0 -11 5 -15.5t17 -7.5l94 -24q8 -3 8 -17q0 -6 -4 -6q-82 4 -213 4q-118 0 -186 -4q-4 0 -4 6q0 17 10 19l55 16q19 8 19 23q5 107 -6 583q-8 765 -13 832q0 3 -1 8t-1.5 7t-2 4t-5.5 3l-71 6q-15 3 -15 25
q0 6 6 8l320 60q7 1 9.5 -3.5t2.5 -13.5t-1.5 -122.5t-4 -250t-4.5 -176.5q0 -9 -1 -27t-1 -24l8 -2q9 39 14 55q39 119 110 206t159 87q76 0 125 -56t68.5 -140.5t19.5 -196.5q0 -254 -104.5 -412.5t-270.5 -158.5q-57 0 -101 26q-15 10 -28 23zM459 20h2q143 0 143 449
q0 131 -26 227.5t-74 96.5q-53 0 -102.5 -124.5t-75.5 -299.5q-4 -28 -4 -52v-45q7 -129 45.5 -190.5t91.5 -61.5z" />
    <glyph glyph-name="ydieresis" unicode="&#xff;" horiz-adv-x="823" 
d="M524 932h299q6 0 6 -4q0 -20 -10 -25l-26 -10q-27 -12 -31 -29q-41 -146 -134.5 -418.5t-158.5 -418.5q-20 -46 -39.5 -87.5t-58.5 -107t-77.5 -111t-91.5 -80t-106 -34.5q-46 0 -51 18l-51 203q-1 4 6 14.5t12 10.5q3 0 6 -3l52 -69q23 -30 37 -39.5t30 -9.5
q45 0 112 54.5t101 141.5q7 18 -2 41q-140 372 -291 893q-8 24 -20 27l-45 14q-10 3 -10 23q0 6 6 6h420q6 0 6 -6q0 -20 -13 -23l-51 -14q-19 -3 -16 -29q52 -289 127 -618q2 -8 10 -56h8q13 43 19 68q93 392 104 608q3 24 -20 27l-52 14q-12 3 -12 23q0 6 6 6zM354 1192h2
q26 0 41 -16.5t15 -47.5q0 -30 -16 -47.5t-46 -17.5q-29 0 -44 16.5t-15 44.5q0 68 63 68zM590 1192h2q57 0 57 -64q0 -30 -15.5 -47.5t-45.5 -17.5q-28 0 -44 16.5t-16 44.5q0 32 17 50t45 18z" />
    <glyph glyph-name="dotlessi" unicode="&#x131;" horiz-adv-x="475" 
d="M18 885l334 63q11 1 15 -5t4 -15q0 -10 -4 -98t-8.5 -201t-6.5 -170q-8 -320 -8 -396q0 -16 21 -22l69 -21q8 -4 8 -20q0 -4 -4 -4q-82 4 -198 4q-133 0 -195 -4q-6 0 -6 4q0 17 10 20l74 25q8 3 11 4t6 4.5t3 9.5q0 65 -6 383q-4 191 -10 381q0 23 -18 23l-80 4
q-5 0 -10 8t-5 17q0 6 4 6z" />
    <glyph glyph-name="Lslash" unicode="&#x141;" horiz-adv-x="872" 
d="M195 524l-138 -86q-3 -2 -5.5 0t-2.5 8q0 65 25 80l116 72q0 457 -10 580q-2 19 -7 28t-21 13l-52 14q-8 3 -8 24q0 5 4 5h449q4 0 4 -5q0 -24 -8 -24l-66 -14q-15 -3 -19.5 -10t-6.5 -25q-7 -81 -17 -482l197 121q6 3 6 -4q0 -39 -8 -45l-197 -141q-12 -456 -8 -580
q0 -16 24 -16q31 0 109.5 8.5t112.5 17.5q36 11 55 39l115 179q2 2 4 2q5 0 12.5 -7.5t7.5 -11.5l-51 -256q-4 -12 -20 -12q-2 0 -30.5 0.5t-75 1t-103.5 1t-128.5 1t-136.5 0.5q-114 0 -206 -4q-5 0 -5 4q0 20 9 23l61 14q20 6 23 35q0 13 -2 191.5t-2 260.5z" />
    <glyph glyph-name="lslash" unicode="&#x142;" horiz-adv-x="522" 
d="M385 735l156 94q6 3 6 -4q0 -40 -10 -47l-152 -106q-12 -552 -12 -606q0 -19 18 -25l72 -21q8 -4 8 -20q0 -4 -4 -4q-140 4 -201 4q-94 0 -188 -4q-4 0 -4 4q0 15 8 18l72 21q20 7 20 20q0 2 -2 208t-2 296l-115 -74q-3 -2 -5.5 0.5t-2.5 8.5q0 39 5 57t20 27l96 61
q0 67 -5 303.5t-9 333.5q0 28 -19 31l-88 8q-6 0 -11 6.5t-5 13.5t6 7l350 36q11 1 15 -3.5t4 -16.5q0 -13 -3.5 -111.5t-9 -262t-8.5 -253.5z" />
    <glyph glyph-name="OE" unicode="&#x152;" horiz-adv-x="1378" 
d="M1292 1249l6 -227q0 -4 -7.5 -10t-12.5 -6q-4 0 -6 4q-47 111 -78 174q-6 17 -37 24q-24 5 -102.5 12.5t-98.5 6.5q-18 -2 -18 -19q-14 -250 -14 -522q170 -9 309 -14q4 0 4 -4q0 -9 -5.5 -20t-8.5 -11q-44 -4 -275 -21q-26 -3 -26 -16q-9 -266 -9 -528q0 -31 21 -31
q134 0 244 22q28 6 45 33q15 22 31 47.5t35.5 56.5t29.5 48q0 4 4 4q6 0 12.5 -7.5t5.5 -13.5l-45 -229q-3 -10 -16 -10q-3 0 -19.5 0.5t-50.5 1.5t-69 2q-160 4 -320 4q-66 0 -90 -4q-16 0 -16 14v76v41h-8q-9 -22 -23 -39q-34 -48 -93.5 -76t-133.5 -28q-179 0 -281 157.5
t-102 423.5q0 214 50 374.5t147.5 249.5t232.5 89q116 0 178 -90q5 -7 10.5 -17.5t7.5 -13.5l9 2q0 10 -1 28.5t-1 22.5q-2 10 -2 39q0 13 14 13h74q206 0 362 4q34 0 63.5 0.5t45 1t16.5 0.5q12 0 12 -19zM502 18h2q90 0 129 161t39 513q0 251 -44 401t-128 150
q-86 0 -133.5 -179t-47.5 -499q0 -238 51 -392.5t132 -154.5z" />
    <glyph glyph-name="oe" unicode="&#x153;" horiz-adv-x="1290" 
d="M702 807h7q16 24 28 39q85 102 217 102q89 0 156 -62t98 -150.5t31 -184.5q0 -58 -41 -68q-36 -13 -172 -14.5t-217 6.5q-4 -105 8 -168q16 -110 66 -177t129 -67q47 0 100 17q51 23 105 51q1 1 3.5 -2.5t4.5 -10t2 -12.5q0 -7 -6 -10q-33 -23 -93 -53.5t-104 -44.5
q-35 -14 -106 -14q-74 0 -122 25t-91 75q-14 14 -25 33h-4q-17 -25 -27 -33q-92 -100 -229 -100q-171 0 -264 114.5t-93 315.5q0 105 25.5 200t73.5 170t125.5 119.5t173.5 44.5q137 0 217 -102q16 -20 24 -39zM446 23h3q18 0 33.5 6.5t27 20.5t20.5 29.5t15.5 41.5
t11.5 47.5t8 57t4.5 60t2.5 66t1 66.5v69q0 185 -32.5 303.5t-96.5 118.5q-34 0 -59 -26t-39.5 -67t-23 -104.5t-11 -125.5t-2.5 -142q0 -170 36.5 -295.5t100.5 -125.5zM930 909h-2q-51 0 -83.5 -104.5t-35.5 -294.5q104 -9 168 12q37 15 37 72v11q2 304 -84 304z" />
    <glyph glyph-name="Scaron" unicode="&#x160;" horiz-adv-x="798" 
d="M727 362v-2q0 -77 -30 -144.5t-87.5 -119.5t-148.5 -82t-205 -30q-101 0 -145 16q-13 4 -15 16l-30 252q-1 6 8.5 12.5t17.5 6.5q4 0 6 -2q62 -132 105 -201q12 -23 33 -35q27 -16 100 -16q32 0 67.5 12t67.5 34.5t53 61.5t21 86q0 95 -58 164.5t-188 159.5
q-217 153 -217 342q0 70 33.5 139.5t90.5 123.5t140.5 88t177.5 34q102 0 146 -23q8 -5 10 -18l18 -248q0 -3 -8 -9.5t-14 -6.5q-4 0 -6 4q-50 111 -99 205q-8 14 -28 28q-36 19 -76 19q-82 0 -132 -61t-50 -144q0 -82 42.5 -140.5t157.5 -152.5q75 -63 123 -113t83.5 -118
t35.5 -138zM434 1333h-2q-5 0 -12 10q-7 8 -137 164q-5 8 6 19q7 7 10 4q43 -28 135 -84q58 34 133 80q7 4 13 -2q9 -14 6 -19q-128 -154 -135 -162q-10 -10 -17 -10z" />
    <glyph glyph-name="scaron" unicode="&#x161;" horiz-adv-x="669" 
d="M72 647v2q0 53 25.5 105.5t70.5 96t114 70.5t148 27q87 0 131 -14q8 -5 8 -14l19 -189q0 -7 -10 -14.5t-17 -7.5q-4 0 -6 4q-55 100 -84 143q-10 16 -25 29q-21 18 -65 18q-55 0 -87 -38.5t-32 -92.5q0 -63 33 -106t119 -99q95 -61 144.5 -128.5t49.5 -153.5
q0 -131 -108.5 -216t-278.5 -85q-84 0 -131 16q-12 4 -14 18l-17 191q0 7 10.5 13.5t16.5 6.5q4 0 6 -4q7 -12 37.5 -66t48.5 -81q9 -14 37 -33q29 -18 61 -18q64 0 111 36.5t47 102.5q0 60 -38.5 108t-133.5 105q-100 59 -145 123.5t-45 144.5zM330 1042h-2q-2 0 -11 13
q-73 128 -118 213q-3 8 12 18q5 3 10 -2q23 -23 55.5 -57.5t53.5 -55.5q16 17 49 53t57 60q4 4 8 0q13 -9 11 -16q-24 -47 -64.5 -120.5t-48.5 -90.5q-8 -15 -12 -15z" />
    <glyph glyph-name="Ydieresis" unicode="&#x178;" horiz-adv-x="890" 
d="M623 1262h301q6 0 6 -7q0 -19 -8 -22l-31 -12q-16 -4 -23 -11.5t-14 -23.5q-76 -165 -157.5 -357t-118.5 -292q-17 -41 -17 -86q-2 -78 -2 -388q0 -18 19 -24l59 -16q12 -3 12 -21q0 -6 -8 -6q-114 4 -188 4q-123 0 -201 -4q-6 0 -6 6q0 16 10 18l68 23q10 1 13 7t3 24
q0 149 -12 383q0 17 -11 55q-17 47 -55.5 151t-63 170t-65 168t-80.5 197q-8 18 -26 21l-39 12q-11 3 -11 24q0 7 7 7h442q6 0 6 -7q0 -20 -12 -24l-53 -12q-29 -8 -25 -25q25 -87 82 -279.5t80 -269.5q2 -6 5.5 -21t8 -34.5t6.5 -28.5h8q19 60 21 66q64 200 152 561
q3 14 0 19.5t-15 6.5l-61 17q-13 3 -13 26q0 5 7 5zM393 1485h2q29 0 45.5 -17.5t16.5 -46.5q0 -31 -17 -50t-49 -19q-29 0 -47 18t-18 47q0 30 18 49t49 19zM662 1485h2q28 0 44.5 -17.5t16.5 -46.5q0 -31 -18 -50t-50 -19q-29 0 -46 18.5t-17 46.5q0 30 18 49t50 19z" />
    <glyph glyph-name="Zcaron" unicode="&#x17d;" horiz-adv-x="870" 
d="M559 1169l-8 7q-7 5 -68 12q-143 33 -231 33q-20 0 -31 -25l-115 -219q-2 -4 -8 -4t-16.5 6.5t-9.5 11.5l39 258q3 17 16 17q5 0 108 -2t193 -2t212 1t130 1q13 0 16 -9q35 -66 35 -108q0 -28 -20 -64q-40 -71 -159.5 -287.5t-217.5 -389.5t-158 -267q-7 -10 -24.5 -39
t-24.5 -39v-6h57q61 0 198 13.5t194 29.5q24 7 35 14t18 23l88 158q2 4 6 4t15 -6.5t10 -11.5l-39 -269q-3 -18 -23 -18q-3 0 -14.5 0.5t-37 1.5t-54.5 2q-136 4 -334 4q-57 0 -132 -1t-98 -1q-22 0 -36.5 9.5t-30.5 41.5q-16 43 -16 51q0 7 4 15q301 583 491 970
q12 26 41 84zM471 1333h-2q-5 0 -12 10q-20 25 -68.5 82t-69.5 82q-5 7 7 19q7 7 10 4q43 -28 135 -84q66 38 131 80q7 3 12 -2q10 -15 7 -19q-25 -31 -72.5 -87.5t-61.5 -74.5q-10 -10 -16 -10z" />
    <glyph glyph-name="zcaron" unicode="&#x17e;" horiz-adv-x="768" 
d="M205 53l2 -4q10 0 32.5 1t34.5 1q201 8 312 39q20 3 41 35l65 119q2 4 6 4q5 0 12.5 -5.5t6.5 -9.5l-25 -219q-2 -11 -6 -14.5t-16 -3.5q-17 0 -58.5 0.5t-125.5 1.5t-177 2q-39 0 -104 -1t-117 -1q-19 0 -29.5 9.5t-23.5 35.5q-12 24 -12 41q0 4 4 12q74 127 215.5 375
t173.5 303q12 28 47 78v6q-20 7 -47 10q-166 27 -191 27q-22 0 -39 -33l-90 -157q-2 -5 -6 -5t-13.5 7t-8.5 12l26 199q3 18 17 18q4 0 78 -2t147 -2q83 0 202 1t126 1q11 0 14 -10q35 -58 35 -95q0 -20 -21 -55q-77 -132 -202.5 -319.5t-223.5 -323.5q-28 -40 -61 -78z
M426 1042h-2q-1 0 -10 13q-96 168 -119 213q-3 8 12 18q5 3 10 -2q23 -23 55.5 -57.5t53.5 -55.5q92 101 104 113q7 4 11 0q11 -12 10 -16q-24 -47 -64.5 -120.5t-48.5 -90.5q-8 -15 -12 -15z" />
    <glyph glyph-name="florin" unicode="&#x192;" horiz-adv-x="743" 
d="M635 612l-264 -20q-1 -75 -42.5 -411t-56.5 -423q-3 -19 -46.5 -31t-78.5 -12q-4 0 -4 11q2 67 15 439t16 425l-129 -4q-6 0 -6 6q0 17 11 38t24 21l104 2q20 279 132.5 425.5t287.5 146.5q70 0 117 -17q12 -3 12 -12l-10 -203q0 -6 -8.5 -11t-16.5 -5q-3 0 -6 8
q-42 127 -59 164q-5 12 -15 22q-15 15 -41 15q-22 0 -40.5 -8.5t-34 -28t-28 -42.5t-23.5 -62t-19 -75t-17 -92.5t-16 -104.5t-16 -120l266 -4q4 0 4 -2q0 -10 -4 -22t-8 -13z" />
    <glyph glyph-name="circumflex" unicode="&#x2c6;" horiz-adv-x="378" 
d="M186 1288h2q3 0 11 -12q82 -143 118 -213q2 -5 -8 -19q-6 -6 -12 0q-54 53 -109 115q-59 -62 -104 -112q-5 -5 -10 0q-15 10 -13 16q108 203 113 211q7 14 12 14z" />
    <glyph glyph-name="caron" unicode="&#x2c7;" horiz-adv-x="378" 
d="M190 1042h-2q-1 0 -10 13q-81 141 -117 213q-3 8 13 18q5 3 10 -2q22 -23 54 -57.5t52 -55.5q14 14 48 51t59 62q7 3 10 0q11 -12 10 -16q-24 -48 -65 -121.5t-49 -89.5q-7 -15 -13 -15z" />
    <glyph glyph-name="uni02C9" unicode="&#x2c9;" horiz-adv-x="401" 
d="M342 1147v-2q0 -8 -3.5 -20.5t-6.5 -12.5q-9 -1 -266 -22q-5 0 -5 6q0 78 19 78q37 -2 137.5 -10.5t122.5 -10.5q2 0 2 -6z" />
    <glyph glyph-name="breve" unicode="&#x2d8;" horiz-adv-x="385" 
d="M66 1219h2q16 0 22 -11q12 -26 42 -42.5t65 -16.5q32 0 63 19t39 42q2 9 20 9q5 0 5 -7q-6 -49 -41 -98t-90 -49t-90 43.5t-42 97.5q0 13 5 13z" />
    <glyph glyph-name="dotaccent" unicode="&#x2d9;" horiz-adv-x="235" 
d="M123 1194h2q24 0 38.5 -17t14.5 -47q0 -31 -16.5 -49t-42.5 -18q-29 0 -45.5 17t-16.5 46q0 32 18 50t48 18z" />
    <glyph glyph-name="ring" unicode="&#x2da;" horiz-adv-x="337" 
d="M172 1253h2q54 0 84.5 -27.5t30.5 -70.5q0 -46 -32.5 -77t-88.5 -31q-55 0 -88 27t-33 73q0 44 33 75t92 31zM172 1223h-2q-27 0 -43 -21.5t-16 -52.5q0 -32 16 -52t41 -20q27 0 42 22t15 56q0 30 -14.5 49t-38.5 19z" />
    <glyph glyph-name="ogonek" unicode="&#x2db;" horiz-adv-x="280" 
d="M178 0h41q-35 -38 -57.5 -93t-22.5 -100q0 -38 21 -49.5t49 2.5q6 3 6 -6q0 -16 -8 -24q-19 -19 -60 -19t-67.5 23t-26.5 63q0 53 40 109.5t85 93.5z" />
    <glyph glyph-name="tilde" unicode="&#x2dc;" horiz-adv-x="405" 
d="M264 1069h-2q-25 0 -63 33q-27 20 -58 20q-40 0 -53 -55q-2 -10 -25 -10q-2 0 -2 2q0 61 24 105t65 44q34 0 67 -30q33 -29 57 -29q38 0 45 65q0 11 21 11q4 0 4 -4q0 -56 -20.5 -104t-59.5 -48z" />
    <glyph glyph-name="hungarumlaut" unicode="&#x2dd;" horiz-adv-x="481" 
d="M80 1038h-2q-2 0 -6.5 3.5t-8.5 9t0 12.5q71 136 89 190q6 16 34 21q11 1 24.5 2.5l22.5 2.5t11 1q7 0 4 -12q-27 -70 -162 -228q0 -2 -6 -2zM225 1036h-2q-2 0 -5.5 5t-5 12.5t4.5 15.5q70 99 107 186q10 19 28 19q34 0 70 -8q7 -3 2 -13q-14 -30 -74 -95t-119 -118
q-4 -4 -6 -4z" />
    <glyph glyph-name="uni03A9" unicode="&#x3a9;" horiz-adv-x="985" 
d="M86 606v2q0 320 118.5 495t323.5 175q178 0 280.5 -158t102.5 -422q0 -206 -61.5 -364t-159.5 -258q-9 -10 -4.5 -22.5t16.5 -12.5q56 0 129 22q28 6 41 31q15 23 28.5 48t29.5 56.5t26 49.5q2 4 9 4q5 0 12.5 -7.5t7.5 -13.5l-37 -229q-3 -10 -14 -10q-6 0 -64 4t-213 4
q-26 0 -55.5 -1t-40.5 -1q-16 0 -16 14q0 6 12 18l12 11q95 125 95 651q0 110 -9.5 205.5t-28 173.5t-50.5 123t-74 45q-87 0 -130.5 -176t-43.5 -494q0 -164 33.5 -310t82.5 -218q1 -2 7 -7.5t10 -11.5t4 -10q0 -14 -16 -14q-20 0 -54 1t-51 1q-133 0 -223 -4
q-19 -1 -36 -2t-25 -1.5t-11 -0.5q-11 0 -14 10l-35 229q-1 6 5.5 13.5t12.5 7.5q7 0 7 -4q10 -18 26.5 -49t30 -56.5t27.5 -48.5q6 -9 23 -20.5t28 -14.5q50 -18 141 -18q7 0 11 5.5t2.5 13.5t-9.5 14q-39 34 -75 82.5t-70 114.5t-54 153.5t-20 181.5z" />
    <glyph glyph-name="uni03BC" unicode="&#x3bc;" horiz-adv-x="935" 
d="M31 897l276 51q9 1 13 -4t2 -16q-2 -28 -5.5 -188.5t-3.5 -211.5q0 -219 21 -312t78 -93t99 73.5t67 198.5q41 224 47 402q1 12 2 35t2 34q3 35 36 56.5t97 21.5h43q17 0 23 -4.5t6 -19.5q0 -16 -3.5 -205.5t-3.5 -237.5q0 -100 1 -243.5t1 -161.5q0 -24 17 -29l55 -20
q12 -3 12 -21q0 -4 -8 -4q-39 2 -145 2q-94 0 -135 -2q-15 0 -15 25q0 1 -1.5 47.5t-3 105.5t-1.5 90v56h-8q-15 -50 -16 -52q-88 -272 -230 -272q-52 0 -88 47q-16 -270 -26 -395q-1 -18 -42.5 -28.5t-84.5 -10.5q-11 0 -11 8q-2 174 -1.5 291t2 273.5t1.5 203.5
q0 226 19 449q3 16 -1.5 22t-17.5 6h-61q-5 0 -9.5 9t-4.5 16q0 5 6 8z" />
    <glyph glyph-name="pi" unicode="&#x3c0;" horiz-adv-x="958" 
d="M342 911h2q89 0 274.5 -4t221.5 -4q24 0 32 10l33 43q3 4 12.5 7.5t12.5 1.5q16 -8 16 -11q-4 -9 -10.5 -39.5t-11.5 -44.5q-13 -40 -23 -79q-4 -11 -29 -11q-2 0 -14.5 1t-32 2.5t-34.5 2.5q-7 -172 -7 -290q0 -78 -3 -239t-3 -181v-3q0 -19 9 -23l6 -1q27 -2 77 -10
q6 -1 11.5 -6t5.5 -8q0 -9 -15 -13q-13 -2 -44 -6.5t-50 -7.5q-100 -14 -162 -14q-6 0 -12.5 7.5t-9.5 18.5q-1 3 -3.5 81t-6.5 195.5t-6 178.5q-12 146 -17 332q-181 8 -229 12q-9 -239 -19 -383q-15 -250 -41 -399q-3 -19 -5 -26.5t-11 -14t-27 -4.5l-174 16q-25 3 -34 7
t-9 13t60 23q43 9 53 12q20 6 48.5 151t39.5 230q4 29 15 114t17.5 147.5t10.5 115.5q-68 2 -116.5 -9.5t-100.5 -43.5q-1 -2 -5.5 1.5t-9 8.5t-4.5 8q0 5 5 10q11 9 37.5 31t33 27t27 20t27 17.5t25.5 11t31.5 9.5t35 4.5t45.5 4t55 0.5z" />
    <glyph glyph-name="endash" unicode="&#x2013;" horiz-adv-x="768" 
d="M707 631v-2q0 -18 -5 -37t-10 -19q-475 -24 -622 -26q-9 0 -9 8q0 21 5.5 53.5t11.5 32.5q14 0 247 -2.5t375 -1.5q7 0 7 -6z" />
    <glyph glyph-name="emdash" unicode="&#x2014;" horiz-adv-x="1536" 
d="M1475 631v-2q0 -18 -5 -38t-10 -20q-291 -1 -810.5 -12.5t-579.5 -11.5q-4 0 -5.5 1t-2.5 7t-1 18q0 9 6 38.5t11 29.5q13 0 537 -2t853 -2q7 0 7 -6z" />
    <glyph glyph-name="quoteleft" unicode="&#x2018;" horiz-adv-x="208" 
d="M18 1022v2q0 52 45.5 169.5t98.5 184.5q0 4 4 4q5 0 13 -10t7 -14q-33 -111 -49 -283q0 -24 -33 -37q-65 -24 -79 -24q-7 0 -7 8z" />
    <glyph glyph-name="quoteright" unicode="&#x2019;" horiz-adv-x="208" 
d="M193 1374v-2q0 -52 -45 -169.5t-99 -186.5q-4 -4 -8 0q-19 13 -16 22q30 100 47 285q0 24 34 37q63 22 78 22q9 0 9 -8z" />
    <glyph glyph-name="quotesinglbase" unicode="&#x201a;" horiz-adv-x="208" 
d="M182 145v-2q0 -52 -45 -169.5t-98 -186.5q-4 -4 -8 0q-17 17 -15 23q30 101 47 284q0 25 35 35q58 25 76 25q8 0 8 -9z" />
    <glyph glyph-name="quotedblleft" unicode="&#x201c;" horiz-adv-x="389" 
d="M18 1022v2q0 54 41.5 171t94.5 183l4 4q5 0 13 -10t7 -14q-30 -101 -47 -283q0 -24 -35 -37q-48 -24 -71 -24q-7 0 -7 8zM205 1022v2q0 53 42 170t93 184q4 4 6 4q3 0 11.5 -10t7.5 -14q-32 -106 -48 -283q0 -9 -8.5 -20.5t-25.5 -16.5q-15 -8 -40 -16t-32 -8q-6 0 -6 8z
" />
    <glyph glyph-name="quotedblright" unicode="&#x201d;" horiz-adv-x="389" 
d="M184 1374v-2q0 -54 -41 -171t-94 -183l-4 -4q-4 0 -12.5 9.5t-7.5 14.5q30 100 47 285q0 27 34 37q63 22 72 22q6 0 6 -8zM371 1374v-2q0 -54 -41 -170.5t-92 -183.5q-4 -4 -7 -4t-12 10t-8 14q30 100 47 285q0 23 35 37q69 22 74 22q4 0 4 -8z" />
    <glyph glyph-name="quotedblbase" unicode="&#x201e;" horiz-adv-x="389" 
d="M176 145v-2q0 -53 -42 -170t-93 -184q-4 -4 -6 -4q-4 0 -12 10t-7 15q30 101 47 284q0 25 35 35q58 25 72 25q6 0 6 -9zM362 145v-2q0 -54 -41 -171t-94 -183l-4 -4q-3 0 -12 10.5t-8 14.5q30 101 47 284q0 25 35 35q57 25 73 25q4 0 4 -9z" />
    <glyph glyph-name="dagger" unicode="&#x2020;" horiz-adv-x="731" 
d="M281 788l-228 -10q-8 0 -8 8q0 53 21.5 77t46.5 24q58 0 168 -4q-13 286 -13 325q0 29 47.5 49.5t116.5 20.5q8 0 8 -12q0 -11 -14 -389l256 -11q4 0 4 -6q0 -11 -4.5 -27t-9.5 -16l-246 -20q-27 -781 -41 -1006q-2 -16 -19.5 -29.5t-41.5 -13.5q-9 0 -9 10
q-9 329 -34 1030z" />
    <glyph glyph-name="daggerdbl" unicode="&#x2021;" horiz-adv-x="731" 
d="M297 258l-174 -4q-24 0 -37.5 19t-13.5 75q0 10 12 10l213 -8q-3 68 -8 219t-8 217l-228 -8q-6 0 -6 10q0 101 55 101l179 -6q-5 102 -9 208t-4 111q-1 23 27.5 41t64.5 26.5t68 8.5q8 0 8 -12q0 -13 -2 -74t-5 -153t-5 -160l256 -11q4 0 4 -8q0 -10 -4.5 -25.5
t-9.5 -15.5l-246 -24q-3 -81 -10.5 -233t-10.5 -216l250 -10q4 0 4 -8q0 -9 -4.5 -23t-9.5 -14l-240 -27q-4 -123 -22 -473q-2 -17 -17.5 -30t-41.5 -13q-7 0 -7 10q-13 379 -18 500z" />
    <glyph glyph-name="bullet" unicode="&#x2022;" horiz-adv-x="458" 
d="M231 705h2q52 0 88.5 -40t36.5 -87q0 -54 -36.5 -93t-92.5 -39q-59 0 -94 35t-35 90q0 51 35.5 92.5t95.5 41.5z" />
    <glyph glyph-name="ellipsis" unicode="&#x2026;" horiz-adv-x="1536" 
d="M256 172h2q35 0 60.5 -27.5t25.5 -72.5q0 -34 -25 -60t-63 -26q-39 0 -63.5 25.5t-24.5 62.5q0 41 23.5 69.5t64.5 28.5zM768 172h2q35 0 60.5 -27.5t25.5 -72.5q0 -34 -25 -60t-63 -26q-39 0 -63.5 25.5t-24.5 62.5q0 41 23.5 69.5t64.5 28.5zM1280 172h2
q35 0 60.5 -27.5t25.5 -72.5q0 -34 -25 -60t-63 -26q-39 0 -63.5 25.5t-24.5 62.5q0 41 23.5 69.5t64.5 28.5z" />
    <glyph glyph-name="perthousand" unicode="&#x2030;" horiz-adv-x="1806" 
d="M53 905v2q0 148 81.5 233t201.5 85q22 0 57 -6.5t51 -14.5q47 -3 127.5 -4.5t185.5 5t144 24.5q2 1 4.5 -3t5.5 -10t5.5 -13t4 -14t1.5 -11q0 -7 -7 -21q-78 -165 -170 -367t-202 -448.5t-156 -347.5q-3 -6 -8 -6q-7 0 -13.5 0.5t-12.5 1.5t-9 2.5t-2 3.5
q118 316 444 1153q-43 -2 -137 3.5t-157 14.5q90 -76 90 -211q0 -139 -85.5 -225t-201.5 -86q-105 0 -173.5 71t-68.5 189zM307 680h2q53 0 88 71.5t35 200.5q0 103 -28.5 170.5t-73.5 67.5q-56 0 -91.5 -73t-35.5 -210q0 -101 30.5 -164t73.5 -63zM877 -16h-3
q-102 0 -169.5 71t-67.5 189q0 149 80.5 234t200.5 85q109 0 178 -77t69 -199q0 -138 -85.5 -220.5t-202.5 -82.5zM889 18h2q53 0 88 72t35 201q0 102 -29 169.5t-74 67.5q-57 0 -92 -72.5t-35 -209.5q0 -102 30.5 -165t74.5 -63zM1464 -16h-2q-103 0 -170 71t-67 189
q0 149 80.5 234t199.5 85q109 0 177.5 -77t68.5 -199q0 -138 -85 -220.5t-202 -82.5zM1477 18h2q53 0 88 72t35 201q0 102 -29 169.5t-74 67.5q-57 0 -92 -72.5t-35 -209.5q0 -102 30.5 -165t74.5 -63z" />
    <glyph glyph-name="guilsinglleft" unicode="&#x2039;" horiz-adv-x="260" 
d="M23 524v2q0 4 6 13q27 31 99.5 110t90.5 99q5 5 8 2q17 -17 15 -21q-17 -36 -92 -197q19 -43 90 -182q2 -2 -13 -18q-3 -3 -6 0q-90 81 -194 182q-4 4 -4 10z" />
    <glyph glyph-name="guilsinglright" unicode="&#x203a;" horiz-adv-x="260" 
d="M240 555v-2q0 -1 -1.5 -2.5t-3.5 -4.5t-4 -5q-26 -31 -99 -108.5t-91 -98.5q-5 -5 -8 -2q-17 17 -15 20q43 85 93 197q-14 36 -91 180q-3 3 13 19q3 3 6 0q72 -66 194 -183q7 -7 7 -10z" />
    <glyph glyph-name="fraction" unicode="&#x2044;" horiz-adv-x="126" 
d="M414 1229h2q8 0 4 -15q-243 -548 -547 -1220q-3 -6 -8 -6q-7 0 -13.5 0.5t-12.5 1.5t-9 2.5t-2 3.5q86 213 270.5 691t198.5 515q7 18 34.5 23.5t82.5 3.5z" />
    <glyph glyph-name="Euro" unicode="&#x20ac;" horiz-adv-x="778" 
d="M496 -16h-2q-166 0 -273.5 122t-116.5 371q-16 0 -44 -1t-40 -1q-10 0 -10 10q0 15 6.5 41.5t12.5 26.5h75q1 14 2.5 44t2.5 46q-23 -2 -56 -2q-10 0 -10 6q0 26 5.5 49t12.5 23q4 0 26.5 -1t31.5 -1q40 273 190 399q128 109 283 109q75 0 131 -23q12 -6 12 -16l19 -248
q0 -7 -9 -11.5t-16 -4.5q-6 0 -8 4q-19 42 -51.5 122t-38.5 95q-6 17 -23 31q-14 14 -30 14q-73 0 -129 -94q-89 -136 -107 -377q211 0 328 2q6 0 6 -10q0 -15 -4 -28t-8 -13q-198 -13 -326 -17q-2 -31 -2 -94q51 1 151 2t154 2q6 0 6 -8q0 -15 -4.5 -29t-9.5 -14
q-126 -6 -295 -18q4 -117 28.5 -205t60 -134.5t72 -68t72.5 -21.5q52 0 95 13q40 12 92 41q2 1 4.5 -2t4 -8.5t1.5 -12.5q0 -6 -6 -12q-57 -45 -129 -76q-69 -22 -137 -22z" />
    <glyph glyph-name="afii61289" unicode="&#x2113;" horiz-adv-x="696" 
d="M440 1360h2q79 0 133 -66t54 -178q0 -79 -23 -154t-66.5 -144t-89.5 -124t-110 -119v-135q0 -360 152 -360q77 0 190 108q9 9 25 -10q8 -14 -2 -24q-76 -85 -141.5 -127.5t-157.5 -42.5q-80 0 -135.5 25t-84.5 73t-41 106.5t-12 137.5v118q-51 -35 -88 -65q-3 -4 -9 -2.5
t-9 8.5q-9 26 2 37q18 16 52.5 45.5t51.5 44.5v283q0 103 20 202t57.5 181t97.5 132t132 50zM434 1323h-2q-92 0 -92 -434v-234q72 75 124 194t52 253q0 97 -24.5 159t-57.5 62z" />
    <glyph glyph-name="trademark" unicode="&#x2122;" horiz-adv-x="593" 
d="M125 1262h2q28 0 67.5 2t41.5 2q4 0 4 -4l2 -64q0 -2 -6.5 -4t-10.5 -2q-2 0 -2 2l-18 39l-2 3q-2 2 -4 3q-20 4 -39 4q0 -47 -4 -117v-112q0 -8 4 -8l16 -2q4 -4 4 -15q0 -4 -2 -4h-104q-4 0 -4 4q0 12 6 15l18 4v4v121q0 9 -2 54.5t-2 55.5q-11 0 -35 -4q-6 -2 -8 -4
l-16 -41q-2 -2 -4 -2q-15 0 -15 4q2 23 2 64q0 6 6 6l35 -2q35 -2 70 -2zM580 985h-88q-5 0 -5 4t2.5 9.5t4.5 5.5l12 2q4 2 4 6q-1 19 -6 77.5t-6 77.5q0 13 -2 17h-2q-1 -3 -2.5 -9.5t-2.5 -9.5q-26 -83 -59 -166q-5 -8 -14 -8h-19q-3 0 -4 2q-43 85 -69 172q0 7 -5 17h-2
v-15q0 -83 -8 -155q0 -6 4 -6l17 -2q2 -2 2 -15q0 -4 -2 -4h-66q-4 0 -4 4q0 15 4 15l12 2q5 2 5 4q0 12 2 60t2 56t2 56t2 53q0 3 -6 6l-11 2q-6 3 -6 17q0 2 6 2h82q6 0 8 -2q3 -10 29.5 -91.5t30.5 -97.5q1 -3 2 -9t2 -9h2q1 2 2 5l2 6t2 7q5 23 27 101t24 85q5 5 13 5
h80q4 0 4 -2q0 -17 -4 -17l-13 -2q-6 -3 -6 -10v-105q0 -94 4 -114q0 -6 2 -6l13 -2q2 -2 2 -15v-4z" />
    <glyph glyph-name="Omega" unicode="&#x2126;" horiz-adv-x="985" 
d="M86 606v2q0 320 118.5 495t323.5 175q178 0 280.5 -158t102.5 -422q0 -206 -61.5 -364t-159.5 -258q-9 -10 -4.5 -22.5t16.5 -12.5q56 0 129 22q28 6 41 31q15 23 28.5 48t29.5 56.5t26 49.5q2 4 9 4q5 0 12.5 -7.5t7.5 -13.5l-37 -229q-3 -10 -14 -10q-6 0 -64 4t-213 4
q-26 0 -55.5 -1t-40.5 -1q-16 0 -16 14q0 6 12 18l12 11q95 125 95 651q0 110 -9.5 205.5t-28 173.5t-50.5 123t-74 45q-87 0 -130.5 -176t-43.5 -494q0 -164 33.5 -310t82.5 -218q1 -2 7 -7.5t10 -11.5t4 -10q0 -14 -16 -14q-20 0 -54 1t-51 1q-133 0 -223 -4
q-19 -1 -36 -2t-25 -1.5t-11 -0.5q-11 0 -14 10l-35 229q-1 6 5.5 13.5t12.5 7.5q7 0 7 -4q10 -18 26.5 -49t30 -56.5t27.5 -48.5q6 -9 23 -20.5t28 -14.5q50 -18 141 -18q7 0 11 5.5t2.5 13.5t-9.5 14q-39 34 -75 82.5t-70 114.5t-54 153.5t-20 181.5z" />
    <glyph glyph-name="estimated" unicode="&#x212e;" horiz-adv-x="1665" 
d="M1528 588h-1122q-9 0 -9 -8v-338q0 -24 15 -39q177 -183 422 -183q132 0 248 55.5t200 151.5h98q-96 -111 -240.5 -177t-308.5 -66q-187 0 -345.5 83t-250.5 226t-92 311t92.5 311t252 226.5t346.5 83.5q188 0 348 -83.5t253 -226.5t93 -311v-16zM1272 631v340
q0 24 -17 41q-85 82 -192.5 129t-226.5 47q-120 0 -229 -48.5t-193 -133.5q-17 -17 -17 -43v-332q0 -10 9 -10h860q6 0 6 10z" />
    <glyph glyph-name="partialdiff" unicode="&#x2202;" horiz-adv-x="899" 
d="M45 315v2q0 123 56 213t145 132.5t198 42.5q63 0 117.5 -30.5t75.5 -82.5q4 34 4 199q0 69 -17.5 157t-48.5 154q-88 190 -231 190q-63 0 -112 -18t-113 -57q-3 -2 -8.5 4.5t-8.5 15.5q-4 8 4 16q48 32 75.5 48t71 30.5t87.5 14.5q251 0 383 -205q113 -181 113 -465
q0 -120 -32 -257t-99 -241q-127 -194 -328 -194q-140 0 -236 88t-96 243zM272 317v-2q0 -292 117 -292q97 0 172 237q39 124 62 268q-13 46 -55.5 85.5t-92.5 39.5q-90 0 -146.5 -90.5t-56.5 -245.5z" />
    <glyph glyph-name="Delta" unicode="&#x2206;" horiz-adv-x="849" 
d="M408 1266h2q71 0 153 -4q12 -3 15 -9q43 -243 249 -1245q2 -5 -1.5 -10.5t-10.5 -5.5q-48 0 -244 4t-211 4q-219 0 -333 -6q-9 0 -14.5 13.5t-2.5 21.5q45 159 162 627t137 542q19 68 99 68zM569 82h2q25 0 19 24q-160 626 -232 945q-2 6 -5.5 21t-6.5 26h-8
q-4 -12 -10 -54q-22 -112 -91 -447t-98 -497q-5 -22 19 -22q57 -2 200 -2q114 3 211 6z" />
    <glyph glyph-name="product" unicode="&#x220f;" horiz-adv-x="1077" 
d="M690 506v2q0 34 -5 346t-5 320q0 12 -3 18t-6.5 7.5t-11.5 2.5q-76 10 -124 10l-93 -4q-12 0 -21 -7t-9 -15q-27 -616 -27 -649q0 -13 -6 -309.5t-4 -346.5q0 -9 2.5 -13.5t4.5 -5t11 -3.5l58 -23q10 -5 10 -16q0 -6 -4 -6q-86 4 -181 4q-136 0 -190 -4q-4 0 -4 10
q0 13 10 16l53 19q12 3 16.5 8.5t4.5 21.5q0 33 -1 307t-1 314q0 46 -7 350t-7 309q0 27 -5.5 36t-23.5 14l-49 12q-11 4 -11 18q0 13 9 13q57 0 246.5 -1t238.5 -1q59 0 236.5 1t222.5 1q6 0 6 -13q0 -6 -3.5 -12t-6.5 -6l-39 -10q-16 -3 -22 -11t-7 -34q-4 -55 -17 -318.5
t-16 -361.5q-12 -528 -12 -592q0 -23 2.5 -29.5t13.5 -11.5l64 -23q3 0 7.5 -5t4.5 -11q0 -10 -6 -10q-36 4 -178 4q-141 0 -199 -4q-4 0 -4 4q0 13 10 18l60 25q11 5 15 9.5t5 16.5q2 64 1.5 173t-2 270.5t-1.5 175.5z" />
    <glyph glyph-name="summation" unicode="&#x2211;" horiz-adv-x="856" 
d="M285 -219h-2q-57 0 -130 -1t-96 -1q-11 0 -14 1t-4.5 4t-4.5 14.5t-9 25.5q-13 26 -13 49q0 6 4 14q387 497 449 578q-44 68 -120 186.5t-140.5 219.5t-134.5 212q-21 31 -21 64q0 7 2 15t7.5 20.5t9 19l14 26t14.5 27.5q3 9 15 9q8 0 124.5 -1t204.5 -1q92 0 194.5 2
t106.5 2q16 0 19 -17q23 -144 37 -258q1 -5 -9 -11.5t-16 -6.5t-8 4l-115 221q-11 23 -31 23q-47 0 -227 -27q-20 -1 -44 -6.5t-28 -5.5l-2 -4q25 -49 54 -95q51 -89 129 -231t143 -256q-272 -399 -479 -676v-6h74q279 0 378 27q36 10 56 36l82 123q3 6 10 6q4 0 12.5 -6.5
t7.5 -11.5q-2 -20 -36 -297q-3 -18 -25 -18q-3 0 -20.5 1t-50.5 2t-79.5 2t-122.5 2t-165 1z" />
    <glyph glyph-name="minus" unicode="&#x2212;" 
d="M528 604v-2q0 -10 -3 -24.5t-7 -14.5q-57 -6 -230 -19.5t-188 -13.5q-16 0 -23 35.5t-7 59.5q0 8 6 8q145 -6 448 -23q4 0 4 -6z" />
    <glyph glyph-name="uni2215" unicode="&#x2215;" horiz-adv-x="126" 
d="M414 1229h2q8 0 4 -15q-243 -548 -547 -1220q-3 -6 -8 -6q-7 0 -13.5 0.5t-12.5 1.5t-9 2.5t-2 3.5q86 213 270.5 691t198.5 515q7 18 34.5 23.5t82.5 3.5z" />
    <glyph glyph-name="uni2219" unicode="&#x2219;" horiz-adv-x="305" 
d="M154 741h2q35 0 60.5 -27.5t25.5 -72.5q0 -34 -26 -60t-64 -26q-39 0 -64 25.5t-25 62.5q0 40 25 69t66 29z" />
    <glyph glyph-name="radical" unicode="&#x221a;" horiz-adv-x="819" 
d="M748 1538h2q35 0 57 -25q14 -14 14 -38q1 -14 -8 -68q-83 -538 -252 -1503q-5 -28 -23.5 -37.5t-74.5 -9.5h-47q-15 0 -21 12q-130 406 -266 774q-8 24 -27 21l-65 -17q-19 -3 -25 12q-1 6 6 15t15 12q138 52 256 117q5 1 10.5 -4t5.5 -8q20 -102 98 -407t93 -376
q1 -4 12 -53h10q7 47 12 86q128 955 191 1481q2 16 27 16z" />
    <glyph glyph-name="infinity" unicode="&#x221e;" horiz-adv-x="1132" 
d="M61 545v2q0 112 69 176.5t179 64.5q78 0 139.5 -43.5t124.5 -126.5q3 3 20 23t22.5 26.5t23 24.5t27 25.5t27.5 21.5t33 20.5t34 14.5t39.5 11t42.5 3q100 0 164.5 -62t64.5 -173q0 -110 -65.5 -180t-174.5 -70q-68 0 -129.5 39t-132.5 135q-67 -85 -129 -129.5
t-145 -44.5q-97 0 -165.5 65.5t-68.5 176.5zM158 541v-2q0 -63 44.5 -107.5t108.5 -44.5q31 0 58.5 11.5t57 39t45 44.5t48.5 57q-61 85 -92 113q-58 53 -123 53q-68 0 -107.5 -46t-39.5 -118zM975 543v2q0 67 -40.5 113.5t-107.5 46.5q-17 0 -34 -4.5t-30 -10t-29.5 -18.5
t-26 -20t-26.5 -25t-22.5 -24.5t-22.5 -27.5t-20 -24q70 -94 115 -129t105 -35q62 0 100.5 49.5t38.5 106.5z" />
    <glyph glyph-name="integral" unicode="&#x222b;" horiz-adv-x="585" 
d="M215 98l-31 623q-21 406 125 573q43 51 105 83t127 32t99 -21t34 -55q0 -30 -22 -49.5t-68 -19.5q-24 0 -47 9.5t-33 20.5q-5 6 -14 17.5t-14.5 18.5t-13.5 12.5t-16 5.5q-33 0 -51 -54q-20 -70 -10 -243l27 -504q27 -454 -121 -647q-46 -57 -104.5 -91t-118.5 -34
q-75 0 -116.5 24t-41.5 56q0 27 25 47t69 20q43 0 98 -49q31 -31 54 -31q16 0 32.5 19t20.5 55q13 60 6 182z" />
    <glyph glyph-name="approxequal" unicode="&#x2248;" 
d="M211 801h2q26 0 48.5 -14t55.5 -46q34 -34 53 -46.5t44 -12.5q30 0 48 36.5t21 90.5q0 4 12 7t21 3q2 0 2 -2q0 -39 -5 -75t-16 -71.5t-34 -57t-55 -21.5q-29 0 -54 13t-61 42q-32 27 -50.5 37t-39.5 10q-33 0 -57 -31t-29 -75q-3 -13 -33 -13q-4 0 -4 7q0 87 34 153
t97 66zM211 569h2q26 0 48.5 -14t55.5 -45q34 -34 53 -46.5t44 -12.5q30 0 48 36.5t21 90.5q0 4 12 7t21 3q2 0 2 -2q0 -40 -5 -76t-16 -71.5t-34 -57t-55 -21.5q-29 0 -54 13t-61 43q-32 27 -50.5 37t-39.5 10q-33 0 -57 -31.5t-29 -75.5q-2 -12 -33 -12q-4 0 -4 6
q0 87 34 153t97 66z" />
    <glyph glyph-name="notequal" unicode="&#x2260;" 
d="M70 702v3q0 8 6 8q11 0 223 -13q22 64 53 148q5 14 90 -2q15 0 15 -8q-13 -25 -36 -74.5t-32 -67.5q90 -4 135 -8q4 0 4 -6q0 -41 -10 -41q-2 0 -60.5 -5t-99.5 -7q-9 -20 -59 -123q171 -9 225 -12q4 0 4 -7q0 -11 -3 -26t-7 -15q-145 -13 -256 -18q-7 -15 -38.5 -80.5
t-47.5 -95.5q0 -2 -6 -2q-34 4 -33 8q38 94 62 166q-76 -6 -99 -6q-30 0 -30 92q0 8 6 8q9 -1 30.5 -2t58.5 -2.5t66 -3.5q23 60 39 113q-154 -11 -170 -11q-30 0 -30 90z" />
    <glyph glyph-name="lessequal" unicode="&#x2264;" 
d="M117 612v2q0 10 6 19q52 56 301 313q3 3 6 -2q21 -21 12 -35q-168 -246 -190 -286q86 -127 209 -281q7 -7 -12 -31q-3 -6 -7 -2q-22 21 -151 135t-168 152q-6 6 -6 16zM528 231v-2q0 -39 -10 -39q-364 -28 -418 -28q-30 0 -30 90q0 10 6 10q16 -1 212 -11t236 -11
q4 0 4 -9z" />
    <glyph glyph-name="greaterequal" unicode="&#x2265;" 
d="M483 643v-2q0 -10 -8 -18q-70 -76 -301 -314q-2 -2 -6 2q-7 7 -10.5 17.5t0.5 17.5q120 169 188 287q-26 39 -103.5 144.5t-97.5 135.5q-6 12 15 33q3 3 6 0q34 -36 165.5 -155t145.5 -132q6 -6 6 -16zM528 231v-2q0 -39 -10 -39q-364 -28 -418 -28q-30 0 -30 90
q0 10 6 10q16 -1 212 -11t236 -11q4 0 4 -9z" />
    <glyph glyph-name="lozenge" unicode="&#x25ca;" horiz-adv-x="815" 
d="M770 602l-287 -647h-153l-285 647l291 653h149zM643 600l-231 553h-6l-234 -547l236 -553h4z" />
    </font>
</defs>
</svg>
